<svg width="168" height="39" viewBox="0 0 168 39" fill="none" xmlns="http://www.w3.org/2000/svg">
<path d="M2.24 0.454C2.312 0.417999 2.39 0.399999 2.474 0.399999H3.446C3.566 0.399999 3.626 0.459999 3.626 0.579999V12.82C3.626 12.94 3.566 13 3.446 13H2.528C2.408 13 2.348 12.94 2.348 12.82V1.858C2.348 1.834 2.336 1.816 2.312 1.804C2.3 1.792 2.282 1.792 2.258 1.804L0.35 2.578L0.278 2.596C0.206 2.596 0.158 2.548 0.134 2.452L0.044 1.768V1.732C0.044 1.672 0.0860001 1.612 0.17 1.552L2.24 0.454ZM13.285 7.078C13.537 7.618 13.663 8.302 13.663 9.13C13.663 9.874 13.567 10.474 13.375 10.93C13.123 11.626 12.721 12.166 12.169 12.55C11.617 12.934 10.927 13.126 10.099 13.126C9.23497 13.126 8.50897 12.922 7.92097 12.514C7.33297 12.106 6.91897 11.53 6.67897 10.786C6.53497 10.306 6.46297 9.742 6.46297 9.094V3.478C6.46297 2.494 6.78697 1.714 7.43497 1.138C8.08297 0.55 8.92897 0.256 9.97297 0.256C10.993 0.256 11.815 0.538 12.439 1.102C13.063 1.666 13.375 2.41 13.375 3.334V3.586C13.375 3.706 13.315 3.766 13.195 3.766H12.277C12.157 3.766 12.097 3.706 12.097 3.586V3.442C12.097 2.83 11.899 2.332 11.503 1.948C11.107 1.564 10.597 1.372 9.97297 1.372C9.32497 1.372 8.79097 1.576 8.37097 1.984C7.95097 2.38 7.74097 2.908 7.74097 3.568V6.214C7.74097 6.238 7.75297 6.256 7.77697 6.268C7.80097 6.268 7.81897 6.256 7.83097 6.232C8.35897 5.512 9.15697 5.152 10.225 5.152C10.981 5.152 11.611 5.32 12.115 5.656C12.631 5.992 13.021 6.466 13.285 7.078ZM12.169 10.498C12.313 10.126 12.385 9.67 12.385 9.13C12.385 8.506 12.301 8.026 12.133 7.69C11.989 7.246 11.737 6.898 11.377 6.646C11.017 6.394 10.573 6.268 10.045 6.268C9.51697 6.268 9.07297 6.4 8.71297 6.664C8.35297 6.916 8.10097 7.27 7.95697 7.726C7.81297 8.098 7.74097 8.584 7.74097 9.184C7.74097 9.712 7.80097 10.15 7.92097 10.498C8.06497 10.954 8.31697 11.32 8.67697 11.596C9.04897 11.872 9.51097 12.01 10.063 12.01C10.579 12.01 11.023 11.884 11.395 11.632C11.767 11.368 12.025 10.99 12.169 10.498ZM15.2946 13C15.1626 13 15.1146 12.934 15.1506 12.802L19.1286 0.543999C19.1646 0.447999 19.2366 0.399999 19.3446 0.399999H20.2446C20.3766 0.399999 20.4246 0.465999 20.3886 0.598L16.4106 12.856C16.3746 12.952 16.3026 13 16.1946 13H15.2946ZM26.8217 13.18C25.6697 13.18 24.7517 12.85 24.0677 12.19C23.3837 11.53 23.0417 10.648 23.0417 9.544V3.856C23.0417 2.752 23.3837 1.876 24.0677 1.228C24.7517 0.567999 25.6697 0.237999 26.8217 0.237999C27.9857 0.237999 28.9157 0.567999 29.6117 1.228C30.3077 1.888 30.6557 2.764 30.6557 3.856V9.544C30.6557 10.648 30.3077 11.53 29.6117 12.19C28.9157 12.85 27.9857 13.18 26.8217 13.18ZM26.8217 12.064C27.5897 12.064 28.2077 11.842 28.6757 11.398C29.1437 10.954 29.3777 10.36 29.3777 9.616V3.802C29.3777 3.07 29.1437 2.482 28.6757 2.038C28.2197 1.594 27.6017 1.372 26.8217 1.372C26.0657 1.372 25.4597 1.594 25.0037 2.038C24.5477 2.482 24.3197 3.07 24.3197 3.802V9.616C24.3197 10.36 24.5477 10.954 25.0037 11.398C25.4597 11.842 26.0657 12.064 26.8217 12.064ZM39.6814 7.042C39.9214 7.63 40.0414 8.332 40.0414 9.148C40.0414 9.808 39.9514 10.39 39.7714 10.894C39.5314 11.614 39.1234 12.172 38.5474 12.568C37.9834 12.952 37.2814 13.144 36.4414 13.144C35.6014 13.144 34.8814 12.928 34.2814 12.496C33.6814 12.052 33.2674 11.458 33.0394 10.714C32.9314 10.378 32.8654 9.922 32.8414 9.346C32.8414 9.226 32.9014 9.166 33.0214 9.166H33.9394C34.0594 9.166 34.1194 9.226 34.1194 9.346C34.1434 9.694 34.1854 10.018 34.2454 10.318C34.3774 10.846 34.6294 11.266 35.0014 11.578C35.3854 11.878 35.8594 12.028 36.4234 12.028C37.5034 12.028 38.2054 11.548 38.5294 10.588C38.6734 10.192 38.7454 9.7 38.7454 9.112C38.7454 8.392 38.6494 7.804 38.4574 7.348C38.0734 6.484 37.3954 6.052 36.4234 6.052C36.2434 6.052 36.0214 6.118 35.7574 6.25C35.7094 6.274 35.6734 6.286 35.6494 6.286C35.6014 6.286 35.5594 6.256 35.5234 6.196L35.0554 5.566C34.9954 5.47 35.0014 5.386 35.0734 5.314L38.2414 1.606C38.2774 1.546 38.2654 1.516 38.2054 1.516H33.1294C33.0094 1.516 32.9494 1.456 32.9494 1.336V0.579999C32.9494 0.459999 33.0094 0.399999 33.1294 0.399999H39.7894C39.9094 0.399999 39.9694 0.459999 39.9694 0.579999V1.462C39.9694 1.522 39.9394 1.594 39.8794 1.678L36.9994 5.134C36.9754 5.158 36.9694 5.182 36.9814 5.206C36.9934 5.218 37.0174 5.224 37.0534 5.224C38.3374 5.308 39.2134 5.914 39.6814 7.042ZM41.9431 13C41.8111 13 41.7631 12.934 41.7991 12.802L45.7771 0.543999C45.8131 0.447999 45.8851 0.399999 45.9931 0.399999H46.8931C47.0251 0.399999 47.0731 0.465999 47.0371 0.598L43.0591 12.856C43.0231 12.952 42.9511 13 42.8431 13H41.9431ZM51.1481 11.794C51.1121 11.854 51.1241 11.884 51.1841 11.884H56.8361C56.9561 11.884 57.0161 11.944 57.0161 12.064V12.82C57.0161 12.94 56.9561 13 56.8361 13H49.6541C49.5341 13 49.4741 12.94 49.4741 12.82V12.064C49.4741 11.98 49.5041 11.908 49.5641 11.848C49.9721 11.368 50.8901 10.24 52.3181 8.464L53.6501 6.808C54.7781 5.38 55.3421 4.27 55.3421 3.478C55.3421 2.842 55.1261 2.332 54.6941 1.948C54.2621 1.564 53.6981 1.372 53.0021 1.372C52.3181 1.372 51.7661 1.57 51.3461 1.966C50.9261 2.35 50.7221 2.86 50.7341 3.496V4.054C50.7341 4.174 50.6741 4.234 50.5541 4.234H49.6181C49.4981 4.234 49.4381 4.174 49.4381 4.054V3.334C49.4621 2.41 49.8041 1.666 50.4641 1.102C51.1361 0.538 51.9821 0.256 53.0021 0.256C53.7221 0.256 54.3581 0.394 54.9101 0.669999C55.4621 0.945999 55.8881 1.33 56.1881 1.822C56.4881 2.302 56.6381 2.848 56.6381 3.46C56.6381 4.48 56.0741 5.71 54.9461 7.15C54.3581 7.906 53.2241 9.298 51.5441 11.326L51.1481 11.794ZM63.1205 13.18C61.9685 13.18 61.0505 12.85 60.3665 12.19C59.6825 11.53 59.3405 10.648 59.3405 9.544V3.856C59.3405 2.752 59.6825 1.876 60.3665 1.228C61.0505 0.567999 61.9685 0.237999 63.1205 0.237999C64.2845 0.237999 65.2145 0.567999 65.9105 1.228C66.6065 1.888 66.9545 2.764 66.9545 3.856V9.544C66.9545 10.648 66.6065 11.53 65.9105 12.19C65.2145 12.85 64.2845 13.18 63.1205 13.18ZM63.1205 12.064C63.8885 12.064 64.5065 11.842 64.9745 11.398C65.4425 10.954 65.6765 10.36 65.6765 9.616V3.802C65.6765 3.07 65.4425 2.482 64.9745 2.038C64.5185 1.594 63.9005 1.372 63.1205 1.372C62.3645 1.372 61.7585 1.594 61.3025 2.038C60.8465 2.482 60.6185 3.07 60.6185 3.802V9.616C60.6185 10.36 60.8465 10.954 61.3025 11.398C61.7585 11.842 62.3645 12.064 63.1205 12.064ZM70.9762 11.794C70.9402 11.854 70.9522 11.884 71.0122 11.884H76.6642C76.7842 11.884 76.8442 11.944 76.8442 12.064V12.82C76.8442 12.94 76.7842 13 76.6642 13H69.4822C69.3622 13 69.3022 12.94 69.3022 12.82V12.064C69.3022 11.98 69.3322 11.908 69.3922 11.848C69.8002 11.368 70.7182 10.24 72.1462 8.464L73.4782 6.808C74.6062 5.38 75.1702 4.27 75.1702 3.478C75.1702 2.842 74.9542 2.332 74.5222 1.948C74.0902 1.564 73.5262 1.372 72.8302 1.372C72.1462 1.372 71.5942 1.57 71.1742 1.966C70.7542 2.35 70.5502 2.86 70.5622 3.496V4.054C70.5622 4.174 70.5022 4.234 70.3822 4.234H69.4462C69.3262 4.234 69.2662 4.174 69.2662 4.054V3.334C69.2902 2.41 69.6322 1.666 70.2922 1.102C70.9642 0.538 71.8102 0.256 72.8302 0.256C73.5502 0.256 74.1862 0.394 74.7382 0.669999C75.2902 0.945999 75.7162 1.33 76.0162 1.822C76.3162 2.302 76.4662 2.848 76.4662 3.46C76.4662 4.48 75.9022 5.71 74.7742 7.15C74.1862 7.906 73.0522 9.298 71.3722 11.326L70.9762 11.794ZM80.6266 11.794C80.5906 11.854 80.6026 11.884 80.6626 11.884H86.3146C86.4346 11.884 86.4946 11.944 86.4946 12.064V12.82C86.4946 12.94 86.4346 13 86.3146 13H79.1326C79.0126 13 78.9526 12.94 78.9526 12.82V12.064C78.9526 11.98 78.9826 11.908 79.0426 11.848C79.4506 11.368 80.3686 10.24 81.7966 8.464L83.1286 6.808C84.2566 5.38 84.8206 4.27 84.8206 3.478C84.8206 2.842 84.6046 2.332 84.1726 1.948C83.7406 1.564 83.1766 1.372 82.4806 1.372C81.7966 1.372 81.2446 1.57 80.8246 1.966C80.4046 2.35 80.2006 2.86 80.2126 3.496V4.054C80.2126 4.174 80.1526 4.234 80.0326 4.234H79.0966C78.9766 4.234 78.9166 4.174 78.9166 4.054V3.334C78.9406 2.41 79.2826 1.666 79.9426 1.102C80.6146 0.538 81.4606 0.256 82.4806 0.256C83.2006 0.256 83.8366 0.394 84.3886 0.669999C84.9406 0.945999 85.3666 1.33 85.6666 1.822C85.9666 2.302 86.1166 2.848 86.1166 3.46C86.1166 4.48 85.5526 5.71 84.4246 7.15C83.8366 7.906 82.7026 9.298 81.0226 11.326L80.6266 11.794ZM90.583 6.7C90.283 6.7 90.037 6.604 89.845 6.412C89.665 6.22 89.575 5.98 89.575 5.692C89.575 5.392 89.665 5.152 89.845 4.972C90.037 4.78 90.283 4.684 90.583 4.684C90.871 4.684 91.111 4.78 91.303 4.972C91.495 5.152 91.591 5.392 91.591 5.692C91.591 5.98 91.495 6.22 91.303 6.412C91.111 6.604 90.871 6.7 90.583 6.7ZM90.583 12.766C90.283 12.766 90.037 12.67 89.845 12.478C89.665 12.286 89.575 12.046 89.575 11.758C89.575 11.458 89.665 11.218 89.845 11.038C90.037 10.846 90.283 10.75 90.583 10.75C90.871 10.75 91.111 10.846 91.303 11.038C91.495 11.218 91.591 11.458 91.591 11.758C91.591 12.046 91.495 12.286 91.303 12.478C91.111 12.67 90.871 12.766 90.583 12.766ZM8.036 35C7.928 35 7.856 34.958 7.82 34.874L5.174 29.294C5.162 29.258 5.138 29.24 5.102 29.24H2.042C1.994 29.24 1.97 29.264 1.97 29.312V34.82C1.97 34.94 1.91 35 1.79 35H0.872C0.752 35 0.692 34.94 0.692 34.82V22.58C0.692 22.46 0.752 22.4 0.872 22.4H5.534C6.566 22.4 7.4 22.724 8.036 23.372C8.672 24.008 8.99 24.842 8.99 25.874C8.99 26.714 8.762 27.428 8.306 28.016C7.85 28.604 7.232 28.982 6.452 29.15C6.404 29.174 6.392 29.204 6.416 29.24L9.116 34.784C9.128 34.808 9.134 34.838 9.134 34.874C9.134 34.958 9.086 35 8.99 35H8.036ZM2.042 23.516C1.994 23.516 1.97 23.54 1.97 23.588V28.142C1.97 28.19 1.994 28.214 2.042 28.214H5.39C6.086 28.214 6.65 27.998 7.082 27.566C7.514 27.134 7.73 26.57 7.73 25.874C7.73 25.178 7.514 24.614 7.082 24.182C6.65 23.738 6.086 23.516 5.39 23.516H2.042ZM18.3928 28.916C18.4408 29.252 18.4648 29.672 18.4648 30.176V30.752C18.4648 30.872 18.4048 30.932 18.2848 30.932H12.4708C12.4228 30.932 12.3988 30.956 12.3988 31.004C12.4228 31.664 12.4588 32.09 12.5068 32.282C12.6388 32.822 12.9208 33.248 13.3528 33.56C13.7848 33.872 14.3368 34.028 15.0088 34.028C15.5128 34.028 15.9568 33.914 16.3408 33.686C16.7248 33.458 17.0248 33.134 17.2408 32.714C17.3128 32.606 17.3968 32.582 17.4928 32.642L18.1948 33.056C18.2908 33.116 18.3148 33.2 18.2668 33.308C17.9668 33.884 17.5168 34.34 16.9168 34.676C16.3168 35 15.6268 35.162 14.8468 35.162C13.9948 35.15 13.2808 34.946 12.7048 34.55C12.1288 34.154 11.7148 33.602 11.4628 32.894C11.2468 32.318 11.1388 31.49 11.1388 30.41C11.1388 29.906 11.1448 29.498 11.1567 29.186C11.1808 28.862 11.2288 28.574 11.3008 28.322C11.5048 27.542 11.9128 26.918 12.5248 26.45C13.1488 25.982 13.8988 25.748 14.7748 25.748C15.8668 25.748 16.7068 26.024 17.2948 26.576C17.8828 27.128 18.2488 27.908 18.3928 28.916ZM14.7748 26.864C14.1868 26.864 13.6948 27.02 13.2988 27.332C12.9148 27.632 12.6628 28.04 12.5428 28.556C12.4708 28.808 12.4228 29.216 12.3988 29.78C12.3988 29.828 12.4228 29.852 12.4708 29.852H17.1328C17.1808 29.852 17.2048 29.828 17.2048 29.78C17.1808 29.24 17.1448 28.856 17.0968 28.628C16.9648 28.088 16.6948 27.662 16.2868 27.35C15.8908 27.026 15.3868 26.864 14.7748 26.864ZM21.1864 35C21.0664 35 21.0064 34.94 21.0064 34.82V22.58C21.0064 22.46 21.0664 22.4 21.1864 22.4H22.1044C22.2244 22.4 22.2844 22.46 22.2844 22.58V34.82C22.2844 34.94 22.2244 35 22.1044 35H21.1864ZM26.0188 24.236C25.7308 24.236 25.4908 24.14 25.2988 23.948C25.1068 23.756 25.0108 23.516 25.0108 23.228C25.0108 22.928 25.1068 22.688 25.2988 22.508C25.4908 22.316 25.7308 22.22 26.0188 22.22C26.3068 22.22 26.5468 22.316 26.7388 22.508C26.9308 22.688 27.0268 22.928 27.0268 23.228C27.0268 23.516 26.9308 23.756 26.7388 23.948C26.5468 24.14 26.3068 24.236 26.0188 24.236ZM25.5148 34.982C25.3948 34.982 25.3348 34.922 25.3348 34.802V26.054C25.3348 25.934 25.3948 25.874 25.5148 25.874H26.4328C26.5528 25.874 26.6128 25.934 26.6128 26.054V34.802C26.6128 34.922 26.5528 34.982 26.4328 34.982H25.5148ZM32.8927 25.748C33.9727 25.748 34.8067 26.024 35.3947 26.576C35.9827 27.128 36.2767 27.86 36.2767 28.772V34.82C36.2767 34.94 36.2167 35 36.0967 35H35.1787C35.0587 35 34.9987 34.94 34.9987 34.82V34.082C34.9987 34.058 34.9867 34.04 34.9627 34.028C34.9507 34.016 34.9327 34.022 34.9087 34.046C34.6087 34.406 34.2187 34.682 33.7387 34.874C33.2587 35.054 32.7247 35.144 32.1367 35.144C31.2847 35.144 30.5707 34.928 29.9947 34.496C29.4187 34.064 29.1307 33.404 29.1307 32.516C29.1307 31.616 29.4547 30.908 30.1027 30.392C30.7627 29.864 31.6747 29.6 32.8387 29.6H34.9267C34.9747 29.6 34.9987 29.576 34.9987 29.528V28.844C34.9987 28.232 34.8247 27.752 34.4767 27.404C34.1407 27.044 33.6127 26.864 32.8927 26.864C32.3167 26.864 31.8487 26.978 31.4887 27.206C31.1287 27.422 30.9067 27.728 30.8227 28.124C30.7867 28.244 30.7147 28.298 30.6067 28.286L29.6347 28.16C29.5027 28.136 29.4487 28.088 29.4727 28.016C29.5687 27.344 29.9287 26.798 30.5527 26.378C31.1767 25.958 31.9567 25.748 32.8927 25.748ZM32.3887 34.046C33.0967 34.046 33.7087 33.872 34.2247 33.524C34.7407 33.164 34.9987 32.684 34.9987 32.084V30.68C34.9987 30.632 34.9747 30.608 34.9267 30.608H33.0367C32.2447 30.608 31.6087 30.77 31.1287 31.094C30.6487 31.418 30.4087 31.868 30.4087 32.444C30.4087 32.972 30.5887 33.374 30.9487 33.65C31.3207 33.914 31.8007 34.046 32.3887 34.046ZM45.9381 28.214C46.0821 28.754 46.1541 29.498 46.1541 30.446C46.1541 31.43 46.0701 32.192 45.9021 32.732C45.6741 33.476 45.2781 34.064 44.7141 34.496C44.1501 34.928 43.4481 35.144 42.6081 35.144C42.1281 35.144 41.6901 35.048 41.2941 34.856C40.8981 34.664 40.5681 34.388 40.3041 34.028C40.2921 34.004 40.2741 33.998 40.2501 34.01C40.2261 34.01 40.2141 34.022 40.2141 34.046V34.82C40.2141 34.94 40.1541 35 40.0341 35H39.1161C38.9961 35 38.9361 34.94 38.9361 34.82V22.58C38.9361 22.46 38.9961 22.4 39.1161 22.4H40.0341C40.1541 22.4 40.2141 22.46 40.2141 22.58V26.828C40.2141 26.852 40.2201 26.87 40.2321 26.882C40.2561 26.882 40.2801 26.87 40.3041 26.846C40.5681 26.498 40.8981 26.228 41.2941 26.036C41.6901 25.844 42.1281 25.748 42.6081 25.748C43.4601 25.748 44.1741 25.97 44.7501 26.414C45.3261 26.846 45.7221 27.446 45.9381 28.214ZM44.5521 32.624C44.6721 32.372 44.7561 32.09 44.8041 31.778C44.8521 31.454 44.8761 31.01 44.8761 30.446C44.8761 29.858 44.8401 29.402 44.7681 29.078C44.7081 28.742 44.6061 28.442 44.4621 28.178C44.3061 27.782 44.0541 27.464 43.7061 27.224C43.3581 26.984 42.9441 26.864 42.4641 26.864C42.0081 26.864 41.6121 26.99 41.2761 27.242C40.9521 27.482 40.7181 27.806 40.5741 28.214C40.4541 28.466 40.3641 28.754 40.3041 29.078C40.2561 29.402 40.2321 29.858 40.2321 30.446C40.2321 31.022 40.2561 31.472 40.3041 31.796C40.3641 32.108 40.4481 32.39 40.5561 32.642C40.7121 33.062 40.9521 33.398 41.2761 33.65C41.6001 33.902 42.0021 34.028 42.4821 34.028C42.9861 34.028 43.4181 33.902 43.7781 33.65C44.1501 33.398 44.4081 33.056 44.5521 32.624ZM49.6263 24.236C49.3383 24.236 49.0983 24.14 48.9063 23.948C48.7143 23.756 48.6183 23.516 48.6183 23.228C48.6183 22.928 48.7143 22.688 48.9063 22.508C49.0983 22.316 49.3383 22.22 49.6263 22.22C49.9143 22.22 50.1543 22.316 50.3463 22.508C50.5383 22.688 50.6343 22.928 50.6343 23.228C50.6343 23.516 50.5383 23.756 50.3463 23.948C50.1543 24.14 49.9143 24.236 49.6263 24.236ZM49.1223 34.982C49.0023 34.982 48.9423 34.922 48.9423 34.802V26.054C48.9423 25.934 49.0023 25.874 49.1223 25.874H50.0403C50.1603 25.874 50.2203 25.934 50.2203 26.054V34.802C50.2203 34.922 50.1603 34.982 50.0403 34.982H49.1223ZM53.5302 35C53.4102 35 53.3502 34.94 53.3502 34.82V22.58C53.3502 22.46 53.4102 22.4 53.5302 22.4H54.4482C54.5682 22.4 54.6282 22.46 54.6282 22.58V34.82C54.6282 34.94 54.5682 35 54.4482 35H53.5302ZM58.3626 24.236C58.0746 24.236 57.8346 24.14 57.6426 23.948C57.4506 23.756 57.3546 23.516 57.3546 23.228C57.3546 22.928 57.4506 22.688 57.6426 22.508C57.8346 22.316 58.0746 22.22 58.3626 22.22C58.6506 22.22 58.8906 22.316 59.0826 22.508C59.2746 22.688 59.3706 22.928 59.3706 23.228C59.3706 23.516 59.2746 23.756 59.0826 23.948C58.8906 24.14 58.6506 24.236 58.3626 24.236ZM57.8586 34.982C57.7386 34.982 57.6786 34.922 57.6786 34.802V26.054C57.6786 25.934 57.7386 25.874 57.8586 25.874H58.7766C58.8966 25.874 58.9566 25.934 58.9566 26.054V34.802C58.9566 34.922 58.8966 34.982 58.7766 34.982H57.8586ZM66.1725 26.774C66.1725 26.894 66.1125 26.954 65.9925 26.954H63.9585C63.9105 26.954 63.8865 26.978 63.8865 27.026V32.336C63.8865 32.912 64.0125 33.32 64.2645 33.56C64.5285 33.788 64.9365 33.902 65.4885 33.902H65.9385C66.0585 33.902 66.1185 33.962 66.1185 34.082V34.82C66.1185 34.94 66.0585 35 65.9385 35C65.7945 35.012 65.5725 35.018 65.2725 35.018C64.4085 35.018 63.7545 34.856 63.3105 34.532C62.8665 34.208 62.6445 33.608 62.6445 32.732V27.026C62.6445 26.978 62.6205 26.954 62.5725 26.954H61.4745C61.3545 26.954 61.2945 26.894 61.2945 26.774V26.072C61.2945 25.952 61.3545 25.892 61.4745 25.892H62.5725C62.6205 25.892 62.6445 25.868 62.6445 25.82V23.732C62.6445 23.612 62.7045 23.552 62.8245 23.552H63.7065C63.8265 23.552 63.8865 23.612 63.8865 23.732V25.82C63.8865 25.868 63.9105 25.892 63.9585 25.892H65.9925C66.1125 25.892 66.1725 25.952 66.1725 26.072V26.774ZM68.2291 38.6C68.1451 38.6 68.1031 38.54 68.1031 38.42V37.7C68.1031 37.58 68.1631 37.52 68.2831 37.52H68.3551C68.8231 37.508 69.1831 37.436 69.4351 37.304C69.6991 37.184 69.9211 36.95 70.1011 36.602C70.2931 36.266 70.4971 35.75 70.7131 35.054C70.7371 35.006 70.7371 34.97 70.7131 34.946L67.6711 26.09L67.6531 26.018C67.6531 25.934 67.7071 25.892 67.8151 25.892H68.7691C68.8771 25.892 68.9491 25.94 68.9851 26.036L71.3251 33.308C71.3371 33.332 71.3551 33.344 71.3791 33.344C71.4031 33.344 71.4211 33.332 71.4331 33.308L73.7371 26.036C73.7731 25.94 73.8451 25.892 73.9531 25.892H74.8891C75.0211 25.892 75.0691 25.958 75.0331 26.09L71.7031 35.792C71.4151 36.596 71.1451 37.19 70.8931 37.574C70.6411 37.958 70.3231 38.222 69.9391 38.366C69.5671 38.522 69.0391 38.6 68.3551 38.6H68.2291ZM83.6935 25.748C84.7735 25.748 85.6075 26.024 86.1955 26.576C86.7835 27.128 87.0775 27.86 87.0775 28.772V34.82C87.0775 34.94 87.0175 35 86.8975 35H85.9795C85.8595 35 85.7995 34.94 85.7995 34.82V34.082C85.7995 34.058 85.7875 34.04 85.7635 34.028C85.7515 34.016 85.7335 34.022 85.7095 34.046C85.4095 34.406 85.0195 34.682 84.5395 34.874C84.0595 35.054 83.5255 35.144 82.9375 35.144C82.0855 35.144 81.3715 34.928 80.7955 34.496C80.2195 34.064 79.9315 33.404 79.9315 32.516C79.9315 31.616 80.2555 30.908 80.9035 30.392C81.5635 29.864 82.4755 29.6 83.6395 29.6H85.7275C85.7755 29.6 85.7995 29.576 85.7995 29.528V28.844C85.7995 28.232 85.6255 27.752 85.2775 27.404C84.9415 27.044 84.4135 26.864 83.6935 26.864C83.1175 26.864 82.6495 26.978 82.2895 27.206C81.9295 27.422 81.7075 27.728 81.6235 28.124C81.5875 28.244 81.5155 28.298 81.4075 28.286L80.4355 28.16C80.3035 28.136 80.2495 28.088 80.2735 28.016C80.3695 27.344 80.7295 26.798 81.3535 26.378C81.9775 25.958 82.7575 25.748 83.6935 25.748ZM83.1895 34.046C83.8975 34.046 84.5095 33.872 85.0255 33.524C85.5415 33.164 85.7995 32.684 85.7995 32.084V30.68C85.7995 30.632 85.7755 30.608 85.7275 30.608H83.8375C83.0455 30.608 82.4095 30.77 81.9295 31.094C81.4495 31.418 81.2095 31.868 81.2095 32.444C81.2095 32.972 81.3895 33.374 81.7495 33.65C82.1215 33.914 82.6015 34.046 83.1895 34.046ZM93.5169 25.766C94.4769 25.766 95.2389 26.048 95.8029 26.612C96.3789 27.176 96.6669 27.932 96.6669 28.88V34.82C96.6669 34.94 96.6069 35 96.4869 35H95.5689C95.4489 35 95.3889 34.94 95.3889 34.82V29.132C95.3889 28.472 95.1849 27.932 94.7769 27.512C94.3809 27.092 93.8649 26.882 93.2289 26.882C92.5689 26.882 92.0349 27.086 91.6269 27.494C91.2189 27.902 91.0149 28.436 91.0149 29.096V34.82C91.0149 34.94 90.9549 35 90.8349 35H89.9169C89.7969 35 89.7369 34.94 89.7369 34.82V26.072C89.7369 25.952 89.7969 25.892 89.9169 25.892H90.8349C90.9549 25.892 91.0149 25.952 91.0149 26.072V26.846C91.0149 26.87 91.0209 26.888 91.0329 26.9C91.0569 26.912 91.0749 26.906 91.0869 26.882C91.6149 26.138 92.4249 25.766 93.5169 25.766ZM104.969 22.58C104.969 22.46 105.029 22.4 105.149 22.4H106.067C106.187 22.4 106.247 22.46 106.247 22.58V34.82C106.247 34.94 106.187 35 106.067 35H105.149C105.029 35 104.969 34.94 104.969 34.82V34.064C104.969 34.04 104.957 34.028 104.933 34.028C104.921 34.016 104.903 34.022 104.879 34.046C104.615 34.394 104.285 34.664 103.889 34.856C103.505 35.048 103.073 35.144 102.593 35.144C101.753 35.144 101.045 34.928 100.469 34.496C99.905 34.064 99.515 33.476 99.299 32.732C99.131 32.192 99.047 31.43 99.047 30.446C99.047 29.45 99.119 28.706 99.263 28.214C99.479 27.446 99.875 26.846 100.451 26.414C101.027 25.97 101.741 25.748 102.593 25.748C103.061 25.748 103.493 25.844 103.889 26.036C104.285 26.216 104.615 26.48 104.879 26.828C104.903 26.852 104.921 26.864 104.933 26.864C104.957 26.852 104.969 26.834 104.969 26.81V22.58ZM104.645 32.642C104.753 32.402 104.831 32.12 104.879 31.796C104.927 31.472 104.951 31.022 104.951 30.446C104.951 29.87 104.927 29.42 104.879 29.096C104.831 28.76 104.747 28.466 104.627 28.214C104.483 27.806 104.243 27.482 103.907 27.242C103.583 26.99 103.193 26.864 102.737 26.864C102.257 26.864 101.843 26.984 101.495 27.224C101.147 27.464 100.895 27.782 100.739 28.178C100.595 28.442 100.487 28.742 100.415 29.078C100.355 29.402 100.325 29.858 100.325 30.446C100.325 31.01 100.349 31.454 100.397 31.778C100.445 32.09 100.529 32.372 100.649 32.624C100.793 33.056 101.045 33.398 101.405 33.65C101.777 33.902 102.215 34.028 102.719 34.028C103.199 34.028 103.601 33.902 103.925 33.65C104.249 33.398 104.489 33.062 104.645 32.642ZM116.095 35C115.987 35 115.915 34.952 115.879 34.856L111.955 22.598L111.937 22.526C111.937 22.442 111.991 22.4 112.099 22.4H113.071C113.179 22.4 113.251 22.448 113.287 22.544L116.563 33.092C116.575 33.116 116.593 33.128 116.617 33.128C116.641 33.128 116.659 33.116 116.671 33.092L119.947 22.544C119.983 22.448 120.055 22.4 120.163 22.4H121.117C121.249 22.4 121.297 22.466 121.261 22.598L117.301 34.856C117.265 34.952 117.193 35 117.085 35H116.095ZM125.635 25.748C126.715 25.748 127.549 26.024 128.137 26.576C128.725 27.128 129.019 27.86 129.019 28.772V34.82C129.019 34.94 128.959 35 128.839 35H127.921C127.801 35 127.741 34.94 127.741 34.82V34.082C127.741 34.058 127.729 34.04 127.705 34.028C127.693 34.016 127.675 34.022 127.651 34.046C127.351 34.406 126.961 34.682 126.481 34.874C126.001 35.054 125.467 35.144 124.879 35.144C124.027 35.144 123.313 34.928 122.737 34.496C122.161 34.064 121.873 33.404 121.873 32.516C121.873 31.616 122.197 30.908 122.845 30.392C123.505 29.864 124.417 29.6 125.581 29.6H127.669C127.717 29.6 127.741 29.576 127.741 29.528V28.844C127.741 28.232 127.567 27.752 127.219 27.404C126.883 27.044 126.355 26.864 125.635 26.864C125.059 26.864 124.591 26.978 124.231 27.206C123.871 27.422 123.649 27.728 123.565 28.124C123.529 28.244 123.457 28.298 123.349 28.286L122.377 28.16C122.245 28.136 122.191 28.088 122.215 28.016C122.311 27.344 122.671 26.798 123.295 26.378C123.919 25.958 124.699 25.748 125.635 25.748ZM125.131 34.046C125.839 34.046 126.451 33.872 126.967 33.524C127.483 33.164 127.741 32.684 127.741 32.084V30.68C127.741 30.632 127.717 30.608 127.669 30.608H125.779C124.987 30.608 124.351 30.77 123.871 31.094C123.391 31.418 123.151 31.868 123.151 32.444C123.151 32.972 123.331 33.374 123.691 33.65C124.063 33.914 124.543 34.046 125.131 34.046ZM131.858 35C131.738 35 131.678 34.94 131.678 34.82V22.58C131.678 22.46 131.738 22.4 131.858 22.4H132.776C132.896 22.4 132.956 22.46 132.956 22.58V34.82C132.956 34.94 132.896 35 132.776 35H131.858ZM136.691 24.236C136.403 24.236 136.163 24.14 135.971 23.948C135.779 23.756 135.683 23.516 135.683 23.228C135.683 22.928 135.779 22.688 135.971 22.508C136.163 22.316 136.403 22.22 136.691 22.22C136.979 22.22 137.219 22.316 137.411 22.508C137.603 22.688 137.699 22.928 137.699 23.228C137.699 23.516 137.603 23.756 137.411 23.948C137.219 24.14 136.979 24.236 136.691 24.236ZM136.187 34.982C136.067 34.982 136.007 34.922 136.007 34.802V26.054C136.007 25.934 136.067 25.874 136.187 25.874H137.105C137.225 25.874 137.285 25.934 137.285 26.054V34.802C137.285 34.922 137.225 34.982 137.105 34.982H136.187ZM146.067 22.58C146.067 22.46 146.127 22.4 146.247 22.4H147.165C147.285 22.4 147.345 22.46 147.345 22.58V34.82C147.345 34.94 147.285 35 147.165 35H146.247C146.127 35 146.067 34.94 146.067 34.82V34.064C146.067 34.04 146.055 34.028 146.031 34.028C146.019 34.016 146.001 34.022 145.977 34.046C145.713 34.394 145.383 34.664 144.987 34.856C144.603 35.048 144.171 35.144 143.691 35.144C142.851 35.144 142.143 34.928 141.567 34.496C141.003 34.064 140.613 33.476 140.397 32.732C140.229 32.192 140.145 31.43 140.145 30.446C140.145 29.45 140.217 28.706 140.361 28.214C140.577 27.446 140.973 26.846 141.549 26.414C142.125 25.97 142.839 25.748 143.691 25.748C144.159 25.748 144.591 25.844 144.987 26.036C145.383 26.216 145.713 26.48 145.977 26.828C146.001 26.852 146.019 26.864 146.031 26.864C146.055 26.852 146.067 26.834 146.067 26.81V22.58ZM145.743 32.642C145.851 32.402 145.929 32.12 145.977 31.796C146.025 31.472 146.049 31.022 146.049 30.446C146.049 29.87 146.025 29.42 145.977 29.096C145.929 28.76 145.845 28.466 145.725 28.214C145.581 27.806 145.341 27.482 145.005 27.242C144.681 26.99 144.291 26.864 143.835 26.864C143.355 26.864 142.941 26.984 142.593 27.224C142.245 27.464 141.993 27.782 141.837 28.178C141.693 28.442 141.585 28.742 141.513 29.078C141.453 29.402 141.423 29.858 141.423 30.446C141.423 31.01 141.447 31.454 141.495 31.778C141.543 32.09 141.627 32.372 141.747 32.624C141.891 33.056 142.143 33.398 142.503 33.65C142.875 33.902 143.313 34.028 143.817 34.028C144.297 34.028 144.699 33.902 145.023 33.65C145.347 33.398 145.587 33.062 145.743 32.642ZM151.105 24.236C150.817 24.236 150.577 24.14 150.385 23.948C150.193 23.756 150.097 23.516 150.097 23.228C150.097 22.928 150.193 22.688 150.385 22.508C150.577 22.316 150.817 22.22 151.105 22.22C151.393 22.22 151.633 22.316 151.825 22.508C152.017 22.688 152.113 22.928 152.113 23.228C152.113 23.516 152.017 23.756 151.825 23.948C151.633 24.14 151.393 24.236 151.105 24.236ZM150.601 34.982C150.481 34.982 150.421 34.922 150.421 34.802V26.054C150.421 25.934 150.481 25.874 150.601 25.874H151.519C151.639 25.874 151.699 25.934 151.699 26.054V34.802C151.699 34.922 151.639 34.982 151.519 34.982H150.601ZM158.915 26.774C158.915 26.894 158.855 26.954 158.735 26.954H156.701C156.653 26.954 156.629 26.978 156.629 27.026V32.336C156.629 32.912 156.755 33.32 157.007 33.56C157.271 33.788 157.679 33.902 158.231 33.902H158.681C158.801 33.902 158.861 33.962 158.861 34.082V34.82C158.861 34.94 158.801 35 158.681 35C158.537 35.012 158.315 35.018 158.015 35.018C157.151 35.018 156.497 34.856 156.053 34.532C155.609 34.208 155.387 33.608 155.387 32.732V27.026C155.387 26.978 155.363 26.954 155.315 26.954H154.217C154.097 26.954 154.037 26.894 154.037 26.774V26.072C154.037 25.952 154.097 25.892 154.217 25.892H155.315C155.363 25.892 155.387 25.868 155.387 25.82V23.732C155.387 23.612 155.447 23.552 155.567 23.552H156.449C156.569 23.552 156.629 23.612 156.629 23.732V25.82C156.629 25.868 156.653 25.892 156.701 25.892H158.735C158.855 25.892 158.915 25.952 158.915 26.072V26.774ZM160.971 38.6C160.887 38.6 160.845 38.54 160.845 38.42V37.7C160.845 37.58 160.905 37.52 161.025 37.52H161.097C161.565 37.508 161.925 37.436 162.177 37.304C162.441 37.184 162.663 36.95 162.843 36.602C163.035 36.266 163.239 35.75 163.455 35.054C163.479 35.006 163.479 34.97 163.455 34.946L160.413 26.09L160.395 26.018C160.395 25.934 160.449 25.892 160.557 25.892H161.511C161.619 25.892 161.691 25.94 161.727 26.036L164.067 33.308C164.079 33.332 164.097 33.344 164.121 33.344C164.145 33.344 164.163 33.332 164.175 33.308L166.479 26.036C166.515 25.94 166.587 25.892 166.695 25.892H167.631C167.763 25.892 167.811 25.958 167.775 26.09L164.445 35.792C164.157 36.596 163.887 37.19 163.635 37.574C163.383 37.958 163.065 38.222 162.681 38.366C162.309 38.522 161.781 38.6 161.097 38.6H160.971Z" fill="black"/>
<path d="M-1 14.8H93.643V15.7H-1V14.8Z" fill="black"/>
</svg>
