<svg width="166" height="39" viewBox="0 0 166 39" fill="none" xmlns="http://www.w3.org/2000/svg">
<path d="M4.058 13.18C2.906 13.18 1.988 12.85 1.304 12.19C0.62 11.53 0.278 10.648 0.278 9.544V3.856C0.278 2.752 0.62 1.876 1.304 1.228C1.988 0.567999 2.906 0.237999 4.058 0.237999C5.222 0.237999 6.152 0.567999 6.848 1.228C7.544 1.888 7.892 2.764 7.892 3.856V9.544C7.892 10.648 7.544 11.53 6.848 12.19C6.152 12.85 5.222 13.18 4.058 13.18ZM4.058 12.064C4.826 12.064 5.444 11.842 5.912 11.398C6.38 10.954 6.614 10.36 6.614 9.616V3.802C6.614 3.07 6.38 2.482 5.912 2.038C5.456 1.594 4.838 1.372 4.058 1.372C3.302 1.372 2.696 1.594 2.24 2.038C1.784 2.482 1.556 3.07 1.556 3.802V9.616C1.556 10.36 1.784 10.954 2.24 11.398C2.696 11.842 3.302 12.064 4.058 12.064ZM17.1697 2.614C17.3137 3.094 17.3857 3.658 17.3857 4.306V9.922C17.3857 10.906 17.0617 11.692 16.4137 12.28C15.7657 12.856 14.9197 13.144 13.8757 13.144C12.8677 13.144 12.0457 12.862 11.4097 12.298C10.7857 11.722 10.4737 10.978 10.4737 10.066V9.814C10.4737 9.694 10.5337 9.634 10.6537 9.634H11.5717C11.6917 9.634 11.7517 9.694 11.7517 9.814V9.958C11.7517 10.57 11.9497 11.068 12.3457 11.452C12.7417 11.836 13.2517 12.028 13.8757 12.028C14.5237 12.028 15.0577 11.83 15.4777 11.434C15.8977 11.026 16.1077 10.492 16.1077 9.832V7.204C16.1077 7.18 16.0957 7.168 16.0717 7.168C16.0477 7.156 16.0297 7.162 16.0177 7.186C15.4897 7.894 14.6977 8.248 13.6417 8.248C12.8857 8.248 12.2497 8.08 11.7337 7.744C11.2297 7.408 10.8457 6.934 10.5817 6.322C10.3297 5.818 10.2037 5.134 10.2037 4.27C10.2037 3.538 10.2937 2.938 10.4737 2.47C10.7257 1.774 11.1277 1.234 11.6797 0.85C12.2437 0.466 12.9337 0.274 13.7497 0.274C14.6137 0.274 15.3397 0.483999 15.9277 0.903999C16.5277 1.312 16.9417 1.882 17.1697 2.614ZM13.8037 7.132C14.3317 7.132 14.7757 7.006 15.1357 6.754C15.5077 6.49 15.7657 6.13 15.9097 5.674C16.0417 5.326 16.1077 4.84 16.1077 4.216C16.1077 3.7 16.0537 3.262 15.9457 2.902C15.8017 2.446 15.5437 2.08 15.1717 1.804C14.7997 1.528 14.3437 1.39 13.8037 1.39C13.2877 1.39 12.8437 1.522 12.4717 1.786C12.0997 2.038 11.8357 2.41 11.6797 2.902C11.5477 3.238 11.4817 3.694 11.4817 4.27C11.4817 4.882 11.5597 5.362 11.7157 5.71C11.8597 6.142 12.1117 6.49 12.4717 6.754C12.8317 7.006 13.2757 7.132 13.8037 7.132ZM19.3025 13C19.1705 13 19.1225 12.934 19.1585 12.802L23.1365 0.543999C23.1725 0.447999 23.2445 0.399999 23.3525 0.399999H24.2525C24.3845 0.399999 24.4325 0.465999 24.3965 0.598L20.4185 12.856C20.3825 12.952 20.3105 13 20.2025 13H19.3025ZM30.8295 13.18C29.6775 13.18 28.7595 12.85 28.0755 12.19C27.3915 11.53 27.0495 10.648 27.0495 9.544V3.856C27.0495 2.752 27.3915 1.876 28.0755 1.228C28.7595 0.567999 29.6775 0.237999 30.8295 0.237999C31.9935 0.237999 32.9235 0.567999 33.6195 1.228C34.3155 1.888 34.6635 2.764 34.6635 3.856V9.544C34.6635 10.648 34.3155 11.53 33.6195 12.19C32.9235 12.85 31.9935 13.18 30.8295 13.18ZM30.8295 12.064C31.5975 12.064 32.2155 11.842 32.6835 11.398C33.1515 10.954 33.3855 10.36 33.3855 9.616V3.802C33.3855 3.07 33.1515 2.482 32.6835 2.038C32.2275 1.594 31.6095 1.372 30.8295 1.372C30.0735 1.372 29.4675 1.594 29.0115 2.038C28.5555 2.482 28.3275 3.07 28.3275 3.802V9.616C28.3275 10.36 28.5555 10.954 29.0115 11.398C29.4675 11.842 30.0735 12.064 30.8295 12.064ZM43.6892 7.042C43.9292 7.63 44.0492 8.332 44.0492 9.148C44.0492 9.808 43.9592 10.39 43.7792 10.894C43.5392 11.614 43.1312 12.172 42.5552 12.568C41.9912 12.952 41.2892 13.144 40.4492 13.144C39.6092 13.144 38.8892 12.928 38.2892 12.496C37.6892 12.052 37.2752 11.458 37.0472 10.714C36.9392 10.378 36.8732 9.922 36.8492 9.346C36.8492 9.226 36.9092 9.166 37.0292 9.166H37.9472C38.0672 9.166 38.1272 9.226 38.1272 9.346C38.1512 9.694 38.1932 10.018 38.2532 10.318C38.3852 10.846 38.6372 11.266 39.0092 11.578C39.3932 11.878 39.8672 12.028 40.4312 12.028C41.5112 12.028 42.2132 11.548 42.5372 10.588C42.6812 10.192 42.7532 9.7 42.7532 9.112C42.7532 8.392 42.6572 7.804 42.4652 7.348C42.0812 6.484 41.4032 6.052 40.4312 6.052C40.2512 6.052 40.0292 6.118 39.7652 6.25C39.7172 6.274 39.6812 6.286 39.6572 6.286C39.6092 6.286 39.5672 6.256 39.5312 6.196L39.0632 5.566C39.0032 5.47 39.0092 5.386 39.0812 5.314L42.2492 1.606C42.2852 1.546 42.2732 1.516 42.2132 1.516H37.1372C37.0172 1.516 36.9572 1.456 36.9572 1.336V0.579999C36.9572 0.459999 37.0172 0.399999 37.1372 0.399999H43.7972C43.9172 0.399999 43.9772 0.459999 43.9772 0.579999V1.462C43.9772 1.522 43.9472 1.594 43.8872 1.678L41.0072 5.134C40.9832 5.158 40.9772 5.182 40.9892 5.206C41.0012 5.218 41.0252 5.224 41.0612 5.224C42.3452 5.308 43.2212 5.914 43.6892 7.042ZM45.9509 13C45.8189 13 45.7709 12.934 45.8069 12.802L49.7849 0.543999C49.8209 0.447999 49.8929 0.399999 50.0009 0.399999H50.9009C51.0329 0.399999 51.0809 0.465999 51.0449 0.598L47.0669 12.856C47.0309 12.952 46.9589 13 46.8509 13H45.9509ZM55.1559 11.794C55.1199 11.854 55.1319 11.884 55.1919 11.884H60.8439C60.9639 11.884 61.0239 11.944 61.0239 12.064V12.82C61.0239 12.94 60.9639 13 60.8439 13H53.6619C53.5419 13 53.4819 12.94 53.4819 12.82V12.064C53.4819 11.98 53.5119 11.908 53.5719 11.848C53.9799 11.368 54.8979 10.24 56.3259 8.464L57.6579 6.808C58.7859 5.38 59.3499 4.27 59.3499 3.478C59.3499 2.842 59.1339 2.332 58.7019 1.948C58.2699 1.564 57.7059 1.372 57.0099 1.372C56.3259 1.372 55.7739 1.57 55.3539 1.966C54.9339 2.35 54.7299 2.86 54.7419 3.496V4.054C54.7419 4.174 54.6819 4.234 54.5619 4.234H53.6259C53.5059 4.234 53.4459 4.174 53.4459 4.054V3.334C53.4699 2.41 53.8119 1.666 54.4719 1.102C55.1439 0.538 55.9899 0.256 57.0099 0.256C57.7299 0.256 58.3659 0.394 58.9179 0.669999C59.4699 0.945999 59.8959 1.33 60.1959 1.822C60.4959 2.302 60.6459 2.848 60.6459 3.46C60.6459 4.48 60.0819 5.71 58.9539 7.15C58.3659 7.906 57.2319 9.298 55.5519 11.326L55.1559 11.794ZM67.1283 13.18C65.9763 13.18 65.0583 12.85 64.3743 12.19C63.6903 11.53 63.3483 10.648 63.3483 9.544V3.856C63.3483 2.752 63.6903 1.876 64.3743 1.228C65.0583 0.567999 65.9763 0.237999 67.1283 0.237999C68.2923 0.237999 69.2223 0.567999 69.9183 1.228C70.6143 1.888 70.9623 2.764 70.9623 3.856V9.544C70.9623 10.648 70.6143 11.53 69.9183 12.19C69.2223 12.85 68.2923 13.18 67.1283 13.18ZM67.1283 12.064C67.8963 12.064 68.5143 11.842 68.9823 11.398C69.4503 10.954 69.6843 10.36 69.6843 9.616V3.802C69.6843 3.07 69.4503 2.482 68.9823 2.038C68.5263 1.594 67.9083 1.372 67.1283 1.372C66.3723 1.372 65.7663 1.594 65.3103 2.038C64.8543 2.482 64.6263 3.07 64.6263 3.802V9.616C64.6263 10.36 64.8543 10.954 65.3103 11.398C65.7663 11.842 66.3723 12.064 67.1283 12.064ZM74.984 11.794C74.948 11.854 74.96 11.884 75.02 11.884H80.672C80.792 11.884 80.852 11.944 80.852 12.064V12.82C80.852 12.94 80.792 13 80.672 13H73.49C73.37 13 73.31 12.94 73.31 12.82V12.064C73.31 11.98 73.34 11.908 73.4 11.848C73.808 11.368 74.726 10.24 76.154 8.464L77.486 6.808C78.614 5.38 79.178 4.27 79.178 3.478C79.178 2.842 78.962 2.332 78.53 1.948C78.098 1.564 77.534 1.372 76.838 1.372C76.154 1.372 75.602 1.57 75.182 1.966C74.762 2.35 74.558 2.86 74.57 3.496V4.054C74.57 4.174 74.51 4.234 74.39 4.234H73.454C73.334 4.234 73.274 4.174 73.274 4.054V3.334C73.298 2.41 73.64 1.666 74.3 1.102C74.972 0.538 75.818 0.256 76.838 0.256C77.558 0.256 78.194 0.394 78.746 0.669999C79.298 0.945999 79.724 1.33 80.024 1.822C80.324 2.302 80.474 2.848 80.474 3.46C80.474 4.48 79.91 5.71 78.782 7.15C78.194 7.906 77.06 9.298 75.38 11.326L74.984 11.794ZM84.6344 11.794C84.5984 11.854 84.6104 11.884 84.6704 11.884H90.3224C90.4424 11.884 90.5024 11.944 90.5024 12.064V12.82C90.5024 12.94 90.4424 13 90.3224 13H83.1404C83.0204 13 82.9604 12.94 82.9604 12.82V12.064C82.9604 11.98 82.9904 11.908 83.0504 11.848C83.4584 11.368 84.3764 10.24 85.8044 8.464L87.1364 6.808C88.2644 5.38 88.8284 4.27 88.8284 3.478C88.8284 2.842 88.6124 2.332 88.1804 1.948C87.7484 1.564 87.1844 1.372 86.4884 1.372C85.8044 1.372 85.2524 1.57 84.8324 1.966C84.4124 2.35 84.2084 2.86 84.2204 3.496V4.054C84.2204 4.174 84.1604 4.234 84.0404 4.234H83.1044C82.9844 4.234 82.9244 4.174 82.9244 4.054V3.334C82.9484 2.41 83.2904 1.666 83.9504 1.102C84.6224 0.538 85.4684 0.256 86.4884 0.256C87.2084 0.256 87.8444 0.394 88.3964 0.669999C88.9484 0.945999 89.3744 1.33 89.6744 1.822C89.9744 2.302 90.1244 2.848 90.1244 3.46C90.1244 4.48 89.5604 5.71 88.4324 7.15C87.8444 7.906 86.7104 9.298 85.0304 11.326L84.6344 11.794ZM94.5908 6.7C94.2908 6.7 94.0448 6.604 93.8528 6.412C93.6728 6.22 93.5828 5.98 93.5828 5.692C93.5828 5.392 93.6728 5.152 93.8528 4.972C94.0448 4.78 94.2908 4.684 94.5908 4.684C94.8788 4.684 95.1188 4.78 95.3108 4.972C95.5028 5.152 95.5988 5.392 95.5988 5.692C95.5988 5.98 95.5028 6.22 95.3108 6.412C95.1188 6.604 94.8788 6.7 94.5908 6.7ZM94.5908 12.766C94.2908 12.766 94.0448 12.67 93.8528 12.478C93.6728 12.286 93.5828 12.046 93.5828 11.758C93.5828 11.458 93.6728 11.218 93.8528 11.038C94.0448 10.846 94.2908 10.75 94.5908 10.75C94.8788 10.75 95.1188 10.846 95.3108 11.038C95.5028 11.218 95.5988 11.458 95.5988 11.758C95.5988 12.046 95.5028 12.286 95.3108 12.478C95.1188 12.67 94.8788 12.766 94.5908 12.766ZM0.872 35C0.752 35 0.692 34.94 0.692 34.82V22.58C0.692 22.46 0.752 22.4 0.872 22.4H5.12C6.308 22.4 7.25 22.712 7.946 23.336C8.654 23.96 9.008 24.806 9.008 25.874V31.526C9.008 32.594 8.654 33.44 7.946 34.064C7.25 34.688 6.308 35 5.12 35H0.872ZM1.97 33.812C1.97 33.86 1.994 33.884 2.042 33.884H5.174C5.954 33.884 6.572 33.656 7.028 33.2C7.496 32.744 7.73 32.132 7.73 31.364V26.054C7.73 25.274 7.502 24.656 7.046 24.2C6.59 23.744 5.966 23.516 5.174 23.516H2.042C1.994 23.516 1.97 23.54 1.97 23.588V33.812ZM18.551 28.916C18.599 29.252 18.623 29.672 18.623 30.176V30.752C18.623 30.872 18.563 30.932 18.443 30.932H12.629C12.581 30.932 12.557 30.956 12.557 31.004C12.581 31.664 12.617 32.09 12.665 32.282C12.797 32.822 13.079 33.248 13.511 33.56C13.943 33.872 14.495 34.028 15.167 34.028C15.671 34.028 16.115 33.914 16.499 33.686C16.883 33.458 17.183 33.134 17.399 32.714C17.471 32.606 17.555 32.582 17.651 32.642L18.353 33.056C18.449 33.116 18.473 33.2 18.425 33.308C18.125 33.884 17.675 34.34 17.075 34.676C16.475 35 15.785 35.162 15.005 35.162C14.153 35.15 13.439 34.946 12.863 34.55C12.287 34.154 11.873 33.602 11.621 32.894C11.405 32.318 11.297 31.49 11.297 30.41C11.297 29.906 11.303 29.498 11.315 29.186C11.339 28.862 11.387 28.574 11.459 28.322C11.663 27.542 12.071 26.918 12.683 26.45C13.307 25.982 14.057 25.748 14.933 25.748C16.025 25.748 16.865 26.024 17.453 26.576C18.041 27.128 18.407 27.908 18.551 28.916ZM14.933 26.864C14.345 26.864 13.853 27.02 13.457 27.332C13.073 27.632 12.821 28.04 12.701 28.556C12.629 28.808 12.581 29.216 12.557 29.78C12.557 29.828 12.581 29.852 12.629 29.852H17.291C17.339 29.852 17.363 29.828 17.363 29.78C17.339 29.24 17.303 28.856 17.255 28.628C17.123 28.088 16.853 27.662 16.445 27.35C16.049 27.026 15.545 26.864 14.933 26.864ZM23.9944 35.09C23.3224 35.09 22.7224 34.982 22.1944 34.766C21.6784 34.55 21.2764 34.262 20.9884 33.902C20.7124 33.542 20.5744 33.14 20.5744 32.696V32.48C20.5744 32.36 20.6344 32.3 20.7544 32.3H21.6184C21.7384 32.3 21.7984 32.36 21.7984 32.48V32.624C21.7984 33.02 22.0024 33.368 22.4104 33.668C22.8304 33.956 23.3524 34.1 23.9764 34.1C24.6004 34.1 25.1044 33.962 25.4884 33.686C25.8724 33.398 26.0644 33.038 26.0644 32.606C26.0644 32.306 25.9624 32.06 25.7584 31.868C25.5664 31.676 25.3324 31.526 25.0564 31.418C24.7924 31.31 24.3784 31.172 23.8144 31.004C23.1424 30.812 22.5904 30.62 22.1584 30.428C21.7264 30.236 21.3604 29.972 21.0604 29.636C20.7724 29.288 20.6284 28.85 20.6284 28.322C20.6284 27.554 20.9284 26.942 21.5284 26.486C22.1284 26.03 22.9204 25.802 23.9044 25.802C24.5644 25.802 25.1464 25.91 25.6504 26.126C26.1664 26.342 26.5624 26.642 26.8384 27.026C27.1144 27.398 27.2524 27.818 27.2524 28.286V28.34C27.2524 28.46 27.1924 28.52 27.0724 28.52H26.2264C26.1064 28.52 26.0464 28.46 26.0464 28.34V28.286C26.0464 27.878 25.8484 27.536 25.4524 27.26C25.0684 26.984 24.5464 26.846 23.8864 26.846C23.2744 26.846 22.7824 26.972 22.4104 27.224C22.0384 27.464 21.8524 27.8 21.8524 28.232C21.8524 28.64 22.0324 28.952 22.3924 29.168C22.7524 29.384 23.3104 29.6 24.0664 29.816C24.7624 30.02 25.3264 30.212 25.7584 30.392C26.1904 30.572 26.5624 30.836 26.8744 31.184C27.1864 31.52 27.3424 31.964 27.3424 32.516C27.3424 33.296 27.0364 33.92 26.4244 34.388C25.8124 34.856 25.0024 35.09 23.9944 35.09ZM33.1104 35.144C32.2464 35.144 31.5024 34.922 30.8784 34.478C30.2664 34.022 29.8464 33.41 29.6184 32.642C29.4624 32.114 29.3844 31.37 29.3844 30.41C29.3844 29.546 29.4624 28.814 29.6184 28.214C29.8344 27.47 30.2544 26.876 30.8784 26.432C31.5024 25.976 32.2464 25.748 33.1104 25.748C33.9864 25.748 34.7424 25.97 35.3784 26.414C36.0264 26.858 36.4464 27.41 36.6384 28.07C36.6984 28.286 36.7344 28.466 36.7464 28.61V28.646C36.7464 28.73 36.6924 28.784 36.5844 28.808L35.6844 28.934H35.6484C35.5644 28.934 35.5104 28.88 35.4864 28.772L35.4324 28.502C35.3244 28.046 35.0604 27.662 34.6404 27.35C34.2204 27.026 33.7104 26.864 33.1104 26.864C32.5104 26.864 32.0064 27.026 31.5984 27.35C31.2024 27.662 30.9444 28.082 30.8244 28.61C30.7164 29.066 30.6624 29.672 30.6624 30.428C30.6624 31.22 30.7164 31.832 30.8244 32.264C30.9444 32.804 31.2024 33.236 31.5984 33.56C32.0064 33.872 32.5104 34.028 33.1104 34.028C33.6984 34.028 34.2024 33.878 34.6224 33.578C35.0544 33.266 35.3244 32.87 35.4324 32.39V32.318L35.4504 32.246C35.4624 32.126 35.5344 32.078 35.6664 32.102L36.5484 32.246C36.6684 32.27 36.7224 32.336 36.7104 32.444L36.6384 32.804C36.4584 33.5 36.0444 34.064 35.3964 34.496C34.7484 34.928 33.9864 35.144 33.1104 35.144ZM42.696 25.802C43.092 25.802 43.434 25.88 43.722 26.036C43.818 26.084 43.854 26.162 43.83 26.27L43.632 27.152C43.596 27.272 43.518 27.308 43.398 27.26C43.194 27.176 42.96 27.134 42.696 27.134L42.462 27.152C41.838 27.176 41.322 27.41 40.914 27.854C40.506 28.286 40.302 28.838 40.302 29.51V34.82C40.302 34.94 40.242 35 40.122 35H39.204C39.084 35 39.024 34.94 39.024 34.82V26.072C39.024 25.952 39.084 25.892 39.204 25.892H40.122C40.242 25.892 40.302 25.952 40.302 26.072V27.17C40.302 27.206 40.308 27.23 40.32 27.242C40.344 27.242 40.362 27.23 40.374 27.206C40.626 26.762 40.944 26.42 41.328 26.18C41.724 25.928 42.18 25.802 42.696 25.802ZM46.4446 24.236C46.1566 24.236 45.9166 24.14 45.7246 23.948C45.5326 23.756 45.4366 23.516 45.4366 23.228C45.4366 22.928 45.5326 22.688 45.7246 22.508C45.9166 22.316 46.1566 22.22 46.4446 22.22C46.7326 22.22 46.9726 22.316 47.1646 22.508C47.3566 22.688 47.4526 22.928 47.4526 23.228C47.4526 23.516 47.3566 23.756 47.1646 23.948C46.9726 24.14 46.7326 24.236 46.4446 24.236ZM45.9406 34.982C45.8206 34.982 45.7606 34.922 45.7606 34.802V26.054C45.7606 25.934 45.8206 25.874 45.9406 25.874H46.8586C46.9786 25.874 47.0386 25.934 47.0386 26.054V34.802C47.0386 34.922 46.9786 34.982 46.8586 34.982H45.9406ZM57.2425 28.16C57.4225 28.736 57.5125 29.498 57.5125 30.446C57.5125 31.406 57.4345 32.15 57.2785 32.678C57.0625 33.446 56.6665 34.052 56.0905 34.496C55.5265 34.928 54.8125 35.144 53.9485 35.144C53.4805 35.144 53.0485 35.054 52.6525 34.874C52.2565 34.682 51.9265 34.412 51.6625 34.064C51.6385 34.04 51.6145 34.034 51.5905 34.046C51.5785 34.046 51.5725 34.058 51.5725 34.082V38.312C51.5725 38.432 51.5125 38.492 51.3925 38.492H50.4745C50.3545 38.492 50.2945 38.432 50.2945 38.312V26.072C50.2945 25.952 50.3545 25.892 50.4745 25.892H51.3925C51.5125 25.892 51.5725 25.952 51.5725 26.072V26.828C51.5725 26.852 51.5785 26.87 51.5905 26.882C51.6145 26.882 51.6385 26.87 51.6625 26.846C51.9265 26.498 52.2505 26.228 52.6345 26.036C53.0305 25.844 53.4685 25.748 53.9485 25.748C54.7885 25.748 55.4905 25.964 56.0545 26.396C56.6305 26.828 57.0265 27.416 57.2425 28.16ZM55.8205 32.714C55.9525 32.45 56.0485 32.156 56.1085 31.832C56.1805 31.496 56.2165 31.034 56.2165 30.446C56.2165 29.882 56.1925 29.444 56.1445 29.132C56.0965 28.808 56.0125 28.52 55.8925 28.268C55.7485 27.836 55.4905 27.494 55.1185 27.242C54.7585 26.99 54.3265 26.864 53.8225 26.864C53.3425 26.864 52.9405 26.99 52.6165 27.242C52.2925 27.494 52.0525 27.83 51.8965 28.25C51.7885 28.49 51.7105 28.772 51.6625 29.096C51.6145 29.42 51.5905 29.87 51.5905 30.446C51.5905 31.022 51.6145 31.478 51.6625 31.814C51.7105 32.138 51.7945 32.426 51.9145 32.678C52.0585 33.086 52.2925 33.416 52.6165 33.668C52.9525 33.908 53.3485 34.028 53.8045 34.028C54.2845 34.028 54.6985 33.908 55.0465 33.668C55.4065 33.428 55.6645 33.11 55.8205 32.714ZM64.1862 26.774C64.1862 26.894 64.1262 26.954 64.0062 26.954H61.9722C61.9242 26.954 61.9002 26.978 61.9002 27.026V32.336C61.9002 32.912 62.0262 33.32 62.2782 33.56C62.5422 33.788 62.9502 33.902 63.5022 33.902H63.9522C64.0722 33.902 64.1322 33.962 64.1322 34.082V34.82C64.1322 34.94 64.0722 35 63.9522 35C63.8082 35.012 63.5862 35.018 63.2862 35.018C62.4222 35.018 61.7682 34.856 61.3242 34.532C60.8802 34.208 60.6582 33.608 60.6582 32.732V27.026C60.6582 26.978 60.6342 26.954 60.5862 26.954H59.4882C59.3682 26.954 59.3082 26.894 59.3082 26.774V26.072C59.3082 25.952 59.3682 25.892 59.4882 25.892H60.5862C60.6342 25.892 60.6582 25.868 60.6582 25.82V23.732C60.6582 23.612 60.7182 23.552 60.8382 23.552H61.7202C61.8402 23.552 61.9002 23.612 61.9002 23.732V25.82C61.9002 25.868 61.9242 25.892 61.9722 25.892H64.0062C64.1262 25.892 64.1862 25.952 64.1862 26.072V26.774ZM67.5208 24.236C67.2328 24.236 66.9928 24.14 66.8008 23.948C66.6088 23.756 66.5128 23.516 66.5128 23.228C66.5128 22.928 66.6088 22.688 66.8008 22.508C66.9928 22.316 67.2328 22.22 67.5208 22.22C67.8088 22.22 68.0488 22.316 68.2408 22.508C68.4328 22.688 68.5288 22.928 68.5288 23.228C68.5288 23.516 68.4328 23.756 68.2408 23.948C68.0488 24.14 67.8088 24.236 67.5208 24.236ZM67.0168 34.982C66.8968 34.982 66.8368 34.922 66.8368 34.802V26.054C66.8368 25.934 66.8968 25.874 67.0168 25.874H67.9348C68.0548 25.874 68.1148 25.934 68.1148 26.054V34.802C68.1148 34.922 68.0548 34.982 67.9348 34.982H67.0168ZM73.5667 35C73.4587 35 73.3867 34.952 73.3507 34.856L70.3987 26.09L70.3807 26.018C70.3807 25.934 70.4347 25.892 70.5427 25.892H71.5687C71.6767 25.892 71.7487 25.94 71.7847 26.036L74.0347 33.092C74.0467 33.116 74.0647 33.128 74.0887 33.128C74.1127 33.128 74.1307 33.116 74.1427 33.092L76.3927 26.036C76.4287 25.94 76.5007 25.892 76.6087 25.892L77.6347 25.91C77.7667 25.91 77.8147 25.976 77.7787 26.108L74.8267 34.856C74.7907 34.952 74.7187 35 74.6107 35H73.5667ZM86.4728 28.916C86.5208 29.252 86.5448 29.672 86.5448 30.176V30.752C86.5448 30.872 86.4848 30.932 86.3648 30.932H80.5508C80.5028 30.932 80.4788 30.956 80.4788 31.004C80.5028 31.664 80.5388 32.09 80.5868 32.282C80.7188 32.822 81.0008 33.248 81.4328 33.56C81.8648 33.872 82.4168 34.028 83.0888 34.028C83.5928 34.028 84.0368 33.914 84.4208 33.686C84.8048 33.458 85.1048 33.134 85.3208 32.714C85.3928 32.606 85.4768 32.582 85.5728 32.642L86.2748 33.056C86.3708 33.116 86.3948 33.2 86.3468 33.308C86.0468 33.884 85.5968 34.34 84.9968 34.676C84.3968 35 83.7068 35.162 82.9268 35.162C82.0748 35.15 81.3608 34.946 80.7848 34.55C80.2088 34.154 79.7948 33.602 79.5428 32.894C79.3268 32.318 79.2188 31.49 79.2188 30.41C79.2188 29.906 79.2248 29.498 79.2368 29.186C79.2608 28.862 79.3088 28.574 79.3808 28.322C79.5848 27.542 79.9928 26.918 80.6048 26.45C81.2288 25.982 81.9788 25.748 82.8548 25.748C83.9468 25.748 84.7868 26.024 85.3748 26.576C85.9628 27.128 86.3288 27.908 86.4728 28.916ZM82.8548 26.864C82.2668 26.864 81.7748 27.02 81.3788 27.332C80.9948 27.632 80.7428 28.04 80.6228 28.556C80.5508 28.808 80.5028 29.216 80.4788 29.78C80.4788 29.828 80.5028 29.852 80.5508 29.852H85.2128C85.2608 29.852 85.2848 29.828 85.2848 29.78C85.2608 29.24 85.2248 28.856 85.1768 28.628C85.0448 28.088 84.7748 27.662 84.3668 27.35C83.9708 27.026 83.4668 26.864 82.8548 26.864ZM96.578 35.144C95.222 35.144 94.148 34.838 93.356 34.226C92.576 33.614 92.186 32.798 92.186 31.778V31.22C92.186 31.1 92.246 31.04 92.366 31.04H93.248C93.368 31.04 93.428 31.1 93.428 31.22V31.706C93.428 32.402 93.716 32.966 94.292 33.398C94.868 33.818 95.666 34.028 96.686 34.028C97.61 34.028 98.312 33.836 98.792 33.452C99.272 33.056 99.512 32.534 99.512 31.886C99.512 31.466 99.398 31.106 99.17 30.806C98.954 30.506 98.612 30.224 98.144 29.96C97.688 29.696 97.04 29.39 96.2 29.042C95.3 28.682 94.598 28.37 94.094 28.106C93.602 27.83 93.2 27.482 92.888 27.062C92.588 26.63 92.438 26.09 92.438 25.442C92.438 24.434 92.786 23.654 93.482 23.102C94.19 22.538 95.156 22.256 96.38 22.256C97.712 22.256 98.762 22.568 99.53 23.192C100.298 23.816 100.682 24.644 100.682 25.676V26.072C100.682 26.192 100.622 26.252 100.502 26.252H99.602C99.482 26.252 99.422 26.192 99.422 26.072V25.748C99.422 25.052 99.146 24.482 98.594 24.038C98.054 23.594 97.298 23.372 96.326 23.372C95.474 23.372 94.82 23.546 94.364 23.894C93.908 24.242 93.68 24.746 93.68 25.406C93.68 25.838 93.788 26.198 94.004 26.486C94.232 26.762 94.55 27.008 94.958 27.224C95.378 27.428 96.02 27.698 96.884 28.034C97.76 28.394 98.462 28.73 98.99 29.042C99.53 29.354 99.962 29.738 100.286 30.194C100.622 30.638 100.79 31.184 100.79 31.832C100.79 32.84 100.418 33.644 99.674 34.244C98.93 34.844 97.898 35.144 96.578 35.144ZM107.288 26.774C107.288 26.894 107.228 26.954 107.108 26.954H105.074C105.026 26.954 105.002 26.978 105.002 27.026V32.336C105.002 32.912 105.128 33.32 105.38 33.56C105.644 33.788 106.052 33.902 106.604 33.902H107.054C107.174 33.902 107.234 33.962 107.234 34.082V34.82C107.234 34.94 107.174 35 107.054 35C106.91 35.012 106.688 35.018 106.388 35.018C105.524 35.018 104.87 34.856 104.426 34.532C103.982 34.208 103.76 33.608 103.76 32.732V27.026C103.76 26.978 103.736 26.954 103.688 26.954H102.59C102.47 26.954 102.41 26.894 102.41 26.774V26.072C102.41 25.952 102.47 25.892 102.59 25.892H103.688C103.736 25.892 103.76 25.868 103.76 25.82V23.732C103.76 23.612 103.82 23.552 103.94 23.552H104.822C104.942 23.552 105.002 23.612 105.002 23.732V25.82C105.002 25.868 105.026 25.892 105.074 25.892H107.108C107.228 25.892 107.288 25.952 107.288 26.072V26.774ZM112.908 25.748C113.988 25.748 114.822 26.024 115.41 26.576C115.998 27.128 116.292 27.86 116.292 28.772V34.82C116.292 34.94 116.232 35 116.112 35H115.194C115.074 35 115.014 34.94 115.014 34.82V34.082C115.014 34.058 115.002 34.04 114.978 34.028C114.966 34.016 114.948 34.022 114.924 34.046C114.624 34.406 114.234 34.682 113.754 34.874C113.274 35.054 112.74 35.144 112.152 35.144C111.3 35.144 110.586 34.928 110.01 34.496C109.434 34.064 109.146 33.404 109.146 32.516C109.146 31.616 109.47 30.908 110.118 30.392C110.778 29.864 111.69 29.6 112.854 29.6H114.942C114.99 29.6 115.014 29.576 115.014 29.528V28.844C115.014 28.232 114.84 27.752 114.492 27.404C114.156 27.044 113.628 26.864 112.908 26.864C112.332 26.864 111.864 26.978 111.504 27.206C111.144 27.422 110.922 27.728 110.838 28.124C110.802 28.244 110.73 28.298 110.622 28.286L109.65 28.16C109.518 28.136 109.464 28.088 109.488 28.016C109.584 27.344 109.944 26.798 110.568 26.378C111.192 25.958 111.972 25.748 112.908 25.748ZM112.404 34.046C113.112 34.046 113.724 33.872 114.24 33.524C114.756 33.164 115.014 32.684 115.014 32.084V30.68C115.014 30.632 114.99 30.608 114.942 30.608H113.052C112.26 30.608 111.624 30.77 111.144 31.094C110.664 31.418 110.424 31.868 110.424 32.444C110.424 32.972 110.604 33.374 110.964 33.65C111.336 33.914 111.816 34.046 112.404 34.046ZM122.967 26.774C122.967 26.894 122.907 26.954 122.787 26.954H120.753C120.705 26.954 120.681 26.978 120.681 27.026V32.336C120.681 32.912 120.807 33.32 121.059 33.56C121.323 33.788 121.731 33.902 122.283 33.902H122.733C122.853 33.902 122.913 33.962 122.913 34.082V34.82C122.913 34.94 122.853 35 122.733 35C122.589 35.012 122.367 35.018 122.067 35.018C121.203 35.018 120.549 34.856 120.105 34.532C119.661 34.208 119.439 33.608 119.439 32.732V27.026C119.439 26.978 119.415 26.954 119.367 26.954H118.269C118.149 26.954 118.089 26.894 118.089 26.774V26.072C118.089 25.952 118.149 25.892 118.269 25.892H119.367C119.415 25.892 119.439 25.868 119.439 25.82V23.732C119.439 23.612 119.499 23.552 119.619 23.552H120.501C120.621 23.552 120.681 23.612 120.681 23.732V25.82C120.681 25.868 120.705 25.892 120.753 25.892H122.787C122.907 25.892 122.967 25.952 122.967 26.072V26.774ZM126.302 24.236C126.014 24.236 125.774 24.14 125.582 23.948C125.39 23.756 125.294 23.516 125.294 23.228C125.294 22.928 125.39 22.688 125.582 22.508C125.774 22.316 126.014 22.22 126.302 22.22C126.59 22.22 126.83 22.316 127.022 22.508C127.214 22.688 127.31 22.928 127.31 23.228C127.31 23.516 127.214 23.756 127.022 23.948C126.83 24.14 126.59 24.236 126.302 24.236ZM125.798 34.982C125.678 34.982 125.618 34.922 125.618 34.802V26.054C125.618 25.934 125.678 25.874 125.798 25.874H126.716C126.836 25.874 126.896 25.934 126.896 26.054V34.802C126.896 34.922 126.836 34.982 126.716 34.982H125.798ZM133.014 35.09C132.342 35.09 131.742 34.982 131.214 34.766C130.698 34.55 130.296 34.262 130.008 33.902C129.732 33.542 129.594 33.14 129.594 32.696V32.48C129.594 32.36 129.654 32.3 129.774 32.3H130.638C130.758 32.3 130.818 32.36 130.818 32.48V32.624C130.818 33.02 131.022 33.368 131.43 33.668C131.85 33.956 132.372 34.1 132.996 34.1C133.62 34.1 134.124 33.962 134.508 33.686C134.892 33.398 135.084 33.038 135.084 32.606C135.084 32.306 134.982 32.06 134.778 31.868C134.586 31.676 134.352 31.526 134.076 31.418C133.812 31.31 133.398 31.172 132.834 31.004C132.162 30.812 131.61 30.62 131.178 30.428C130.746 30.236 130.38 29.972 130.08 29.636C129.792 29.288 129.648 28.85 129.648 28.322C129.648 27.554 129.948 26.942 130.548 26.486C131.148 26.03 131.94 25.802 132.924 25.802C133.584 25.802 134.166 25.91 134.67 26.126C135.186 26.342 135.582 26.642 135.858 27.026C136.134 27.398 136.272 27.818 136.272 28.286V28.34C136.272 28.46 136.212 28.52 136.092 28.52H135.246C135.126 28.52 135.066 28.46 135.066 28.34V28.286C135.066 27.878 134.868 27.536 134.472 27.26C134.088 26.984 133.566 26.846 132.906 26.846C132.294 26.846 131.802 26.972 131.43 27.224C131.058 27.464 130.872 27.8 130.872 28.232C130.872 28.64 131.052 28.952 131.412 29.168C131.772 29.384 132.33 29.6 133.086 29.816C133.782 30.02 134.346 30.212 134.778 30.392C135.21 30.572 135.582 30.836 135.894 31.184C136.206 31.52 136.362 31.964 136.362 32.516C136.362 33.296 136.056 33.92 135.444 34.388C134.832 34.856 134.022 35.09 133.014 35.09ZM142.76 26.774C142.76 26.894 142.7 26.954 142.58 26.954H140.546C140.498 26.954 140.474 26.978 140.474 27.026V32.336C140.474 32.912 140.6 33.32 140.852 33.56C141.116 33.788 141.524 33.902 142.076 33.902H142.526C142.646 33.902 142.706 33.962 142.706 34.082V34.82C142.706 34.94 142.646 35 142.526 35C142.382 35.012 142.16 35.018 141.86 35.018C140.996 35.018 140.342 34.856 139.898 34.532C139.454 34.208 139.232 33.608 139.232 32.732V27.026C139.232 26.978 139.208 26.954 139.16 26.954H138.062C137.942 26.954 137.882 26.894 137.882 26.774V26.072C137.882 25.952 137.942 25.892 138.062 25.892H139.16C139.208 25.892 139.232 25.868 139.232 25.82V23.732C139.232 23.612 139.292 23.552 139.412 23.552H140.294C140.414 23.552 140.474 23.612 140.474 23.732V25.82C140.474 25.868 140.498 25.892 140.546 25.892H142.58C142.7 25.892 142.76 25.952 142.76 26.072V26.774ZM146.095 24.236C145.807 24.236 145.567 24.14 145.375 23.948C145.183 23.756 145.087 23.516 145.087 23.228C145.087 22.928 145.183 22.688 145.375 22.508C145.567 22.316 145.807 22.22 146.095 22.22C146.383 22.22 146.623 22.316 146.815 22.508C147.007 22.688 147.103 22.928 147.103 23.228C147.103 23.516 147.007 23.756 146.815 23.948C146.623 24.14 146.383 24.236 146.095 24.236ZM145.591 34.982C145.471 34.982 145.411 34.922 145.411 34.802V26.054C145.411 25.934 145.471 25.874 145.591 25.874H146.509C146.629 25.874 146.689 25.934 146.689 26.054V34.802C146.689 34.922 146.629 34.982 146.509 34.982H145.591ZM153.257 35.144C152.393 35.144 151.649 34.922 151.025 34.478C150.413 34.022 149.993 33.41 149.765 32.642C149.609 32.114 149.531 31.37 149.531 30.41C149.531 29.546 149.609 28.814 149.765 28.214C149.981 27.47 150.401 26.876 151.025 26.432C151.649 25.976 152.393 25.748 153.257 25.748C154.133 25.748 154.889 25.97 155.525 26.414C156.173 26.858 156.593 27.41 156.785 28.07C156.845 28.286 156.881 28.466 156.893 28.61V28.646C156.893 28.73 156.839 28.784 156.731 28.808L155.831 28.934H155.795C155.711 28.934 155.657 28.88 155.633 28.772L155.579 28.502C155.471 28.046 155.207 27.662 154.787 27.35C154.367 27.026 153.857 26.864 153.257 26.864C152.657 26.864 152.153 27.026 151.745 27.35C151.349 27.662 151.091 28.082 150.971 28.61C150.863 29.066 150.809 29.672 150.809 30.428C150.809 31.22 150.863 31.832 150.971 32.264C151.091 32.804 151.349 33.236 151.745 33.56C152.153 33.872 152.657 34.028 153.257 34.028C153.845 34.028 154.349 33.878 154.769 33.578C155.201 33.266 155.471 32.87 155.579 32.39V32.318L155.597 32.246C155.609 32.126 155.681 32.078 155.813 32.102L156.695 32.246C156.815 32.27 156.869 32.336 156.857 32.444L156.785 32.804C156.605 33.5 156.191 34.064 155.543 34.496C154.895 34.928 154.133 35.144 153.257 35.144ZM162.158 35.09C161.486 35.09 160.886 34.982 160.358 34.766C159.842 34.55 159.44 34.262 159.152 33.902C158.876 33.542 158.738 33.14 158.738 32.696V32.48C158.738 32.36 158.798 32.3 158.918 32.3H159.782C159.902 32.3 159.962 32.36 159.962 32.48V32.624C159.962 33.02 160.166 33.368 160.574 33.668C160.994 33.956 161.516 34.1 162.14 34.1C162.764 34.1 163.268 33.962 163.652 33.686C164.036 33.398 164.228 33.038 164.228 32.606C164.228 32.306 164.126 32.06 163.922 31.868C163.73 31.676 163.496 31.526 163.22 31.418C162.956 31.31 162.542 31.172 161.978 31.004C161.306 30.812 160.754 30.62 160.322 30.428C159.89 30.236 159.524 29.972 159.224 29.636C158.936 29.288 158.792 28.85 158.792 28.322C158.792 27.554 159.092 26.942 159.692 26.486C160.292 26.03 161.084 25.802 162.068 25.802C162.728 25.802 163.31 25.91 163.814 26.126C164.33 26.342 164.726 26.642 165.002 27.026C165.278 27.398 165.416 27.818 165.416 28.286V28.34C165.416 28.46 165.356 28.52 165.236 28.52H164.39C164.27 28.52 164.21 28.46 164.21 28.34V28.286C164.21 27.878 164.012 27.536 163.616 27.26C163.232 26.984 162.71 26.846 162.05 26.846C161.438 26.846 160.946 26.972 160.574 27.224C160.202 27.464 160.016 27.8 160.016 28.232C160.016 28.64 160.196 28.952 160.556 29.168C160.916 29.384 161.474 29.6 162.23 29.816C162.926 30.02 163.49 30.212 163.922 30.392C164.354 30.572 164.726 30.836 165.038 31.184C165.35 31.52 165.506 31.964 165.506 32.516C165.506 33.296 165.2 33.92 164.588 34.388C163.976 34.856 163.166 35.09 162.158 35.09Z" fill="black"/>
<path d="M-1 14.8H97.6508V15.7H-1V14.8Z" fill="black"/>
</svg>
