<svg width="157" height="36" viewBox="0 0 157 36" fill="none" xmlns="http://www.w3.org/2000/svg">
<path d="M1.736 11.794C1.7 11.854 1.712 11.884 1.772 11.884H7.424C7.544 11.884 7.604 11.944 7.604 12.064V12.82C7.604 12.94 7.544 13 7.424 13H0.242C0.122 13 0.0620001 12.94 0.0620001 12.82V12.064C0.0620001 11.98 0.0920001 11.908 0.152 11.848C0.56 11.368 1.478 10.24 2.906 8.464L4.238 6.808C5.366 5.38 5.93 4.27 5.93 3.478C5.93 2.842 5.714 2.332 5.282 1.948C4.85 1.564 4.286 1.372 3.59 1.372C2.906 1.372 2.354 1.57 1.934 1.966C1.514 2.35 1.31 2.86 1.322 3.496V4.054C1.322 4.174 1.262 4.234 1.142 4.234H0.206C0.0860001 4.234 0.0260001 4.174 0.0260001 4.054V3.334C0.0500001 2.41 0.392 1.666 1.052 1.102C1.724 0.538 2.57 0.256 3.59 0.256C4.31 0.256 4.946 0.394 5.498 0.669999C6.05 0.945999 6.476 1.33 6.776 1.822C7.076 2.302 7.226 2.848 7.226 3.46C7.226 4.48 6.662 5.71 5.534 7.15C4.946 7.906 3.812 9.298 2.132 11.326L1.736 11.794ZM16.2849 7.042C16.5249 7.63 16.6449 8.332 16.6449 9.148C16.6449 9.808 16.5549 10.39 16.3749 10.894C16.1349 11.614 15.7269 12.172 15.1509 12.568C14.5869 12.952 13.8849 13.144 13.0449 13.144C12.2049 13.144 11.4849 12.928 10.8849 12.496C10.2849 12.052 9.87092 11.458 9.64292 10.714C9.53492 10.378 9.46892 9.922 9.44492 9.346C9.44492 9.226 9.50492 9.166 9.62492 9.166H10.5429C10.6629 9.166 10.7229 9.226 10.7229 9.346C10.7469 9.694 10.7889 10.018 10.8489 10.318C10.9809 10.846 11.2329 11.266 11.6049 11.578C11.9889 11.878 12.4629 12.028 13.0269 12.028C14.1069 12.028 14.8089 11.548 15.1329 10.588C15.2769 10.192 15.3489 9.7 15.3489 9.112C15.3489 8.392 15.2529 7.804 15.0609 7.348C14.6769 6.484 13.9989 6.052 13.0269 6.052C12.8469 6.052 12.6249 6.118 12.3609 6.25C12.3129 6.274 12.2769 6.286 12.2529 6.286C12.2049 6.286 12.1629 6.256 12.1269 6.196L11.6589 5.566C11.5989 5.47 11.6049 5.386 11.6769 5.314L14.8449 1.606C14.8809 1.546 14.8689 1.516 14.8089 1.516H9.73292C9.61292 1.516 9.55292 1.456 9.55292 1.336V0.579999C9.55292 0.459999 9.61292 0.399999 9.73292 0.399999H16.3929C16.5129 0.399999 16.5729 0.459999 16.5729 0.579999V1.462C16.5729 1.522 16.5429 1.594 16.4829 1.678L13.6029 5.134C13.5789 5.158 13.5729 5.182 13.5849 5.206C13.5969 5.218 13.6209 5.224 13.6569 5.224C14.9409 5.308 15.8169 5.914 16.2849 7.042ZM18.5466 13C18.4146 13 18.3666 12.934 18.4026 12.802L22.3806 0.543999C22.4166 0.447999 22.4886 0.399999 22.5966 0.399999H23.4966C23.6286 0.399999 23.6766 0.465999 23.6406 0.598L19.6626 12.856C19.6266 12.952 19.5546 13 19.4466 13H18.5466ZM30.0736 13.18C28.9216 13.18 28.0036 12.85 27.3196 12.19C26.6356 11.53 26.2936 10.648 26.2936 9.544V3.856C26.2936 2.752 26.6356 1.876 27.3196 1.228C28.0036 0.567999 28.9216 0.237999 30.0736 0.237999C31.2376 0.237999 32.1676 0.567999 32.8636 1.228C33.5596 1.888 33.9076 2.764 33.9076 3.856V9.544C33.9076 10.648 33.5596 11.53 32.8636 12.19C32.1676 12.85 31.2376 13.18 30.0736 13.18ZM30.0736 12.064C30.8416 12.064 31.4596 11.842 31.9276 11.398C32.3956 10.954 32.6296 10.36 32.6296 9.616V3.802C32.6296 3.07 32.3956 2.482 31.9276 2.038C31.4716 1.594 30.8536 1.372 30.0736 1.372C29.3176 1.372 28.7116 1.594 28.2556 2.038C27.7996 2.482 27.5716 3.07 27.5716 3.802V9.616C27.5716 10.36 27.7996 10.954 28.2556 11.398C28.7116 11.842 29.3176 12.064 30.0736 12.064ZM42.9334 7.042C43.1734 7.63 43.2934 8.332 43.2934 9.148C43.2934 9.808 43.2034 10.39 43.0234 10.894C42.7834 11.614 42.3754 12.172 41.7994 12.568C41.2354 12.952 40.5334 13.144 39.6934 13.144C38.8534 13.144 38.1334 12.928 37.5334 12.496C36.9334 12.052 36.5194 11.458 36.2914 10.714C36.1834 10.378 36.1174 9.922 36.0934 9.346C36.0934 9.226 36.1534 9.166 36.2734 9.166H37.1914C37.3114 9.166 37.3714 9.226 37.3714 9.346C37.3954 9.694 37.4374 10.018 37.4974 10.318C37.6294 10.846 37.8814 11.266 38.2534 11.578C38.6374 11.878 39.1114 12.028 39.6754 12.028C40.7554 12.028 41.4574 11.548 41.7814 10.588C41.9254 10.192 41.9974 9.7 41.9974 9.112C41.9974 8.392 41.9014 7.804 41.7094 7.348C41.3254 6.484 40.6474 6.052 39.6754 6.052C39.4954 6.052 39.2734 6.118 39.0094 6.25C38.9614 6.274 38.9254 6.286 38.9014 6.286C38.8534 6.286 38.8114 6.256 38.7754 6.196L38.3074 5.566C38.2474 5.47 38.2534 5.386 38.3254 5.314L41.4934 1.606C41.5294 1.546 41.5174 1.516 41.4574 1.516H36.3814C36.2614 1.516 36.2014 1.456 36.2014 1.336V0.579999C36.2014 0.459999 36.2614 0.399999 36.3814 0.399999H43.0414C43.1614 0.399999 43.2214 0.459999 43.2214 0.579999V1.462C43.2214 1.522 43.1914 1.594 43.1314 1.678L40.2514 5.134C40.2274 5.158 40.2214 5.182 40.2334 5.206C40.2454 5.218 40.2694 5.224 40.3054 5.224C41.5894 5.308 42.4654 5.914 42.9334 7.042ZM45.195 13C45.063 13 45.015 12.934 45.051 12.802L49.029 0.543999C49.065 0.447999 49.137 0.399999 49.245 0.399999H50.145C50.277 0.399999 50.325 0.465999 50.289 0.598L46.311 12.856C46.275 12.952 46.203 13 46.095 13H45.195ZM54.4001 11.794C54.3641 11.854 54.3761 11.884 54.4361 11.884H60.0881C60.2081 11.884 60.2681 11.944 60.2681 12.064V12.82C60.2681 12.94 60.2081 13 60.0881 13H52.9061C52.7861 13 52.7261 12.94 52.7261 12.82V12.064C52.7261 11.98 52.7561 11.908 52.8161 11.848C53.2241 11.368 54.1421 10.24 55.5701 8.464L56.9021 6.808C58.0301 5.38 58.5941 4.27 58.5941 3.478C58.5941 2.842 58.3781 2.332 57.9461 1.948C57.5141 1.564 56.9501 1.372 56.2541 1.372C55.5701 1.372 55.0181 1.57 54.5981 1.966C54.1781 2.35 53.9741 2.86 53.9861 3.496V4.054C53.9861 4.174 53.9261 4.234 53.8061 4.234H52.8701C52.7501 4.234 52.6901 4.174 52.6901 4.054V3.334C52.7141 2.41 53.0561 1.666 53.7161 1.102C54.3881 0.538 55.2341 0.256 56.2541 0.256C56.9741 0.256 57.6101 0.394 58.1621 0.669999C58.7141 0.945999 59.1401 1.33 59.4401 1.822C59.7401 2.302 59.8901 2.848 59.8901 3.46C59.8901 4.48 59.3261 5.71 58.1981 7.15C57.6101 7.906 56.4761 9.298 54.7961 11.326L54.4001 11.794ZM66.3725 13.18C65.2205 13.18 64.3025 12.85 63.6185 12.19C62.9345 11.53 62.5925 10.648 62.5925 9.544V3.856C62.5925 2.752 62.9345 1.876 63.6185 1.228C64.3025 0.567999 65.2205 0.237999 66.3725 0.237999C67.5365 0.237999 68.4665 0.567999 69.1625 1.228C69.8585 1.888 70.2065 2.764 70.2065 3.856V9.544C70.2065 10.648 69.8585 11.53 69.1625 12.19C68.4665 12.85 67.5365 13.18 66.3725 13.18ZM66.3725 12.064C67.1405 12.064 67.7585 11.842 68.2265 11.398C68.6945 10.954 68.9285 10.36 68.9285 9.616V3.802C68.9285 3.07 68.6945 2.482 68.2265 2.038C67.7705 1.594 67.1525 1.372 66.3725 1.372C65.6165 1.372 65.0105 1.594 64.5545 2.038C64.0985 2.482 63.8705 3.07 63.8705 3.802V9.616C63.8705 10.36 64.0985 10.954 64.5545 11.398C65.0105 11.842 65.6165 12.064 66.3725 12.064ZM74.2282 11.794C74.1922 11.854 74.2042 11.884 74.2642 11.884H79.9162C80.0362 11.884 80.0962 11.944 80.0962 12.064V12.82C80.0962 12.94 80.0362 13 79.9162 13H72.7342C72.6142 13 72.5542 12.94 72.5542 12.82V12.064C72.5542 11.98 72.5842 11.908 72.6442 11.848C73.0522 11.368 73.9702 10.24 75.3982 8.464L76.7302 6.808C77.8582 5.38 78.4222 4.27 78.4222 3.478C78.4222 2.842 78.2062 2.332 77.7742 1.948C77.3422 1.564 76.7782 1.372 76.0822 1.372C75.3982 1.372 74.8462 1.57 74.4262 1.966C74.0062 2.35 73.8022 2.86 73.8142 3.496V4.054C73.8142 4.174 73.7542 4.234 73.6342 4.234H72.6982C72.5782 4.234 72.5182 4.174 72.5182 4.054V3.334C72.5422 2.41 72.8842 1.666 73.5442 1.102C74.2162 0.538 75.0622 0.256 76.0822 0.256C76.8022 0.256 77.4382 0.394 77.9902 0.669999C78.5422 0.945999 78.9682 1.33 79.2682 1.822C79.5682 2.302 79.7182 2.848 79.7182 3.46C79.7182 4.48 79.1542 5.71 78.0262 7.15C77.4382 7.906 76.3042 9.298 74.6242 11.326L74.2282 11.794ZM83.8786 11.794C83.8426 11.854 83.8546 11.884 83.9146 11.884H89.5666C89.6866 11.884 89.7466 11.944 89.7466 12.064V12.82C89.7466 12.94 89.6866 13 89.5666 13H82.3846C82.2646 13 82.2046 12.94 82.2046 12.82V12.064C82.2046 11.98 82.2346 11.908 82.2946 11.848C82.7026 11.368 83.6206 10.24 85.0486 8.464L86.3806 6.808C87.5086 5.38 88.0726 4.27 88.0726 3.478C88.0726 2.842 87.8566 2.332 87.4246 1.948C86.9926 1.564 86.4286 1.372 85.7326 1.372C85.0486 1.372 84.4966 1.57 84.0766 1.966C83.6566 2.35 83.4526 2.86 83.4646 3.496V4.054C83.4646 4.174 83.4046 4.234 83.2846 4.234H82.3486C82.2286 4.234 82.1686 4.174 82.1686 4.054V3.334C82.1926 2.41 82.5346 1.666 83.1946 1.102C83.8666 0.538 84.7126 0.256 85.7326 0.256C86.4526 0.256 87.0886 0.394 87.6406 0.669999C88.1926 0.945999 88.6186 1.33 88.9186 1.822C89.2186 2.302 89.3686 2.848 89.3686 3.46C89.3686 4.48 88.8046 5.71 87.6766 7.15C87.0886 7.906 85.9546 9.298 84.2746 11.326L83.8786 11.794ZM93.835 6.7C93.535 6.7 93.289 6.604 93.097 6.412C92.917 6.22 92.827 5.98 92.827 5.692C92.827 5.392 92.917 5.152 93.097 4.972C93.289 4.78 93.535 4.684 93.835 4.684C94.123 4.684 94.363 4.78 94.555 4.972C94.747 5.152 94.843 5.392 94.843 5.692C94.843 5.98 94.747 6.22 94.555 6.412C94.363 6.604 94.123 6.7 93.835 6.7ZM93.835 12.766C93.535 12.766 93.289 12.67 93.097 12.478C92.917 12.286 92.827 12.046 92.827 11.758C92.827 11.458 92.917 11.218 93.097 11.038C93.289 10.846 93.535 10.75 93.835 10.75C94.123 10.75 94.363 10.846 94.555 11.038C94.747 11.218 94.843 11.458 94.843 11.758C94.843 12.046 94.747 12.286 94.555 12.478C94.363 12.67 94.123 12.766 93.835 12.766ZM0.872 35C0.752 35 0.692 34.94 0.692 34.82V22.58C0.692 22.46 0.752 22.4 0.872 22.4H1.79C1.91 22.4 1.97 22.46 1.97 22.58V34.82C1.97 34.94 1.91 35 1.79 35H0.872ZM8.8782 25.766C9.8382 25.766 10.6002 26.048 11.1642 26.612C11.7402 27.176 12.0282 27.932 12.0282 28.88V34.82C12.0282 34.94 11.9682 35 11.8482 35H10.9302C10.8102 35 10.7502 34.94 10.7502 34.82V29.132C10.7502 28.472 10.5462 27.932 10.1382 27.512C9.7422 27.092 9.2262 26.882 8.5902 26.882C7.9302 26.882 7.3962 27.086 6.9882 27.494C6.5802 27.902 6.3762 28.436 6.3762 29.096V34.82C6.3762 34.94 6.3162 35 6.1962 35H5.2782C5.1582 35 5.0982 34.94 5.0982 34.82V26.072C5.0982 25.952 5.1582 25.892 5.2782 25.892H6.1962C6.3162 25.892 6.3762 25.952 6.3762 26.072V26.846C6.3762 26.87 6.3822 26.888 6.3942 26.9C6.4182 26.912 6.4362 26.906 6.4482 26.882C6.9762 26.138 7.7862 25.766 8.8782 25.766ZM18.4013 23.516C17.7413 23.516 17.2913 23.666 17.0513 23.966C16.8113 24.254 16.6913 24.752 16.6913 25.46V25.82C16.6913 25.868 16.7153 25.892 16.7633 25.892H18.7793C18.8993 25.892 18.9593 25.952 18.9593 26.072V26.882C18.9593 27.002 18.8993 27.062 18.7793 27.062H16.7633C16.7153 27.062 16.6913 27.086 16.6913 27.134V34.82C16.6913 34.94 16.6313 35 16.5113 35H15.6113C15.4913 35 15.4313 34.94 15.4313 34.82V27.134C15.4313 27.086 15.4073 27.062 15.3593 27.062H14.1533C14.0333 27.062 13.9733 27.002 13.9733 26.882V26.072C13.9733 25.952 14.0333 25.892 14.1533 25.892H15.3593C15.4073 25.892 15.4313 25.868 15.4313 25.82V25.388C15.4313 24.644 15.5153 24.062 15.6833 23.642C15.8513 23.21 16.1393 22.898 16.5473 22.706C16.9673 22.502 17.5493 22.4 18.2933 22.4H18.8153C18.9353 22.4 18.9953 22.46 18.9953 22.58V23.336C18.9953 23.456 18.9353 23.516 18.8153 23.516H18.4013ZM27.3576 28.916C27.4056 29.252 27.4296 29.672 27.4296 30.176V30.752C27.4296 30.872 27.3696 30.932 27.2496 30.932H21.4356C21.3876 30.932 21.3636 30.956 21.3636 31.004C21.3876 31.664 21.4236 32.09 21.4716 32.282C21.6036 32.822 21.8856 33.248 22.3176 33.56C22.7496 33.872 23.3016 34.028 23.9736 34.028C24.4776 34.028 24.9216 33.914 25.3056 33.686C25.6896 33.458 25.9896 33.134 26.2056 32.714C26.2776 32.606 26.3616 32.582 26.4576 32.642L27.1596 33.056C27.2556 33.116 27.2796 33.2 27.2316 33.308C26.9316 33.884 26.4816 34.34 25.8816 34.676C25.2816 35 24.5916 35.162 23.8116 35.162C22.9596 35.15 22.2456 34.946 21.6696 34.55C21.0936 34.154 20.6796 33.602 20.4276 32.894C20.2116 32.318 20.1036 31.49 20.1036 30.41C20.1036 29.906 20.1096 29.498 20.1216 29.186C20.1456 28.862 20.1936 28.574 20.2656 28.322C20.4696 27.542 20.8776 26.918 21.4896 26.45C22.1136 25.982 22.8636 25.748 23.7396 25.748C24.8316 25.748 25.6716 26.024 26.2596 26.576C26.8476 27.128 27.2136 27.908 27.3576 28.916ZM23.7396 26.864C23.1516 26.864 22.6596 27.02 22.2636 27.332C21.8796 27.632 21.6276 28.04 21.5076 28.556C21.4356 28.808 21.3876 29.216 21.3636 29.78C21.3636 29.828 21.3876 29.852 21.4356 29.852H26.0976C26.1456 29.852 26.1696 29.828 26.1696 29.78C26.1456 29.24 26.1096 28.856 26.0616 28.628C25.9296 28.088 25.6596 27.662 25.2516 27.35C24.8556 27.026 24.3516 26.864 23.7396 26.864ZM33.6433 25.802C34.0393 25.802 34.3813 25.88 34.6693 26.036C34.7653 26.084 34.8013 26.162 34.7773 26.27L34.5793 27.152C34.5433 27.272 34.4653 27.308 34.3453 27.26C34.1413 27.176 33.9073 27.134 33.6433 27.134L33.4093 27.152C32.7853 27.176 32.2693 27.41 31.8613 27.854C31.4533 28.286 31.2493 28.838 31.2493 29.51V34.82C31.2493 34.94 31.1893 35 31.0693 35H30.1513C30.0313 35 29.9713 34.94 29.9713 34.82V26.072C29.9713 25.952 30.0313 25.892 30.1513 25.892H31.0693C31.1893 25.892 31.2493 25.952 31.2493 26.072V27.17C31.2493 27.206 31.2553 27.23 31.2673 27.242C31.2913 27.242 31.3093 27.23 31.3213 27.206C31.5733 26.762 31.8913 26.42 32.2753 26.18C32.6713 25.928 33.1273 25.802 33.6433 25.802ZM43.424 28.916C43.472 29.252 43.496 29.672 43.496 30.176V30.752C43.496 30.872 43.436 30.932 43.316 30.932H37.502C37.454 30.932 37.43 30.956 37.43 31.004C37.454 31.664 37.49 32.09 37.538 32.282C37.67 32.822 37.952 33.248 38.384 33.56C38.816 33.872 39.368 34.028 40.04 34.028C40.544 34.028 40.988 33.914 41.372 33.686C41.756 33.458 42.056 33.134 42.272 32.714C42.344 32.606 42.428 32.582 42.524 32.642L43.226 33.056C43.322 33.116 43.346 33.2 43.298 33.308C42.998 33.884 42.548 34.34 41.948 34.676C41.348 35 40.658 35.162 39.878 35.162C39.026 35.15 38.312 34.946 37.736 34.55C37.16 34.154 36.746 33.602 36.494 32.894C36.278 32.318 36.17 31.49 36.17 30.41C36.17 29.906 36.176 29.498 36.188 29.186C36.212 28.862 36.26 28.574 36.332 28.322C36.536 27.542 36.944 26.918 37.556 26.45C38.18 25.982 38.93 25.748 39.806 25.748C40.898 25.748 41.738 26.024 42.326 26.576C42.914 27.128 43.28 27.908 43.424 28.916ZM39.806 26.864C39.218 26.864 38.726 27.02 38.33 27.332C37.946 27.632 37.694 28.04 37.574 28.556C37.502 28.808 37.454 29.216 37.43 29.78C37.43 29.828 37.454 29.852 37.502 29.852H42.164C42.212 29.852 42.236 29.828 42.236 29.78C42.212 29.24 42.176 28.856 42.128 28.628C41.996 28.088 41.726 27.662 41.318 27.35C40.922 27.026 40.418 26.864 39.806 26.864ZM49.8177 25.766C50.7777 25.766 51.5397 26.048 52.1037 26.612C52.6797 27.176 52.9677 27.932 52.9677 28.88V34.82C52.9677 34.94 52.9077 35 52.7877 35H51.8697C51.7497 35 51.6897 34.94 51.6897 34.82V29.132C51.6897 28.472 51.4857 27.932 51.0777 27.512C50.6817 27.092 50.1657 26.882 49.5297 26.882C48.8697 26.882 48.3357 27.086 47.9277 27.494C47.5197 27.902 47.3157 28.436 47.3157 29.096V34.82C47.3157 34.94 47.2557 35 47.1357 35H46.2177C46.0977 35 46.0377 34.94 46.0377 34.82V26.072C46.0377 25.952 46.0977 25.892 46.2177 25.892H47.1357C47.2557 25.892 47.3157 25.952 47.3157 26.072V26.846C47.3157 26.87 47.3217 26.888 47.3337 26.9C47.3577 26.912 47.3757 26.906 47.3877 26.882C47.9157 26.138 48.7257 25.766 49.8177 25.766ZM59.8268 26.774C59.8268 26.894 59.7668 26.954 59.6468 26.954H57.6128C57.5648 26.954 57.5408 26.978 57.5408 27.026V32.336C57.5408 32.912 57.6668 33.32 57.9188 33.56C58.1828 33.788 58.5908 33.902 59.1428 33.902H59.5928C59.7128 33.902 59.7728 33.962 59.7728 34.082V34.82C59.7728 34.94 59.7128 35 59.5928 35C59.4488 35.012 59.2268 35.018 58.9268 35.018C58.0628 35.018 57.4088 34.856 56.9648 34.532C56.5208 34.208 56.2988 33.608 56.2988 32.732V27.026C56.2988 26.978 56.2748 26.954 56.2268 26.954H55.1288C55.0088 26.954 54.9488 26.894 54.9488 26.774V26.072C54.9488 25.952 55.0088 25.892 55.1288 25.892H56.2268C56.2748 25.892 56.2988 25.868 56.2988 25.82V23.732C56.2988 23.612 56.3588 23.552 56.4788 23.552H57.3608C57.4808 23.552 57.5408 23.612 57.5408 23.732V25.82C57.5408 25.868 57.5648 25.892 57.6128 25.892H59.6468C59.7668 25.892 59.8268 25.952 59.8268 26.072V26.774ZM63.1614 24.236C62.8734 24.236 62.6334 24.14 62.4414 23.948C62.2494 23.756 62.1534 23.516 62.1534 23.228C62.1534 22.928 62.2494 22.688 62.4414 22.508C62.6334 22.316 62.8734 22.22 63.1614 22.22C63.4494 22.22 63.6894 22.316 63.8814 22.508C64.0734 22.688 64.1694 22.928 64.1694 23.228C64.1694 23.516 64.0734 23.756 63.8814 23.948C63.6894 24.14 63.4494 24.236 63.1614 24.236ZM62.6574 34.982C62.5374 34.982 62.4774 34.922 62.4774 34.802V26.054C62.4774 25.934 62.5374 25.874 62.6574 25.874H63.5754C63.6954 25.874 63.7554 25.934 63.7554 26.054V34.802C63.7554 34.922 63.6954 34.982 63.5754 34.982H62.6574ZM70.0353 25.748C71.1153 25.748 71.9493 26.024 72.5373 26.576C73.1253 27.128 73.4193 27.86 73.4193 28.772V34.82C73.4193 34.94 73.3593 35 73.2393 35H72.3213C72.2013 35 72.1413 34.94 72.1413 34.82V34.082C72.1413 34.058 72.1293 34.04 72.1053 34.028C72.0933 34.016 72.0753 34.022 72.0513 34.046C71.7513 34.406 71.3613 34.682 70.8813 34.874C70.4013 35.054 69.8673 35.144 69.2793 35.144C68.4273 35.144 67.7133 34.928 67.1373 34.496C66.5613 34.064 66.2733 33.404 66.2733 32.516C66.2733 31.616 66.5973 30.908 67.2453 30.392C67.9053 29.864 68.8173 29.6 69.9813 29.6H72.0693C72.1173 29.6 72.1413 29.576 72.1413 29.528V28.844C72.1413 28.232 71.9673 27.752 71.6193 27.404C71.2833 27.044 70.7553 26.864 70.0353 26.864C69.4593 26.864 68.9913 26.978 68.6313 27.206C68.2713 27.422 68.0493 27.728 67.9653 28.124C67.9293 28.244 67.8573 28.298 67.7493 28.286L66.7773 28.16C66.6453 28.136 66.5913 28.088 66.6153 28.016C66.7113 27.344 67.0713 26.798 67.6953 26.378C68.3193 25.958 69.0993 25.748 70.0353 25.748ZM69.5313 34.046C70.2393 34.046 70.8513 33.872 71.3673 33.524C71.8833 33.164 72.1413 32.684 72.1413 32.084V30.68C72.1413 30.632 72.1173 30.608 72.0693 30.608H70.1793C69.3873 30.608 68.7513 30.77 68.2713 31.094C67.7913 31.418 67.5513 31.868 67.5513 32.444C67.5513 32.972 67.7313 33.374 68.0913 33.65C68.4633 33.914 68.9433 34.046 69.5313 34.046ZM76.2587 35C76.1387 35 76.0787 34.94 76.0787 34.82V22.58C76.0787 22.46 76.1387 22.4 76.2587 22.4H77.1767C77.2967 22.4 77.3567 22.46 77.3567 22.58V34.82C77.3567 34.94 77.2967 35 77.1767 35H76.2587ZM87.7186 35.144C86.3626 35.144 85.2886 34.838 84.4966 34.226C83.7166 33.614 83.3266 32.798 83.3266 31.778V31.22C83.3266 31.1 83.3866 31.04 83.5066 31.04H84.3886C84.5086 31.04 84.5686 31.1 84.5686 31.22V31.706C84.5686 32.402 84.8566 32.966 85.4326 33.398C86.0086 33.818 86.8066 34.028 87.8266 34.028C88.7506 34.028 89.4526 33.836 89.9326 33.452C90.4126 33.056 90.6526 32.534 90.6526 31.886C90.6526 31.466 90.5386 31.106 90.3106 30.806C90.0946 30.506 89.7526 30.224 89.2846 29.96C88.8286 29.696 88.1806 29.39 87.3406 29.042C86.4406 28.682 85.7386 28.37 85.2346 28.106C84.7426 27.83 84.3406 27.482 84.0286 27.062C83.7286 26.63 83.5786 26.09 83.5786 25.442C83.5786 24.434 83.9266 23.654 84.6226 23.102C85.3306 22.538 86.2966 22.256 87.5206 22.256C88.8526 22.256 89.9026 22.568 90.6706 23.192C91.4386 23.816 91.8226 24.644 91.8226 25.676V26.072C91.8226 26.192 91.7626 26.252 91.6426 26.252H90.7426C90.6226 26.252 90.5626 26.192 90.5626 26.072V25.748C90.5626 25.052 90.2866 24.482 89.7346 24.038C89.1946 23.594 88.4386 23.372 87.4666 23.372C86.6146 23.372 85.9606 23.546 85.5046 23.894C85.0486 24.242 84.8206 24.746 84.8206 25.406C84.8206 25.838 84.9286 26.198 85.1446 26.486C85.3726 26.762 85.6906 27.008 86.0986 27.224C86.5186 27.428 87.1606 27.698 88.0246 28.034C88.9006 28.394 89.6026 28.73 90.1306 29.042C90.6706 29.354 91.1026 29.738 91.4266 30.194C91.7626 30.638 91.9306 31.184 91.9306 31.832C91.9306 32.84 91.5586 33.644 90.8146 34.244C90.0706 34.844 89.0386 35.144 87.7186 35.144ZM98.4283 26.774C98.4283 26.894 98.3683 26.954 98.2483 26.954H96.2143C96.1663 26.954 96.1423 26.978 96.1423 27.026V32.336C96.1423 32.912 96.2683 33.32 96.5203 33.56C96.7843 33.788 97.1923 33.902 97.7443 33.902H98.1943C98.3143 33.902 98.3743 33.962 98.3743 34.082V34.82C98.3743 34.94 98.3143 35 98.1943 35C98.0503 35.012 97.8283 35.018 97.5283 35.018C96.6643 35.018 96.0103 34.856 95.5663 34.532C95.1223 34.208 94.9003 33.608 94.9003 32.732V27.026C94.9003 26.978 94.8763 26.954 94.8283 26.954H93.7303C93.6103 26.954 93.5503 26.894 93.5503 26.774V26.072C93.5503 25.952 93.6103 25.892 93.7303 25.892H94.8283C94.8763 25.892 94.9003 25.868 94.9003 25.82V23.732C94.9003 23.612 94.9603 23.552 95.0803 23.552H95.9623C96.0823 23.552 96.1423 23.612 96.1423 23.732V25.82C96.1423 25.868 96.1663 25.892 96.2143 25.892H98.2483C98.3683 25.892 98.4283 25.952 98.4283 26.072V26.774ZM104.049 25.748C105.129 25.748 105.963 26.024 106.551 26.576C107.139 27.128 107.433 27.86 107.433 28.772V34.82C107.433 34.94 107.373 35 107.253 35H106.335C106.215 35 106.155 34.94 106.155 34.82V34.082C106.155 34.058 106.143 34.04 106.119 34.028C106.107 34.016 106.089 34.022 106.065 34.046C105.765 34.406 105.375 34.682 104.895 34.874C104.415 35.054 103.881 35.144 103.293 35.144C102.441 35.144 101.727 34.928 101.151 34.496C100.575 34.064 100.287 33.404 100.287 32.516C100.287 31.616 100.611 30.908 101.259 30.392C101.919 29.864 102.831 29.6 103.995 29.6H106.083C106.131 29.6 106.155 29.576 106.155 29.528V28.844C106.155 28.232 105.981 27.752 105.633 27.404C105.297 27.044 104.769 26.864 104.049 26.864C103.473 26.864 103.005 26.978 102.645 27.206C102.285 27.422 102.063 27.728 101.979 28.124C101.943 28.244 101.871 28.298 101.763 28.286L100.791 28.16C100.659 28.136 100.605 28.088 100.629 28.016C100.725 27.344 101.085 26.798 101.709 26.378C102.333 25.958 103.113 25.748 104.049 25.748ZM103.545 34.046C104.253 34.046 104.865 33.872 105.381 33.524C105.897 33.164 106.155 32.684 106.155 32.084V30.68C106.155 30.632 106.131 30.608 106.083 30.608H104.193C103.401 30.608 102.765 30.77 102.285 31.094C101.805 31.418 101.565 31.868 101.565 32.444C101.565 32.972 101.745 33.374 102.105 33.65C102.477 33.914 102.957 34.046 103.545 34.046ZM114.108 26.774C114.108 26.894 114.048 26.954 113.928 26.954H111.894C111.846 26.954 111.822 26.978 111.822 27.026V32.336C111.822 32.912 111.948 33.32 112.2 33.56C112.464 33.788 112.872 33.902 113.424 33.902H113.874C113.994 33.902 114.054 33.962 114.054 34.082V34.82C114.054 34.94 113.994 35 113.874 35C113.73 35.012 113.508 35.018 113.208 35.018C112.344 35.018 111.69 34.856 111.246 34.532C110.802 34.208 110.58 33.608 110.58 32.732V27.026C110.58 26.978 110.556 26.954 110.508 26.954H109.41C109.29 26.954 109.23 26.894 109.23 26.774V26.072C109.23 25.952 109.29 25.892 109.41 25.892H110.508C110.556 25.892 110.58 25.868 110.58 25.82V23.732C110.58 23.612 110.64 23.552 110.76 23.552H111.642C111.762 23.552 111.822 23.612 111.822 23.732V25.82C111.822 25.868 111.846 25.892 111.894 25.892H113.928C114.048 25.892 114.108 25.952 114.108 26.072V26.774ZM117.443 24.236C117.155 24.236 116.915 24.14 116.723 23.948C116.531 23.756 116.435 23.516 116.435 23.228C116.435 22.928 116.531 22.688 116.723 22.508C116.915 22.316 117.155 22.22 117.443 22.22C117.731 22.22 117.971 22.316 118.163 22.508C118.355 22.688 118.451 22.928 118.451 23.228C118.451 23.516 118.355 23.756 118.163 23.948C117.971 24.14 117.731 24.236 117.443 24.236ZM116.939 34.982C116.819 34.982 116.759 34.922 116.759 34.802V26.054C116.759 25.934 116.819 25.874 116.939 25.874H117.857C117.977 25.874 118.037 25.934 118.037 26.054V34.802C118.037 34.922 117.977 34.982 117.857 34.982H116.939ZM124.155 35.09C123.483 35.09 122.883 34.982 122.355 34.766C121.839 34.55 121.437 34.262 121.149 33.902C120.873 33.542 120.735 33.14 120.735 32.696V32.48C120.735 32.36 120.795 32.3 120.915 32.3H121.779C121.899 32.3 121.959 32.36 121.959 32.48V32.624C121.959 33.02 122.163 33.368 122.571 33.668C122.991 33.956 123.513 34.1 124.137 34.1C124.761 34.1 125.265 33.962 125.649 33.686C126.033 33.398 126.225 33.038 126.225 32.606C126.225 32.306 126.123 32.06 125.919 31.868C125.727 31.676 125.493 31.526 125.217 31.418C124.953 31.31 124.539 31.172 123.975 31.004C123.303 30.812 122.751 30.62 122.319 30.428C121.887 30.236 121.521 29.972 121.221 29.636C120.933 29.288 120.789 28.85 120.789 28.322C120.789 27.554 121.089 26.942 121.689 26.486C122.289 26.03 123.081 25.802 124.065 25.802C124.725 25.802 125.307 25.91 125.811 26.126C126.327 26.342 126.723 26.642 126.999 27.026C127.275 27.398 127.413 27.818 127.413 28.286V28.34C127.413 28.46 127.353 28.52 127.233 28.52H126.387C126.267 28.52 126.207 28.46 126.207 28.34V28.286C126.207 27.878 126.009 27.536 125.613 27.26C125.229 26.984 124.707 26.846 124.047 26.846C123.435 26.846 122.943 26.972 122.571 27.224C122.199 27.464 122.013 27.8 122.013 28.232C122.013 28.64 122.193 28.952 122.553 29.168C122.913 29.384 123.471 29.6 124.227 29.816C124.923 30.02 125.487 30.212 125.919 30.392C126.351 30.572 126.723 30.836 127.035 31.184C127.347 31.52 127.503 31.964 127.503 32.516C127.503 33.296 127.197 33.92 126.585 34.388C125.973 34.856 125.163 35.09 124.155 35.09ZM133.901 26.774C133.901 26.894 133.841 26.954 133.721 26.954H131.687C131.639 26.954 131.615 26.978 131.615 27.026V32.336C131.615 32.912 131.741 33.32 131.993 33.56C132.257 33.788 132.665 33.902 133.217 33.902H133.667C133.787 33.902 133.847 33.962 133.847 34.082V34.82C133.847 34.94 133.787 35 133.667 35C133.523 35.012 133.301 35.018 133.001 35.018C132.137 35.018 131.483 34.856 131.039 34.532C130.595 34.208 130.373 33.608 130.373 32.732V27.026C130.373 26.978 130.349 26.954 130.301 26.954H129.203C129.083 26.954 129.023 26.894 129.023 26.774V26.072C129.023 25.952 129.083 25.892 129.203 25.892H130.301C130.349 25.892 130.373 25.868 130.373 25.82V23.732C130.373 23.612 130.433 23.552 130.553 23.552H131.435C131.555 23.552 131.615 23.612 131.615 23.732V25.82C131.615 25.868 131.639 25.892 131.687 25.892H133.721C133.841 25.892 133.901 25.952 133.901 26.072V26.774ZM137.236 24.236C136.948 24.236 136.708 24.14 136.516 23.948C136.324 23.756 136.228 23.516 136.228 23.228C136.228 22.928 136.324 22.688 136.516 22.508C136.708 22.316 136.948 22.22 137.236 22.22C137.524 22.22 137.764 22.316 137.956 22.508C138.148 22.688 138.244 22.928 138.244 23.228C138.244 23.516 138.148 23.756 137.956 23.948C137.764 24.14 137.524 24.236 137.236 24.236ZM136.732 34.982C136.612 34.982 136.552 34.922 136.552 34.802V26.054C136.552 25.934 136.612 25.874 136.732 25.874H137.65C137.77 25.874 137.83 25.934 137.83 26.054V34.802C137.83 34.922 137.77 34.982 137.65 34.982H136.732ZM144.398 35.144C143.534 35.144 142.79 34.922 142.166 34.478C141.554 34.022 141.134 33.41 140.906 32.642C140.75 32.114 140.672 31.37 140.672 30.41C140.672 29.546 140.75 28.814 140.906 28.214C141.122 27.47 141.542 26.876 142.166 26.432C142.79 25.976 143.534 25.748 144.398 25.748C145.274 25.748 146.03 25.97 146.666 26.414C147.314 26.858 147.734 27.41 147.926 28.07C147.986 28.286 148.022 28.466 148.034 28.61V28.646C148.034 28.73 147.98 28.784 147.872 28.808L146.972 28.934H146.936C146.852 28.934 146.798 28.88 146.774 28.772L146.72 28.502C146.612 28.046 146.348 27.662 145.928 27.35C145.508 27.026 144.998 26.864 144.398 26.864C143.798 26.864 143.294 27.026 142.886 27.35C142.49 27.662 142.232 28.082 142.112 28.61C142.004 29.066 141.95 29.672 141.95 30.428C141.95 31.22 142.004 31.832 142.112 32.264C142.232 32.804 142.49 33.236 142.886 33.56C143.294 33.872 143.798 34.028 144.398 34.028C144.986 34.028 145.49 33.878 145.91 33.578C146.342 33.266 146.612 32.87 146.72 32.39V32.318L146.738 32.246C146.75 32.126 146.822 32.078 146.954 32.102L147.836 32.246C147.956 32.27 148.01 32.336 147.998 32.444L147.926 32.804C147.746 33.5 147.332 34.064 146.684 34.496C146.036 34.928 145.274 35.144 144.398 35.144ZM153.299 35.09C152.627 35.09 152.027 34.982 151.499 34.766C150.983 34.55 150.581 34.262 150.293 33.902C150.017 33.542 149.879 33.14 149.879 32.696V32.48C149.879 32.36 149.939 32.3 150.059 32.3H150.923C151.043 32.3 151.103 32.36 151.103 32.48V32.624C151.103 33.02 151.307 33.368 151.715 33.668C152.135 33.956 152.657 34.1 153.281 34.1C153.905 34.1 154.409 33.962 154.793 33.686C155.177 33.398 155.369 33.038 155.369 32.606C155.369 32.306 155.267 32.06 155.063 31.868C154.871 31.676 154.637 31.526 154.361 31.418C154.097 31.31 153.683 31.172 153.119 31.004C152.447 30.812 151.895 30.62 151.463 30.428C151.031 30.236 150.665 29.972 150.365 29.636C150.077 29.288 149.933 28.85 149.933 28.322C149.933 27.554 150.233 26.942 150.833 26.486C151.433 26.03 152.225 25.802 153.209 25.802C153.869 25.802 154.451 25.91 154.955 26.126C155.471 26.342 155.867 26.642 156.143 27.026C156.419 27.398 156.557 27.818 156.557 28.286V28.34C156.557 28.46 156.497 28.52 156.377 28.52H155.531C155.411 28.52 155.351 28.46 155.351 28.34V28.286C155.351 27.878 155.153 27.536 154.757 27.26C154.373 26.984 153.851 26.846 153.191 26.846C152.579 26.846 152.087 26.972 151.715 27.224C151.343 27.464 151.157 27.8 151.157 28.232C151.157 28.64 151.337 28.952 151.697 29.168C152.057 29.384 152.615 29.6 153.371 29.816C154.067 30.02 154.631 30.212 155.063 30.392C155.495 30.572 155.867 30.836 156.179 31.184C156.491 31.52 156.647 31.964 156.647 32.516C156.647 33.296 156.341 33.92 155.729 34.388C155.117 34.856 154.307 35.09 153.299 35.09Z" fill="black"/>
<path d="M-1 14.8H96.895V15.7H-1V14.8Z" fill="black"/>
</svg>
