<svg width="139" height="39" viewBox="0 0 139 39" fill="none" xmlns="http://www.w3.org/2000/svg">
<path d="M7.74 7.042C7.98 7.63 8.1 8.332 8.1 9.148C8.1 9.808 8.01 10.39 7.83 10.894C7.59 11.614 7.182 12.172 6.606 12.568C6.042 12.952 5.34 13.144 4.5 13.144C3.66 13.144 2.94 12.928 2.34 12.496C1.74 12.052 1.326 11.458 1.098 10.714C0.99 10.378 0.924 9.922 0.9 9.346C0.9 9.226 0.96 9.166 1.08 9.166H1.998C2.118 9.166 2.178 9.226 2.178 9.346C2.202 9.694 2.244 10.018 2.304 10.318C2.436 10.846 2.688 11.266 3.06 11.578C3.444 11.878 3.918 12.028 4.482 12.028C5.562 12.028 6.264 11.548 6.588 10.588C6.732 10.192 6.804 9.7 6.804 9.112C6.804 8.392 6.708 7.804 6.516 7.348C6.132 6.484 5.454 6.052 4.482 6.052C4.302 6.052 4.08 6.118 3.816 6.25C3.768 6.274 3.732 6.286 3.708 6.286C3.66 6.286 3.618 6.256 3.582 6.196L3.114 5.566C3.054 5.47 3.06 5.386 3.132 5.314L6.3 1.606C6.336 1.546 6.324 1.516 6.264 1.516H1.188C1.068 1.516 1.008 1.456 1.008 1.336V0.579999C1.008 0.459999 1.068 0.399999 1.188 0.399999H7.848C7.968 0.399999 8.028 0.459999 8.028 0.579999V1.462C8.028 1.522 7.998 1.594 7.938 1.678L5.058 5.134C5.034 5.158 5.028 5.182 5.04 5.206C5.052 5.218 5.076 5.224 5.112 5.224C6.396 5.308 7.272 5.914 7.74 7.042ZM14.3217 13.18C13.1697 13.18 12.2517 12.85 11.5677 12.19C10.8837 11.53 10.5417 10.648 10.5417 9.544V3.856C10.5417 2.752 10.8837 1.876 11.5677 1.228C12.2517 0.567999 13.1697 0.237999 14.3217 0.237999C15.4857 0.237999 16.4157 0.567999 17.1117 1.228C17.8077 1.888 18.1557 2.764 18.1557 3.856V9.544C18.1557 10.648 17.8077 11.53 17.1117 12.19C16.4157 12.85 15.4857 13.18 14.3217 13.18ZM14.3217 12.064C15.0897 12.064 15.7077 11.842 16.1757 11.398C16.6437 10.954 16.8777 10.36 16.8777 9.616V3.802C16.8777 3.07 16.6437 2.482 16.1757 2.038C15.7197 1.594 15.1017 1.372 14.3217 1.372C13.5657 1.372 12.9597 1.594 12.5037 2.038C12.0477 2.482 11.8197 3.07 11.8197 3.802V9.616C11.8197 10.36 12.0477 10.954 12.5037 11.398C12.9597 11.842 13.5657 12.064 14.3217 12.064ZM20.1794 13C20.0474 13 19.9994 12.934 20.0354 12.802L24.0134 0.543999C24.0494 0.447999 24.1214 0.399999 24.2294 0.399999H25.1294C25.2614 0.399999 25.3094 0.465999 25.2734 0.598L21.2954 12.856C21.2594 12.952 21.1874 13 21.0794 13H20.1794ZM31.7064 13.18C30.5544 13.18 29.6364 12.85 28.9524 12.19C28.2684 11.53 27.9264 10.648 27.9264 9.544V3.856C27.9264 2.752 28.2684 1.876 28.9524 1.228C29.6364 0.567999 30.5544 0.237999 31.7064 0.237999C32.8704 0.237999 33.8004 0.567999 34.4964 1.228C35.1924 1.888 35.5404 2.764 35.5404 3.856V9.544C35.5404 10.648 35.1924 11.53 34.4964 12.19C33.8004 12.85 32.8704 13.18 31.7064 13.18ZM31.7064 12.064C32.4744 12.064 33.0924 11.842 33.5604 11.398C34.0284 10.954 34.2624 10.36 34.2624 9.616V3.802C34.2624 3.07 34.0284 2.482 33.5604 2.038C33.1044 1.594 32.4864 1.372 31.7064 1.372C30.9504 1.372 30.3444 1.594 29.8884 2.038C29.4324 2.482 29.2044 3.07 29.2044 3.802V9.616C29.2044 10.36 29.4324 10.954 29.8884 11.398C30.3444 11.842 30.9504 12.064 31.7064 12.064ZM44.5662 7.042C44.8062 7.63 44.9262 8.332 44.9262 9.148C44.9262 9.808 44.8362 10.39 44.6562 10.894C44.4162 11.614 44.0082 12.172 43.4322 12.568C42.8682 12.952 42.1662 13.144 41.3262 13.144C40.4862 13.144 39.7662 12.928 39.1662 12.496C38.5662 12.052 38.1522 11.458 37.9242 10.714C37.8162 10.378 37.7502 9.922 37.7262 9.346C37.7262 9.226 37.7862 9.166 37.9062 9.166H38.8242C38.9442 9.166 39.0042 9.226 39.0042 9.346C39.0282 9.694 39.0702 10.018 39.1302 10.318C39.2622 10.846 39.5142 11.266 39.8862 11.578C40.2702 11.878 40.7442 12.028 41.3082 12.028C42.3882 12.028 43.0902 11.548 43.4142 10.588C43.5582 10.192 43.6302 9.7 43.6302 9.112C43.6302 8.392 43.5342 7.804 43.3422 7.348C42.9582 6.484 42.2802 6.052 41.3082 6.052C41.1282 6.052 40.9062 6.118 40.6422 6.25C40.5942 6.274 40.5582 6.286 40.5342 6.286C40.4862 6.286 40.4442 6.256 40.4082 6.196L39.9402 5.566C39.8802 5.47 39.8862 5.386 39.9582 5.314L43.1262 1.606C43.1622 1.546 43.1502 1.516 43.0902 1.516H38.0142C37.8942 1.516 37.8342 1.456 37.8342 1.336V0.579999C37.8342 0.459999 37.8942 0.399999 38.0142 0.399999H44.6742C44.7942 0.399999 44.8542 0.459999 44.8542 0.579999V1.462C44.8542 1.522 44.8242 1.594 44.7642 1.678L41.8842 5.134C41.8602 5.158 41.8542 5.182 41.8662 5.206C41.8782 5.218 41.9022 5.224 41.9382 5.224C43.2222 5.308 44.0982 5.914 44.5662 7.042ZM46.8278 13C46.6958 13 46.6478 12.934 46.6838 12.802L50.6618 0.543999C50.6978 0.447999 50.7698 0.399999 50.8778 0.399999H51.7778C51.9098 0.399999 51.9578 0.465999 51.9218 0.598L47.9438 12.856C47.9078 12.952 47.8358 13 47.7278 13H46.8278ZM56.0329 11.794C55.9969 11.854 56.0089 11.884 56.0689 11.884H61.7209C61.8409 11.884 61.9009 11.944 61.9009 12.064V12.82C61.9009 12.94 61.8409 13 61.7209 13H54.5389C54.4189 13 54.3589 12.94 54.3589 12.82V12.064C54.3589 11.98 54.3889 11.908 54.4489 11.848C54.8569 11.368 55.7749 10.24 57.2029 8.464L58.5349 6.808C59.6629 5.38 60.2269 4.27 60.2269 3.478C60.2269 2.842 60.0109 2.332 59.5789 1.948C59.1469 1.564 58.5829 1.372 57.8869 1.372C57.2029 1.372 56.6509 1.57 56.2309 1.966C55.8109 2.35 55.6069 2.86 55.6189 3.496V4.054C55.6189 4.174 55.5589 4.234 55.4389 4.234H54.5029C54.3829 4.234 54.3229 4.174 54.3229 4.054V3.334C54.3469 2.41 54.6889 1.666 55.3489 1.102C56.0209 0.538 56.8669 0.256 57.8869 0.256C58.6069 0.256 59.2429 0.394 59.7949 0.669999C60.3469 0.945999 60.7729 1.33 61.0729 1.822C61.3729 2.302 61.5229 2.848 61.5229 3.46C61.5229 4.48 60.9589 5.71 59.8309 7.15C59.2429 7.906 58.1089 9.298 56.4289 11.326L56.0329 11.794ZM68.0053 13.18C66.8533 13.18 65.9353 12.85 65.2513 12.19C64.5673 11.53 64.2253 10.648 64.2253 9.544V3.856C64.2253 2.752 64.5673 1.876 65.2513 1.228C65.9353 0.567999 66.8533 0.237999 68.0053 0.237999C69.1693 0.237999 70.0993 0.567999 70.7953 1.228C71.4913 1.888 71.8393 2.764 71.8393 3.856V9.544C71.8393 10.648 71.4913 11.53 70.7953 12.19C70.0993 12.85 69.1693 13.18 68.0053 13.18ZM68.0053 12.064C68.7733 12.064 69.3913 11.842 69.8593 11.398C70.3273 10.954 70.5613 10.36 70.5613 9.616V3.802C70.5613 3.07 70.3273 2.482 69.8593 2.038C69.4033 1.594 68.7853 1.372 68.0053 1.372C67.2493 1.372 66.6433 1.594 66.1873 2.038C65.7313 2.482 65.5033 3.07 65.5033 3.802V9.616C65.5033 10.36 65.7313 10.954 66.1873 11.398C66.6433 11.842 67.2493 12.064 68.0053 12.064ZM75.861 11.794C75.825 11.854 75.837 11.884 75.897 11.884H81.549C81.669 11.884 81.729 11.944 81.729 12.064V12.82C81.729 12.94 81.669 13 81.549 13H74.367C74.247 13 74.187 12.94 74.187 12.82V12.064C74.187 11.98 74.217 11.908 74.277 11.848C74.685 11.368 75.603 10.24 77.031 8.464L78.363 6.808C79.491 5.38 80.055 4.27 80.055 3.478C80.055 2.842 79.839 2.332 79.407 1.948C78.975 1.564 78.411 1.372 77.715 1.372C77.031 1.372 76.479 1.57 76.059 1.966C75.639 2.35 75.435 2.86 75.447 3.496V4.054C75.447 4.174 75.387 4.234 75.267 4.234H74.331C74.211 4.234 74.151 4.174 74.151 4.054V3.334C74.175 2.41 74.517 1.666 75.177 1.102C75.849 0.538 76.695 0.256 77.715 0.256C78.435 0.256 79.071 0.394 79.623 0.669999C80.175 0.945999 80.601 1.33 80.901 1.822C81.201 2.302 81.351 2.848 81.351 3.46C81.351 4.48 80.787 5.71 79.659 7.15C79.071 7.906 77.937 9.298 76.257 11.326L75.861 11.794ZM85.5114 11.794C85.4754 11.854 85.4874 11.884 85.5474 11.884H91.1994C91.3194 11.884 91.3794 11.944 91.3794 12.064V12.82C91.3794 12.94 91.3194 13 91.1994 13H84.0174C83.8974 13 83.8374 12.94 83.8374 12.82V12.064C83.8374 11.98 83.8674 11.908 83.9274 11.848C84.3354 11.368 85.2534 10.24 86.6814 8.464L88.0134 6.808C89.1414 5.38 89.7054 4.27 89.7054 3.478C89.7054 2.842 89.4894 2.332 89.0574 1.948C88.6254 1.564 88.0614 1.372 87.3654 1.372C86.6814 1.372 86.1294 1.57 85.7094 1.966C85.2894 2.35 85.0854 2.86 85.0974 3.496V4.054C85.0974 4.174 85.0374 4.234 84.9174 4.234H83.9814C83.8614 4.234 83.8014 4.174 83.8014 4.054V3.334C83.8254 2.41 84.1674 1.666 84.8274 1.102C85.4994 0.538 86.3454 0.256 87.3654 0.256C88.0854 0.256 88.7214 0.394 89.2734 0.669999C89.8254 0.945999 90.2514 1.33 90.5514 1.822C90.8514 2.302 91.0014 2.848 91.0014 3.46C91.0014 4.48 90.4374 5.71 89.3094 7.15C88.7214 7.906 87.5874 9.298 85.9074 11.326L85.5114 11.794ZM95.4678 6.7C95.1678 6.7 94.9218 6.604 94.7298 6.412C94.5498 6.22 94.4598 5.98 94.4598 5.692C94.4598 5.392 94.5498 5.152 94.7298 4.972C94.9218 4.78 95.1678 4.684 95.4678 4.684C95.7558 4.684 95.9958 4.78 96.1878 4.972C96.3798 5.152 96.4758 5.392 96.4758 5.692C96.4758 5.98 96.3798 6.22 96.1878 6.412C95.9958 6.604 95.7558 6.7 95.4678 6.7ZM95.4678 12.766C95.1678 12.766 94.9218 12.67 94.7298 12.478C94.5498 12.286 94.4598 12.046 94.4598 11.758C94.4598 11.458 94.5498 11.218 94.7298 11.038C94.9218 10.846 95.1678 10.75 95.4678 10.75C95.7558 10.75 95.9958 10.846 96.1878 11.038C96.3798 11.218 96.4758 11.458 96.4758 11.758C96.4758 12.046 96.3798 12.286 96.1878 12.478C95.9958 12.67 95.7558 12.766 95.4678 12.766ZM5.526 35.162C4.686 35.162 3.948 35 3.312 34.676C2.676 34.34 2.178 33.872 1.818 33.272C1.47 32.66 1.296 31.958 1.296 31.166V26.216C1.296 25.436 1.47 24.746 1.818 24.146C2.178 23.546 2.676 23.084 3.312 22.76C3.948 22.424 4.686 22.256 5.526 22.256C6.366 22.256 7.104 22.418 7.74 22.742C8.376 23.066 8.868 23.522 9.216 24.11C9.576 24.698 9.756 25.376 9.756 26.144C9.756 26.204 9.738 26.252 9.702 26.288C9.666 26.324 9.624 26.342 9.576 26.342L8.658 26.396C8.538 26.396 8.478 26.342 8.478 26.234V26.18C8.478 25.328 8.208 24.65 7.668 24.146C7.128 23.63 6.414 23.372 5.526 23.372C4.638 23.372 3.924 23.63 3.384 24.146C2.844 24.662 2.574 25.34 2.574 26.18V31.22C2.574 32.06 2.844 32.738 3.384 33.254C3.924 33.77 4.638 34.028 5.526 34.028C6.414 34.028 7.128 33.776 7.668 33.272C8.208 32.756 8.478 32.072 8.478 31.22V31.184C8.478 31.076 8.538 31.022 8.658 31.022L9.576 31.076C9.696 31.076 9.756 31.13 9.756 31.238C9.756 32.018 9.576 32.708 9.216 33.308C8.868 33.896 8.376 34.352 7.74 34.676C7.104 35 6.366 35.162 5.526 35.162ZM15.83 35.144C14.966 35.144 14.222 34.922 13.598 34.478C12.974 34.034 12.542 33.422 12.302 32.642C12.134 32.09 12.05 31.352 12.05 30.428C12.05 29.504 12.134 28.772 12.302 28.232C12.53 27.464 12.956 26.858 13.58 26.414C14.204 25.97 14.96 25.748 15.848 25.748C16.7 25.748 17.432 25.97 18.044 26.414C18.668 26.858 19.094 27.458 19.322 28.214C19.49 28.73 19.574 29.468 19.574 30.428C19.574 31.4 19.49 32.138 19.322 32.642C19.094 33.422 18.668 34.034 18.044 34.478C17.432 34.922 16.694 35.144 15.83 35.144ZM15.83 34.028C16.406 34.028 16.898 33.872 17.306 33.56C17.714 33.236 17.99 32.804 18.134 32.264C18.242 31.832 18.296 31.226 18.296 30.446C18.296 29.654 18.248 29.048 18.152 28.628C18.008 28.088 17.726 27.662 17.306 27.35C16.898 27.026 16.4 26.864 15.812 26.864C15.224 26.864 14.726 27.026 14.318 27.35C13.91 27.662 13.634 28.088 13.49 28.628C13.394 29.048 13.346 29.654 13.346 30.446C13.346 31.238 13.394 31.844 13.49 32.264C13.622 32.804 13.892 33.236 14.3 33.56C14.72 33.872 15.23 34.028 15.83 34.028ZM31.3806 25.766C32.2806 25.766 32.9886 26.036 33.5046 26.576C34.0326 27.116 34.2966 27.854 34.2966 28.79V34.82C34.2966 34.94 34.2366 35 34.1166 35H33.2166C33.0966 35 33.0366 34.94 33.0366 34.82V29.042C33.0366 28.382 32.8446 27.86 32.4606 27.476C32.0886 27.08 31.5966 26.882 30.9846 26.882C30.3486 26.882 29.8326 27.074 29.4366 27.458C29.0526 27.842 28.8606 28.358 28.8606 29.006V34.82C28.8606 34.94 28.8006 35 28.6806 35H27.7626C27.6426 35 27.5826 34.94 27.5826 34.82V29.042C27.5826 28.382 27.3966 27.86 27.0246 27.476C26.6526 27.08 26.1546 26.882 25.5306 26.882C24.8946 26.882 24.3846 27.074 24.0006 27.458C23.6286 27.842 23.4426 28.358 23.4426 29.006V34.82C23.4426 34.94 23.3826 35 23.2626 35H22.3446C22.2246 35 22.1646 34.94 22.1646 34.82V26.072C22.1646 25.952 22.2246 25.892 22.3446 25.892H23.2626C23.3826 25.892 23.4426 25.952 23.4426 26.072V26.792C23.4426 26.816 23.4486 26.834 23.4606 26.846C23.4846 26.846 23.5086 26.834 23.5326 26.81C23.7966 26.462 24.1326 26.204 24.5406 26.036C24.9606 25.856 25.4226 25.766 25.9266 25.766C26.5506 25.766 27.0846 25.892 27.5286 26.144C27.9726 26.396 28.3086 26.762 28.5366 27.242C28.5606 27.302 28.5906 27.302 28.6266 27.242C28.8906 26.75 29.2626 26.384 29.7426 26.144C30.2226 25.892 30.7686 25.766 31.3806 25.766ZM44.1273 28.16C44.3073 28.736 44.3973 29.498 44.3973 30.446C44.3973 31.406 44.3193 32.15 44.1633 32.678C43.9473 33.446 43.5513 34.052 42.9753 34.496C42.4113 34.928 41.6973 35.144 40.8333 35.144C40.3653 35.144 39.9333 35.054 39.5373 34.874C39.1413 34.682 38.8113 34.412 38.5473 34.064C38.5233 34.04 38.4993 34.034 38.4753 34.046C38.4633 34.046 38.4573 34.058 38.4573 34.082V38.312C38.4573 38.432 38.3973 38.492 38.2773 38.492H37.3593C37.2393 38.492 37.1793 38.432 37.1793 38.312V26.072C37.1793 25.952 37.2393 25.892 37.3593 25.892H38.2773C38.3973 25.892 38.4573 25.952 38.4573 26.072V26.828C38.4573 26.852 38.4633 26.87 38.4753 26.882C38.4993 26.882 38.5233 26.87 38.5473 26.846C38.8113 26.498 39.1353 26.228 39.5193 26.036C39.9153 25.844 40.3533 25.748 40.8333 25.748C41.6733 25.748 42.3753 25.964 42.9393 26.396C43.5153 26.828 43.9113 27.416 44.1273 28.16ZM42.7053 32.714C42.8373 32.45 42.9333 32.156 42.9933 31.832C43.0653 31.496 43.1013 31.034 43.1013 30.446C43.1013 29.882 43.0773 29.444 43.0293 29.132C42.9813 28.808 42.8973 28.52 42.7773 28.268C42.6333 27.836 42.3753 27.494 42.0033 27.242C41.6433 26.99 41.2113 26.864 40.7073 26.864C40.2273 26.864 39.8253 26.99 39.5013 27.242C39.1773 27.494 38.9373 27.83 38.7813 28.25C38.6733 28.49 38.5953 28.772 38.5473 29.096C38.4993 29.42 38.4753 29.87 38.4753 30.446C38.4753 31.022 38.4993 31.478 38.5473 31.814C38.5953 32.138 38.6793 32.426 38.7993 32.678C38.9433 33.086 39.1773 33.416 39.5013 33.668C39.8373 33.908 40.2333 34.028 40.6893 34.028C41.1693 34.028 41.5833 33.908 41.9313 33.668C42.2913 33.428 42.5493 33.11 42.7053 32.714ZM50.1349 25.748C51.2149 25.748 52.0489 26.024 52.6369 26.576C53.2249 27.128 53.5189 27.86 53.5189 28.772V34.82C53.5189 34.94 53.4589 35 53.3389 35H52.4209C52.3009 35 52.2409 34.94 52.2409 34.82V34.082C52.2409 34.058 52.2289 34.04 52.2049 34.028C52.1929 34.016 52.1749 34.022 52.1509 34.046C51.8509 34.406 51.4609 34.682 50.9809 34.874C50.5009 35.054 49.9669 35.144 49.3789 35.144C48.5269 35.144 47.8129 34.928 47.2369 34.496C46.6609 34.064 46.3729 33.404 46.3729 32.516C46.3729 31.616 46.6969 30.908 47.3449 30.392C48.0049 29.864 48.9169 29.6 50.0809 29.6H52.1689C52.2169 29.6 52.2409 29.576 52.2409 29.528V28.844C52.2409 28.232 52.0669 27.752 51.7189 27.404C51.3829 27.044 50.8549 26.864 50.1349 26.864C49.5589 26.864 49.0909 26.978 48.7309 27.206C48.3709 27.422 48.1489 27.728 48.0649 28.124C48.0289 28.244 47.9569 28.298 47.8489 28.286L46.8769 28.16C46.7449 28.136 46.6909 28.088 46.7149 28.016C46.8109 27.344 47.1709 26.798 47.7949 26.378C48.4189 25.958 49.1989 25.748 50.1349 25.748ZM49.6309 34.046C50.3389 34.046 50.9509 33.872 51.4669 33.524C51.9829 33.164 52.2409 32.684 52.2409 32.084V30.68C52.2409 30.632 52.2169 30.608 52.1689 30.608H50.2789C49.4869 30.608 48.8509 30.77 48.3709 31.094C47.8909 31.418 47.6509 31.868 47.6509 32.444C47.6509 32.972 47.8309 33.374 48.1909 33.65C48.5629 33.914 49.0429 34.046 49.6309 34.046ZM59.8503 25.802C60.2463 25.802 60.5883 25.88 60.8763 26.036C60.9723 26.084 61.0083 26.162 60.9843 26.27L60.7863 27.152C60.7503 27.272 60.6723 27.308 60.5523 27.26C60.3483 27.176 60.1143 27.134 59.8503 27.134L59.6163 27.152C58.9923 27.176 58.4763 27.41 58.0683 27.854C57.6603 28.286 57.4563 28.838 57.4563 29.51V34.82C57.4563 34.94 57.3963 35 57.2763 35H56.3583C56.2383 35 56.1783 34.94 56.1783 34.82V26.072C56.1783 25.952 56.2383 25.892 56.3583 25.892H57.2763C57.3963 25.892 57.4563 25.952 57.4563 26.072V27.17C57.4563 27.206 57.4623 27.23 57.4743 27.242C57.4983 27.242 57.5163 27.23 57.5283 27.206C57.7803 26.762 58.0983 26.42 58.4823 26.18C58.8783 25.928 59.3343 25.802 59.8503 25.802ZM63.5989 24.236C63.3109 24.236 63.0709 24.14 62.8789 23.948C62.6869 23.756 62.5909 23.516 62.5909 23.228C62.5909 22.928 62.6869 22.688 62.8789 22.508C63.0709 22.316 63.3109 22.22 63.5989 22.22C63.8869 22.22 64.1269 22.316 64.3189 22.508C64.5109 22.688 64.6069 22.928 64.6069 23.228C64.6069 23.516 64.5109 23.756 64.3189 23.948C64.1269 24.14 63.8869 24.236 63.5989 24.236ZM63.0949 34.982C62.9749 34.982 62.9149 34.922 62.9149 34.802V26.054C62.9149 25.934 62.9749 25.874 63.0949 25.874H64.0129C64.1329 25.874 64.1929 25.934 64.1929 26.054V34.802C64.1929 34.922 64.1329 34.982 64.0129 34.982H63.0949ZM71.1028 25.766C72.0628 25.766 72.8248 26.048 73.3888 26.612C73.9648 27.176 74.2528 27.932 74.2528 28.88V34.82C74.2528 34.94 74.1928 35 74.0728 35H73.1548C73.0348 35 72.9748 34.94 72.9748 34.82V29.132C72.9748 28.472 72.7708 27.932 72.3628 27.512C71.9668 27.092 71.4508 26.882 70.8148 26.882C70.1548 26.882 69.6208 27.086 69.2128 27.494C68.8048 27.902 68.6008 28.436 68.6008 29.096V34.82C68.6008 34.94 68.5408 35 68.4208 35H67.5028C67.3828 35 67.3228 34.94 67.3228 34.82V26.072C67.3228 25.952 67.3828 25.892 67.5028 25.892H68.4208C68.5408 25.892 68.6008 25.952 68.6008 26.072V26.846C68.6008 26.87 68.6068 26.888 68.6188 26.9C68.6428 26.912 68.6608 26.906 68.6728 26.882C69.2008 26.138 70.0108 25.766 71.1028 25.766ZM82.6419 26.072C82.6419 25.952 82.7019 25.892 82.8219 25.892H83.7399C83.8599 25.892 83.9199 25.952 83.9199 26.072V34.694C83.9199 36.038 83.5299 37.022 82.7499 37.646C81.9819 38.27 80.9199 38.582 79.5639 38.582C79.2879 38.582 79.0779 38.576 78.9339 38.564C78.8139 38.552 78.7539 38.486 78.7539 38.366L78.7899 37.538C78.7899 37.478 78.8079 37.43 78.8439 37.394C78.8799 37.37 78.9219 37.364 78.9699 37.376L79.4559 37.394C80.5719 37.394 81.3819 37.172 81.8859 36.728C82.3899 36.296 82.6419 35.606 82.6419 34.658V33.992C82.6419 33.968 82.6299 33.956 82.6059 33.956C82.5939 33.944 82.5759 33.95 82.5519 33.974C81.9999 34.694 81.2139 35.054 80.1939 35.054C79.4139 35.054 78.7179 34.844 78.1059 34.424C77.5059 34.004 77.1039 33.41 76.8999 32.642C76.7559 32.15 76.6839 31.418 76.6839 30.446C76.6839 29.918 76.6959 29.474 76.7199 29.114C76.7559 28.754 76.8219 28.43 76.9179 28.142C77.1339 27.422 77.5239 26.846 78.0879 26.414C78.6519 25.97 79.3299 25.748 80.1219 25.748C81.1899 25.748 81.9999 26.102 82.5519 26.81C82.5759 26.834 82.5939 26.84 82.6059 26.828C82.6299 26.816 82.6419 26.798 82.6419 26.774V26.072ZM82.5519 32.246C82.5879 32.066 82.6119 31.844 82.6239 31.58C82.6359 31.316 82.6419 30.932 82.6419 30.428C82.6419 29.816 82.6359 29.408 82.6239 29.204C82.6119 28.988 82.5819 28.79 82.5339 28.61C82.4379 28.106 82.1979 27.692 81.8139 27.368C81.4419 27.032 80.9679 26.864 80.3919 26.864C79.8279 26.864 79.3479 27.026 78.9519 27.35C78.5679 27.674 78.2979 28.094 78.1419 28.61C78.0219 28.994 77.9619 29.594 77.9619 30.41C77.9619 31.286 78.0219 31.892 78.1419 32.228C78.2619 32.732 78.5199 33.152 78.9159 33.488C79.3239 33.812 79.8159 33.974 80.3919 33.974C80.9799 33.974 81.4599 33.812 81.8319 33.488C82.2159 33.164 82.4559 32.75 82.5519 32.246ZM93.6103 35C93.5023 35 93.4303 34.952 93.3943 34.856L89.4703 22.598L89.4523 22.526C89.4523 22.442 89.5063 22.4 89.6143 22.4H90.5863C90.6943 22.4 90.7663 22.448 90.8023 22.544L94.0783 33.092C94.0903 33.116 94.1083 33.128 94.1323 33.128C94.1563 33.128 94.1743 33.116 94.1863 33.092L97.4623 22.544C97.4983 22.448 97.5703 22.4 97.6783 22.4H98.6323C98.7643 22.4 98.8123 22.466 98.7763 22.598L94.8163 34.856C94.7803 34.952 94.7083 35 94.6003 35H93.6103ZM103.151 25.748C104.231 25.748 105.065 26.024 105.653 26.576C106.241 27.128 106.535 27.86 106.535 28.772V34.82C106.535 34.94 106.475 35 106.355 35H105.437C105.317 35 105.257 34.94 105.257 34.82V34.082C105.257 34.058 105.245 34.04 105.221 34.028C105.209 34.016 105.191 34.022 105.167 34.046C104.867 34.406 104.477 34.682 103.997 34.874C103.517 35.054 102.983 35.144 102.395 35.144C101.543 35.144 100.829 34.928 100.253 34.496C99.6765 34.064 99.3885 33.404 99.3885 32.516C99.3885 31.616 99.7125 30.908 100.361 30.392C101.021 29.864 101.933 29.6 103.097 29.6H105.185C105.233 29.6 105.257 29.576 105.257 29.528V28.844C105.257 28.232 105.083 27.752 104.735 27.404C104.399 27.044 103.871 26.864 103.151 26.864C102.575 26.864 102.107 26.978 101.747 27.206C101.387 27.422 101.165 27.728 101.081 28.124C101.045 28.244 100.973 28.298 100.865 28.286L99.8925 28.16C99.7605 28.136 99.7065 28.088 99.7305 28.016C99.8265 27.344 100.187 26.798 100.811 26.378C101.435 25.958 102.215 25.748 103.151 25.748ZM102.647 34.046C103.355 34.046 103.967 33.872 104.483 33.524C104.999 33.164 105.257 32.684 105.257 32.084V30.68C105.257 30.632 105.233 30.608 105.185 30.608H103.295C102.503 30.608 101.867 30.77 101.387 31.094C100.907 31.418 100.667 31.868 100.667 32.444C100.667 32.972 100.847 33.374 101.207 33.65C101.579 33.914 102.059 34.046 102.647 34.046ZM109.374 35C109.254 35 109.194 34.94 109.194 34.82V22.58C109.194 22.46 109.254 22.4 109.374 22.4H110.292C110.412 22.4 110.472 22.46 110.472 22.58V34.82C110.472 34.94 110.412 35 110.292 35H109.374ZM118.85 26.072C118.85 25.952 118.91 25.892 119.03 25.892H119.948C120.068 25.892 120.128 25.952 120.128 26.072V34.82C120.128 34.94 120.068 35 119.948 35H119.03C118.91 35 118.85 34.94 118.85 34.82V34.046C118.85 34.022 118.838 34.004 118.814 33.992C118.79 33.98 118.772 33.986 118.76 34.01C118.256 34.754 117.458 35.126 116.366 35.126C115.79 35.126 115.256 35.012 114.764 34.784C114.284 34.544 113.9 34.202 113.612 33.758C113.336 33.314 113.198 32.78 113.198 32.156V26.072C113.198 25.952 113.258 25.892 113.378 25.892H114.296C114.416 25.892 114.476 25.952 114.476 26.072V31.778C114.476 32.462 114.668 33.008 115.052 33.416C115.436 33.812 115.958 34.01 116.618 34.01C117.302 34.01 117.842 33.806 118.238 33.398C118.646 32.99 118.85 32.45 118.85 31.778V26.072ZM129.977 28.916C130.025 29.252 130.049 29.672 130.049 30.176V30.752C130.049 30.872 129.989 30.932 129.869 30.932H124.055C124.007 30.932 123.983 30.956 123.983 31.004C124.007 31.664 124.043 32.09 124.091 32.282C124.223 32.822 124.505 33.248 124.937 33.56C125.369 33.872 125.921 34.028 126.593 34.028C127.097 34.028 127.541 33.914 127.925 33.686C128.309 33.458 128.609 33.134 128.825 32.714C128.897 32.606 128.981 32.582 129.077 32.642L129.779 33.056C129.875 33.116 129.899 33.2 129.851 33.308C129.551 33.884 129.101 34.34 128.501 34.676C127.901 35 127.211 35.162 126.431 35.162C125.579 35.15 124.865 34.946 124.289 34.55C123.713 34.154 123.299 33.602 123.047 32.894C122.831 32.318 122.723 31.49 122.723 30.41C122.723 29.906 122.729 29.498 122.741 29.186C122.765 28.862 122.813 28.574 122.885 28.322C123.089 27.542 123.497 26.918 124.109 26.45C124.733 25.982 125.483 25.748 126.359 25.748C127.451 25.748 128.291 26.024 128.879 26.576C129.467 27.128 129.833 27.908 129.977 28.916ZM126.359 26.864C125.771 26.864 125.279 27.02 124.883 27.332C124.499 27.632 124.247 28.04 124.127 28.556C124.055 28.808 124.007 29.216 123.983 29.78C123.983 29.828 124.007 29.852 124.055 29.852H128.717C128.765 29.852 128.789 29.828 128.789 29.78C128.765 29.24 128.729 28.856 128.681 28.628C128.549 28.088 128.279 27.662 127.871 27.35C127.475 27.026 126.971 26.864 126.359 26.864ZM135.42 35.09C134.748 35.09 134.148 34.982 133.62 34.766C133.104 34.55 132.702 34.262 132.414 33.902C132.138 33.542 132 33.14 132 32.696V32.48C132 32.36 132.06 32.3 132.18 32.3H133.044C133.164 32.3 133.224 32.36 133.224 32.48V32.624C133.224 33.02 133.428 33.368 133.836 33.668C134.256 33.956 134.778 34.1 135.402 34.1C136.026 34.1 136.53 33.962 136.914 33.686C137.298 33.398 137.49 33.038 137.49 32.606C137.49 32.306 137.388 32.06 137.184 31.868C136.992 31.676 136.758 31.526 136.482 31.418C136.218 31.31 135.804 31.172 135.24 31.004C134.568 30.812 134.016 30.62 133.584 30.428C133.152 30.236 132.786 29.972 132.486 29.636C132.198 29.288 132.054 28.85 132.054 28.322C132.054 27.554 132.354 26.942 132.954 26.486C133.554 26.03 134.346 25.802 135.33 25.802C135.99 25.802 136.572 25.91 137.076 26.126C137.592 26.342 137.988 26.642 138.264 27.026C138.54 27.398 138.678 27.818 138.678 28.286V28.34C138.678 28.46 138.618 28.52 138.498 28.52H137.652C137.532 28.52 137.472 28.46 137.472 28.34V28.286C137.472 27.878 137.274 27.536 136.878 27.26C136.494 26.984 135.972 26.846 135.312 26.846C134.7 26.846 134.208 26.972 133.836 27.224C133.464 27.464 133.278 27.8 133.278 28.232C133.278 28.64 133.458 28.952 133.818 29.168C134.178 29.384 134.736 29.6 135.492 29.816C136.188 30.02 136.752 30.212 137.184 30.392C137.616 30.572 137.988 30.836 138.3 31.184C138.612 31.52 138.768 31.964 138.768 32.516C138.768 33.296 138.462 33.92 137.85 34.388C137.238 34.856 136.428 35.09 135.42 35.09Z" fill="black"/>
<path d="M0 14.8H98.5278V15.7H0V14.8Z" fill="black"/>
</svg>
