<svg width="116" height="39" viewBox="0 0 116 39" fill="none" xmlns="http://www.w3.org/2000/svg">
<path d="M1.736 11.794C1.7 11.854 1.712 11.884 1.772 11.884H7.424C7.544 11.884 7.604 11.944 7.604 12.064V12.82C7.604 12.94 7.544 13 7.424 13H0.242C0.122 13 0.0620001 12.94 0.0620001 12.82V12.064C0.0620001 11.98 0.0920001 11.908 0.152 11.848C0.56 11.368 1.478 10.24 2.906 8.464L4.238 6.808C5.366 5.38 5.93 4.27 5.93 3.478C5.93 2.842 5.714 2.332 5.282 1.948C4.85 1.564 4.286 1.372 3.59 1.372C2.906 1.372 2.354 1.57 1.934 1.966C1.514 2.35 1.31 2.86 1.322 3.496V4.054C1.322 4.174 1.262 4.234 1.142 4.234H0.206C0.0860001 4.234 0.0260001 4.174 0.0260001 4.054V3.334C0.0500001 2.41 0.392 1.666 1.052 1.102C1.724 0.538 2.57 0.256 3.59 0.256C4.31 0.256 4.946 0.394 5.498 0.669999C6.05 0.945999 6.476 1.33 6.776 1.822C7.076 2.302 7.226 2.848 7.226 3.46C7.226 4.48 6.662 5.71 5.534 7.15C4.946 7.906 3.812 9.298 2.132 11.326L1.736 11.794ZM16.2849 7.042C16.5249 7.63 16.6449 8.332 16.6449 9.148C16.6449 9.808 16.5549 10.39 16.3749 10.894C16.1349 11.614 15.7269 12.172 15.1509 12.568C14.5869 12.952 13.8849 13.144 13.0449 13.144C12.2049 13.144 11.4849 12.928 10.8849 12.496C10.2849 12.052 9.87092 11.458 9.64292 10.714C9.53492 10.378 9.46892 9.922 9.44492 9.346C9.44492 9.226 9.50492 9.166 9.62492 9.166H10.5429C10.6629 9.166 10.7229 9.226 10.7229 9.346C10.7469 9.694 10.7889 10.018 10.8489 10.318C10.9809 10.846 11.2329 11.266 11.6049 11.578C11.9889 11.878 12.4629 12.028 13.0269 12.028C14.1069 12.028 14.8089 11.548 15.1329 10.588C15.2769 10.192 15.3489 9.7 15.3489 9.112C15.3489 8.392 15.2529 7.804 15.0609 7.348C14.6769 6.484 13.9989 6.052 13.0269 6.052C12.8469 6.052 12.6249 6.118 12.3609 6.25C12.3129 6.274 12.2769 6.286 12.2529 6.286C12.2049 6.286 12.1629 6.256 12.1269 6.196L11.6589 5.566C11.5989 5.47 11.6049 5.386 11.6769 5.314L14.8449 1.606C14.8809 1.546 14.8689 1.516 14.8089 1.516H9.73292C9.61292 1.516 9.55292 1.456 9.55292 1.336V0.579999C9.55292 0.459999 9.61292 0.399999 9.73292 0.399999H16.3929C16.5129 0.399999 16.5729 0.459999 16.5729 0.579999V1.462C16.5729 1.522 16.5429 1.594 16.4829 1.678L13.6029 5.134C13.5789 5.158 13.5729 5.182 13.5849 5.206C13.5969 5.218 13.6209 5.224 13.6569 5.224C14.9409 5.308 15.8169 5.914 16.2849 7.042ZM18.5466 13C18.4146 13 18.3666 12.934 18.4026 12.802L22.3806 0.543999C22.4166 0.447999 22.4886 0.399999 22.5966 0.399999H23.4966C23.6286 0.399999 23.6766 0.465999 23.6406 0.598L19.6626 12.856C19.6266 12.952 19.5546 13 19.4466 13H18.5466ZM30.0736 13.18C28.9216 13.18 28.0036 12.85 27.3196 12.19C26.6356 11.53 26.2936 10.648 26.2936 9.544V3.856C26.2936 2.752 26.6356 1.876 27.3196 1.228C28.0036 0.567999 28.9216 0.237999 30.0736 0.237999C31.2376 0.237999 32.1676 0.567999 32.8636 1.228C33.5596 1.888 33.9076 2.764 33.9076 3.856V9.544C33.9076 10.648 33.5596 11.53 32.8636 12.19C32.1676 12.85 31.2376 13.18 30.0736 13.18ZM30.0736 12.064C30.8416 12.064 31.4596 11.842 31.9276 11.398C32.3956 10.954 32.6296 10.36 32.6296 9.616V3.802C32.6296 3.07 32.3956 2.482 31.9276 2.038C31.4716 1.594 30.8536 1.372 30.0736 1.372C29.3176 1.372 28.7116 1.594 28.2556 2.038C27.7996 2.482 27.5716 3.07 27.5716 3.802V9.616C27.5716 10.36 27.7996 10.954 28.2556 11.398C28.7116 11.842 29.3176 12.064 30.0736 12.064ZM37.9294 11.794C37.8934 11.854 37.9054 11.884 37.9654 11.884H43.6174C43.7374 11.884 43.7974 11.944 43.7974 12.064V12.82C43.7974 12.94 43.7374 13 43.6174 13H36.4354C36.3154 13 36.2554 12.94 36.2554 12.82V12.064C36.2554 11.98 36.2854 11.908 36.3454 11.848C36.7534 11.368 37.6714 10.24 39.0994 8.464L40.4314 6.808C41.5594 5.38 42.1234 4.27 42.1234 3.478C42.1234 2.842 41.9074 2.332 41.4754 1.948C41.0434 1.564 40.4794 1.372 39.7834 1.372C39.0994 1.372 38.5474 1.57 38.1274 1.966C37.7074 2.35 37.5034 2.86 37.5154 3.496V4.054C37.5154 4.174 37.4554 4.234 37.3354 4.234H36.3994C36.2794 4.234 36.2194 4.174 36.2194 4.054V3.334C36.2434 2.41 36.5854 1.666 37.2454 1.102C37.9174 0.538 38.7634 0.256 39.7834 0.256C40.5034 0.256 41.1394 0.394 41.6914 0.669999C42.2434 0.945999 42.6694 1.33 42.9694 1.822C43.2694 2.302 43.4194 2.848 43.4194 3.46C43.4194 4.48 42.8554 5.71 41.7274 7.15C41.1394 7.906 40.0054 9.298 38.3254 11.326L37.9294 11.794ZM45.5818 13C45.4498 13 45.4018 12.934 45.4377 12.802L49.4158 0.543999C49.4518 0.447999 49.5238 0.399999 49.6318 0.399999H50.5318C50.6638 0.399999 50.7118 0.465999 50.6758 0.598L46.6978 12.856C46.6618 12.952 46.5898 13 46.4818 13H45.5818ZM54.7868 11.794C54.7508 11.854 54.7628 11.884 54.8228 11.884H60.4748C60.5948 11.884 60.6548 11.944 60.6548 12.064V12.82C60.6548 12.94 60.5948 13 60.4748 13H53.2928C53.1728 13 53.1128 12.94 53.1128 12.82V12.064C53.1128 11.98 53.1428 11.908 53.2028 11.848C53.6108 11.368 54.5288 10.24 55.9568 8.464L57.2888 6.808C58.4168 5.38 58.9808 4.27 58.9808 3.478C58.9808 2.842 58.7648 2.332 58.3328 1.948C57.9008 1.564 57.3368 1.372 56.6408 1.372C55.9568 1.372 55.4048 1.57 54.9848 1.966C54.5648 2.35 54.3608 2.86 54.3728 3.496V4.054C54.3728 4.174 54.3128 4.234 54.1928 4.234H53.2568C53.1368 4.234 53.0768 4.174 53.0768 4.054V3.334C53.1008 2.41 53.4428 1.666 54.1028 1.102C54.7748 0.538 55.6208 0.256 56.6408 0.256C57.3608 0.256 57.9968 0.394 58.5488 0.669999C59.1008 0.945999 59.5268 1.33 59.8268 1.822C60.1268 2.302 60.2768 2.848 60.2768 3.46C60.2768 4.48 59.7128 5.71 58.5848 7.15C57.9968 7.906 56.8628 9.298 55.1828 11.326L54.7868 11.794ZM66.7592 13.18C65.6072 13.18 64.6892 12.85 64.0052 12.19C63.3212 11.53 62.9792 10.648 62.9792 9.544V3.856C62.9792 2.752 63.3212 1.876 64.0052 1.228C64.6892 0.567999 65.6072 0.237999 66.7592 0.237999C67.9232 0.237999 68.8532 0.567999 69.5492 1.228C70.2452 1.888 70.5932 2.764 70.5932 3.856V9.544C70.5932 10.648 70.2452 11.53 69.5492 12.19C68.8532 12.85 67.9232 13.18 66.7592 13.18ZM66.7592 12.064C67.5272 12.064 68.1452 11.842 68.6132 11.398C69.0812 10.954 69.3152 10.36 69.3152 9.616V3.802C69.3152 3.07 69.0812 2.482 68.6132 2.038C68.1572 1.594 67.5392 1.372 66.7592 1.372C66.0032 1.372 65.3972 1.594 64.9412 2.038C64.4852 2.482 64.2572 3.07 64.2572 3.802V9.616C64.2572 10.36 64.4852 10.954 64.9412 11.398C65.3972 11.842 66.0032 12.064 66.7592 12.064ZM74.6149 11.794C74.5789 11.854 74.5909 11.884 74.6509 11.884H80.3029C80.4229 11.884 80.4829 11.944 80.4829 12.064V12.82C80.4829 12.94 80.4229 13 80.3029 13H73.1209C73.0009 13 72.9409 12.94 72.9409 12.82V12.064C72.9409 11.98 72.9709 11.908 73.0309 11.848C73.4389 11.368 74.3569 10.24 75.7849 8.464L77.1169 6.808C78.2449 5.38 78.8089 4.27 78.8089 3.478C78.8089 2.842 78.5929 2.332 78.1609 1.948C77.7289 1.564 77.1649 1.372 76.4689 1.372C75.7849 1.372 75.2329 1.57 74.8129 1.966C74.3929 2.35 74.1889 2.86 74.2009 3.496V4.054C74.2009 4.174 74.1409 4.234 74.0209 4.234H73.0849C72.9649 4.234 72.9049 4.174 72.9049 4.054V3.334C72.9289 2.41 73.2709 1.666 73.9309 1.102C74.6029 0.538 75.4489 0.256 76.4689 0.256C77.1889 0.256 77.8249 0.394 78.3769 0.669999C78.9289 0.945999 79.3549 1.33 79.6549 1.822C79.9549 2.302 80.1049 2.848 80.1049 3.46C80.1049 4.48 79.5409 5.71 78.4129 7.15C77.8249 7.906 76.6909 9.298 75.0109 11.326L74.6149 11.794ZM84.2653 11.794C84.2293 11.854 84.2413 11.884 84.3013 11.884H89.9533C90.0733 11.884 90.1333 11.944 90.1333 12.064V12.82C90.1333 12.94 90.0733 13 89.9533 13H82.7713C82.6513 13 82.5913 12.94 82.5913 12.82V12.064C82.5913 11.98 82.6213 11.908 82.6813 11.848C83.0893 11.368 84.0073 10.24 85.4353 8.464L86.7673 6.808C87.8953 5.38 88.4593 4.27 88.4593 3.478C88.4593 2.842 88.2433 2.332 87.8113 1.948C87.3793 1.564 86.8153 1.372 86.1193 1.372C85.4353 1.372 84.8833 1.57 84.4633 1.966C84.0433 2.35 83.8393 2.86 83.8513 3.496V4.054C83.8513 4.174 83.7913 4.234 83.6713 4.234H82.7353C82.6153 4.234 82.5553 4.174 82.5553 4.054V3.334C82.5793 2.41 82.9213 1.666 83.5813 1.102C84.2533 0.538 85.0993 0.256 86.1193 0.256C86.8393 0.256 87.4753 0.394 88.0273 0.669999C88.5793 0.945999 89.0053 1.33 89.3053 1.822C89.6053 2.302 89.7553 2.848 89.7553 3.46C89.7553 4.48 89.1913 5.71 88.0633 7.15C87.4753 7.906 86.3413 9.298 84.6613 11.326L84.2653 11.794ZM94.2217 6.7C93.9217 6.7 93.6757 6.604 93.4837 6.412C93.3037 6.22 93.2137 5.98 93.2137 5.692C93.2137 5.392 93.3037 5.152 93.4837 4.972C93.6757 4.78 93.9217 4.684 94.2217 4.684C94.5097 4.684 94.7497 4.78 94.9417 4.972C95.1337 5.152 95.2297 5.392 95.2297 5.692C95.2297 5.98 95.1337 6.22 94.9417 6.412C94.7497 6.604 94.5097 6.7 94.2217 6.7ZM94.2217 12.766C93.9217 12.766 93.6757 12.67 93.4837 12.478C93.3037 12.286 93.2137 12.046 93.2137 11.758C93.2137 11.458 93.3037 11.218 93.4837 11.038C93.6757 10.846 93.9217 10.75 94.2217 10.75C94.5097 10.75 94.7497 10.846 94.9417 11.038C95.1337 11.218 95.2297 11.458 95.2297 11.758C95.2297 12.046 95.1337 12.286 94.9417 12.478C94.7497 12.67 94.5097 12.766 94.2217 12.766ZM4.526 35.162C3.686 35.162 2.948 35 2.312 34.676C1.676 34.34 1.178 33.872 0.818 33.272C0.47 32.66 0.296 31.958 0.296 31.166V26.216C0.296 25.436 0.47 24.746 0.818 24.146C1.178 23.546 1.676 23.084 2.312 22.76C2.948 22.424 3.686 22.256 4.526 22.256C5.366 22.256 6.104 22.418 6.74 22.742C7.376 23.066 7.868 23.522 8.216 24.11C8.576 24.698 8.756 25.376 8.756 26.144C8.756 26.204 8.738 26.252 8.702 26.288C8.666 26.324 8.624 26.342 8.576 26.342L7.658 26.396C7.538 26.396 7.478 26.342 7.478 26.234V26.18C7.478 25.328 7.208 24.65 6.668 24.146C6.128 23.63 5.414 23.372 4.526 23.372C3.638 23.372 2.924 23.63 2.384 24.146C1.844 24.662 1.574 25.34 1.574 26.18V31.22C1.574 32.06 1.844 32.738 2.384 33.254C2.924 33.77 3.638 34.028 4.526 34.028C5.414 34.028 6.128 33.776 6.668 33.272C7.208 32.756 7.478 32.072 7.478 31.22V31.184C7.478 31.076 7.538 31.022 7.658 31.022L8.576 31.076C8.696 31.076 8.756 31.13 8.756 31.238C8.756 32.018 8.576 32.708 8.216 33.308C7.868 33.896 7.376 34.352 6.74 34.676C6.104 35 5.366 35.162 4.526 35.162ZM14.83 35.144C13.966 35.144 13.222 34.922 12.598 34.478C11.974 34.034 11.542 33.422 11.302 32.642C11.134 32.09 11.05 31.352 11.05 30.428C11.05 29.504 11.134 28.772 11.302 28.232C11.53 27.464 11.956 26.858 12.58 26.414C13.204 25.97 13.96 25.748 14.848 25.748C15.7 25.748 16.432 25.97 17.044 26.414C17.668 26.858 18.094 27.458 18.322 28.214C18.49 28.73 18.574 29.468 18.574 30.428C18.574 31.4 18.49 32.138 18.322 32.642C18.094 33.422 17.668 34.034 17.044 34.478C16.432 34.922 15.694 35.144 14.83 35.144ZM14.83 34.028C15.406 34.028 15.898 33.872 16.306 33.56C16.714 33.236 16.99 32.804 17.134 32.264C17.242 31.832 17.296 31.226 17.296 30.446C17.296 29.654 17.248 29.048 17.152 28.628C17.008 28.088 16.726 27.662 16.306 27.35C15.898 27.026 15.4 26.864 14.812 26.864C14.224 26.864 13.726 27.026 13.318 27.35C12.91 27.662 12.634 28.088 12.49 28.628C12.394 29.048 12.346 29.654 12.346 30.446C12.346 31.238 12.394 31.844 12.49 32.264C12.622 32.804 12.892 33.236 13.3 33.56C13.72 33.872 14.23 34.028 14.83 34.028ZM21.3446 35C21.2246 35 21.1646 34.94 21.1646 34.82V22.58C21.1646 22.46 21.2246 22.4 21.3446 22.4H22.2626C22.3826 22.4 22.4426 22.46 22.4426 22.58V34.82C22.4426 34.94 22.3826 35 22.2626 35H21.3446ZM25.493 35C25.373 35 25.313 34.94 25.313 34.82V22.58C25.313 22.46 25.373 22.4 25.493 22.4H26.411C26.531 22.4 26.591 22.46 26.591 22.58V34.82C26.591 34.94 26.531 35 26.411 35H25.493ZM36.4455 28.916C36.4935 29.252 36.5175 29.672 36.5175 30.176V30.752C36.5175 30.872 36.4575 30.932 36.3375 30.932H30.5235C30.4755 30.932 30.4515 30.956 30.4515 31.004C30.4755 31.664 30.5115 32.09 30.5595 32.282C30.6915 32.822 30.9735 33.248 31.4055 33.56C31.8375 33.872 32.3895 34.028 33.0615 34.028C33.5655 34.028 34.0095 33.914 34.3935 33.686C34.7775 33.458 35.0775 33.134 35.2935 32.714C35.3655 32.606 35.4495 32.582 35.5455 32.642L36.2475 33.056C36.3435 33.116 36.3675 33.2 36.3195 33.308C36.0195 33.884 35.5695 34.34 34.9695 34.676C34.3695 35 33.6795 35.162 32.8995 35.162C32.0475 35.15 31.3335 34.946 30.7575 34.55C30.1815 34.154 29.7675 33.602 29.5155 32.894C29.2995 32.318 29.1915 31.49 29.1915 30.41C29.1915 29.906 29.1975 29.498 29.2095 29.186C29.2335 28.862 29.2815 28.574 29.3535 28.322C29.5575 27.542 29.9655 26.918 30.5775 26.45C31.2015 25.982 31.9515 25.748 32.8275 25.748C33.9195 25.748 34.7595 26.024 35.3475 26.576C35.9355 27.128 36.3015 27.908 36.4455 28.916ZM32.8275 26.864C32.2395 26.864 31.7475 27.02 31.3515 27.332C30.9675 27.632 30.7155 28.04 30.5955 28.556C30.5235 28.808 30.4755 29.216 30.4515 29.78C30.4515 29.828 30.4755 29.852 30.5235 29.852H35.1855C35.2335 29.852 35.2575 29.828 35.2575 29.78C35.2335 29.24 35.1975 28.856 35.1495 28.628C35.0175 28.088 34.7475 27.662 34.3395 27.35C33.9435 27.026 33.4395 26.864 32.8275 26.864ZM42.4971 35.144C41.6331 35.144 40.8891 34.922 40.2651 34.478C39.6531 34.022 39.2331 33.41 39.0051 32.642C38.8491 32.114 38.7711 31.37 38.7711 30.41C38.7711 29.546 38.8491 28.814 39.0051 28.214C39.2211 27.47 39.6411 26.876 40.2651 26.432C40.8891 25.976 41.6331 25.748 42.4971 25.748C43.3731 25.748 44.1291 25.97 44.7651 26.414C45.4131 26.858 45.8331 27.41 46.0251 28.07C46.0851 28.286 46.1211 28.466 46.1331 28.61V28.646C46.1331 28.73 46.0791 28.784 45.9711 28.808L45.0711 28.934H45.0351C44.9511 28.934 44.8971 28.88 44.8731 28.772L44.8191 28.502C44.7111 28.046 44.4471 27.662 44.0271 27.35C43.6071 27.026 43.0971 26.864 42.4971 26.864C41.8971 26.864 41.3931 27.026 40.9851 27.35C40.5891 27.662 40.3311 28.082 40.2111 28.61C40.1031 29.066 40.0491 29.672 40.0491 30.428C40.0491 31.22 40.1031 31.832 40.2111 32.264C40.3311 32.804 40.5891 33.236 40.9851 33.56C41.3931 33.872 41.8971 34.028 42.4971 34.028C43.0851 34.028 43.5891 33.878 44.0091 33.578C44.4411 33.266 44.7111 32.87 44.8191 32.39V32.318L44.8371 32.246C44.8491 32.126 44.9211 32.078 45.0531 32.102L45.9351 32.246C46.0551 32.27 46.1091 32.336 46.0971 32.444L46.0251 32.804C45.8451 33.5 45.4311 34.064 44.7831 34.496C44.1351 34.928 43.3731 35.144 42.4971 35.144ZM52.4967 26.774C52.4967 26.894 52.4367 26.954 52.3167 26.954H50.2827C50.2347 26.954 50.2107 26.978 50.2107 27.026V32.336C50.2107 32.912 50.3367 33.32 50.5887 33.56C50.8527 33.788 51.2607 33.902 51.8127 33.902H52.2627C52.3827 33.902 52.4427 33.962 52.4427 34.082V34.82C52.4427 34.94 52.3827 35 52.2627 35C52.1187 35.012 51.8967 35.018 51.5967 35.018C50.7327 35.018 50.0787 34.856 49.6347 34.532C49.1907 34.208 48.9687 33.608 48.9687 32.732V27.026C48.9687 26.978 48.9447 26.954 48.8967 26.954H47.7987C47.6787 26.954 47.6187 26.894 47.6187 26.774V26.072C47.6187 25.952 47.6787 25.892 47.7987 25.892H48.8967C48.9447 25.892 48.9687 25.868 48.9687 25.82V23.732C48.9687 23.612 49.0287 23.552 49.1487 23.552H50.0307C50.1507 23.552 50.2107 23.612 50.2107 23.732V25.82C50.2107 25.868 50.2347 25.892 50.2827 25.892H52.3167C52.4367 25.892 52.4967 25.952 52.4967 26.072V26.774ZM55.8313 24.236C55.5433 24.236 55.3033 24.14 55.1113 23.948C54.9193 23.756 54.8233 23.516 54.8233 23.228C54.8233 22.928 54.9193 22.688 55.1113 22.508C55.3033 22.316 55.5433 22.22 55.8313 22.22C56.1193 22.22 56.3593 22.316 56.5513 22.508C56.7433 22.688 56.8393 22.928 56.8393 23.228C56.8393 23.516 56.7433 23.756 56.5513 23.948C56.3593 24.14 56.1193 24.236 55.8313 24.236ZM55.3273 34.982C55.2073 34.982 55.1473 34.922 55.1473 34.802V26.054C55.1473 25.934 55.2073 25.874 55.3273 25.874H56.2453C56.3653 25.874 56.4253 25.934 56.4253 26.054V34.802C56.4253 34.922 56.3653 34.982 56.2453 34.982H55.3273ZM63.3352 25.766C64.2952 25.766 65.0572 26.048 65.6212 26.612C66.1972 27.176 66.4852 27.932 66.4852 28.88V34.82C66.4852 34.94 66.4252 35 66.3052 35H65.3872C65.2672 35 65.2072 34.94 65.2072 34.82V29.132C65.2072 28.472 65.0032 27.932 64.5952 27.512C64.1992 27.092 63.6832 26.882 63.0472 26.882C62.3872 26.882 61.8532 27.086 61.4452 27.494C61.0372 27.902 60.8332 28.436 60.8332 29.096V34.82C60.8332 34.94 60.7732 35 60.6532 35H59.7352C59.6152 35 59.5552 34.94 59.5552 34.82V26.072C59.5552 25.952 59.6152 25.892 59.7352 25.892H60.6532C60.7732 25.892 60.8332 25.952 60.8332 26.072V26.846C60.8332 26.87 60.8392 26.888 60.8512 26.9C60.8752 26.912 60.8932 26.906 60.9052 26.882C61.4332 26.138 62.2432 25.766 63.3352 25.766ZM74.8744 26.072C74.8744 25.952 74.9344 25.892 75.0544 25.892H75.9724C76.0924 25.892 76.1524 25.952 76.1524 26.072V34.694C76.1524 36.038 75.7624 37.022 74.9824 37.646C74.2144 38.27 73.1524 38.582 71.7964 38.582C71.5204 38.582 71.3104 38.576 71.1664 38.564C71.0464 38.552 70.9864 38.486 70.9864 38.366L71.0224 37.538C71.0224 37.478 71.0404 37.43 71.0764 37.394C71.1124 37.37 71.1544 37.364 71.2024 37.376L71.6884 37.394C72.8044 37.394 73.6144 37.172 74.1184 36.728C74.6224 36.296 74.8744 35.606 74.8744 34.658V33.992C74.8744 33.968 74.8624 33.956 74.8384 33.956C74.8264 33.944 74.8084 33.95 74.7844 33.974C74.2324 34.694 73.4464 35.054 72.4264 35.054C71.6464 35.054 70.9504 34.844 70.3384 34.424C69.7384 34.004 69.3364 33.41 69.1324 32.642C68.9884 32.15 68.9164 31.418 68.9164 30.446C68.9164 29.918 68.9284 29.474 68.9524 29.114C68.9884 28.754 69.0544 28.43 69.1504 28.142C69.3664 27.422 69.7564 26.846 70.3204 26.414C70.8844 25.97 71.5624 25.748 72.3544 25.748C73.4224 25.748 74.2324 26.102 74.7844 26.81C74.8084 26.834 74.8264 26.84 74.8384 26.828C74.8624 26.816 74.8744 26.798 74.8744 26.774V26.072ZM74.7844 32.246C74.8204 32.066 74.8444 31.844 74.8564 31.58C74.8684 31.316 74.8744 30.932 74.8744 30.428C74.8744 29.816 74.8684 29.408 74.8564 29.204C74.8444 28.988 74.8144 28.79 74.7664 28.61C74.6704 28.106 74.4304 27.692 74.0464 27.368C73.6744 27.032 73.2004 26.864 72.6244 26.864C72.0604 26.864 71.5804 27.026 71.1844 27.35C70.8004 27.674 70.5304 28.094 70.3744 28.61C70.2544 28.994 70.1944 29.594 70.1944 30.41C70.1944 31.286 70.2544 31.892 70.3744 32.228C70.4944 32.732 70.7524 33.152 71.1484 33.488C71.5564 33.812 72.0484 33.974 72.6244 33.974C73.2124 33.974 73.6924 33.812 74.0644 33.488C74.4484 33.164 74.6884 32.75 74.7844 32.246ZM82.9267 35C82.8067 35 82.7467 34.94 82.7467 34.82V22.58C82.7467 22.46 82.8067 22.4 82.9267 22.4H87.1747C88.3627 22.4 89.3047 22.712 90.0007 23.336C90.7087 23.96 91.0627 24.806 91.0627 25.874V31.526C91.0627 32.594 90.7087 33.44 90.0007 34.064C89.3047 34.688 88.3627 35 87.1747 35H82.9267ZM84.0247 33.812C84.0247 33.86 84.0487 33.884 84.0967 33.884H87.2287C88.0087 33.884 88.6267 33.656 89.0827 33.2C89.5507 32.744 89.7847 32.132 89.7847 31.364V26.054C89.7847 25.274 89.5567 24.656 89.1007 24.2C88.6447 23.744 88.0207 23.516 87.2287 23.516H84.0967C84.0487 23.516 84.0247 23.54 84.0247 23.588V33.812ZM96.6662 25.748C97.7462 25.748 98.5802 26.024 99.1682 26.576C99.7562 27.128 100.05 27.86 100.05 28.772V34.82C100.05 34.94 99.9902 35 99.8702 35H98.9522C98.8322 35 98.7722 34.94 98.7722 34.82V34.082C98.7722 34.058 98.7602 34.04 98.7362 34.028C98.7242 34.016 98.7062 34.022 98.6822 34.046C98.3822 34.406 97.9922 34.682 97.5122 34.874C97.0322 35.054 96.4982 35.144 95.9102 35.144C95.0582 35.144 94.3442 34.928 93.7682 34.496C93.1922 34.064 92.9042 33.404 92.9042 32.516C92.9042 31.616 93.2282 30.908 93.8762 30.392C94.5362 29.864 95.4482 29.6 96.6122 29.6H98.7002C98.7482 29.6 98.7722 29.576 98.7722 29.528V28.844C98.7722 28.232 98.5982 27.752 98.2502 27.404C97.9142 27.044 97.3862 26.864 96.6662 26.864C96.0902 26.864 95.6222 26.978 95.2622 27.206C94.9022 27.422 94.6802 27.728 94.5962 28.124C94.5602 28.244 94.4882 28.298 94.3802 28.286L93.4082 28.16C93.2762 28.136 93.2222 28.088 93.2462 28.016C93.3422 27.344 93.7022 26.798 94.3262 26.378C94.9502 25.958 95.7302 25.748 96.6662 25.748ZM96.1622 34.046C96.8702 34.046 97.4822 33.872 97.9982 33.524C98.5142 33.164 98.7722 32.684 98.7722 32.084V30.68C98.7722 30.632 98.7482 30.608 98.7002 30.608H96.8102C96.0182 30.608 95.3822 30.77 94.9022 31.094C94.4222 31.418 94.1822 31.868 94.1822 32.444C94.1822 32.972 94.3622 33.374 94.7222 33.65C95.0942 33.914 95.5742 34.046 96.1622 34.046ZM106.725 26.774C106.725 26.894 106.665 26.954 106.545 26.954H104.511C104.463 26.954 104.439 26.978 104.439 27.026V32.336C104.439 32.912 104.565 33.32 104.817 33.56C105.081 33.788 105.489 33.902 106.041 33.902H106.491C106.611 33.902 106.671 33.962 106.671 34.082V34.82C106.671 34.94 106.611 35 106.491 35C106.347 35.012 106.125 35.018 105.825 35.018C104.961 35.018 104.307 34.856 103.863 34.532C103.419 34.208 103.197 33.608 103.197 32.732V27.026C103.197 26.978 103.173 26.954 103.125 26.954H102.027C101.907 26.954 101.847 26.894 101.847 26.774V26.072C101.847 25.952 101.907 25.892 102.027 25.892H103.125C103.173 25.892 103.197 25.868 103.197 25.82V23.732C103.197 23.612 103.257 23.552 103.377 23.552H104.259C104.379 23.552 104.439 23.612 104.439 23.732V25.82C104.439 25.868 104.463 25.892 104.511 25.892H106.545C106.665 25.892 106.725 25.952 106.725 26.072V26.774ZM112.346 25.748C113.426 25.748 114.26 26.024 114.848 26.576C115.436 27.128 115.73 27.86 115.73 28.772V34.82C115.73 34.94 115.67 35 115.55 35H114.632C114.512 35 114.452 34.94 114.452 34.82V34.082C114.452 34.058 114.44 34.04 114.416 34.028C114.404 34.016 114.386 34.022 114.362 34.046C114.062 34.406 113.672 34.682 113.192 34.874C112.712 35.054 112.178 35.144 111.59 35.144C110.738 35.144 110.024 34.928 109.448 34.496C108.872 34.064 108.584 33.404 108.584 32.516C108.584 31.616 108.908 30.908 109.556 30.392C110.216 29.864 111.128 29.6 112.292 29.6H114.38C114.428 29.6 114.452 29.576 114.452 29.528V28.844C114.452 28.232 114.278 27.752 113.93 27.404C113.594 27.044 113.066 26.864 112.346 26.864C111.77 26.864 111.302 26.978 110.942 27.206C110.582 27.422 110.36 27.728 110.276 28.124C110.24 28.244 110.168 28.298 110.06 28.286L109.088 28.16C108.956 28.136 108.902 28.088 108.926 28.016C109.022 27.344 109.382 26.798 110.006 26.378C110.63 25.958 111.41 25.748 112.346 25.748ZM111.842 34.046C112.55 34.046 113.162 33.872 113.678 33.524C114.194 33.164 114.452 32.684 114.452 32.084V30.68C114.452 30.632 114.428 30.608 114.38 30.608H112.49C111.698 30.608 111.062 30.77 110.582 31.094C110.102 31.418 109.862 31.868 109.862 32.444C109.862 32.972 110.042 33.374 110.402 33.65C110.774 33.914 111.254 34.046 111.842 34.046Z" fill="black"/>
<path d="M-1 14.8H97.2817V15.7H-1V14.8Z" fill="black"/>
</svg>
