<svg width="156" height="39" viewBox="0 0 156 39" fill="none" xmlns="http://www.w3.org/2000/svg">
<path d="M5.058 13.18C3.906 13.18 2.988 12.85 2.304 12.19C1.62 11.53 1.278 10.648 1.278 9.544V3.856C1.278 2.752 1.62 1.876 2.304 1.228C2.988 0.567999 3.906 0.237999 5.058 0.237999C6.222 0.237999 7.152 0.567999 7.848 1.228C8.544 1.888 8.892 2.764 8.892 3.856V9.544C8.892 10.648 8.544 11.53 7.848 12.19C7.152 12.85 6.222 13.18 5.058 13.18ZM5.058 12.064C5.826 12.064 6.444 11.842 6.912 11.398C7.38 10.954 7.614 10.36 7.614 9.616V3.802C7.614 3.07 7.38 2.482 6.912 2.038C6.456 1.594 5.838 1.372 5.058 1.372C4.302 1.372 3.696 1.594 3.24 2.038C2.784 2.482 2.556 3.07 2.556 3.802V9.616C2.556 10.36 2.784 10.954 3.24 11.398C3.696 11.842 4.302 12.064 5.058 12.064ZM18.1697 2.614C18.3137 3.094 18.3857 3.658 18.3857 4.306V9.922C18.3857 10.906 18.0617 11.692 17.4137 12.28C16.7657 12.856 15.9197 13.144 14.8757 13.144C13.8677 13.144 13.0457 12.862 12.4097 12.298C11.7857 11.722 11.4737 10.978 11.4737 10.066V9.814C11.4737 9.694 11.5337 9.634 11.6537 9.634H12.5717C12.6917 9.634 12.7517 9.694 12.7517 9.814V9.958C12.7517 10.57 12.9497 11.068 13.3457 11.452C13.7417 11.836 14.2517 12.028 14.8757 12.028C15.5237 12.028 16.0577 11.83 16.4777 11.434C16.8977 11.026 17.1077 10.492 17.1077 9.832V7.204C17.1077 7.18 17.0957 7.168 17.0717 7.168C17.0477 7.156 17.0297 7.162 17.0177 7.186C16.4897 7.894 15.6977 8.248 14.6417 8.248C13.8857 8.248 13.2497 8.08 12.7337 7.744C12.2297 7.408 11.8457 6.934 11.5817 6.322C11.3297 5.818 11.2037 5.134 11.2037 4.27C11.2037 3.538 11.2937 2.938 11.4737 2.47C11.7257 1.774 12.1277 1.234 12.6797 0.85C13.2437 0.466 13.9337 0.274 14.7497 0.274C15.6137 0.274 16.3397 0.483999 16.9277 0.903999C17.5277 1.312 17.9417 1.882 18.1697 2.614ZM14.8037 7.132C15.3317 7.132 15.7757 7.006 16.1357 6.754C16.5077 6.49 16.7657 6.13 16.9097 5.674C17.0417 5.326 17.1077 4.84 17.1077 4.216C17.1077 3.7 17.0537 3.262 16.9457 2.902C16.8017 2.446 16.5437 2.08 16.1717 1.804C15.7997 1.528 15.3437 1.39 14.8037 1.39C14.2877 1.39 13.8437 1.522 13.4717 1.786C13.0997 2.038 12.8357 2.41 12.6797 2.902C12.5477 3.238 12.4817 3.694 12.4817 4.27C12.4817 4.882 12.5597 5.362 12.7157 5.71C12.8597 6.142 13.1117 6.49 13.4717 6.754C13.8317 7.006 14.2757 7.132 14.8037 7.132ZM20.3025 13C20.1705 13 20.1225 12.934 20.1585 12.802L24.1365 0.543999C24.1725 0.447999 24.2445 0.399999 24.3525 0.399999H25.2525C25.3845 0.399999 25.4325 0.465999 25.3965 0.598L21.4185 12.856C21.3825 12.952 21.3105 13 21.2025 13H20.3025ZM31.8295 13.18C30.6775 13.18 29.7595 12.85 29.0755 12.19C28.3915 11.53 28.0495 10.648 28.0495 9.544V3.856C28.0495 2.752 28.3915 1.876 29.0755 1.228C29.7595 0.567999 30.6775 0.237999 31.8295 0.237999C32.9935 0.237999 33.9235 0.567999 34.6195 1.228C35.3155 1.888 35.6635 2.764 35.6635 3.856V9.544C35.6635 10.648 35.3155 11.53 34.6195 12.19C33.9235 12.85 32.9935 13.18 31.8295 13.18ZM31.8295 12.064C32.5975 12.064 33.2155 11.842 33.6835 11.398C34.1515 10.954 34.3855 10.36 34.3855 9.616V3.802C34.3855 3.07 34.1515 2.482 33.6835 2.038C33.2275 1.594 32.6095 1.372 31.8295 1.372C31.0735 1.372 30.4675 1.594 30.0115 2.038C29.5555 2.482 29.3275 3.07 29.3275 3.802V9.616C29.3275 10.36 29.5555 10.954 30.0115 11.398C30.4675 11.842 31.0735 12.064 31.8295 12.064ZM39.6852 11.794C39.6492 11.854 39.6612 11.884 39.7212 11.884H45.3732C45.4932 11.884 45.5532 11.944 45.5532 12.064V12.82C45.5532 12.94 45.4932 13 45.3732 13H38.1912C38.0712 13 38.0112 12.94 38.0112 12.82V12.064C38.0112 11.98 38.0412 11.908 38.1012 11.848C38.5092 11.368 39.4272 10.24 40.8552 8.464L42.1872 6.808C43.3152 5.38 43.8792 4.27 43.8792 3.478C43.8792 2.842 43.6632 2.332 43.2312 1.948C42.7992 1.564 42.2352 1.372 41.5392 1.372C40.8552 1.372 40.3032 1.57 39.8832 1.966C39.4632 2.35 39.2592 2.86 39.2712 3.496V4.054C39.2712 4.174 39.2112 4.234 39.0912 4.234H38.1552C38.0352 4.234 37.9752 4.174 37.9752 4.054V3.334C37.9992 2.41 38.3412 1.666 39.0012 1.102C39.6732 0.538 40.5192 0.256 41.5392 0.256C42.2592 0.256 42.8952 0.394 43.4472 0.669999C43.9992 0.945999 44.4252 1.33 44.7252 1.822C45.0252 2.302 45.1752 2.848 45.1752 3.46C45.1752 4.48 44.6112 5.71 43.4832 7.15C42.8952 7.906 41.7612 9.298 40.0812 11.326L39.6852 11.794ZM47.3376 13C47.2056 13 47.1576 12.934 47.1936 12.802L51.1716 0.543999C51.2076 0.447999 51.2796 0.399999 51.3876 0.399999H52.2876C52.4196 0.399999 52.4676 0.465999 52.4316 0.598L48.4536 12.856C48.4176 12.952 48.3456 13 48.2376 13H47.3376ZM56.5426 11.794C56.5066 11.854 56.5186 11.884 56.5786 11.884H62.2306C62.3506 11.884 62.4106 11.944 62.4106 12.064V12.82C62.4106 12.94 62.3506 13 62.2306 13H55.0486C54.9286 13 54.8686 12.94 54.8686 12.82V12.064C54.8686 11.98 54.8986 11.908 54.9586 11.848C55.3666 11.368 56.2846 10.24 57.7126 8.464L59.0446 6.808C60.1726 5.38 60.7366 4.27 60.7366 3.478C60.7366 2.842 60.5206 2.332 60.0886 1.948C59.6566 1.564 59.0926 1.372 58.3966 1.372C57.7126 1.372 57.1606 1.57 56.7406 1.966C56.3206 2.35 56.1166 2.86 56.1286 3.496V4.054C56.1286 4.174 56.0686 4.234 55.9486 4.234H55.0126C54.8926 4.234 54.8326 4.174 54.8326 4.054V3.334C54.8566 2.41 55.1986 1.666 55.8586 1.102C56.5306 0.538 57.3766 0.256 58.3966 0.256C59.1166 0.256 59.7526 0.394 60.3046 0.669999C60.8566 0.945999 61.2826 1.33 61.5826 1.822C61.8826 2.302 62.0326 2.848 62.0326 3.46C62.0326 4.48 61.4686 5.71 60.3406 7.15C59.7526 7.906 58.6186 9.298 56.9386 11.326L56.5426 11.794ZM68.515 13.18C67.363 13.18 66.445 12.85 65.761 12.19C65.077 11.53 64.735 10.648 64.735 9.544V3.856C64.735 2.752 65.077 1.876 65.761 1.228C66.445 0.567999 67.363 0.237999 68.515 0.237999C69.679 0.237999 70.609 0.567999 71.305 1.228C72.001 1.888 72.349 2.764 72.349 3.856V9.544C72.349 10.648 72.001 11.53 71.305 12.19C70.609 12.85 69.679 13.18 68.515 13.18ZM68.515 12.064C69.283 12.064 69.901 11.842 70.369 11.398C70.837 10.954 71.071 10.36 71.071 9.616V3.802C71.071 3.07 70.837 2.482 70.369 2.038C69.913 1.594 69.295 1.372 68.515 1.372C67.759 1.372 67.153 1.594 66.697 2.038C66.241 2.482 66.013 3.07 66.013 3.802V9.616C66.013 10.36 66.241 10.954 66.697 11.398C67.153 11.842 67.759 12.064 68.515 12.064ZM76.3708 11.794C76.3348 11.854 76.3468 11.884 76.4068 11.884H82.0588C82.1788 11.884 82.2388 11.944 82.2388 12.064V12.82C82.2388 12.94 82.1788 13 82.0588 13H74.8768C74.7568 13 74.6968 12.94 74.6968 12.82V12.064C74.6968 11.98 74.7268 11.908 74.7868 11.848C75.1948 11.368 76.1128 10.24 77.5408 8.464L78.8728 6.808C80.0008 5.38 80.5648 4.27 80.5648 3.478C80.5648 2.842 80.3488 2.332 79.9168 1.948C79.4848 1.564 78.9208 1.372 78.2248 1.372C77.5408 1.372 76.9888 1.57 76.5688 1.966C76.1488 2.35 75.9448 2.86 75.9568 3.496V4.054C75.9568 4.174 75.8968 4.234 75.7768 4.234H74.8408C74.7208 4.234 74.6608 4.174 74.6608 4.054V3.334C74.6848 2.41 75.0268 1.666 75.6868 1.102C76.3588 0.538 77.2048 0.256 78.2248 0.256C78.9448 0.256 79.5808 0.394 80.1328 0.669999C80.6848 0.945999 81.1108 1.33 81.4108 1.822C81.7108 2.302 81.8608 2.848 81.8608 3.46C81.8608 4.48 81.2968 5.71 80.1688 7.15C79.5808 7.906 78.4468 9.298 76.7668 11.326L76.3708 11.794ZM86.0212 11.794C85.9852 11.854 85.9972 11.884 86.0572 11.884H91.7092C91.8292 11.884 91.8892 11.944 91.8892 12.064V12.82C91.8892 12.94 91.8292 13 91.7092 13H84.5272C84.4072 13 84.3472 12.94 84.3472 12.82V12.064C84.3472 11.98 84.3772 11.908 84.4372 11.848C84.8452 11.368 85.7632 10.24 87.1912 8.464L88.5232 6.808C89.6512 5.38 90.2152 4.27 90.2152 3.478C90.2152 2.842 89.9992 2.332 89.5672 1.948C89.1352 1.564 88.5712 1.372 87.8752 1.372C87.1912 1.372 86.6392 1.57 86.2192 1.966C85.7992 2.35 85.5952 2.86 85.6072 3.496V4.054C85.6072 4.174 85.5472 4.234 85.4272 4.234H84.4912C84.3712 4.234 84.3112 4.174 84.3112 4.054V3.334C84.3352 2.41 84.6772 1.666 85.3372 1.102C86.0092 0.538 86.8552 0.256 87.8752 0.256C88.5952 0.256 89.2312 0.394 89.7832 0.669999C90.3352 0.945999 90.7612 1.33 91.0612 1.822C91.3612 2.302 91.5112 2.848 91.5112 3.46C91.5112 4.48 90.9472 5.71 89.8192 7.15C89.2312 7.906 88.0972 9.298 86.4172 11.326L86.0212 11.794ZM95.9775 6.7C95.6775 6.7 95.4315 6.604 95.2395 6.412C95.0595 6.22 94.9695 5.98 94.9695 5.692C94.9695 5.392 95.0595 5.152 95.2395 4.972C95.4315 4.78 95.6775 4.684 95.9775 4.684C96.2655 4.684 96.5055 4.78 96.6975 4.972C96.8895 5.152 96.9855 5.392 96.9855 5.692C96.9855 5.98 96.8895 6.22 96.6975 6.412C96.5055 6.604 96.2655 6.7 95.9775 6.7ZM95.9775 12.766C95.6775 12.766 95.4315 12.67 95.2395 12.478C95.0595 12.286 94.9695 12.046 94.9695 11.758C94.9695 11.458 95.0595 11.218 95.2395 11.038C95.4315 10.846 95.6775 10.75 95.9775 10.75C96.2655 10.75 96.5055 10.846 96.6975 11.038C96.8895 11.218 96.9855 11.458 96.9855 11.758C96.9855 12.046 96.8895 12.286 96.6975 12.478C96.5055 12.67 96.2655 12.766 95.9775 12.766ZM4.158 35C4.062 35 3.996 34.952 3.96 34.856L0.504 22.598L0.486 22.544C0.486 22.448 0.546 22.4 0.666 22.4H1.62C1.728 22.4 1.794 22.448 1.818 22.544L4.554 32.408C4.566 32.432 4.578 32.444 4.59 32.444C4.614 32.444 4.632 32.432 4.644 32.408L7.182 22.562C7.206 22.454 7.272 22.4 7.38 22.4H8.352C8.46 22.4 8.526 22.454 8.55 22.562L11.196 32.408C11.208 32.432 11.22 32.444 11.232 32.444C11.256 32.444 11.274 32.432 11.286 32.408L14.022 22.544C14.046 22.448 14.112 22.4 14.22 22.4H15.138C15.198 22.4 15.24 22.418 15.264 22.454C15.3 22.49 15.312 22.538 15.3 22.598L11.898 34.856C11.874 34.952 11.808 35 11.7 35H10.746C10.638 35 10.572 34.946 10.548 34.838L7.92 24.758C7.908 24.734 7.89 24.722 7.866 24.722C7.854 24.722 7.842 24.734 7.83 24.758L5.256 34.838C5.244 34.946 5.178 35 5.058 35H4.158ZM21.0227 25.766C21.9827 25.766 22.7447 26.048 23.3087 26.612C23.8847 27.176 24.1727 27.932 24.1727 28.88V34.82C24.1727 34.94 24.1127 35 23.9927 35H23.0747C22.9547 35 22.8947 34.94 22.8947 34.82V29.132C22.8947 28.472 22.6907 27.932 22.2827 27.512C21.8867 27.092 21.3707 26.882 20.7347 26.882C20.0747 26.882 19.5407 27.086 19.1327 27.494C18.7247 27.902 18.5207 28.436 18.5207 29.096V34.82C18.5207 34.94 18.4607 35 18.3407 35H17.4227C17.3027 35 17.2427 34.94 17.2427 34.82V22.58C17.2427 22.46 17.3027 22.4 17.4227 22.4H18.3407C18.4607 22.4 18.5207 22.46 18.5207 22.58V26.846C18.5207 26.87 18.5267 26.888 18.5387 26.9C18.5627 26.912 18.5807 26.906 18.5927 26.882C19.1207 26.138 19.9307 25.766 21.0227 25.766ZM30.0959 25.748C31.1759 25.748 32.0099 26.024 32.5979 26.576C33.1859 27.128 33.4799 27.86 33.4799 28.772V34.82C33.4799 34.94 33.4199 35 33.2999 35H32.3819C32.2619 35 32.2019 34.94 32.2019 34.82V34.082C32.2019 34.058 32.1899 34.04 32.1659 34.028C32.1539 34.016 32.1359 34.022 32.1119 34.046C31.8119 34.406 31.4219 34.682 30.9419 34.874C30.4619 35.054 29.9279 35.144 29.3399 35.144C28.4879 35.144 27.7739 34.928 27.1979 34.496C26.6219 34.064 26.3339 33.404 26.3339 32.516C26.3339 31.616 26.6579 30.908 27.3059 30.392C27.9659 29.864 28.8779 29.6 30.0419 29.6H32.1299C32.1779 29.6 32.2019 29.576 32.2019 29.528V28.844C32.2019 28.232 32.0279 27.752 31.6799 27.404C31.3439 27.044 30.8159 26.864 30.0959 26.864C29.5199 26.864 29.0519 26.978 28.6919 27.206C28.3319 27.422 28.1099 27.728 28.0259 28.124C27.9899 28.244 27.9179 28.298 27.8099 28.286L26.8379 28.16C26.7059 28.136 26.6519 28.088 26.6759 28.016C26.7719 27.344 27.1319 26.798 27.7559 26.378C28.3799 25.958 29.1599 25.748 30.0959 25.748ZM29.5919 34.046C30.2999 34.046 30.9119 33.872 31.4279 33.524C31.9439 33.164 32.2019 32.684 32.2019 32.084V30.68C32.2019 30.632 32.1779 30.608 32.1299 30.608H30.2399C29.4479 30.608 28.8119 30.77 28.3319 31.094C27.8519 31.418 27.6119 31.868 27.6119 32.444C27.6119 32.972 27.7919 33.374 28.1519 33.65C28.5239 33.914 29.0039 34.046 29.5919 34.046ZM40.1549 26.774C40.1549 26.894 40.0949 26.954 39.9749 26.954H37.9409C37.8929 26.954 37.8689 26.978 37.8689 27.026V32.336C37.8689 32.912 37.9949 33.32 38.2469 33.56C38.5109 33.788 38.9189 33.902 39.4709 33.902H39.9209C40.0409 33.902 40.1009 33.962 40.1009 34.082V34.82C40.1009 34.94 40.0409 35 39.9209 35C39.7769 35.012 39.5549 35.018 39.2549 35.018C38.3909 35.018 37.7369 34.856 37.2929 34.532C36.8489 34.208 36.6269 33.608 36.6269 32.732V27.026C36.6269 26.978 36.6029 26.954 36.5549 26.954H35.4569C35.3369 26.954 35.2769 26.894 35.2769 26.774V26.072C35.2769 25.952 35.3369 25.892 35.4569 25.892H36.5549C36.6029 25.892 36.6269 25.868 36.6269 25.82V23.732C36.6269 23.612 36.6869 23.552 36.8069 23.552H37.6889C37.8089 23.552 37.8689 23.612 37.8689 23.732V25.82C37.8689 25.868 37.8929 25.892 37.9409 25.892H39.9749C40.0949 25.892 40.1549 25.952 40.1549 26.072V26.774ZM49.3791 25.748C50.4591 25.748 51.2931 26.024 51.8811 26.576C52.4691 27.128 52.7631 27.86 52.7631 28.772V34.82C52.7631 34.94 52.7031 35 52.5831 35H51.6651C51.5451 35 51.4851 34.94 51.4851 34.82V34.082C51.4851 34.058 51.4731 34.04 51.4491 34.028C51.4371 34.016 51.4191 34.022 51.3951 34.046C51.0951 34.406 50.7051 34.682 50.2251 34.874C49.7451 35.054 49.2111 35.144 48.6231 35.144C47.7711 35.144 47.0571 34.928 46.4811 34.496C45.9051 34.064 45.6171 33.404 45.6171 32.516C45.6171 31.616 45.9411 30.908 46.5891 30.392C47.2491 29.864 48.1611 29.6 49.3251 29.6H51.4131C51.4611 29.6 51.4851 29.576 51.4851 29.528V28.844C51.4851 28.232 51.3111 27.752 50.9631 27.404C50.6271 27.044 50.0991 26.864 49.3791 26.864C48.8031 26.864 48.3351 26.978 47.9751 27.206C47.6151 27.422 47.3931 27.728 47.3091 28.124C47.2731 28.244 47.2011 28.298 47.0931 28.286L46.1211 28.16C45.9891 28.136 45.9351 28.088 45.9591 28.016C46.0551 27.344 46.4151 26.798 47.0391 26.378C47.6631 25.958 48.4431 25.748 49.3791 25.748ZM48.8751 34.046C49.5831 34.046 50.1951 33.872 50.7111 33.524C51.2271 33.164 51.4851 32.684 51.4851 32.084V30.68C51.4851 30.632 51.4611 30.608 51.4131 30.608H49.5231C48.7311 30.608 48.0951 30.77 47.6151 31.094C47.1351 31.418 46.8951 31.868 46.8951 32.444C46.8951 32.972 47.0751 33.374 47.4351 33.65C47.8071 33.914 48.2871 34.046 48.8751 34.046ZM59.2024 25.766C60.1624 25.766 60.9244 26.048 61.4884 26.612C62.0644 27.176 62.3524 27.932 62.3524 28.88V34.82C62.3524 34.94 62.2924 35 62.1724 35H61.2544C61.1344 35 61.0744 34.94 61.0744 34.82V29.132C61.0744 28.472 60.8704 27.932 60.4624 27.512C60.0664 27.092 59.5504 26.882 58.9144 26.882C58.2544 26.882 57.7204 27.086 57.3124 27.494C56.9044 27.902 56.7004 28.436 56.7004 29.096V34.82C56.7004 34.94 56.6404 35 56.5204 35H55.6024C55.4824 35 55.4224 34.94 55.4224 34.82V26.072C55.4224 25.952 55.4824 25.892 55.6024 25.892H56.5204C56.6404 25.892 56.7004 25.952 56.7004 26.072V26.846C56.7004 26.87 56.7064 26.888 56.7184 26.9C56.7424 26.912 56.7604 26.906 56.7724 26.882C57.3004 26.138 58.1104 25.766 59.2024 25.766ZM70.6545 22.58C70.6545 22.46 70.7145 22.4 70.8345 22.4H71.7525C71.8725 22.4 71.9325 22.46 71.9325 22.58V34.82C71.9325 34.94 71.8725 35 71.7525 35H70.8345C70.7145 35 70.6545 34.94 70.6545 34.82V34.064C70.6545 34.04 70.6425 34.028 70.6185 34.028C70.6065 34.016 70.5885 34.022 70.5645 34.046C70.3005 34.394 69.9705 34.664 69.5745 34.856C69.1905 35.048 68.7585 35.144 68.2785 35.144C67.4385 35.144 66.7305 34.928 66.1545 34.496C65.5905 34.064 65.2005 33.476 64.9845 32.732C64.8165 32.192 64.7325 31.43 64.7325 30.446C64.7325 29.45 64.8045 28.706 64.9485 28.214C65.1645 27.446 65.5605 26.846 66.1365 26.414C66.7125 25.97 67.4265 25.748 68.2785 25.748C68.7465 25.748 69.1785 25.844 69.5745 26.036C69.9705 26.216 70.3005 26.48 70.5645 26.828C70.5885 26.852 70.6065 26.864 70.6185 26.864C70.6425 26.852 70.6545 26.834 70.6545 26.81V22.58ZM70.3305 32.642C70.4385 32.402 70.5165 32.12 70.5645 31.796C70.6125 31.472 70.6365 31.022 70.6365 30.446C70.6365 29.87 70.6125 29.42 70.5645 29.096C70.5165 28.76 70.4325 28.466 70.3125 28.214C70.1685 27.806 69.9285 27.482 69.5925 27.242C69.2685 26.99 68.8785 26.864 68.4225 26.864C67.9425 26.864 67.5285 26.984 67.1805 27.224C66.8325 27.464 66.5805 27.782 66.4245 28.178C66.2805 28.442 66.1725 28.742 66.1005 29.078C66.0405 29.402 66.0105 29.858 66.0105 30.446C66.0105 31.01 66.0345 31.454 66.0825 31.778C66.1305 32.09 66.2145 32.372 66.3345 32.624C66.4785 33.056 66.7305 33.398 67.0905 33.65C67.4625 33.902 67.9005 34.028 68.4045 34.028C68.8845 34.028 69.2865 33.902 69.6105 33.65C69.9345 33.398 70.1745 33.062 70.3305 32.642ZM81.1502 35C81.0542 35 80.9882 34.952 80.9522 34.856L77.4962 22.598L77.4782 22.544C77.4782 22.448 77.5382 22.4 77.6582 22.4H78.6122C78.7202 22.4 78.7862 22.448 78.8102 22.544L81.5462 32.408C81.5582 32.432 81.5702 32.444 81.5822 32.444C81.6062 32.444 81.6242 32.432 81.6362 32.408L84.1742 22.562C84.1982 22.454 84.2642 22.4 84.3722 22.4H85.3442C85.4522 22.4 85.5182 22.454 85.5422 22.562L88.1882 32.408C88.2002 32.432 88.2122 32.444 88.2242 32.444C88.2482 32.444 88.2662 32.432 88.2782 32.408L91.0142 22.544C91.0382 22.448 91.1042 22.4 91.2122 22.4H92.1302C92.1902 22.4 92.2322 22.418 92.2562 22.454C92.2922 22.49 92.3042 22.538 92.2922 22.598L88.8902 34.856C88.8662 34.952 88.8002 35 88.6922 35H87.7382C87.6302 35 87.5642 34.946 87.5402 34.838L84.9122 24.758C84.9002 24.734 84.8822 24.722 84.8582 24.722C84.8462 24.722 84.8342 24.734 84.8222 24.758L82.2482 34.838C82.2362 34.946 82.1702 35 82.0502 35H81.1502ZM98.0149 25.766C98.9749 25.766 99.7369 26.048 100.301 26.612C100.877 27.176 101.165 27.932 101.165 28.88V34.82C101.165 34.94 101.105 35 100.985 35H100.067C99.9469 35 99.8869 34.94 99.8869 34.82V29.132C99.8869 28.472 99.6829 27.932 99.2749 27.512C98.8789 27.092 98.3629 26.882 97.7269 26.882C97.0669 26.882 96.5329 27.086 96.1249 27.494C95.7169 27.902 95.5129 28.436 95.5129 29.096V34.82C95.5129 34.94 95.4529 35 95.3329 35H94.4149C94.2949 35 94.2349 34.94 94.2349 34.82V22.58C94.2349 22.46 94.2949 22.4 94.4149 22.4H95.3329C95.4529 22.4 95.5129 22.46 95.5129 22.58V26.846C95.5129 26.87 95.5189 26.888 95.5309 26.9C95.5549 26.912 95.5729 26.906 95.5849 26.882C96.1129 26.138 96.9229 25.766 98.0149 25.766ZM103.366 38.6C103.282 38.6 103.24 38.54 103.24 38.42V37.7C103.24 37.58 103.3 37.52 103.42 37.52H103.492C103.96 37.508 104.32 37.436 104.572 37.304C104.836 37.184 105.058 36.95 105.238 36.602C105.43 36.266 105.634 35.75 105.85 35.054C105.874 35.006 105.874 34.97 105.85 34.946L102.808 26.09L102.79 26.018C102.79 25.934 102.844 25.892 102.952 25.892H103.906C104.014 25.892 104.086 25.94 104.122 26.036L106.462 33.308C106.474 33.332 106.492 33.344 106.516 33.344C106.54 33.344 106.558 33.332 106.57 33.308L108.874 26.036C108.91 25.94 108.982 25.892 109.09 25.892H110.026C110.158 25.892 110.206 25.958 110.17 26.09L106.84 35.792C106.552 36.596 106.282 37.19 106.03 37.574C105.778 37.958 105.46 38.222 105.076 38.366C104.704 38.522 104.176 38.6 103.492 38.6H103.366ZM119.154 35.144C118.29 35.144 117.546 34.922 116.922 34.478C116.298 34.034 115.866 33.422 115.626 32.642C115.458 32.09 115.374 31.352 115.374 30.428C115.374 29.504 115.458 28.772 115.626 28.232C115.854 27.464 116.28 26.858 116.904 26.414C117.528 25.97 118.284 25.748 119.172 25.748C120.024 25.748 120.756 25.97 121.368 26.414C121.992 26.858 122.418 27.458 122.646 28.214C122.814 28.73 122.898 29.468 122.898 30.428C122.898 31.4 122.814 32.138 122.646 32.642C122.418 33.422 121.992 34.034 121.368 34.478C120.756 34.922 120.018 35.144 119.154 35.144ZM119.154 34.028C119.73 34.028 120.222 33.872 120.63 33.56C121.038 33.236 121.314 32.804 121.458 32.264C121.566 31.832 121.62 31.226 121.62 30.446C121.62 29.654 121.572 29.048 121.476 28.628C121.332 28.088 121.05 27.662 120.63 27.35C120.222 27.026 119.724 26.864 119.136 26.864C118.548 26.864 118.05 27.026 117.642 27.35C117.234 27.662 116.958 28.088 116.814 28.628C116.718 29.048 116.67 29.654 116.67 30.446C116.67 31.238 116.718 31.844 116.814 32.264C116.946 32.804 117.216 33.236 117.624 33.56C118.044 33.872 118.554 34.028 119.154 34.028ZM128.983 23.516C128.323 23.516 127.873 23.666 127.633 23.966C127.393 24.254 127.273 24.752 127.273 25.46V25.82C127.273 25.868 127.297 25.892 127.345 25.892H129.361C129.481 25.892 129.541 25.952 129.541 26.072V26.882C129.541 27.002 129.481 27.062 129.361 27.062H127.345C127.297 27.062 127.273 27.086 127.273 27.134V34.82C127.273 34.94 127.213 35 127.093 35H126.193C126.073 35 126.013 34.94 126.013 34.82V27.134C126.013 27.086 125.989 27.062 125.941 27.062H124.735C124.615 27.062 124.555 27.002 124.555 26.882V26.072C124.555 25.952 124.615 25.892 124.735 25.892H125.941C125.989 25.892 126.013 25.868 126.013 25.82V25.388C126.013 24.644 126.097 24.062 126.265 23.642C126.433 23.21 126.721 22.898 127.129 22.706C127.549 22.502 128.131 22.4 128.875 22.4H129.397C129.517 22.4 129.577 22.46 129.577 22.58V23.336C129.577 23.456 129.517 23.516 129.397 23.516H128.983ZM139.795 35.144C138.955 35.144 138.211 34.976 137.563 34.64C136.915 34.304 136.411 33.836 136.051 33.236C135.691 32.624 135.511 31.916 135.511 31.112V22.58C135.511 22.46 135.571 22.4 135.691 22.4H136.609C136.729 22.4 136.789 22.46 136.789 22.58V31.148C136.789 32 137.065 32.696 137.617 33.236C138.169 33.764 138.895 34.028 139.795 34.028C140.695 34.028 141.421 33.764 141.973 33.236C142.525 32.696 142.801 32 142.801 31.148V22.58C142.801 22.46 142.861 22.4 142.981 22.4H143.899C144.019 22.4 144.079 22.46 144.079 22.58V31.112C144.079 31.916 143.899 32.624 143.539 33.236C143.191 33.836 142.693 34.304 142.045 34.64C141.397 34.976 140.647 35.144 139.795 35.144ZM146.463 35C146.391 35 146.343 34.982 146.319 34.946C146.307 34.898 146.319 34.844 146.355 34.784L150.135 28.754C150.159 28.718 150.159 28.682 150.135 28.646L146.355 22.616C146.331 22.568 146.319 22.532 146.319 22.508C146.319 22.436 146.367 22.4 146.463 22.4H147.471C147.555 22.4 147.627 22.442 147.687 22.526L150.891 27.656C150.903 27.668 150.921 27.674 150.945 27.674C150.969 27.674 150.987 27.668 150.999 27.656L154.185 22.526C154.245 22.442 154.317 22.4 154.401 22.4H155.391C155.463 22.4 155.505 22.424 155.517 22.472C155.541 22.508 155.535 22.556 155.499 22.616L151.737 28.664C151.725 28.7 151.725 28.736 151.737 28.772L155.499 34.784C155.523 34.832 155.535 34.868 155.535 34.892C155.535 34.964 155.487 35 155.391 35H154.401C154.317 35 154.245 34.958 154.185 34.874L150.999 29.762C150.987 29.738 150.969 29.726 150.945 29.726C150.921 29.726 150.903 29.738 150.891 29.762L147.687 34.874C147.627 34.958 147.555 35 147.471 35H146.463Z" fill="black"/>
<path d="M0 14.8H99.0375V15.7H0V14.8Z" fill="black"/>
</svg>
