<svg width="241" height="69" viewBox="0 0 241 69" fill="none" xmlns="http://www.w3.org/2000/svg">
<g filter="url(#filter0_d_298_256)">
<path d="M8.526 13.162C7.686 13.162 6.948 13 6.312 12.676C5.676 12.34 5.178 11.872 4.818 11.272C4.47 10.66 4.296 9.958 4.296 9.166V4.216C4.296 3.436 4.47 2.746 4.818 2.146C5.178 1.546 5.676 1.084 6.312 0.76C6.948 0.424 7.686 0.256 8.526 0.256C9.366 0.256 10.104 0.418 10.74 0.741999C11.376 1.066 11.868 1.522 12.216 2.11C12.576 2.698 12.756 3.376 12.756 4.144C12.756 4.204 12.738 4.252 12.702 4.288C12.666 4.324 12.624 4.342 12.576 4.342L11.658 4.396C11.538 4.396 11.478 4.342 11.478 4.234V4.18C11.478 3.328 11.208 2.65 10.668 2.146C10.128 1.63 9.414 1.372 8.526 1.372C7.638 1.372 6.924 1.63 6.384 2.146C5.844 2.662 5.574 3.34 5.574 4.18V9.22C5.574 10.06 5.844 10.738 6.384 11.254C6.924 11.77 7.638 12.028 8.526 12.028C9.414 12.028 10.128 11.776 10.668 11.272C11.208 10.756 11.478 10.072 11.478 9.22V9.184C11.478 9.076 11.538 9.022 11.658 9.022L12.576 9.076C12.696 9.076 12.756 9.13 12.756 9.238C12.756 10.018 12.576 10.708 12.216 11.308C11.868 11.896 11.376 12.352 10.74 12.676C10.104 13 9.366 13.162 8.526 13.162ZM18.83 13.144C17.966 13.144 17.222 12.922 16.598 12.478C15.974 12.034 15.542 11.422 15.302 10.642C15.134 10.09 15.05 9.352 15.05 8.428C15.05 7.504 15.134 6.772 15.302 6.232C15.53 5.464 15.956 4.858 16.58 4.414C17.204 3.97 17.96 3.748 18.848 3.748C19.7 3.748 20.432 3.97 21.044 4.414C21.668 4.858 22.094 5.458 22.322 6.214C22.49 6.73 22.574 7.468 22.574 8.428C22.574 9.4 22.49 10.138 22.322 10.642C22.094 11.422 21.668 12.034 21.044 12.478C20.432 12.922 19.694 13.144 18.83 13.144ZM18.83 12.028C19.406 12.028 19.898 11.872 20.306 11.56C20.714 11.236 20.99 10.804 21.134 10.264C21.242 9.832 21.296 9.226 21.296 8.446C21.296 7.654 21.248 7.048 21.152 6.628C21.008 6.088 20.726 5.662 20.306 5.35C19.898 5.026 19.4 4.864 18.812 4.864C18.224 4.864 17.726 5.026 17.318 5.35C16.91 5.662 16.634 6.088 16.49 6.628C16.394 7.048 16.346 7.654 16.346 8.446C16.346 9.238 16.394 9.844 16.49 10.264C16.622 10.804 16.892 11.236 17.3 11.56C17.72 11.872 18.23 12.028 18.83 12.028ZM30.6726 4.072C30.6726 3.952 30.7326 3.892 30.8526 3.892H31.7706C31.8906 3.892 31.9506 3.952 31.9506 4.072V12.82C31.9506 12.94 31.8906 13 31.7706 13H30.8526C30.7326 13 30.6726 12.94 30.6726 12.82V12.046C30.6726 12.022 30.6606 12.004 30.6366 11.992C30.6126 11.98 30.5946 11.986 30.5826 12.01C30.0786 12.754 29.2806 13.126 28.1886 13.126C27.6126 13.126 27.0786 13.012 26.5866 12.784C26.1066 12.544 25.7226 12.202 25.4346 11.758C25.1586 11.314 25.0206 10.78 25.0206 10.156V4.072C25.0206 3.952 25.0806 3.892 25.2006 3.892H26.1186C26.2386 3.892 26.2986 3.952 26.2986 4.072V9.778C26.2986 10.462 26.4906 11.008 26.8746 11.416C27.2586 11.812 27.7806 12.01 28.4406 12.01C29.1246 12.01 29.6646 11.806 30.0606 11.398C30.4686 10.99 30.6726 10.45 30.6726 9.778V4.072ZM38.487 3.802C38.883 3.802 39.225 3.88 39.513 4.036C39.609 4.084 39.645 4.162 39.621 4.27L39.423 5.152C39.387 5.272 39.309 5.308 39.189 5.26C38.985 5.176 38.751 5.134 38.487 5.134L38.253 5.152C37.629 5.176 37.113 5.41 36.705 5.854C36.297 6.286 36.093 6.838 36.093 7.51V12.82C36.093 12.94 36.033 13 35.913 13H34.995C34.875 13 34.815 12.94 34.815 12.82V4.072C34.815 3.952 34.875 3.892 34.995 3.892H35.913C36.033 3.892 36.093 3.952 36.093 4.072V5.17C36.093 5.206 36.099 5.23 36.111 5.242C36.135 5.242 36.153 5.23 36.165 5.206C36.417 4.762 36.735 4.42 37.119 4.18C37.515 3.928 37.971 3.802 38.487 3.802ZM44.3069 13.09C43.6349 13.09 43.0349 12.982 42.5069 12.766C41.9909 12.55 41.5889 12.262 41.3009 11.902C41.0249 11.542 40.8869 11.14 40.8869 10.696V10.48C40.8869 10.36 40.9469 10.3 41.0669 10.3H41.9309C42.0509 10.3 42.1109 10.36 42.1109 10.48V10.624C42.1109 11.02 42.3149 11.368 42.7229 11.668C43.1429 11.956 43.6649 12.1 44.2889 12.1C44.9129 12.1 45.4169 11.962 45.8009 11.686C46.1849 11.398 46.3769 11.038 46.3769 10.606C46.3769 10.306 46.2749 10.06 46.0709 9.868C45.8789 9.676 45.6449 9.526 45.3689 9.418C45.1049 9.31 44.6909 9.172 44.1269 9.004C43.4549 8.812 42.9029 8.62 42.4709 8.428C42.0389 8.236 41.6729 7.972 41.3729 7.636C41.0849 7.288 40.9409 6.85 40.9409 6.322C40.9409 5.554 41.2409 4.942 41.8409 4.486C42.4409 4.03 43.2329 3.802 44.2169 3.802C44.8769 3.802 45.4589 3.91 45.9629 4.126C46.4789 4.342 46.8749 4.642 47.1509 5.026C47.4269 5.398 47.5649 5.818 47.5649 6.286V6.34C47.5649 6.46 47.5049 6.52 47.3849 6.52H46.5389C46.4189 6.52 46.3589 6.46 46.3589 6.34V6.286C46.3589 5.878 46.1609 5.536 45.7649 5.26C45.3809 4.984 44.8589 4.846 44.1989 4.846C43.5869 4.846 43.0949 4.972 42.7229 5.224C42.3509 5.464 42.1649 5.8 42.1649 6.232C42.1649 6.64 42.3449 6.952 42.7049 7.168C43.0649 7.384 43.6229 7.6 44.3789 7.816C45.0749 8.02 45.6389 8.212 46.0709 8.392C46.5029 8.572 46.8749 8.836 47.1869 9.184C47.4989 9.52 47.6549 9.964 47.6549 10.516C47.6549 11.296 47.3489 11.92 46.7369 12.388C46.1249 12.856 45.3149 13.09 44.3069 13.09ZM56.9689 6.916C57.0169 7.252 57.0409 7.672 57.0409 8.176V8.752C57.0409 8.872 56.9809 8.932 56.8609 8.932H51.0469C50.9989 8.932 50.9749 8.956 50.9749 9.004C50.9989 9.664 51.0349 10.09 51.0829 10.282C51.2149 10.822 51.4969 11.248 51.9289 11.56C52.3609 11.872 52.9129 12.028 53.5849 12.028C54.0889 12.028 54.5329 11.914 54.9169 11.686C55.3009 11.458 55.6009 11.134 55.8169 10.714C55.8889 10.606 55.9729 10.582 56.0689 10.642L56.7709 11.056C56.8669 11.116 56.8909 11.2 56.8429 11.308C56.5429 11.884 56.0929 12.34 55.4929 12.676C54.8929 13 54.2029 13.162 53.4229 13.162C52.5709 13.15 51.8569 12.946 51.2809 12.55C50.7049 12.154 50.2909 11.602 50.0389 10.894C49.8229 10.318 49.7149 9.49 49.7149 8.41C49.7149 7.906 49.7209 7.498 49.7329 7.186C49.7569 6.862 49.8049 6.574 49.8769 6.322C50.0809 5.542 50.4889 4.918 51.1009 4.45C51.7249 3.982 52.4749 3.748 53.3509 3.748C54.4429 3.748 55.2829 4.024 55.8709 4.576C56.4589 5.128 56.8249 5.908 56.9689 6.916ZM53.3509 4.864C52.7629 4.864 52.2709 5.02 51.8749 5.332C51.4909 5.632 51.2389 6.04 51.1189 6.556C51.0469 6.808 50.9989 7.216 50.9749 7.78C50.9749 7.828 50.9989 7.852 51.0469 7.852H55.7089C55.7569 7.852 55.7809 7.828 55.7809 7.78C55.7569 7.24 55.7209 6.856 55.6729 6.628C55.5409 6.088 55.2709 5.662 54.8629 5.35C54.4669 5.026 53.9629 4.864 53.3509 4.864ZM61.1846 6.7C60.8846 6.7 60.6386 6.604 60.4466 6.412C60.2666 6.22 60.1766 5.98 60.1766 5.692C60.1766 5.392 60.2666 5.152 60.4466 4.972C60.6386 4.78 60.8846 4.684 61.1846 4.684C61.4726 4.684 61.7126 4.78 61.9046 4.972C62.0966 5.152 62.1926 5.392 62.1926 5.692C62.1926 5.98 62.0966 6.22 61.9046 6.412C61.7126 6.604 61.4726 6.7 61.1846 6.7ZM61.1846 12.766C60.8846 12.766 60.6386 12.67 60.4466 12.478C60.2666 12.286 60.1766 12.046 60.1766 11.758C60.1766 11.458 60.2666 11.218 60.4466 11.038C60.6386 10.846 60.8846 10.75 61.1846 10.75C61.4726 10.75 61.7126 10.846 61.9046 11.038C62.0966 11.218 62.1926 11.458 62.1926 11.758C62.1926 12.046 62.0966 12.286 61.9046 12.478C61.7126 12.67 61.4726 12.766 61.1846 12.766ZM12.864 22.526C12.924 22.442 12.996 22.4 13.08 22.4H14.016C14.136 22.4 14.196 22.46 14.196 22.58V34.82C14.196 34.94 14.136 35 14.016 35H13.098C12.978 35 12.918 34.94 12.918 34.82V24.812C12.918 24.776 12.906 24.752 12.882 24.74C12.858 24.728 12.84 24.74 12.828 24.776L9.894 29.276C9.834 29.36 9.762 29.402 9.678 29.402H9.21C9.126 29.402 9.054 29.366 8.994 29.294L6.06 24.83C6.048 24.794 6.03 24.782 6.006 24.794C5.982 24.806 5.97 24.83 5.97 24.866V34.82C5.97 34.94 5.91 35 5.79 35H4.872C4.752 35 4.692 34.94 4.692 34.82V22.58C4.692 22.46 4.752 22.4 4.872 22.4H5.808C5.904 22.4 5.976 22.436 6.024 22.508L9.408 27.638C9.42 27.65 9.438 27.656 9.462 27.656C9.486 27.656 9.504 27.65 9.516 27.638L12.864 22.526ZM25.7132 23.336C25.7132 23.456 25.6532 23.516 25.5332 23.516H18.9092C18.8612 23.516 18.8372 23.54 18.8372 23.588V28.034C18.8372 28.082 18.8612 28.106 18.9092 28.106H23.5532C23.6732 28.106 23.7332 28.166 23.7332 28.286V29.042C23.7332 29.162 23.6732 29.222 23.5532 29.222H18.9092C18.8612 29.222 18.8372 29.246 18.8372 29.294V33.812C18.8372 33.86 18.8612 33.884 18.9092 33.884H25.5332C25.6532 33.884 25.7132 33.944 25.7132 34.064V34.82C25.7132 34.94 25.6532 35 25.5332 35H17.7392C17.6192 35 17.5592 34.94 17.5592 34.82V22.58C17.5592 22.46 17.6192 22.4 17.7392 22.4H25.5332C25.6532 22.4 25.7132 22.46 25.7132 22.58V23.336ZM28.6376 35C28.5176 35 28.4576 34.94 28.4576 34.82V22.58C28.4576 22.46 28.5176 22.4 28.6376 22.4H32.8856C34.0736 22.4 35.0156 22.712 35.7116 23.336C36.4196 23.96 36.7736 24.806 36.7736 25.874V31.526C36.7736 32.594 36.4196 33.44 35.7116 34.064C35.0156 34.688 34.0736 35 32.8856 35H28.6376ZM29.7356 33.812C29.7356 33.86 29.7596 33.884 29.8076 33.884H32.9396C33.7196 33.884 34.3376 33.656 34.7936 33.2C35.2616 32.744 35.4956 32.132 35.4956 31.364V26.054C35.4956 25.274 35.2676 24.656 34.8116 24.2C34.3556 23.744 33.7316 23.516 32.9396 23.516H29.8076C29.7596 23.516 29.7356 23.54 29.7356 23.588V33.812ZM40.6286 33.794C40.5926 33.854 40.6046 33.884 40.6646 33.884H46.3166C46.4366 33.884 46.4966 33.944 46.4966 34.064V34.82C46.4966 34.94 46.4366 35 46.3166 35H39.1346C39.0146 35 38.9546 34.94 38.9546 34.82V34.064C38.9546 33.98 38.9846 33.908 39.0446 33.848C39.4526 33.368 40.3706 32.24 41.7986 30.464L43.1306 28.808C44.2586 27.38 44.8226 26.27 44.8226 25.478C44.8226 24.842 44.6066 24.332 44.1746 23.948C43.7426 23.564 43.1786 23.372 42.4826 23.372C41.7986 23.372 41.2466 23.57 40.8266 23.966C40.4066 24.35 40.2026 24.86 40.2146 25.496V26.054C40.2146 26.174 40.1546 26.234 40.0346 26.234H39.0986C38.9786 26.234 38.9186 26.174 38.9186 26.054V25.334C38.9426 24.41 39.2846 23.666 39.9446 23.102C40.6166 22.538 41.4626 22.256 42.4826 22.256C43.2026 22.256 43.8386 22.394 44.3906 22.67C44.9426 22.946 45.3686 23.33 45.6686 23.822C45.9686 24.302 46.1186 24.848 46.1186 25.46C46.1186 26.48 45.5546 27.71 44.4266 29.15C43.8386 29.906 42.7046 31.298 41.0246 33.326L40.6286 33.794ZM52.0285 29.96C51.9085 29.96 51.8485 29.9 51.8485 29.78V29.024C51.8485 28.904 51.9085 28.844 52.0285 28.844H57.3565C57.4765 28.844 57.5365 28.904 57.5365 29.024V29.78C57.5365 29.9 57.4765 29.96 57.3565 29.96H52.0285ZM68.314 22.382C69.37 22.382 70.216 22.706 70.852 23.354C71.5 24.002 71.824 24.854 71.824 25.91C71.824 26.954 71.494 27.794 70.834 28.43C70.186 29.066 69.328 29.384 68.26 29.384H64.75C64.702 29.384 64.678 29.408 64.678 29.456V34.82C64.678 34.94 64.618 35 64.498 35H63.58C63.46 35 63.4 34.94 63.4 34.82V22.562C63.4 22.442 63.46 22.382 63.58 22.382H68.314ZM68.17 28.322C68.878 28.322 69.454 28.106 69.898 27.674C70.342 27.23 70.564 26.648 70.564 25.928C70.564 25.196 70.342 24.608 69.898 24.164C69.454 23.72 68.878 23.498 68.17 23.498H64.75C64.702 23.498 64.678 23.522 64.678 23.57V28.25C64.678 28.298 64.702 28.322 64.75 28.322H68.17ZM77.5983 25.802C77.9943 25.802 78.3363 25.88 78.6243 26.036C78.7203 26.084 78.7563 26.162 78.7323 26.27L78.5343 27.152C78.4983 27.272 78.4203 27.308 78.3003 27.26C78.0963 27.176 77.8623 27.134 77.5983 27.134L77.3643 27.152C76.7403 27.176 76.2243 27.41 75.8163 27.854C75.4083 28.286 75.2043 28.838 75.2043 29.51V34.82C75.2043 34.94 75.1443 35 75.0243 35H74.1063C73.9863 35 73.9263 34.94 73.9263 34.82V26.072C73.9263 25.952 73.9863 25.892 74.1063 25.892H75.0243C75.1443 25.892 75.2043 25.952 75.2043 26.072V27.17C75.2043 27.206 75.2103 27.23 75.2223 27.242C75.2463 27.242 75.2643 27.23 75.2763 27.206C75.5283 26.762 75.8463 26.42 76.2303 26.18C76.6263 25.928 77.0823 25.802 77.5983 25.802ZM83.8691 35.144C83.0051 35.144 82.2611 34.922 81.6371 34.478C81.0131 34.034 80.5811 33.422 80.3411 32.642C80.1731 32.09 80.0891 31.352 80.0891 30.428C80.0891 29.504 80.1731 28.772 80.3411 28.232C80.5691 27.464 80.9951 26.858 81.6191 26.414C82.2431 25.97 82.9991 25.748 83.8871 25.748C84.7391 25.748 85.4711 25.97 86.0831 26.414C86.7071 26.858 87.1331 27.458 87.3611 28.214C87.5291 28.73 87.6131 29.468 87.6131 30.428C87.6131 31.4 87.5291 32.138 87.3611 32.642C87.1331 33.422 86.7071 34.034 86.0831 34.478C85.4711 34.922 84.7331 35.144 83.8691 35.144ZM83.8691 34.028C84.4451 34.028 84.9371 33.872 85.3451 33.56C85.7531 33.236 86.0291 32.804 86.1731 32.264C86.2811 31.832 86.3351 31.226 86.3351 30.446C86.3351 29.654 86.2871 29.048 86.1911 28.628C86.0471 28.088 85.7651 27.662 85.3451 27.35C84.9371 27.026 84.4391 26.864 83.8511 26.864C83.2631 26.864 82.7651 27.026 82.3571 27.35C81.9491 27.662 81.6731 28.088 81.5291 28.628C81.4331 29.048 81.3851 29.654 81.3851 30.446C81.3851 31.238 81.4331 31.844 81.5291 32.264C81.6611 32.804 81.9311 33.236 82.3391 33.56C82.7591 33.872 83.2691 34.028 83.8691 34.028ZM95.8197 26.072C95.8197 25.952 95.8797 25.892 95.9997 25.892H96.9177C97.0377 25.892 97.0977 25.952 97.0977 26.072V34.694C97.0977 36.038 96.7077 37.022 95.9277 37.646C95.1597 38.27 94.0977 38.582 92.7417 38.582C92.4657 38.582 92.2557 38.576 92.1117 38.564C91.9917 38.552 91.9317 38.486 91.9317 38.366L91.9677 37.538C91.9677 37.478 91.9857 37.43 92.0217 37.394C92.0577 37.37 92.0997 37.364 92.1477 37.376L92.6337 37.394C93.7497 37.394 94.5597 37.172 95.0637 36.728C95.5677 36.296 95.8197 35.606 95.8197 34.658V33.992C95.8197 33.968 95.8077 33.956 95.7837 33.956C95.7717 33.944 95.7537 33.95 95.7297 33.974C95.1777 34.694 94.3917 35.054 93.3717 35.054C92.5917 35.054 91.8957 34.844 91.2837 34.424C90.6837 34.004 90.2817 33.41 90.0777 32.642C89.9337 32.15 89.8617 31.418 89.8617 30.446C89.8617 29.918 89.8737 29.474 89.8977 29.114C89.9337 28.754 89.9997 28.43 90.0957 28.142C90.3117 27.422 90.7017 26.846 91.2657 26.414C91.8297 25.97 92.5077 25.748 93.2997 25.748C94.3677 25.748 95.1777 26.102 95.7297 26.81C95.7537 26.834 95.7717 26.84 95.7837 26.828C95.8077 26.816 95.8197 26.798 95.8197 26.774V26.072ZM95.7297 32.246C95.7657 32.066 95.7897 31.844 95.8017 31.58C95.8137 31.316 95.8197 30.932 95.8197 30.428C95.8197 29.816 95.8137 29.408 95.8017 29.204C95.7897 28.988 95.7597 28.79 95.7117 28.61C95.6157 28.106 95.3757 27.692 94.9917 27.368C94.6197 27.032 94.1457 26.864 93.5697 26.864C93.0057 26.864 92.5257 27.026 92.1297 27.35C91.7457 27.674 91.4757 28.094 91.3197 28.61C91.1997 28.994 91.1397 29.594 91.1397 30.41C91.1397 31.286 91.1997 31.892 91.3197 32.228C91.4397 32.732 91.6977 33.152 92.0937 33.488C92.5017 33.812 92.9937 33.974 93.5697 33.974C94.1577 33.974 94.6377 33.812 95.0097 33.488C95.3937 33.164 95.6337 32.75 95.7297 32.246ZM103.508 25.802C103.904 25.802 104.246 25.88 104.534 26.036C104.63 26.084 104.666 26.162 104.642 26.27L104.444 27.152C104.408 27.272 104.33 27.308 104.21 27.26C104.006 27.176 103.772 27.134 103.508 27.134L103.274 27.152C102.65 27.176 102.134 27.41 101.726 27.854C101.318 28.286 101.114 28.838 101.114 29.51V34.82C101.114 34.94 101.054 35 100.934 35H100.016C99.8965 35 99.8365 34.94 99.8365 34.82V26.072C99.8365 25.952 99.8965 25.892 100.016 25.892H100.934C101.054 25.892 101.114 25.952 101.114 26.072V27.17C101.114 27.206 101.12 27.23 101.132 27.242C101.156 27.242 101.174 27.23 101.186 27.206C101.438 26.762 101.756 26.42 102.14 26.18C102.536 25.928 102.992 25.802 103.508 25.802ZM109.508 25.748C110.588 25.748 111.422 26.024 112.01 26.576C112.598 27.128 112.892 27.86 112.892 28.772V34.82C112.892 34.94 112.832 35 112.712 35H111.794C111.674 35 111.614 34.94 111.614 34.82V34.082C111.614 34.058 111.602 34.04 111.578 34.028C111.566 34.016 111.548 34.022 111.524 34.046C111.224 34.406 110.834 34.682 110.354 34.874C109.874 35.054 109.34 35.144 108.752 35.144C107.9 35.144 107.186 34.928 106.61 34.496C106.034 34.064 105.746 33.404 105.746 32.516C105.746 31.616 106.07 30.908 106.718 30.392C107.378 29.864 108.29 29.6 109.454 29.6H111.542C111.59 29.6 111.614 29.576 111.614 29.528V28.844C111.614 28.232 111.44 27.752 111.092 27.404C110.756 27.044 110.228 26.864 109.508 26.864C108.932 26.864 108.464 26.978 108.104 27.206C107.744 27.422 107.522 27.728 107.438 28.124C107.402 28.244 107.33 28.298 107.222 28.286L106.25 28.16C106.118 28.136 106.064 28.088 106.088 28.016C106.184 27.344 106.544 26.798 107.168 26.378C107.792 25.958 108.572 25.748 109.508 25.748ZM109.004 34.046C109.712 34.046 110.324 33.872 110.84 33.524C111.356 33.164 111.614 32.684 111.614 32.084V30.68C111.614 30.632 111.59 30.608 111.542 30.608H109.652C108.86 30.608 108.224 30.77 107.744 31.094C107.264 31.418 107.024 31.868 107.024 32.444C107.024 32.972 107.204 33.374 107.564 33.65C107.936 33.914 108.416 34.046 109.004 34.046ZM124.767 25.766C125.667 25.766 126.375 26.036 126.891 26.576C127.419 27.116 127.683 27.854 127.683 28.79V34.82C127.683 34.94 127.623 35 127.503 35H126.603C126.483 35 126.423 34.94 126.423 34.82V29.042C126.423 28.382 126.231 27.86 125.847 27.476C125.475 27.08 124.983 26.882 124.371 26.882C123.735 26.882 123.219 27.074 122.823 27.458C122.439 27.842 122.247 28.358 122.247 29.006V34.82C122.247 34.94 122.187 35 122.067 35H121.149C121.029 35 120.969 34.94 120.969 34.82V29.042C120.969 28.382 120.783 27.86 120.411 27.476C120.039 27.08 119.541 26.882 118.917 26.882C118.281 26.882 117.771 27.074 117.387 27.458C117.015 27.842 116.829 28.358 116.829 29.006V34.82C116.829 34.94 116.769 35 116.649 35H115.731C115.611 35 115.551 34.94 115.551 34.82V26.072C115.551 25.952 115.611 25.892 115.731 25.892H116.649C116.769 25.892 116.829 25.952 116.829 26.072V26.792C116.829 26.816 116.835 26.834 116.847 26.846C116.871 26.846 116.895 26.834 116.919 26.81C117.183 26.462 117.519 26.204 117.927 26.036C118.347 25.856 118.809 25.766 119.313 25.766C119.937 25.766 120.471 25.892 120.915 26.144C121.359 26.396 121.695 26.762 121.923 27.242C121.947 27.302 121.977 27.302 122.013 27.242C122.277 26.75 122.649 26.384 123.129 26.144C123.609 25.892 124.155 25.766 124.767 25.766ZM139.656 25.766C140.556 25.766 141.264 26.036 141.78 26.576C142.308 27.116 142.572 27.854 142.572 28.79V34.82C142.572 34.94 142.512 35 142.392 35H141.492C141.372 35 141.312 34.94 141.312 34.82V29.042C141.312 28.382 141.12 27.86 140.736 27.476C140.364 27.08 139.872 26.882 139.26 26.882C138.624 26.882 138.108 27.074 137.712 27.458C137.328 27.842 137.136 28.358 137.136 29.006V34.82C137.136 34.94 137.076 35 136.956 35H136.038C135.918 35 135.858 34.94 135.858 34.82V29.042C135.858 28.382 135.672 27.86 135.3 27.476C134.928 27.08 134.43 26.882 133.806 26.882C133.17 26.882 132.66 27.074 132.276 27.458C131.904 27.842 131.718 28.358 131.718 29.006V34.82C131.718 34.94 131.658 35 131.538 35H130.62C130.5 35 130.44 34.94 130.44 34.82V26.072C130.44 25.952 130.5 25.892 130.62 25.892H131.538C131.658 25.892 131.718 25.952 131.718 26.072V26.792C131.718 26.816 131.724 26.834 131.736 26.846C131.76 26.846 131.784 26.834 131.808 26.81C132.072 26.462 132.408 26.204 132.816 26.036C133.236 25.856 133.698 25.766 134.202 25.766C134.826 25.766 135.36 25.892 135.804 26.144C136.248 26.396 136.584 26.762 136.812 27.242C136.836 27.302 136.866 27.302 136.902 27.242C137.166 26.75 137.538 26.384 138.018 26.144C138.498 25.892 139.044 25.766 139.656 25.766ZM152.19 28.916C152.238 29.252 152.262 29.672 152.262 30.176V30.752C152.262 30.872 152.202 30.932 152.082 30.932H146.268C146.22 30.932 146.196 30.956 146.196 31.004C146.22 31.664 146.256 32.09 146.304 32.282C146.436 32.822 146.718 33.248 147.15 33.56C147.582 33.872 148.134 34.028 148.806 34.028C149.31 34.028 149.754 33.914 150.138 33.686C150.522 33.458 150.822 33.134 151.038 32.714C151.11 32.606 151.194 32.582 151.29 32.642L151.992 33.056C152.088 33.116 152.112 33.2 152.064 33.308C151.764 33.884 151.314 34.34 150.714 34.676C150.114 35 149.424 35.162 148.644 35.162C147.792 35.15 147.078 34.946 146.502 34.55C145.926 34.154 145.512 33.602 145.26 32.894C145.044 32.318 144.936 31.49 144.936 30.41C144.936 29.906 144.942 29.498 144.954 29.186C144.978 28.862 145.026 28.574 145.098 28.322C145.302 27.542 145.71 26.918 146.322 26.45C146.946 25.982 147.696 25.748 148.572 25.748C149.664 25.748 150.504 26.024 151.092 26.576C151.68 27.128 152.046 27.908 152.19 28.916ZM148.572 26.864C147.984 26.864 147.492 27.02 147.096 27.332C146.712 27.632 146.46 28.04 146.34 28.556C146.268 28.808 146.22 29.216 146.196 29.78C146.196 29.828 146.22 29.852 146.268 29.852H150.93C150.978 29.852 151.002 29.828 151.002 29.78C150.978 29.24 150.942 28.856 150.894 28.628C150.762 28.088 150.492 27.662 150.084 27.35C149.688 27.026 149.184 26.864 148.572 26.864ZM158.475 25.802C158.871 25.802 159.213 25.88 159.501 26.036C159.597 26.084 159.633 26.162 159.609 26.27L159.411 27.152C159.375 27.272 159.297 27.308 159.177 27.26C158.973 27.176 158.739 27.134 158.475 27.134L158.241 27.152C157.617 27.176 157.101 27.41 156.693 27.854C156.285 28.286 156.081 28.838 156.081 29.51V34.82C156.081 34.94 156.021 35 155.901 35H154.983C154.863 35 154.803 34.94 154.803 34.82V26.072C154.803 25.952 154.863 25.892 154.983 25.892H155.901C156.021 25.892 156.081 25.952 156.081 26.072V27.17C156.081 27.206 156.087 27.23 156.099 27.242C156.123 27.242 156.141 27.23 156.153 27.206C156.405 26.762 156.723 26.42 157.107 26.18C157.503 25.928 157.959 25.802 158.475 25.802ZM162.224 24.236C161.936 24.236 161.696 24.14 161.504 23.948C161.312 23.756 161.216 23.516 161.216 23.228C161.216 22.928 161.312 22.688 161.504 22.508C161.696 22.316 161.936 22.22 162.224 22.22C162.512 22.22 162.752 22.316 162.944 22.508C163.136 22.688 163.232 22.928 163.232 23.228C163.232 23.516 163.136 23.756 162.944 23.948C162.752 24.14 162.512 24.236 162.224 24.236ZM161.72 34.982C161.6 34.982 161.54 34.922 161.54 34.802V26.054C161.54 25.934 161.6 25.874 161.72 25.874H162.638C162.758 25.874 162.818 25.934 162.818 26.054V34.802C162.818 34.922 162.758 34.982 162.638 34.982H161.72ZM169.728 25.766C170.688 25.766 171.45 26.048 172.014 26.612C172.59 27.176 172.878 27.932 172.878 28.88V34.82C172.878 34.94 172.818 35 172.698 35H171.78C171.66 35 171.6 34.94 171.6 34.82V29.132C171.6 28.472 171.396 27.932 170.988 27.512C170.592 27.092 170.076 26.882 169.44 26.882C168.78 26.882 168.246 27.086 167.838 27.494C167.43 27.902 167.226 28.436 167.226 29.096V34.82C167.226 34.94 167.166 35 167.046 35H166.128C166.008 35 165.948 34.94 165.948 34.82V26.072C165.948 25.952 166.008 25.892 166.128 25.892H167.046C167.166 25.892 167.226 25.952 167.226 26.072V26.846C167.226 26.87 167.232 26.888 167.244 26.9C167.268 26.912 167.286 26.906 167.298 26.882C167.826 26.138 168.636 25.766 169.728 25.766ZM181.267 26.072C181.267 25.952 181.327 25.892 181.447 25.892H182.365C182.485 25.892 182.545 25.952 182.545 26.072V34.694C182.545 36.038 182.155 37.022 181.375 37.646C180.607 38.27 179.545 38.582 178.189 38.582C177.913 38.582 177.703 38.576 177.559 38.564C177.439 38.552 177.379 38.486 177.379 38.366L177.415 37.538C177.415 37.478 177.433 37.43 177.469 37.394C177.505 37.37 177.547 37.364 177.595 37.376L178.081 37.394C179.197 37.394 180.007 37.172 180.511 36.728C181.015 36.296 181.267 35.606 181.267 34.658V33.992C181.267 33.968 181.255 33.956 181.231 33.956C181.219 33.944 181.201 33.95 181.177 33.974C180.625 34.694 179.839 35.054 178.819 35.054C178.039 35.054 177.343 34.844 176.731 34.424C176.131 34.004 175.729 33.41 175.525 32.642C175.381 32.15 175.309 31.418 175.309 30.446C175.309 29.918 175.321 29.474 175.345 29.114C175.381 28.754 175.447 28.43 175.543 28.142C175.759 27.422 176.149 26.846 176.713 26.414C177.277 25.97 177.955 25.748 178.747 25.748C179.815 25.748 180.625 26.102 181.177 26.81C181.201 26.834 181.219 26.84 181.231 26.828C181.255 26.816 181.267 26.798 181.267 26.774V26.072ZM181.177 32.246C181.213 32.066 181.237 31.844 181.249 31.58C181.261 31.316 181.267 30.932 181.267 30.428C181.267 29.816 181.261 29.408 181.249 29.204C181.237 28.988 181.207 28.79 181.159 28.61C181.063 28.106 180.823 27.692 180.439 27.368C180.067 27.032 179.593 26.864 179.017 26.864C178.453 26.864 177.973 27.026 177.577 27.35C177.193 27.674 176.923 28.094 176.767 28.61C176.647 28.994 176.587 29.594 176.587 30.41C176.587 31.286 176.647 31.892 176.767 32.228C176.887 32.732 177.145 33.152 177.541 33.488C177.949 33.812 178.441 33.974 179.017 33.974C179.605 33.974 180.085 33.812 180.457 33.488C180.841 33.164 181.081 32.75 181.177 32.246ZM192.037 25.748C193.117 25.748 193.951 26.024 194.539 26.576C195.127 27.128 195.421 27.86 195.421 28.772V34.82C195.421 34.94 195.361 35 195.241 35H194.323C194.203 35 194.143 34.94 194.143 34.82V34.082C194.143 34.058 194.131 34.04 194.107 34.028C194.095 34.016 194.077 34.022 194.053 34.046C193.753 34.406 193.363 34.682 192.883 34.874C192.403 35.054 191.869 35.144 191.281 35.144C190.429 35.144 189.715 34.928 189.139 34.496C188.563 34.064 188.275 33.404 188.275 32.516C188.275 31.616 188.599 30.908 189.247 30.392C189.907 29.864 190.819 29.6 191.983 29.6H194.071C194.119 29.6 194.143 29.576 194.143 29.528V28.844C194.143 28.232 193.969 27.752 193.621 27.404C193.285 27.044 192.757 26.864 192.037 26.864C191.461 26.864 190.993 26.978 190.633 27.206C190.273 27.422 190.051 27.728 189.967 28.124C189.931 28.244 189.859 28.298 189.751 28.286L188.779 28.16C188.647 28.136 188.593 28.088 188.617 28.016C188.713 27.344 189.073 26.798 189.697 26.378C190.321 25.958 191.101 25.748 192.037 25.748ZM191.533 34.046C192.241 34.046 192.853 33.872 193.369 33.524C193.885 33.164 194.143 32.684 194.143 32.084V30.68C194.143 30.632 194.119 30.608 194.071 30.608H192.181C191.389 30.608 190.753 30.77 190.273 31.094C189.793 31.418 189.553 31.868 189.553 32.444C189.553 32.972 189.733 33.374 190.093 33.65C190.465 33.914 190.945 34.046 191.533 34.046ZM201.61 23.516C200.95 23.516 200.5 23.666 200.26 23.966C200.02 24.254 199.9 24.752 199.9 25.46V25.82C199.9 25.868 199.924 25.892 199.972 25.892H201.988C202.108 25.892 202.168 25.952 202.168 26.072V26.882C202.168 27.002 202.108 27.062 201.988 27.062H199.972C199.924 27.062 199.9 27.086 199.9 27.134V34.82C199.9 34.94 199.84 35 199.72 35H198.82C198.7 35 198.64 34.94 198.64 34.82V27.134C198.64 27.086 198.616 27.062 198.568 27.062H197.362C197.242 27.062 197.182 27.002 197.182 26.882V26.072C197.182 25.952 197.242 25.892 197.362 25.892H198.568C198.616 25.892 198.64 25.868 198.64 25.82V25.388C198.64 24.644 198.724 24.062 198.892 23.642C199.06 23.21 199.348 22.898 199.756 22.706C200.176 22.502 200.758 22.4 201.502 22.4H202.024C202.144 22.4 202.204 22.46 202.204 22.58V23.336C202.204 23.456 202.144 23.516 202.024 23.516H201.61ZM13.656 47.766C14.556 47.766 15.264 48.036 15.78 48.576C16.308 49.116 16.572 49.854 16.572 50.79V56.82C16.572 56.94 16.512 57 16.392 57H15.492C15.372 57 15.312 56.94 15.312 56.82V51.042C15.312 50.382 15.12 49.86 14.736 49.476C14.364 49.08 13.872 48.882 13.26 48.882C12.624 48.882 12.108 49.074 11.712 49.458C11.328 49.842 11.136 50.358 11.136 51.006V56.82C11.136 56.94 11.076 57 10.956 57H10.038C9.918 57 9.858 56.94 9.858 56.82V51.042C9.858 50.382 9.672 49.86 9.3 49.476C8.928 49.08 8.43 48.882 7.806 48.882C7.17 48.882 6.66 49.074 6.276 49.458C5.904 49.842 5.718 50.358 5.718 51.006V56.82C5.718 56.94 5.658 57 5.538 57H4.62C4.5 57 4.44 56.94 4.44 56.82V48.072C4.44 47.952 4.5 47.892 4.62 47.892H5.538C5.658 47.892 5.718 47.952 5.718 48.072V48.792C5.718 48.816 5.724 48.834 5.736 48.846C5.76 48.846 5.784 48.834 5.808 48.81C6.072 48.462 6.408 48.204 6.816 48.036C7.236 47.856 7.698 47.766 8.202 47.766C8.826 47.766 9.36 47.892 9.804 48.144C10.248 48.396 10.584 48.762 10.812 49.242C10.836 49.302 10.866 49.302 10.902 49.242C11.166 48.75 11.538 48.384 12.018 48.144C12.498 47.892 13.044 47.766 13.656 47.766ZM22.6796 57.144C21.8156 57.144 21.0716 56.922 20.4476 56.478C19.8236 56.034 19.3916 55.422 19.1516 54.642C18.9836 54.09 18.8996 53.352 18.8996 52.428C18.8996 51.504 18.9836 50.772 19.1516 50.232C19.3796 49.464 19.8056 48.858 20.4296 48.414C21.0536 47.97 21.8096 47.748 22.6976 47.748C23.5496 47.748 24.2816 47.97 24.8936 48.414C25.5176 48.858 25.9436 49.458 26.1716 50.214C26.3396 50.73 26.4236 51.468 26.4236 52.428C26.4236 53.4 26.3396 54.138 26.1716 54.642C25.9436 55.422 25.5176 56.034 24.8936 56.478C24.2816 56.922 23.5436 57.144 22.6796 57.144ZM22.6796 56.028C23.2556 56.028 23.7476 55.872 24.1556 55.56C24.5636 55.236 24.8396 54.804 24.9836 54.264C25.0916 53.832 25.1456 53.226 25.1456 52.446C25.1456 51.654 25.0976 51.048 25.0016 50.628C24.8576 50.088 24.5756 49.662 24.1556 49.35C23.7476 49.026 23.2496 48.864 22.6616 48.864C22.0736 48.864 21.5756 49.026 21.1676 49.35C20.7596 49.662 20.4836 50.088 20.3396 50.628C20.2436 51.048 20.1956 51.654 20.1956 52.446C20.1956 53.238 20.2436 53.844 20.3396 54.264C20.4716 54.804 20.7416 55.236 21.1496 55.56C21.5696 55.872 22.0796 56.028 22.6796 56.028ZM36.0162 50.214C36.1602 50.754 36.2322 51.498 36.2322 52.446C36.2322 53.43 36.1482 54.192 35.9802 54.732C35.7522 55.476 35.3562 56.064 34.7922 56.496C34.2282 56.928 33.5262 57.144 32.6862 57.144C32.2062 57.144 31.7682 57.048 31.3722 56.856C30.9762 56.664 30.6462 56.388 30.3822 56.028C30.3702 56.004 30.3522 55.998 30.3282 56.01C30.3042 56.01 30.2922 56.022 30.2922 56.046V56.82C30.2922 56.94 30.2322 57 30.1122 57H29.1942C29.0742 57 29.0142 56.94 29.0142 56.82V44.58C29.0142 44.46 29.0742 44.4 29.1942 44.4H30.1122C30.2322 44.4 30.2922 44.46 30.2922 44.58V48.828C30.2922 48.852 30.2982 48.87 30.3102 48.882C30.3342 48.882 30.3582 48.87 30.3822 48.846C30.6462 48.498 30.9762 48.228 31.3722 48.036C31.7682 47.844 32.2062 47.748 32.6862 47.748C33.5382 47.748 34.2522 47.97 34.8282 48.414C35.4042 48.846 35.8002 49.446 36.0162 50.214ZM34.6302 54.624C34.7502 54.372 34.8342 54.09 34.8822 53.778C34.9302 53.454 34.9542 53.01 34.9542 52.446C34.9542 51.858 34.9182 51.402 34.8462 51.078C34.7862 50.742 34.6842 50.442 34.5402 50.178C34.3842 49.782 34.1322 49.464 33.7842 49.224C33.4362 48.984 33.0222 48.864 32.5422 48.864C32.0862 48.864 31.6902 48.99 31.3542 49.242C31.0302 49.482 30.7962 49.806 30.6522 50.214C30.5322 50.466 30.4422 50.754 30.3822 51.078C30.3342 51.402 30.3102 51.858 30.3102 52.446C30.3102 53.022 30.3342 53.472 30.3822 53.796C30.4422 54.108 30.5262 54.39 30.6342 54.642C30.7902 55.062 31.0302 55.398 31.3542 55.65C31.6782 55.902 32.0802 56.028 32.5602 56.028C33.0642 56.028 33.4962 55.902 33.8562 55.65C34.2282 55.398 34.4862 55.056 34.6302 54.624ZM39.7044 46.236C39.4164 46.236 39.1764 46.14 38.9844 45.948C38.7924 45.756 38.6964 45.516 38.6964 45.228C38.6964 44.928 38.7924 44.688 38.9844 44.508C39.1764 44.316 39.4164 44.22 39.7044 44.22C39.9924 44.22 40.2324 44.316 40.4244 44.508C40.6164 44.688 40.7124 44.928 40.7124 45.228C40.7124 45.516 40.6164 45.756 40.4244 45.948C40.2324 46.14 39.9924 46.236 39.7044 46.236ZM39.2004 56.982C39.0804 56.982 39.0204 56.922 39.0204 56.802V48.054C39.0204 47.934 39.0804 47.874 39.2004 47.874H40.1184C40.2384 47.874 40.2984 47.934 40.2984 48.054V56.802C40.2984 56.922 40.2384 56.982 40.1184 56.982H39.2004ZM43.6083 57C43.4883 57 43.4283 56.94 43.4283 56.82V44.58C43.4283 44.46 43.4883 44.4 43.6083 44.4H44.5263C44.6463 44.4 44.7063 44.46 44.7063 44.58V56.82C44.7063 56.94 44.6463 57 44.5263 57H43.6083ZM54.5607 50.916C54.6087 51.252 54.6327 51.672 54.6327 52.176V52.752C54.6327 52.872 54.5727 52.932 54.4527 52.932H48.6387C48.5907 52.932 48.5667 52.956 48.5667 53.004C48.5907 53.664 48.6267 54.09 48.6747 54.282C48.8067 54.822 49.0887 55.248 49.5207 55.56C49.9527 55.872 50.5047 56.028 51.1767 56.028C51.6807 56.028 52.1247 55.914 52.5087 55.686C52.8927 55.458 53.1927 55.134 53.4087 54.714C53.4807 54.606 53.5647 54.582 53.6607 54.642L54.3627 55.056C54.4587 55.116 54.4827 55.2 54.4347 55.308C54.1347 55.884 53.6847 56.34 53.0847 56.676C52.4847 57 51.7947 57.162 51.0147 57.162C50.1627 57.15 49.4487 56.946 48.8727 56.55C48.2967 56.154 47.8827 55.602 47.6307 54.894C47.4147 54.318 47.3067 53.49 47.3067 52.41C47.3067 51.906 47.3127 51.498 47.3247 51.186C47.3487 50.862 47.3967 50.574 47.4687 50.322C47.6727 49.542 48.0807 48.918 48.6927 48.45C49.3167 47.982 50.0667 47.748 50.9427 47.748C52.0347 47.748 52.8747 48.024 53.4627 48.576C54.0507 49.128 54.4167 49.908 54.5607 50.916ZM50.9427 48.864C50.3547 48.864 49.8627 49.02 49.4667 49.332C49.0827 49.632 48.8307 50.04 48.7107 50.556C48.6387 50.808 48.5907 51.216 48.5667 51.78C48.5667 51.828 48.5907 51.852 48.6387 51.852H53.3007C53.3487 51.852 53.3727 51.828 53.3727 51.78C53.3487 51.24 53.3127 50.856 53.2647 50.628C53.1327 50.088 52.8627 49.662 52.4547 49.35C52.0587 49.026 51.5547 48.864 50.9427 48.864ZM63.9279 47.748C65.0079 47.748 65.8419 48.024 66.4299 48.576C67.0179 49.128 67.3119 49.86 67.3119 50.772V56.82C67.3119 56.94 67.2519 57 67.1319 57H66.2139C66.0939 57 66.0339 56.94 66.0339 56.82V56.082C66.0339 56.058 66.0219 56.04 65.9979 56.028C65.9859 56.016 65.9679 56.022 65.9439 56.046C65.6439 56.406 65.2539 56.682 64.7739 56.874C64.2939 57.054 63.7599 57.144 63.1719 57.144C62.3199 57.144 61.6059 56.928 61.0299 56.496C60.4539 56.064 60.1659 55.404 60.1659 54.516C60.1659 53.616 60.4899 52.908 61.1379 52.392C61.7979 51.864 62.7099 51.6 63.8739 51.6H65.9619C66.0099 51.6 66.0339 51.576 66.0339 51.528V50.844C66.0339 50.232 65.8599 49.752 65.5119 49.404C65.1759 49.044 64.6479 48.864 63.9279 48.864C63.3519 48.864 62.8839 48.978 62.5239 49.206C62.1639 49.422 61.9419 49.728 61.8579 50.124C61.8219 50.244 61.7499 50.298 61.6419 50.286L60.6699 50.16C60.5379 50.136 60.4839 50.088 60.5079 50.016C60.6039 49.344 60.9639 48.798 61.5879 48.378C62.2119 47.958 62.9919 47.748 63.9279 47.748ZM63.4239 56.046C64.1319 56.046 64.7439 55.872 65.2599 55.524C65.7759 55.164 66.0339 54.684 66.0339 54.084V52.68C66.0339 52.632 66.0099 52.608 65.9619 52.608H64.0719C63.2799 52.608 62.6439 52.77 62.1639 53.094C61.6839 53.418 61.4439 53.868 61.4439 54.444C61.4439 54.972 61.6239 55.374 61.9839 55.65C62.3559 55.914 62.8359 56.046 63.4239 56.046ZM77.0453 50.16C77.2253 50.736 77.3153 51.498 77.3153 52.446C77.3153 53.406 77.2373 54.15 77.0813 54.678C76.8653 55.446 76.4693 56.052 75.8933 56.496C75.3293 56.928 74.6153 57.144 73.7513 57.144C73.2833 57.144 72.8513 57.054 72.4553 56.874C72.0593 56.682 71.7293 56.412 71.4653 56.064C71.4413 56.04 71.4173 56.034 71.3933 56.046C71.3813 56.046 71.3753 56.058 71.3753 56.082V60.312C71.3753 60.432 71.3153 60.492 71.1953 60.492H70.2773C70.1573 60.492 70.0973 60.432 70.0973 60.312V48.072C70.0973 47.952 70.1573 47.892 70.2773 47.892H71.1953C71.3153 47.892 71.3753 47.952 71.3753 48.072V48.828C71.3753 48.852 71.3813 48.87 71.3933 48.882C71.4173 48.882 71.4413 48.87 71.4653 48.846C71.7293 48.498 72.0533 48.228 72.4373 48.036C72.8333 47.844 73.2713 47.748 73.7513 47.748C74.5913 47.748 75.2933 47.964 75.8573 48.396C76.4333 48.828 76.8293 49.416 77.0453 50.16ZM75.6233 54.714C75.7553 54.45 75.8513 54.156 75.9113 53.832C75.9833 53.496 76.0193 53.034 76.0193 52.446C76.0193 51.882 75.9953 51.444 75.9473 51.132C75.8993 50.808 75.8153 50.52 75.6953 50.268C75.5513 49.836 75.2933 49.494 74.9213 49.242C74.5613 48.99 74.1293 48.864 73.6253 48.864C73.1453 48.864 72.7433 48.99 72.4193 49.242C72.0953 49.494 71.8553 49.83 71.6993 50.25C71.5913 50.49 71.5133 50.772 71.4653 51.096C71.4173 51.42 71.3933 51.87 71.3933 52.446C71.3933 53.022 71.4173 53.478 71.4653 53.814C71.5133 54.138 71.5973 54.426 71.7173 54.678C71.8613 55.086 72.0953 55.416 72.4193 55.668C72.7553 55.908 73.1513 56.028 73.6073 56.028C74.0873 56.028 74.5013 55.908 74.8493 55.668C75.2093 55.428 75.4673 55.11 75.6233 54.714ZM86.9769 50.16C87.1569 50.736 87.2469 51.498 87.2469 52.446C87.2469 53.406 87.1689 54.15 87.0129 54.678C86.7969 55.446 86.4009 56.052 85.8249 56.496C85.2609 56.928 84.5469 57.144 83.6829 57.144C83.2149 57.144 82.7829 57.054 82.3869 56.874C81.9909 56.682 81.6609 56.412 81.3969 56.064C81.3729 56.04 81.3489 56.034 81.3249 56.046C81.3129 56.046 81.3069 56.058 81.3069 56.082V60.312C81.3069 60.432 81.2469 60.492 81.1269 60.492H80.2089C80.0889 60.492 80.0289 60.432 80.0289 60.312V48.072C80.0289 47.952 80.0889 47.892 80.2089 47.892H81.1269C81.2469 47.892 81.3069 47.952 81.3069 48.072V48.828C81.3069 48.852 81.3129 48.87 81.3249 48.882C81.3489 48.882 81.3729 48.87 81.3969 48.846C81.6609 48.498 81.9849 48.228 82.3689 48.036C82.7649 47.844 83.2029 47.748 83.6829 47.748C84.5229 47.748 85.2249 47.964 85.7889 48.396C86.3649 48.828 86.7609 49.416 86.9769 50.16ZM85.5549 54.714C85.6869 54.45 85.7829 54.156 85.8429 53.832C85.9149 53.496 85.9509 53.034 85.9509 52.446C85.9509 51.882 85.9269 51.444 85.8789 51.132C85.8309 50.808 85.7469 50.52 85.6269 50.268C85.4829 49.836 85.2249 49.494 84.8529 49.242C84.4929 48.99 84.0609 48.864 83.5569 48.864C83.0769 48.864 82.6749 48.99 82.3509 49.242C82.0269 49.494 81.7869 49.83 81.6309 50.25C81.5229 50.49 81.4449 50.772 81.3969 51.096C81.3489 51.42 81.3249 51.87 81.3249 52.446C81.3249 53.022 81.3489 53.478 81.3969 53.814C81.4449 54.138 81.5289 54.426 81.6489 54.678C81.7929 55.086 82.0269 55.416 82.3509 55.668C82.6869 55.908 83.0829 56.028 83.5389 56.028C84.0189 56.028 84.4329 55.908 84.7809 55.668C85.1409 55.428 85.3989 55.11 85.5549 54.714ZM90.0145 57C89.8945 57 89.8345 56.94 89.8345 56.82V44.58C89.8345 44.46 89.8945 44.4 90.0145 44.4H90.9325C91.0525 44.4 91.1125 44.46 91.1125 44.58V56.82C91.1125 56.94 91.0525 57 90.9325 57H90.0145ZM94.847 46.236C94.559 46.236 94.319 46.14 94.127 45.948C93.935 45.756 93.839 45.516 93.839 45.228C93.839 44.928 93.935 44.688 94.127 44.508C94.319 44.316 94.559 44.22 94.847 44.22C95.135 44.22 95.375 44.316 95.567 44.508C95.759 44.688 95.855 44.928 95.855 45.228C95.855 45.516 95.759 45.756 95.567 45.948C95.375 46.14 95.135 46.236 94.847 46.236ZM94.343 56.982C94.223 56.982 94.163 56.922 94.163 56.802V48.054C94.163 47.934 94.223 47.874 94.343 47.874H95.261C95.381 47.874 95.441 47.934 95.441 48.054V56.802C95.441 56.922 95.381 56.982 95.261 56.982H94.343ZM98.7509 57C98.6309 57 98.5709 56.94 98.5709 56.82V44.58C98.5709 44.46 98.6309 44.4 98.7509 44.4H99.6689C99.7889 44.4 99.8489 44.46 99.8489 44.58V51.942C99.8489 51.966 99.8549 51.984 99.8669 51.996C99.8909 52.008 99.9149 52.002 99.9389 51.978L103.755 47.982C103.815 47.922 103.887 47.892 103.971 47.892H105.051C105.123 47.892 105.171 47.916 105.195 47.964C105.219 48.012 105.207 48.06 105.159 48.108L102.855 50.664C102.831 50.688 102.825 50.718 102.837 50.754L105.591 56.784L105.609 56.856C105.609 56.952 105.555 57 105.447 57H104.475C104.379 57 104.313 56.952 104.277 56.856L101.955 51.6C101.931 51.552 101.901 51.546 101.865 51.582L99.8849 53.67C99.8609 53.694 99.8489 53.724 99.8489 53.76V56.82C99.8489 56.94 99.7889 57 99.6689 57H98.7509ZM110.58 47.748C111.66 47.748 112.494 48.024 113.082 48.576C113.67 49.128 113.964 49.86 113.964 50.772V56.82C113.964 56.94 113.904 57 113.784 57H112.866C112.746 57 112.686 56.94 112.686 56.82V56.082C112.686 56.058 112.674 56.04 112.65 56.028C112.638 56.016 112.62 56.022 112.596 56.046C112.296 56.406 111.906 56.682 111.426 56.874C110.946 57.054 110.412 57.144 109.824 57.144C108.972 57.144 108.258 56.928 107.682 56.496C107.106 56.064 106.818 55.404 106.818 54.516C106.818 53.616 107.142 52.908 107.79 52.392C108.45 51.864 109.362 51.6 110.526 51.6H112.614C112.662 51.6 112.686 51.576 112.686 51.528V50.844C112.686 50.232 112.512 49.752 112.164 49.404C111.828 49.044 111.3 48.864 110.58 48.864C110.004 48.864 109.536 48.978 109.176 49.206C108.816 49.422 108.594 49.728 108.51 50.124C108.474 50.244 108.402 50.298 108.294 50.286L107.322 50.16C107.19 50.136 107.136 50.088 107.16 50.016C107.256 49.344 107.616 48.798 108.24 48.378C108.864 47.958 109.644 47.748 110.58 47.748ZM110.076 56.046C110.784 56.046 111.396 55.872 111.912 55.524C112.428 55.164 112.686 54.684 112.686 54.084V52.68C112.686 52.632 112.662 52.608 112.614 52.608H110.724C109.932 52.608 109.296 52.77 108.816 53.094C108.336 53.418 108.096 53.868 108.096 54.444C108.096 54.972 108.276 55.374 108.636 55.65C109.008 55.914 109.488 56.046 110.076 56.046ZM120.639 48.774C120.639 48.894 120.579 48.954 120.459 48.954H118.425C118.377 48.954 118.353 48.978 118.353 49.026V54.336C118.353 54.912 118.479 55.32 118.731 55.56C118.995 55.788 119.403 55.902 119.955 55.902H120.405C120.525 55.902 120.585 55.962 120.585 56.082V56.82C120.585 56.94 120.525 57 120.405 57C120.261 57.012 120.039 57.018 119.739 57.018C118.875 57.018 118.221 56.856 117.777 56.532C117.333 56.208 117.111 55.608 117.111 54.732V49.026C117.111 48.978 117.087 48.954 117.039 48.954H115.941C115.821 48.954 115.761 48.894 115.761 48.774V48.072C115.761 47.952 115.821 47.892 115.941 47.892H117.039C117.087 47.892 117.111 47.868 117.111 47.82V45.732C117.111 45.612 117.171 45.552 117.291 45.552H118.173C118.293 45.552 118.353 45.612 118.353 45.732V47.82C118.353 47.868 118.377 47.892 118.425 47.892H120.459C120.579 47.892 120.639 47.952 120.639 48.072V48.774ZM123.974 46.236C123.686 46.236 123.446 46.14 123.254 45.948C123.062 45.756 122.966 45.516 122.966 45.228C122.966 44.928 123.062 44.688 123.254 44.508C123.446 44.316 123.686 44.22 123.974 44.22C124.262 44.22 124.502 44.316 124.694 44.508C124.886 44.688 124.982 44.928 124.982 45.228C124.982 45.516 124.886 45.756 124.694 45.948C124.502 46.14 124.262 46.236 123.974 46.236ZM123.47 56.982C123.35 56.982 123.29 56.922 123.29 56.802V48.054C123.29 47.934 123.35 47.874 123.47 47.874H124.388C124.508 47.874 124.568 47.934 124.568 48.054V56.802C124.568 56.922 124.508 56.982 124.388 56.982H123.47ZM131.172 57.144C130.308 57.144 129.564 56.922 128.94 56.478C128.316 56.034 127.884 55.422 127.644 54.642C127.476 54.09 127.392 53.352 127.392 52.428C127.392 51.504 127.476 50.772 127.644 50.232C127.872 49.464 128.298 48.858 128.922 48.414C129.546 47.97 130.302 47.748 131.19 47.748C132.042 47.748 132.774 47.97 133.386 48.414C134.01 48.858 134.436 49.458 134.664 50.214C134.832 50.73 134.916 51.468 134.916 52.428C134.916 53.4 134.832 54.138 134.664 54.642C134.436 55.422 134.01 56.034 133.386 56.478C132.774 56.922 132.036 57.144 131.172 57.144ZM131.172 56.028C131.748 56.028 132.24 55.872 132.648 55.56C133.056 55.236 133.332 54.804 133.476 54.264C133.584 53.832 133.638 53.226 133.638 52.446C133.638 51.654 133.59 51.048 133.494 50.628C133.35 50.088 133.068 49.662 132.648 49.35C132.24 49.026 131.742 48.864 131.154 48.864C130.566 48.864 130.068 49.026 129.66 49.35C129.252 49.662 128.976 50.088 128.832 50.628C128.736 51.048 128.688 51.654 128.688 52.446C128.688 53.238 128.736 53.844 128.832 54.264C128.964 54.804 129.234 55.236 129.642 55.56C130.062 55.872 130.572 56.028 131.172 56.028ZM141.286 47.766C142.246 47.766 143.008 48.048 143.572 48.612C144.148 49.176 144.436 49.932 144.436 50.88V56.82C144.436 56.94 144.376 57 144.256 57H143.338C143.218 57 143.158 56.94 143.158 56.82V51.132C143.158 50.472 142.954 49.932 142.546 49.512C142.15 49.092 141.634 48.882 140.998 48.882C140.338 48.882 139.804 49.086 139.396 49.494C138.988 49.902 138.784 50.436 138.784 51.096V56.82C138.784 56.94 138.724 57 138.604 57H137.686C137.566 57 137.506 56.94 137.506 56.82V48.072C137.506 47.952 137.566 47.892 137.686 47.892H138.604C138.724 47.892 138.784 47.952 138.784 48.072V48.846C138.784 48.87 138.79 48.888 138.802 48.9C138.826 48.912 138.844 48.906 138.856 48.882C139.384 48.138 140.194 47.766 141.286 47.766ZM154.07 50.916C154.118 51.252 154.142 51.672 154.142 52.176V52.752C154.142 52.872 154.082 52.932 153.962 52.932H148.148C148.1 52.932 148.076 52.956 148.076 53.004C148.1 53.664 148.136 54.09 148.184 54.282C148.316 54.822 148.598 55.248 149.03 55.56C149.462 55.872 150.014 56.028 150.686 56.028C151.19 56.028 151.634 55.914 152.018 55.686C152.402 55.458 152.702 55.134 152.918 54.714C152.99 54.606 153.074 54.582 153.17 54.642L153.872 55.056C153.968 55.116 153.992 55.2 153.944 55.308C153.644 55.884 153.194 56.34 152.594 56.676C151.994 57 151.304 57.162 150.524 57.162C149.672 57.15 148.958 56.946 148.382 56.55C147.806 56.154 147.392 55.602 147.14 54.894C146.924 54.318 146.816 53.49 146.816 52.41C146.816 51.906 146.822 51.498 146.834 51.186C146.858 50.862 146.906 50.574 146.978 50.322C147.182 49.542 147.59 48.918 148.202 48.45C148.826 47.982 149.576 47.748 150.452 47.748C151.544 47.748 152.384 48.024 152.972 48.576C153.56 49.128 153.926 49.908 154.07 50.916ZM150.452 48.864C149.864 48.864 149.372 49.02 148.976 49.332C148.592 49.632 148.34 50.04 148.22 50.556C148.148 50.808 148.1 51.216 148.076 51.78C148.076 51.828 148.1 51.852 148.148 51.852H152.81C152.858 51.852 152.882 51.828 152.882 51.78C152.858 51.24 152.822 50.856 152.774 50.628C152.642 50.088 152.372 49.662 151.964 49.35C151.568 49.026 151.064 48.864 150.452 48.864ZM160.356 47.802C160.752 47.802 161.094 47.88 161.382 48.036C161.478 48.084 161.514 48.162 161.49 48.27L161.292 49.152C161.256 49.272 161.178 49.308 161.058 49.26C160.854 49.176 160.62 49.134 160.356 49.134L160.122 49.152C159.498 49.176 158.982 49.41 158.574 49.854C158.166 50.286 157.962 50.838 157.962 51.51V56.82C157.962 56.94 157.902 57 157.782 57H156.864C156.744 57 156.684 56.94 156.684 56.82V48.072C156.684 47.952 156.744 47.892 156.864 47.892H157.782C157.902 47.892 157.962 47.952 157.962 48.072V49.17C157.962 49.206 157.968 49.23 157.98 49.242C158.004 49.242 158.022 49.23 158.034 49.206C158.286 48.762 158.604 48.42 158.988 48.18C159.384 47.928 159.84 47.802 160.356 47.802ZM162.554 58.422C162.494 58.422 162.446 58.404 162.41 58.368C162.386 58.332 162.38 58.284 162.392 58.224L163.184 54.372C163.208 54.264 163.274 54.21 163.382 54.21H164.174C164.234 54.21 164.276 54.228 164.3 54.264C164.336 54.3 164.348 54.348 164.336 54.408L163.328 58.26C163.304 58.368 163.238 58.422 163.13 58.422H162.554ZM171.407 57C171.287 57 171.227 56.94 171.227 56.82V44.58C171.227 44.46 171.287 44.4 171.407 44.4H172.325C172.445 44.4 172.505 44.46 172.505 44.58V50.682C172.505 50.706 172.517 50.724 172.541 50.736C172.565 50.748 172.583 50.742 172.595 50.718L178.283 44.49C178.331 44.43 178.403 44.4 178.499 44.4H179.543C179.615 44.4 179.657 44.424 179.669 44.472C179.693 44.52 179.681 44.568 179.633 44.616L175.223 49.602C175.199 49.626 175.199 49.662 175.223 49.71L180.011 56.784L180.047 56.874C180.047 56.958 179.993 57 179.885 57H178.841C178.745 57 178.673 56.964 178.625 56.892L174.359 50.628C174.347 50.604 174.329 50.592 174.305 50.592C174.281 50.592 174.263 50.598 174.251 50.61L172.541 52.428C172.517 52.452 172.505 52.482 172.505 52.518V56.82C172.505 56.94 172.445 57 172.325 57H171.407ZM188.981 50.214C189.125 50.754 189.197 51.498 189.197 52.446C189.197 53.43 189.113 54.192 188.945 54.732C188.717 55.476 188.321 56.064 187.757 56.496C187.193 56.928 186.491 57.144 185.651 57.144C185.171 57.144 184.733 57.048 184.337 56.856C183.941 56.664 183.611 56.388 183.347 56.028C183.335 56.004 183.317 55.998 183.293 56.01C183.269 56.01 183.257 56.022 183.257 56.046V56.82C183.257 56.94 183.197 57 183.077 57H182.159C182.039 57 181.979 56.94 181.979 56.82V44.58C181.979 44.46 182.039 44.4 182.159 44.4H183.077C183.197 44.4 183.257 44.46 183.257 44.58V48.828C183.257 48.852 183.263 48.87 183.275 48.882C183.299 48.882 183.323 48.87 183.347 48.846C183.611 48.498 183.941 48.228 184.337 48.036C184.733 47.844 185.171 47.748 185.651 47.748C186.503 47.748 187.217 47.97 187.793 48.414C188.369 48.846 188.765 49.446 188.981 50.214ZM187.595 54.624C187.715 54.372 187.799 54.09 187.847 53.778C187.895 53.454 187.919 53.01 187.919 52.446C187.919 51.858 187.883 51.402 187.811 51.078C187.751 50.742 187.649 50.442 187.505 50.178C187.349 49.782 187.097 49.464 186.749 49.224C186.401 48.984 185.987 48.864 185.507 48.864C185.051 48.864 184.655 48.99 184.319 49.242C183.995 49.482 183.761 49.806 183.617 50.214C183.497 50.466 183.407 50.754 183.347 51.078C183.299 51.402 183.275 51.858 183.275 52.446C183.275 53.022 183.299 53.472 183.347 53.796C183.407 54.108 183.491 54.39 183.599 54.642C183.755 55.062 183.995 55.398 184.319 55.65C184.643 55.902 185.045 56.028 185.525 56.028C186.029 56.028 186.461 55.902 186.821 55.65C187.193 55.398 187.451 55.056 187.595 54.624ZM195.568 47.766C196.528 47.766 197.29 48.048 197.854 48.612C198.43 49.176 198.718 49.932 198.718 50.88V56.82C198.718 56.94 198.658 57 198.538 57H197.62C197.5 57 197.44 56.94 197.44 56.82V51.132C197.44 50.472 197.236 49.932 196.828 49.512C196.432 49.092 195.916 48.882 195.28 48.882C194.62 48.882 194.086 49.086 193.678 49.494C193.27 49.902 193.066 50.436 193.066 51.096V56.82C193.066 56.94 193.006 57 192.886 57H191.968C191.848 57 191.788 56.94 191.788 56.82V44.58C191.788 44.46 191.848 44.4 191.968 44.4H192.886C193.006 44.4 193.066 44.46 193.066 44.58V48.846C193.066 48.87 193.072 48.888 193.084 48.9C193.108 48.912 193.126 48.906 193.138 48.882C193.666 48.138 194.476 47.766 195.568 47.766ZM201.032 58.422C200.972 58.422 200.924 58.404 200.888 58.368C200.864 58.332 200.858 58.284 200.87 58.224L201.662 54.372C201.686 54.264 201.752 54.21 201.86 54.21H202.652C202.712 54.21 202.754 54.228 202.778 54.264C202.814 54.3 202.826 54.348 202.814 54.408L201.806 58.26C201.782 58.368 201.716 58.422 201.608 58.422H201.032ZM217.842 45.336C217.842 45.456 217.782 45.516 217.662 45.516H211.056C211.008 45.516 210.984 45.54 210.984 45.588V50.034C210.984 50.082 211.008 50.106 211.056 50.106H215.682C215.802 50.106 215.862 50.166 215.862 50.286V51.042C215.862 51.162 215.802 51.222 215.682 51.222H211.056C211.008 51.222 210.984 51.246 210.984 51.294V56.82C210.984 56.94 210.924 57 210.804 57H209.886C209.766 57 209.706 56.94 209.706 56.82V44.58C209.706 44.46 209.766 44.4 209.886 44.4H217.662C217.782 44.4 217.842 44.46 217.842 44.58V45.336ZM220.98 55.794C220.944 55.854 220.956 55.884 221.016 55.884H226.668C226.788 55.884 226.848 55.944 226.848 56.064V56.82C226.848 56.94 226.788 57 226.668 57H219.486C219.366 57 219.306 56.94 219.306 56.82V56.064C219.306 55.98 219.336 55.908 219.396 55.848C219.804 55.368 220.722 54.24 222.15 52.464L223.482 50.808C224.61 49.38 225.174 48.27 225.174 47.478C225.174 46.842 224.958 46.332 224.526 45.948C224.094 45.564 223.53 45.372 222.834 45.372C222.15 45.372 221.598 45.57 221.178 45.966C220.758 46.35 220.554 46.86 220.566 47.496V48.054C220.566 48.174 220.506 48.234 220.386 48.234H219.45C219.33 48.234 219.27 48.174 219.27 48.054V47.334C219.294 46.41 219.636 45.666 220.296 45.102C220.968 44.538 221.814 44.256 222.834 44.256C223.554 44.256 224.19 44.394 224.742 44.67C225.294 44.946 225.72 45.33 226.02 45.822C226.32 46.302 226.47 46.848 226.47 47.46C226.47 48.48 225.906 49.71 224.778 51.15C224.19 51.906 223.056 53.298 221.376 55.326L220.98 55.794ZM230.631 55.794C230.595 55.854 230.607 55.884 230.667 55.884H236.319C236.439 55.884 236.499 55.944 236.499 56.064V56.82C236.499 56.94 236.439 57 236.319 57H229.137C229.017 57 228.957 56.94 228.957 56.82V56.064C228.957 55.98 228.987 55.908 229.047 55.848C229.455 55.368 230.373 54.24 231.801 52.464L233.133 50.808C234.261 49.38 234.825 48.27 234.825 47.478C234.825 46.842 234.609 46.332 234.177 45.948C233.745 45.564 233.181 45.372 232.485 45.372C231.801 45.372 231.249 45.57 230.829 45.966C230.409 46.35 230.205 46.86 230.217 47.496V48.054C230.217 48.174 230.157 48.234 230.037 48.234H229.101C228.981 48.234 228.921 48.174 228.921 48.054V47.334C228.945 46.41 229.287 45.666 229.947 45.102C230.619 44.538 231.465 44.256 232.485 44.256C233.205 44.256 233.841 44.394 234.393 44.67C234.945 44.946 235.371 45.33 235.671 45.822C235.971 46.302 236.121 46.848 236.121 47.46C236.121 48.48 235.557 49.71 234.429 51.15C233.841 51.906 232.707 53.298 231.027 55.326L230.631 55.794Z" fill="black"/>
<path d="M3 14.8H64.2446V15.7H3V14.8Z" fill="black"/>
</g>
<defs>
<filter id="filter0_d_298_256" x="0.295898" y="0.255981" width="240.203" height="68.236" filterUnits="userSpaceOnUse" color-interpolation-filters="sRGB">
<feFlood flood-opacity="0" result="BackgroundImageFix"/>
<feColorMatrix in="SourceAlpha" type="matrix" values="0 0 0 0 0 0 0 0 0 0 0 0 0 0 0 0 0 0 127 0" result="hardAlpha"/>
<feOffset dy="4"/>
<feGaussianBlur stdDeviation="2"/>
<feComposite in2="hardAlpha" operator="out"/>
<feColorMatrix type="matrix" values="0 0 0 0 0 0 0 0 0 0 0 0 0 0 0 0 0 0 0.25 0"/>
<feBlend mode="normal" in2="BackgroundImageFix" result="effect1_dropShadow_298_256"/>
<feBlend mode="normal" in="SourceGraphic" in2="effect1_dropShadow_298_256" result="shape"/>
</filter>
</defs>
</svg>
