<svg width="207" height="61" viewBox="0 0 207 61" fill="none" xmlns="http://www.w3.org/2000/svg">
<path d="M4.526 13.162C3.686 13.162 2.948 13 2.312 12.676C1.676 12.34 1.178 11.872 0.818 11.272C0.47 10.66 0.296 9.958 0.296 9.166V4.216C0.296 3.436 0.47 2.746 0.818 2.146C1.178 1.546 1.676 1.084 2.312 0.76C2.948 0.424 3.686 0.256 4.526 0.256C5.366 0.256 6.104 0.418 6.74 0.741999C7.376 1.066 7.868 1.522 8.216 2.11C8.576 2.698 8.756 3.376 8.756 4.144C8.756 4.204 8.738 4.252 8.702 4.288C8.666 4.324 8.624 4.342 8.576 4.342L7.658 4.396C7.538 4.396 7.478 4.342 7.478 4.234V4.18C7.478 3.328 7.208 2.65 6.668 2.146C6.128 1.63 5.414 1.372 4.526 1.372C3.638 1.372 2.924 1.63 2.384 2.146C1.844 2.662 1.574 3.34 1.574 4.18V9.22C1.574 10.06 1.844 10.738 2.384 11.254C2.924 11.77 3.638 12.028 4.526 12.028C5.414 12.028 6.128 11.776 6.668 11.272C7.208 10.756 7.478 10.072 7.478 9.22V9.184C7.478 9.076 7.538 9.022 7.658 9.022L8.576 9.076C8.696 9.076 8.756 9.13 8.756 9.238C8.756 10.018 8.576 10.708 8.216 11.308C7.868 11.896 7.376 12.352 6.74 12.676C6.104 13 5.366 13.162 4.526 13.162ZM14.83 13.144C13.966 13.144 13.222 12.922 12.598 12.478C11.974 12.034 11.542 11.422 11.302 10.642C11.134 10.09 11.05 9.352 11.05 8.428C11.05 7.504 11.134 6.772 11.302 6.232C11.53 5.464 11.956 4.858 12.58 4.414C13.204 3.97 13.96 3.748 14.848 3.748C15.7 3.748 16.432 3.97 17.044 4.414C17.668 4.858 18.094 5.458 18.322 6.214C18.49 6.73 18.574 7.468 18.574 8.428C18.574 9.4 18.49 10.138 18.322 10.642C18.094 11.422 17.668 12.034 17.044 12.478C16.432 12.922 15.694 13.144 14.83 13.144ZM14.83 12.028C15.406 12.028 15.898 11.872 16.306 11.56C16.714 11.236 16.99 10.804 17.134 10.264C17.242 9.832 17.296 9.226 17.296 8.446C17.296 7.654 17.248 7.048 17.152 6.628C17.008 6.088 16.726 5.662 16.306 5.35C15.898 5.026 15.4 4.864 14.812 4.864C14.224 4.864 13.726 5.026 13.318 5.35C12.91 5.662 12.634 6.088 12.49 6.628C12.394 7.048 12.346 7.654 12.346 8.446C12.346 9.238 12.394 9.844 12.49 10.264C12.622 10.804 12.892 11.236 13.3 11.56C13.72 11.872 14.23 12.028 14.83 12.028ZM26.6726 4.072C26.6726 3.952 26.7326 3.892 26.8526 3.892H27.7706C27.8906 3.892 27.9506 3.952 27.9506 4.072V12.82C27.9506 12.94 27.8906 13 27.7706 13H26.8526C26.7326 13 26.6726 12.94 26.6726 12.82V12.046C26.6726 12.022 26.6606 12.004 26.6366 11.992C26.6126 11.98 26.5946 11.986 26.5826 12.01C26.0786 12.754 25.2806 13.126 24.1886 13.126C23.6126 13.126 23.0786 13.012 22.5866 12.784C22.1066 12.544 21.7226 12.202 21.4346 11.758C21.1586 11.314 21.0206 10.78 21.0206 10.156V4.072C21.0206 3.952 21.0806 3.892 21.2006 3.892H22.1186C22.2386 3.892 22.2986 3.952 22.2986 4.072V9.778C22.2986 10.462 22.4906 11.008 22.8746 11.416C23.2586 11.812 23.7806 12.01 24.4406 12.01C25.1246 12.01 25.6646 11.806 26.0606 11.398C26.4686 10.99 26.6726 10.45 26.6726 9.778V4.072ZM34.487 3.802C34.883 3.802 35.225 3.88 35.513 4.036C35.609 4.084 35.645 4.162 35.621 4.27L35.423 5.152C35.387 5.272 35.309 5.308 35.189 5.26C34.985 5.176 34.751 5.134 34.487 5.134L34.253 5.152C33.629 5.176 33.113 5.41 32.705 5.854C32.297 6.286 32.093 6.838 32.093 7.51V12.82C32.093 12.94 32.033 13 31.913 13H30.995C30.875 13 30.815 12.94 30.815 12.82V4.072C30.815 3.952 30.875 3.892 30.995 3.892H31.913C32.033 3.892 32.093 3.952 32.093 4.072V5.17C32.093 5.206 32.099 5.23 32.111 5.242C32.135 5.242 32.153 5.23 32.165 5.206C32.417 4.762 32.735 4.42 33.119 4.18C33.515 3.928 33.971 3.802 34.487 3.802ZM40.3069 13.09C39.6349 13.09 39.0349 12.982 38.5069 12.766C37.9909 12.55 37.5889 12.262 37.3009 11.902C37.0249 11.542 36.8869 11.14 36.8869 10.696V10.48C36.8869 10.36 36.9469 10.3 37.0669 10.3H37.9309C38.0509 10.3 38.1109 10.36 38.1109 10.48V10.624C38.1109 11.02 38.3149 11.368 38.7229 11.668C39.1429 11.956 39.6649 12.1 40.2889 12.1C40.9129 12.1 41.4169 11.962 41.8009 11.686C42.1849 11.398 42.3769 11.038 42.3769 10.606C42.3769 10.306 42.2749 10.06 42.0709 9.868C41.8789 9.676 41.6449 9.526 41.3689 9.418C41.1049 9.31 40.6909 9.172 40.1269 9.004C39.4549 8.812 38.9029 8.62 38.4709 8.428C38.0389 8.236 37.6729 7.972 37.3729 7.636C37.0849 7.288 36.9409 6.85 36.9409 6.322C36.9409 5.554 37.2409 4.942 37.8409 4.486C38.4409 4.03 39.2329 3.802 40.2169 3.802C40.8769 3.802 41.4589 3.91 41.9629 4.126C42.4789 4.342 42.8749 4.642 43.1509 5.026C43.4269 5.398 43.5649 5.818 43.5649 6.286V6.34C43.5649 6.46 43.5049 6.52 43.3849 6.52H42.5389C42.4189 6.52 42.3589 6.46 42.3589 6.34V6.286C42.3589 5.878 42.1609 5.536 41.7649 5.26C41.3809 4.984 40.8589 4.846 40.1989 4.846C39.5869 4.846 39.0949 4.972 38.7229 5.224C38.3509 5.464 38.1649 5.8 38.1649 6.232C38.1649 6.64 38.3449 6.952 38.7049 7.168C39.0649 7.384 39.6229 7.6 40.3789 7.816C41.0749 8.02 41.6389 8.212 42.0709 8.392C42.5029 8.572 42.8749 8.836 43.1869 9.184C43.4989 9.52 43.6549 9.964 43.6549 10.516C43.6549 11.296 43.3489 11.92 42.7369 12.388C42.1249 12.856 41.3149 13.09 40.3069 13.09ZM52.9689 6.916C53.0169 7.252 53.0409 7.672 53.0409 8.176V8.752C53.0409 8.872 52.9809 8.932 52.8609 8.932H47.0469C46.9989 8.932 46.9749 8.956 46.9749 9.004C46.9989 9.664 47.0349 10.09 47.0829 10.282C47.2149 10.822 47.4969 11.248 47.9289 11.56C48.3609 11.872 48.9129 12.028 49.5849 12.028C50.0889 12.028 50.5329 11.914 50.9169 11.686C51.3009 11.458 51.6009 11.134 51.8169 10.714C51.8889 10.606 51.9729 10.582 52.0689 10.642L52.7709 11.056C52.8669 11.116 52.8909 11.2 52.8429 11.308C52.5429 11.884 52.0929 12.34 51.4929 12.676C50.8929 13 50.2029 13.162 49.4229 13.162C48.5709 13.15 47.8569 12.946 47.2809 12.55C46.7049 12.154 46.2909 11.602 46.0389 10.894C45.8229 10.318 45.7149 9.49 45.7149 8.41C45.7149 7.906 45.7209 7.498 45.7329 7.186C45.7569 6.862 45.8049 6.574 45.8769 6.322C46.0809 5.542 46.4889 4.918 47.1009 4.45C47.7249 3.982 48.4749 3.748 49.3509 3.748C50.4429 3.748 51.2829 4.024 51.8709 4.576C52.4589 5.128 52.8249 5.908 52.9689 6.916ZM49.3509 4.864C48.7629 4.864 48.2709 5.02 47.8749 5.332C47.4909 5.632 47.2389 6.04 47.1189 6.556C47.0469 6.808 46.9989 7.216 46.9749 7.78C46.9749 7.828 46.9989 7.852 47.0469 7.852H51.7089C51.7569 7.852 51.7809 7.828 51.7809 7.78C51.7569 7.24 51.7209 6.856 51.6729 6.628C51.5409 6.088 51.2709 5.662 50.8629 5.35C50.4669 5.026 49.9629 4.864 49.3509 4.864ZM57.1846 6.7C56.8846 6.7 56.6386 6.604 56.4466 6.412C56.2666 6.22 56.1766 5.98 56.1766 5.692C56.1766 5.392 56.2666 5.152 56.4466 4.972C56.6386 4.78 56.8846 4.684 57.1846 4.684C57.4726 4.684 57.7126 4.78 57.9046 4.972C58.0966 5.152 58.1926 5.392 58.1926 5.692C58.1926 5.98 58.0966 6.22 57.9046 6.412C57.7126 6.604 57.4726 6.7 57.1846 6.7ZM57.1846 12.766C56.8846 12.766 56.6386 12.67 56.4466 12.478C56.2666 12.286 56.1766 12.046 56.1766 11.758C56.1766 11.458 56.2666 11.218 56.4466 11.038C56.6386 10.846 56.8846 10.75 57.1846 10.75C57.4726 10.75 57.7126 10.846 57.9046 11.038C58.0966 11.218 58.1926 11.458 58.1926 11.758C58.1926 12.046 58.0966 12.286 57.9046 12.478C57.7126 12.67 57.4726 12.766 57.1846 12.766ZM8.864 22.526C8.924 22.442 8.996 22.4 9.08 22.4H10.016C10.136 22.4 10.196 22.46 10.196 22.58V34.82C10.196 34.94 10.136 35 10.016 35H9.098C8.978 35 8.918 34.94 8.918 34.82V24.812C8.918 24.776 8.906 24.752 8.882 24.74C8.858 24.728 8.84 24.74 8.828 24.776L5.894 29.276C5.834 29.36 5.762 29.402 5.678 29.402H5.21C5.126 29.402 5.054 29.366 4.994 29.294L2.06 24.83C2.048 24.794 2.03 24.782 2.006 24.794C1.982 24.806 1.97 24.83 1.97 24.866V34.82C1.97 34.94 1.91 35 1.79 35H0.872C0.752 35 0.692 34.94 0.692 34.82V22.58C0.692 22.46 0.752 22.4 0.872 22.4H1.808C1.904 22.4 1.976 22.436 2.024 22.508L5.408 27.638C5.42 27.65 5.438 27.656 5.462 27.656C5.486 27.656 5.504 27.65 5.516 27.638L8.864 22.526ZM21.7132 23.336C21.7132 23.456 21.6532 23.516 21.5332 23.516H14.9092C14.8612 23.516 14.8372 23.54 14.8372 23.588V28.034C14.8372 28.082 14.8612 28.106 14.9092 28.106H19.5532C19.6732 28.106 19.7332 28.166 19.7332 28.286V29.042C19.7332 29.162 19.6732 29.222 19.5532 29.222H14.9092C14.8612 29.222 14.8372 29.246 14.8372 29.294V33.812C14.8372 33.86 14.8612 33.884 14.9092 33.884H21.5332C21.6532 33.884 21.7132 33.944 21.7132 34.064V34.82C21.7132 34.94 21.6532 35 21.5332 35H13.7392C13.6192 35 13.5592 34.94 13.5592 34.82V22.58C13.5592 22.46 13.6192 22.4 13.7392 22.4H21.5332C21.6532 22.4 21.7132 22.46 21.7132 22.58V23.336ZM24.6376 35C24.5176 35 24.4576 34.94 24.4576 34.82V22.58C24.4576 22.46 24.5176 22.4 24.6376 22.4H28.8856C30.0736 22.4 31.0156 22.712 31.7116 23.336C32.4196 23.96 32.7736 24.806 32.7736 25.874V31.526C32.7736 32.594 32.4196 33.44 31.7116 34.064C31.0156 34.688 30.0736 35 28.8856 35H24.6376ZM25.7356 33.812C25.7356 33.86 25.7596 33.884 25.8076 33.884H28.9396C29.7196 33.884 30.3376 33.656 30.7936 33.2C31.2616 32.744 31.4956 32.132 31.4956 31.364V26.054C31.4956 25.274 31.2676 24.656 30.8116 24.2C30.3556 23.744 29.7316 23.516 28.9396 23.516H25.8076C25.7596 23.516 25.7356 23.54 25.7356 23.588V33.812ZM36.6286 33.794C36.5926 33.854 36.6046 33.884 36.6646 33.884H42.3166C42.4366 33.884 42.4966 33.944 42.4966 34.064V34.82C42.4966 34.94 42.4366 35 42.3166 35H35.1346C35.0146 35 34.9546 34.94 34.9546 34.82V34.064C34.9546 33.98 34.9846 33.908 35.0446 33.848C35.4526 33.368 36.3706 32.24 37.7986 30.464L39.1306 28.808C40.2586 27.38 40.8226 26.27 40.8226 25.478C40.8226 24.842 40.6066 24.332 40.1746 23.948C39.7426 23.564 39.1786 23.372 38.4826 23.372C37.7986 23.372 37.2466 23.57 36.8266 23.966C36.4066 24.35 36.2026 24.86 36.2146 25.496V26.054C36.2146 26.174 36.1546 26.234 36.0346 26.234H35.0986C34.9786 26.234 34.9186 26.174 34.9186 26.054V25.334C34.9426 24.41 35.2846 23.666 35.9446 23.102C36.6166 22.538 37.4626 22.256 38.4826 22.256C39.2026 22.256 39.8386 22.394 40.3906 22.67C40.9426 22.946 41.3686 23.33 41.6686 23.822C41.9686 24.302 42.1186 24.848 42.1186 25.46C42.1186 26.48 41.5546 27.71 40.4266 29.15C39.8386 29.906 38.7046 31.298 37.0246 33.326L36.6286 33.794ZM48.0285 29.96C47.9085 29.96 47.8485 29.9 47.8485 29.78V29.024C47.8485 28.904 47.9085 28.844 48.0285 28.844H53.3565C53.4765 28.844 53.5365 28.904 53.5365 29.024V29.78C53.5365 29.9 53.4765 29.96 53.3565 29.96H48.0285ZM63.666 35.144C62.826 35.144 62.082 34.976 61.434 34.64C60.786 34.304 60.282 33.836 59.922 33.236C59.562 32.624 59.382 31.916 59.382 31.112V22.58C59.382 22.46 59.442 22.4 59.562 22.4H60.48C60.6 22.4 60.66 22.46 60.66 22.58V31.148C60.66 32 60.936 32.696 61.488 33.236C62.04 33.764 62.766 34.028 63.666 34.028C64.566 34.028 65.292 33.764 65.844 33.236C66.396 32.696 66.672 32 66.672 31.148V22.58C66.672 22.46 66.732 22.4 66.852 22.4H67.77C67.89 22.4 67.95 22.46 67.95 22.58V31.112C67.95 31.916 67.77 32.624 67.41 33.236C67.062 33.836 66.564 34.304 65.916 34.64C65.268 34.976 64.518 35.144 63.666 35.144ZM70.3339 35C70.2619 35 70.2139 34.982 70.1899 34.946C70.1779 34.898 70.1899 34.844 70.2259 34.784L74.0059 28.754C74.0299 28.718 74.0299 28.682 74.0059 28.646L70.2259 22.616C70.2019 22.568 70.1899 22.532 70.1899 22.508C70.1899 22.436 70.2379 22.4 70.3339 22.4H71.3419C71.4259 22.4 71.4979 22.442 71.5579 22.526L74.7619 27.656C74.7739 27.668 74.7919 27.674 74.8159 27.674C74.8399 27.674 74.8579 27.668 74.8699 27.656L78.0559 22.526C78.1159 22.442 78.1879 22.4 78.2719 22.4H79.2619C79.3339 22.4 79.3759 22.424 79.3879 22.472C79.4119 22.508 79.4059 22.556 79.3699 22.616L75.6079 28.664C75.5959 28.7 75.5959 28.736 75.6079 28.772L79.3699 34.784C79.3939 34.832 79.4059 34.868 79.4059 34.892C79.4059 34.964 79.3579 35 79.2619 35H78.2719C78.1879 35 78.1159 34.958 78.0559 34.874L74.8699 29.762C74.8579 29.738 74.8399 29.726 74.8159 29.726C74.7919 29.726 74.7739 29.738 74.7619 29.762L71.5579 34.874C71.4979 34.958 71.4259 35 71.3419 35H70.3339ZM83.0947 28.7C82.7947 28.7 82.5487 28.604 82.3567 28.412C82.1767 28.22 82.0867 27.98 82.0867 27.692C82.0867 27.392 82.1767 27.152 82.3567 26.972C82.5487 26.78 82.7947 26.684 83.0947 26.684C83.3827 26.684 83.6227 26.78 83.8147 26.972C84.0067 27.152 84.1027 27.392 84.1027 27.692C84.1027 27.98 84.0067 28.22 83.8147 28.412C83.6227 28.604 83.3827 28.7 83.0947 28.7ZM83.0947 34.766C82.7947 34.766 82.5487 34.67 82.3567 34.478C82.1767 34.286 82.0867 34.046 82.0867 33.758C82.0867 33.458 82.1767 33.218 82.3567 33.038C82.5487 32.846 82.7947 32.75 83.0947 32.75C83.3827 32.75 83.6227 32.846 83.8147 33.038C84.0067 33.218 84.1027 33.458 84.1027 33.758C84.1027 34.046 84.0067 34.286 83.8147 34.478C83.6227 34.67 83.3827 34.766 83.0947 34.766ZM91.3759 35C91.2559 35 91.1959 34.94 91.1959 34.82V22.58C91.1959 22.46 91.2559 22.4 91.3759 22.4H92.2939C92.4139 22.4 92.4739 22.46 92.4739 22.58V29.942C92.4739 29.966 92.4799 29.984 92.4919 29.996C92.5159 30.008 92.5399 30.002 92.5639 29.978L96.3799 25.982C96.4399 25.922 96.5119 25.892 96.5959 25.892H97.6759C97.7479 25.892 97.7959 25.916 97.8199 25.964C97.8439 26.012 97.8319 26.06 97.7839 26.108L95.4799 28.664C95.4559 28.688 95.4499 28.718 95.4619 28.754L98.2159 34.784L98.2339 34.856C98.2339 34.952 98.1799 35 98.0719 35H97.0999C97.0039 35 96.9379 34.952 96.9019 34.856L94.5799 29.6C94.5559 29.552 94.5259 29.546 94.4899 29.582L92.5099 31.67C92.4859 31.694 92.4739 31.724 92.4739 31.76V34.82C92.4739 34.94 92.4139 35 92.2939 35H91.3759ZM102.535 35C102.427 35 102.355 34.952 102.319 34.856L99.3674 26.09L99.3494 26.018C99.3494 25.934 99.4034 25.892 99.5114 25.892H100.537C100.645 25.892 100.717 25.94 100.753 26.036L103.003 33.092C103.015 33.116 103.033 33.128 103.057 33.128C103.081 33.128 103.099 33.116 103.111 33.092L105.361 26.036C105.397 25.94 105.469 25.892 105.577 25.892L106.603 25.91C106.735 25.91 106.783 25.976 106.747 26.108L103.795 34.856C103.759 34.952 103.687 35 103.579 35H102.535ZM111.713 25.748C112.793 25.748 113.627 26.024 114.215 26.576C114.803 27.128 115.097 27.86 115.097 28.772V34.82C115.097 34.94 115.037 35 114.917 35H113.999C113.879 35 113.819 34.94 113.819 34.82V34.082C113.819 34.058 113.807 34.04 113.783 34.028C113.771 34.016 113.753 34.022 113.729 34.046C113.429 34.406 113.039 34.682 112.559 34.874C112.079 35.054 111.545 35.144 110.957 35.144C110.105 35.144 109.391 34.928 108.815 34.496C108.239 34.064 107.951 33.404 107.951 32.516C107.951 31.616 108.275 30.908 108.923 30.392C109.583 29.864 110.495 29.6 111.659 29.6H113.747C113.795 29.6 113.819 29.576 113.819 29.528V28.844C113.819 28.232 113.645 27.752 113.297 27.404C112.961 27.044 112.433 26.864 111.713 26.864C111.137 26.864 110.669 26.978 110.309 27.206C109.949 27.422 109.727 27.728 109.643 28.124C109.607 28.244 109.535 28.298 109.427 28.286L108.455 28.16C108.323 28.136 108.269 28.088 108.293 28.016C108.389 27.344 108.749 26.798 109.373 26.378C109.997 25.958 110.777 25.748 111.713 25.748ZM111.209 34.046C111.917 34.046 112.529 33.872 113.045 33.524C113.561 33.164 113.819 32.684 113.819 32.084V30.68C113.819 30.632 113.795 30.608 113.747 30.608H111.857C111.065 30.608 110.429 30.77 109.949 31.094C109.469 31.418 109.229 31.868 109.229 32.444C109.229 32.972 109.409 33.374 109.769 33.65C110.141 33.914 110.621 34.046 111.209 34.046ZM121.536 25.766C122.496 25.766 123.258 26.048 123.822 26.612C124.398 27.176 124.686 27.932 124.686 28.88V34.82C124.686 34.94 124.626 35 124.506 35H123.588C123.468 35 123.408 34.94 123.408 34.82V29.132C123.408 28.472 123.204 27.932 122.796 27.512C122.4 27.092 121.884 26.882 121.248 26.882C120.588 26.882 120.054 27.086 119.646 27.494C119.238 27.902 119.034 28.436 119.034 29.096V34.82C119.034 34.94 118.974 35 118.854 35H117.936C117.816 35 117.756 34.94 117.756 34.82V26.072C117.756 25.952 117.816 25.892 117.936 25.892H118.854C118.974 25.892 119.034 25.952 119.034 26.072V26.846C119.034 26.87 119.04 26.888 119.052 26.9C119.076 26.912 119.094 26.906 119.106 26.882C119.634 26.138 120.444 25.766 121.536 25.766ZM131.546 26.774C131.546 26.894 131.486 26.954 131.366 26.954H129.332C129.284 26.954 129.26 26.978 129.26 27.026V32.336C129.26 32.912 129.386 33.32 129.638 33.56C129.902 33.788 130.31 33.902 130.862 33.902H131.312C131.432 33.902 131.492 33.962 131.492 34.082V34.82C131.492 34.94 131.432 35 131.312 35C131.168 35.012 130.946 35.018 130.646 35.018C129.782 35.018 129.128 34.856 128.684 34.532C128.24 34.208 128.018 33.608 128.018 32.732V27.026C128.018 26.978 127.994 26.954 127.946 26.954H126.848C126.728 26.954 126.668 26.894 126.668 26.774V26.072C126.668 25.952 126.728 25.892 126.848 25.892H127.946C127.994 25.892 128.018 25.868 128.018 25.82V23.732C128.018 23.612 128.078 23.552 128.198 23.552H129.08C129.2 23.552 129.26 23.612 129.26 23.732V25.82C129.26 25.868 129.284 25.892 129.332 25.892H131.366C131.486 25.892 131.546 25.952 131.546 26.072V26.774ZM134.88 24.236C134.592 24.236 134.352 24.14 134.16 23.948C133.968 23.756 133.872 23.516 133.872 23.228C133.872 22.928 133.968 22.688 134.16 22.508C134.352 22.316 134.592 22.22 134.88 22.22C135.168 22.22 135.408 22.316 135.6 22.508C135.792 22.688 135.888 22.928 135.888 23.228C135.888 23.516 135.792 23.756 135.6 23.948C135.408 24.14 135.168 24.236 134.88 24.236ZM134.376 34.982C134.256 34.982 134.196 34.922 134.196 34.802V26.054C134.196 25.934 134.256 25.874 134.376 25.874H135.294C135.414 25.874 135.474 25.934 135.474 26.054V34.802C135.474 34.922 135.414 34.982 135.294 34.982H134.376ZM142.69 26.774C142.69 26.894 142.63 26.954 142.51 26.954H140.476C140.428 26.954 140.404 26.978 140.404 27.026V32.336C140.404 32.912 140.53 33.32 140.782 33.56C141.046 33.788 141.454 33.902 142.006 33.902H142.456C142.576 33.902 142.636 33.962 142.636 34.082V34.82C142.636 34.94 142.576 35 142.456 35C142.312 35.012 142.09 35.018 141.79 35.018C140.926 35.018 140.272 34.856 139.828 34.532C139.384 34.208 139.162 33.608 139.162 32.732V27.026C139.162 26.978 139.138 26.954 139.09 26.954H137.992C137.872 26.954 137.812 26.894 137.812 26.774V26.072C137.812 25.952 137.872 25.892 137.992 25.892H139.09C139.138 25.892 139.162 25.868 139.162 25.82V23.732C139.162 23.612 139.222 23.552 139.342 23.552H140.224C140.344 23.552 140.404 23.612 140.404 23.732V25.82C140.404 25.868 140.428 25.892 140.476 25.892H142.51C142.63 25.892 142.69 25.952 142.69 26.072V26.774ZM148.311 25.748C149.391 25.748 150.225 26.024 150.813 26.576C151.401 27.128 151.695 27.86 151.695 28.772V34.82C151.695 34.94 151.635 35 151.515 35H150.597C150.477 35 150.417 34.94 150.417 34.82V34.082C150.417 34.058 150.405 34.04 150.381 34.028C150.369 34.016 150.351 34.022 150.327 34.046C150.027 34.406 149.637 34.682 149.157 34.874C148.677 35.054 148.143 35.144 147.555 35.144C146.703 35.144 145.989 34.928 145.413 34.496C144.837 34.064 144.549 33.404 144.549 32.516C144.549 31.616 144.873 30.908 145.521 30.392C146.181 29.864 147.093 29.6 148.257 29.6H150.345C150.393 29.6 150.417 29.576 150.417 29.528V28.844C150.417 28.232 150.243 27.752 149.895 27.404C149.559 27.044 149.031 26.864 148.311 26.864C147.735 26.864 147.267 26.978 146.907 27.206C146.547 27.422 146.325 27.728 146.241 28.124C146.205 28.244 146.133 28.298 146.025 28.286L145.053 28.16C144.921 28.136 144.867 28.088 144.891 28.016C144.987 27.344 145.347 26.798 145.971 26.378C146.595 25.958 147.375 25.748 148.311 25.748ZM147.807 34.046C148.515 34.046 149.127 33.872 149.643 33.524C150.159 33.164 150.417 32.684 150.417 32.084V30.68C150.417 30.632 150.393 30.608 150.345 30.608H148.455C147.663 30.608 147.027 30.77 146.547 31.094C146.067 31.418 145.827 31.868 145.827 32.444C145.827 32.972 146.007 33.374 146.367 33.65C146.739 33.914 147.219 34.046 147.807 34.046ZM158.37 26.774C158.37 26.894 158.31 26.954 158.19 26.954H156.156C156.108 26.954 156.084 26.978 156.084 27.026V32.336C156.084 32.912 156.21 33.32 156.462 33.56C156.726 33.788 157.134 33.902 157.686 33.902H158.136C158.256 33.902 158.316 33.962 158.316 34.082V34.82C158.316 34.94 158.256 35 158.136 35C157.992 35.012 157.77 35.018 157.47 35.018C156.606 35.018 155.952 34.856 155.508 34.532C155.064 34.208 154.842 33.608 154.842 32.732V27.026C154.842 26.978 154.818 26.954 154.77 26.954H153.672C153.552 26.954 153.492 26.894 153.492 26.774V26.072C153.492 25.952 153.552 25.892 153.672 25.892H154.77C154.818 25.892 154.842 25.868 154.842 25.82V23.732C154.842 23.612 154.902 23.552 155.022 23.552H155.904C156.024 23.552 156.084 23.612 156.084 23.732V25.82C156.084 25.868 156.108 25.892 156.156 25.892H158.19C158.31 25.892 158.37 25.952 158.37 26.072V26.774ZM161.704 24.236C161.416 24.236 161.176 24.14 160.984 23.948C160.792 23.756 160.696 23.516 160.696 23.228C160.696 22.928 160.792 22.688 160.984 22.508C161.176 22.316 161.416 22.22 161.704 22.22C161.992 22.22 162.232 22.316 162.424 22.508C162.616 22.688 162.712 22.928 162.712 23.228C162.712 23.516 162.616 23.756 162.424 23.948C162.232 24.14 161.992 24.236 161.704 24.236ZM161.2 34.982C161.08 34.982 161.02 34.922 161.02 34.802V26.054C161.02 25.934 161.08 25.874 161.2 25.874H162.118C162.238 25.874 162.298 25.934 162.298 26.054V34.802C162.298 34.922 162.238 34.982 162.118 34.982H161.2ZM167.75 35C167.642 35 167.57 34.952 167.534 34.856L164.582 26.09L164.564 26.018C164.564 25.934 164.618 25.892 164.726 25.892H165.752C165.86 25.892 165.932 25.94 165.968 26.036L168.218 33.092C168.23 33.116 168.248 33.128 168.272 33.128C168.296 33.128 168.314 33.116 168.326 33.092L170.576 26.036C170.612 25.94 170.684 25.892 170.792 25.892L171.818 25.91C171.95 25.91 171.998 25.976 171.962 26.108L169.01 34.856C168.974 34.952 168.902 35 168.794 35H167.75ZM7.442 50.214C7.586 50.754 7.658 51.498 7.658 52.446C7.658 53.43 7.574 54.192 7.406 54.732C7.178 55.476 6.782 56.064 6.218 56.496C5.654 56.928 4.952 57.144 4.112 57.144C3.632 57.144 3.194 57.048 2.798 56.856C2.402 56.664 2.072 56.388 1.808 56.028C1.796 56.004 1.778 55.998 1.754 56.01C1.73 56.01 1.718 56.022 1.718 56.046V56.82C1.718 56.94 1.658 57 1.538 57H0.62C0.5 57 0.44 56.94 0.44 56.82V44.58C0.44 44.46 0.5 44.4 0.62 44.4H1.538C1.658 44.4 1.718 44.46 1.718 44.58V48.828C1.718 48.852 1.724 48.87 1.736 48.882C1.76 48.882 1.784 48.87 1.808 48.846C2.072 48.498 2.402 48.228 2.798 48.036C3.194 47.844 3.632 47.748 4.112 47.748C4.964 47.748 5.678 47.97 6.254 48.414C6.83 48.846 7.226 49.446 7.442 50.214ZM6.056 54.624C6.176 54.372 6.26 54.09 6.308 53.778C6.356 53.454 6.38 53.01 6.38 52.446C6.38 51.858 6.344 51.402 6.272 51.078C6.212 50.742 6.11 50.442 5.966 50.178C5.81 49.782 5.558 49.464 5.21 49.224C4.862 48.984 4.448 48.864 3.968 48.864C3.512 48.864 3.116 48.99 2.78 49.242C2.456 49.482 2.222 49.806 2.078 50.214C1.958 50.466 1.868 50.754 1.808 51.078C1.76 51.402 1.736 51.858 1.736 52.446C1.736 53.022 1.76 53.472 1.808 53.796C1.868 54.108 1.952 54.39 2.06 54.642C2.216 55.062 2.456 55.398 2.78 55.65C3.104 55.902 3.506 56.028 3.986 56.028C4.49 56.028 4.922 55.902 5.282 55.65C5.654 55.398 5.912 55.056 6.056 54.624ZM13.9382 47.802C14.3342 47.802 14.6762 47.88 14.9642 48.036C15.0602 48.084 15.0962 48.162 15.0722 48.27L14.8742 49.152C14.8382 49.272 14.7602 49.308 14.6402 49.26C14.4362 49.176 14.2022 49.134 13.9382 49.134L13.7042 49.152C13.0802 49.176 12.5642 49.41 12.1562 49.854C11.7482 50.286 11.5442 50.838 11.5442 51.51V56.82C11.5442 56.94 11.4842 57 11.3642 57H10.4462C10.3262 57 10.2662 56.94 10.2662 56.82V48.072C10.2662 47.952 10.3262 47.892 10.4462 47.892H11.3642C11.4842 47.892 11.5442 47.952 11.5442 48.072V49.17C11.5442 49.206 11.5502 49.23 11.5622 49.242C11.5862 49.242 11.6042 49.23 11.6162 49.206C11.8682 48.762 12.1862 48.42 12.5702 48.18C12.9662 47.928 13.4222 47.802 13.9382 47.802ZM22.3308 48.072C22.3308 47.952 22.3908 47.892 22.5108 47.892H23.4288C23.5488 47.892 23.6088 47.952 23.6088 48.072V56.82C23.6088 56.94 23.5488 57 23.4288 57H22.5108C22.3908 57 22.3308 56.94 22.3308 56.82V56.046C22.3308 56.022 22.3188 56.004 22.2948 55.992C22.2708 55.98 22.2528 55.986 22.2408 56.01C21.7368 56.754 20.9388 57.126 19.8468 57.126C19.2708 57.126 18.7368 57.012 18.2448 56.784C17.7648 56.544 17.3808 56.202 17.0928 55.758C16.8168 55.314 16.6788 54.78 16.6788 54.156V48.072C16.6788 47.952 16.7388 47.892 16.8588 47.892H17.7768C17.8968 47.892 17.9568 47.952 17.9568 48.072V53.778C17.9568 54.462 18.1488 55.008 18.5328 55.416C18.9168 55.812 19.4388 56.01 20.0988 56.01C20.7828 56.01 21.3228 55.806 21.7188 55.398C22.1268 54.99 22.3308 54.45 22.3308 53.778V48.072ZM32.0892 48.072C32.0892 47.952 32.1492 47.892 32.2692 47.892H33.1872C33.3072 47.892 33.3672 47.952 33.3672 48.072V56.694C33.3672 58.038 32.9772 59.022 32.1972 59.646C31.4292 60.27 30.3672 60.582 29.0112 60.582C28.7352 60.582 28.5252 60.576 28.3812 60.564C28.2612 60.552 28.2012 60.486 28.2012 60.366L28.2372 59.538C28.2372 59.478 28.2552 59.43 28.2912 59.394C28.3272 59.37 28.3692 59.364 28.4172 59.376L28.9032 59.394C30.0192 59.394 30.8292 59.172 31.3332 58.728C31.8372 58.296 32.0892 57.606 32.0892 56.658V55.992C32.0892 55.968 32.0772 55.956 32.0532 55.956C32.0412 55.944 32.0232 55.95 31.9992 55.974C31.4472 56.694 30.6612 57.054 29.6412 57.054C28.8612 57.054 28.1652 56.844 27.5532 56.424C26.9532 56.004 26.5512 55.41 26.3472 54.642C26.2032 54.15 26.1312 53.418 26.1312 52.446C26.1312 51.918 26.1432 51.474 26.1672 51.114C26.2032 50.754 26.2692 50.43 26.3652 50.142C26.5812 49.422 26.9712 48.846 27.5352 48.414C28.0992 47.97 28.7772 47.748 29.5692 47.748C30.6372 47.748 31.4472 48.102 31.9992 48.81C32.0232 48.834 32.0412 48.84 32.0532 48.828C32.0772 48.816 32.0892 48.798 32.0892 48.774V48.072ZM31.9992 54.246C32.0352 54.066 32.0592 53.844 32.0712 53.58C32.0832 53.316 32.0892 52.932 32.0892 52.428C32.0892 51.816 32.0832 51.408 32.0712 51.204C32.0592 50.988 32.0292 50.79 31.9812 50.61C31.8852 50.106 31.6452 49.692 31.2612 49.368C30.8892 49.032 30.4152 48.864 29.8392 48.864C29.2752 48.864 28.7952 49.026 28.3992 49.35C28.0152 49.674 27.7452 50.094 27.5892 50.61C27.4692 50.994 27.4092 51.594 27.4092 52.41C27.4092 53.286 27.4692 53.892 27.5892 54.228C27.7092 54.732 27.9672 55.152 28.3632 55.488C28.7712 55.812 29.2632 55.974 29.8392 55.974C30.4272 55.974 30.9072 55.812 31.2792 55.488C31.6632 55.164 31.9032 54.75 31.9992 54.246ZM43.09 50.916C43.138 51.252 43.162 51.672 43.162 52.176V52.752C43.162 52.872 43.102 52.932 42.982 52.932H37.168C37.12 52.932 37.096 52.956 37.096 53.004C37.12 53.664 37.156 54.09 37.204 54.282C37.336 54.822 37.618 55.248 38.05 55.56C38.482 55.872 39.034 56.028 39.706 56.028C40.21 56.028 40.654 55.914 41.038 55.686C41.422 55.458 41.722 55.134 41.938 54.714C42.01 54.606 42.094 54.582 42.19 54.642L42.892 55.056C42.988 55.116 43.012 55.2 42.964 55.308C42.664 55.884 42.214 56.34 41.614 56.676C41.014 57 40.324 57.162 39.544 57.162C38.692 57.15 37.978 56.946 37.402 56.55C36.826 56.154 36.412 55.602 36.16 54.894C35.944 54.318 35.836 53.49 35.836 52.41C35.836 51.906 35.842 51.498 35.854 51.186C35.878 50.862 35.926 50.574 35.998 50.322C36.202 49.542 36.61 48.918 37.222 48.45C37.846 47.982 38.596 47.748 39.472 47.748C40.564 47.748 41.404 48.024 41.992 48.576C42.58 49.128 42.946 49.908 43.09 50.916ZM39.472 48.864C38.884 48.864 38.392 49.02 37.996 49.332C37.612 49.632 37.36 50.04 37.24 50.556C37.168 50.808 37.12 51.216 37.096 51.78C37.096 51.828 37.12 51.852 37.168 51.852H41.83C41.878 51.852 41.902 51.828 41.902 51.78C41.878 51.24 41.842 50.856 41.794 50.628C41.662 50.088 41.392 49.662 40.984 49.35C40.588 49.026 40.084 48.864 39.472 48.864ZM49.3757 47.802C49.7717 47.802 50.1137 47.88 50.4017 48.036C50.4977 48.084 50.5337 48.162 50.5097 48.27L50.3117 49.152C50.2757 49.272 50.1977 49.308 50.0777 49.26C49.8737 49.176 49.6397 49.134 49.3757 49.134L49.1417 49.152C48.5177 49.176 48.0017 49.41 47.5937 49.854C47.1857 50.286 46.9817 50.838 46.9817 51.51V56.82C46.9817 56.94 46.9217 57 46.8017 57H45.8837C45.7637 57 45.7037 56.94 45.7037 56.82V48.072C45.7037 47.952 45.7637 47.892 45.8837 47.892H46.8017C46.9217 47.892 46.9817 47.952 46.9817 48.072V49.17C46.9817 49.206 46.9877 49.23 46.9997 49.242C47.0237 49.242 47.0417 49.23 47.0537 49.206C47.3057 48.762 47.6237 48.42 48.0077 48.18C48.4037 47.928 48.8597 47.802 49.3757 47.802ZM59.1564 50.916C59.2044 51.252 59.2284 51.672 59.2284 52.176V52.752C59.2284 52.872 59.1684 52.932 59.0484 52.932H53.2344C53.1864 52.932 53.1624 52.956 53.1624 53.004C53.1864 53.664 53.2224 54.09 53.2704 54.282C53.4024 54.822 53.6844 55.248 54.1164 55.56C54.5484 55.872 55.1004 56.028 55.7724 56.028C56.2764 56.028 56.7204 55.914 57.1044 55.686C57.4884 55.458 57.7884 55.134 58.0044 54.714C58.0764 54.606 58.1604 54.582 58.2564 54.642L58.9584 55.056C59.0544 55.116 59.0784 55.2 59.0304 55.308C58.7304 55.884 58.2804 56.34 57.6804 56.676C57.0804 57 56.3904 57.162 55.6104 57.162C54.7584 57.15 54.0444 56.946 53.4684 56.55C52.8924 56.154 52.4784 55.602 52.2264 54.894C52.0104 54.318 51.9024 53.49 51.9024 52.41C51.9024 51.906 51.9084 51.498 51.9204 51.186C51.9444 50.862 51.9924 50.574 52.0644 50.322C52.2684 49.542 52.6764 48.918 53.2884 48.45C53.9124 47.982 54.6624 47.748 55.5384 47.748C56.6304 47.748 57.4704 48.024 58.0584 48.576C58.6464 49.128 59.0124 49.908 59.1564 50.916ZM55.5384 48.864C54.9504 48.864 54.4584 49.02 54.0624 49.332C53.6784 49.632 53.4264 50.04 53.3064 50.556C53.2344 50.808 53.1864 51.216 53.1624 51.78C53.1624 51.828 53.1864 51.852 53.2344 51.852H57.8964C57.9444 51.852 57.9684 51.828 57.9684 51.78C57.9444 51.24 57.9084 50.856 57.8604 50.628C57.7284 50.088 57.4584 49.662 57.0504 49.35C56.6544 49.026 56.1504 48.864 55.5384 48.864ZM63.8636 57C63.7556 57 63.6836 56.952 63.6476 56.856L60.6956 48.09L60.6776 48.018C60.6776 47.934 60.7316 47.892 60.8396 47.892H61.8656C61.9736 47.892 62.0456 47.94 62.0816 48.036L64.3316 55.092C64.3436 55.116 64.3616 55.128 64.3856 55.128C64.4096 55.128 64.4276 55.116 64.4396 55.092L66.6896 48.036C66.7256 47.94 66.7976 47.892 66.9056 47.892L67.9316 47.91C68.0636 47.91 68.1116 47.976 68.0756 48.108L65.1236 56.856C65.0876 56.952 65.0156 57 64.9076 57H63.8636ZM73.0412 47.748C74.1212 47.748 74.9552 48.024 75.5432 48.576C76.1312 49.128 76.4252 49.86 76.4252 50.772V56.82C76.4252 56.94 76.3652 57 76.2452 57H75.3272C75.2072 57 75.1472 56.94 75.1472 56.82V56.082C75.1472 56.058 75.1352 56.04 75.1112 56.028C75.0992 56.016 75.0812 56.022 75.0572 56.046C74.7572 56.406 74.3672 56.682 73.8872 56.874C73.4072 57.054 72.8732 57.144 72.2852 57.144C71.4332 57.144 70.7192 56.928 70.1432 56.496C69.5672 56.064 69.2792 55.404 69.2792 54.516C69.2792 53.616 69.6032 52.908 70.2512 52.392C70.9112 51.864 71.8232 51.6 72.9872 51.6H75.0752C75.1232 51.6 75.1472 51.576 75.1472 51.528V50.844C75.1472 50.232 74.9732 49.752 74.6252 49.404C74.2892 49.044 73.7612 48.864 73.0412 48.864C72.4652 48.864 71.9972 48.978 71.6372 49.206C71.2772 49.422 71.0552 49.728 70.9712 50.124C70.9352 50.244 70.8632 50.298 70.7552 50.286L69.7832 50.16C69.6512 50.136 69.5972 50.088 69.6212 50.016C69.7172 49.344 70.0772 48.798 70.7012 48.378C71.3252 47.958 72.1052 47.748 73.0412 47.748ZM72.5372 56.046C73.2452 56.046 73.8572 55.872 74.3732 55.524C74.8892 55.164 75.1472 54.684 75.1472 54.084V52.68C75.1472 52.632 75.1232 52.608 75.0752 52.608H73.1852C72.3932 52.608 71.7572 52.77 71.2772 53.094C70.7972 53.418 70.5572 53.868 70.5572 54.444C70.5572 54.972 70.7372 55.374 71.0972 55.65C71.4692 55.914 71.9492 56.046 72.5372 56.046ZM79.2645 57C79.1445 57 79.0845 56.94 79.0845 56.82V44.58C79.0845 44.46 79.1445 44.4 79.2645 44.4H80.1825C80.3025 44.4 80.3625 44.46 80.3625 44.58V56.82C80.3625 56.94 80.3025 57 80.1825 57H79.2645ZM88.741 48.072C88.741 47.952 88.801 47.892 88.921 47.892H89.839C89.959 47.892 90.019 47.952 90.019 48.072V56.82C90.019 56.94 89.959 57 89.839 57H88.921C88.801 57 88.741 56.94 88.741 56.82V56.046C88.741 56.022 88.729 56.004 88.705 55.992C88.681 55.98 88.663 55.986 88.651 56.01C88.147 56.754 87.349 57.126 86.257 57.126C85.681 57.126 85.147 57.012 84.655 56.784C84.175 56.544 83.791 56.202 83.503 55.758C83.227 55.314 83.089 54.78 83.089 54.156V48.072C83.089 47.952 83.149 47.892 83.269 47.892H84.187C84.307 47.892 84.367 47.952 84.367 48.072V53.778C84.367 54.462 84.559 55.008 84.943 55.416C85.327 55.812 85.849 56.01 86.509 56.01C87.193 56.01 87.733 55.806 88.129 55.398C88.537 54.99 88.741 54.45 88.741 53.778V48.072ZM99.8674 50.916C99.9154 51.252 99.9394 51.672 99.9394 52.176V52.752C99.9394 52.872 99.8794 52.932 99.7594 52.932H93.9454C93.8974 52.932 93.8734 52.956 93.8734 53.004C93.8974 53.664 93.9334 54.09 93.9814 54.282C94.1134 54.822 94.3954 55.248 94.8274 55.56C95.2594 55.872 95.8114 56.028 96.4834 56.028C96.9874 56.028 97.4314 55.914 97.8154 55.686C98.1994 55.458 98.4994 55.134 98.7154 54.714C98.7874 54.606 98.8714 54.582 98.9674 54.642L99.6694 55.056C99.7654 55.116 99.7894 55.2 99.7414 55.308C99.4414 55.884 98.9914 56.34 98.3914 56.676C97.7914 57 97.1014 57.162 96.3214 57.162C95.4694 57.15 94.7554 56.946 94.1794 56.55C93.6034 56.154 93.1894 55.602 92.9374 54.894C92.7214 54.318 92.6134 53.49 92.6134 52.41C92.6134 51.906 92.6194 51.498 92.6314 51.186C92.6554 50.862 92.7034 50.574 92.7754 50.322C92.9794 49.542 93.3874 48.918 93.9994 48.45C94.6234 47.982 95.3734 47.748 96.2494 47.748C97.3414 47.748 98.1814 48.024 98.7694 48.576C99.3574 49.128 99.7234 49.908 99.8674 50.916ZM96.2494 48.864C95.6614 48.864 95.1694 49.02 94.7734 49.332C94.3894 49.632 94.1374 50.04 94.0174 50.556C93.9454 50.808 93.8974 51.216 93.8734 51.78C93.8734 51.828 93.8974 51.852 93.9454 51.852H98.6074C98.6554 51.852 98.6794 51.828 98.6794 51.78C98.6554 51.24 98.6194 50.856 98.5714 50.628C98.4394 50.088 98.1694 49.662 97.7614 49.35C97.3654 49.026 96.8614 48.864 96.2494 48.864ZM106.153 47.802C106.549 47.802 106.891 47.88 107.179 48.036C107.275 48.084 107.311 48.162 107.287 48.27L107.089 49.152C107.053 49.272 106.975 49.308 106.855 49.26C106.651 49.176 106.417 49.134 106.153 49.134L105.919 49.152C105.295 49.176 104.779 49.41 104.371 49.854C103.963 50.286 103.759 50.838 103.759 51.51V56.82C103.759 56.94 103.699 57 103.579 57H102.661C102.541 57 102.481 56.94 102.481 56.82V48.072C102.481 47.952 102.541 47.892 102.661 47.892H103.579C103.699 47.892 103.759 47.952 103.759 48.072V49.17C103.759 49.206 103.765 49.23 103.777 49.242C103.801 49.242 103.819 49.23 103.831 49.206C104.083 48.762 104.401 48.42 104.785 48.18C105.181 47.928 105.637 47.802 106.153 47.802ZM109.902 46.236C109.614 46.236 109.374 46.14 109.182 45.948C108.99 45.756 108.894 45.516 108.894 45.228C108.894 44.928 108.99 44.688 109.182 44.508C109.374 44.316 109.614 44.22 109.902 44.22C110.19 44.22 110.43 44.316 110.622 44.508C110.814 44.688 110.91 44.928 110.91 45.228C110.91 45.516 110.814 45.756 110.622 45.948C110.43 46.14 110.19 46.236 109.902 46.236ZM109.398 56.982C109.278 56.982 109.218 56.922 109.218 56.802V48.054C109.218 47.934 109.278 47.874 109.398 47.874H110.316C110.436 47.874 110.496 47.934 110.496 48.054V56.802C110.496 56.922 110.436 56.982 110.316 56.982H109.398ZM117.406 47.766C118.366 47.766 119.128 48.048 119.692 48.612C120.268 49.176 120.556 49.932 120.556 50.88V56.82C120.556 56.94 120.496 57 120.376 57H119.458C119.338 57 119.278 56.94 119.278 56.82V51.132C119.278 50.472 119.074 49.932 118.666 49.512C118.27 49.092 117.754 48.882 117.118 48.882C116.458 48.882 115.924 49.086 115.516 49.494C115.108 49.902 114.904 50.436 114.904 51.096V56.82C114.904 56.94 114.844 57 114.724 57H113.806C113.686 57 113.626 56.94 113.626 56.82V48.072C113.626 47.952 113.686 47.892 113.806 47.892H114.724C114.844 47.892 114.904 47.952 114.904 48.072V48.846C114.904 48.87 114.91 48.888 114.922 48.9C114.946 48.912 114.964 48.906 114.976 48.882C115.504 48.138 116.314 47.766 117.406 47.766ZM128.945 48.072C128.945 47.952 129.005 47.892 129.125 47.892H130.043C130.163 47.892 130.223 47.952 130.223 48.072V56.694C130.223 58.038 129.833 59.022 129.053 59.646C128.285 60.27 127.223 60.582 125.867 60.582C125.591 60.582 125.381 60.576 125.237 60.564C125.117 60.552 125.057 60.486 125.057 60.366L125.093 59.538C125.093 59.478 125.111 59.43 125.147 59.394C125.183 59.37 125.225 59.364 125.273 59.376L125.759 59.394C126.875 59.394 127.685 59.172 128.189 58.728C128.693 58.296 128.945 57.606 128.945 56.658V55.992C128.945 55.968 128.933 55.956 128.909 55.956C128.897 55.944 128.879 55.95 128.855 55.974C128.303 56.694 127.517 57.054 126.497 57.054C125.717 57.054 125.021 56.844 124.409 56.424C123.809 56.004 123.407 55.41 123.203 54.642C123.059 54.15 122.987 53.418 122.987 52.446C122.987 51.918 122.999 51.474 123.023 51.114C123.059 50.754 123.125 50.43 123.221 50.142C123.437 49.422 123.827 48.846 124.391 48.414C124.955 47.97 125.633 47.748 126.425 47.748C127.493 47.748 128.303 48.102 128.855 48.81C128.879 48.834 128.897 48.84 128.909 48.828C128.933 48.816 128.945 48.798 128.945 48.774V48.072ZM128.855 54.246C128.891 54.066 128.915 53.844 128.927 53.58C128.939 53.316 128.945 52.932 128.945 52.428C128.945 51.816 128.939 51.408 128.927 51.204C128.915 50.988 128.885 50.79 128.837 50.61C128.741 50.106 128.501 49.692 128.117 49.368C127.745 49.032 127.271 48.864 126.695 48.864C126.131 48.864 125.651 49.026 125.255 49.35C124.871 49.674 124.601 50.094 124.445 50.61C124.325 50.994 124.265 51.594 124.265 52.41C124.265 53.286 124.325 53.892 124.445 54.228C124.565 54.732 124.823 55.152 125.219 55.488C125.627 55.812 126.119 55.974 126.695 55.974C127.283 55.974 127.763 55.812 128.135 55.488C128.519 55.164 128.759 54.75 128.855 54.246ZM132.889 58.422C132.829 58.422 132.781 58.404 132.745 58.368C132.721 58.332 132.715 58.284 132.727 58.224L133.519 54.372C133.543 54.264 133.609 54.21 133.717 54.21H134.509C134.569 54.21 134.611 54.228 134.635 54.264C134.671 54.3 134.683 54.348 134.671 54.408L133.663 58.26C133.639 58.368 133.573 58.422 133.465 58.422H132.889ZM141.743 57C141.623 57 141.563 56.94 141.563 56.82V44.58C141.563 44.46 141.623 44.4 141.743 44.4H142.661C142.781 44.4 142.841 44.46 142.841 44.58V50.682C142.841 50.706 142.853 50.724 142.877 50.736C142.901 50.748 142.919 50.742 142.931 50.718L148.619 44.49C148.667 44.43 148.739 44.4 148.835 44.4H149.879C149.951 44.4 149.993 44.424 150.005 44.472C150.029 44.52 150.017 44.568 149.969 44.616L145.559 49.602C145.535 49.626 145.535 49.662 145.559 49.71L150.347 56.784L150.383 56.874C150.383 56.958 150.329 57 150.221 57H149.177C149.081 57 149.009 56.964 148.961 56.892L144.695 50.628C144.683 50.604 144.665 50.592 144.641 50.592C144.617 50.592 144.599 50.598 144.587 50.61L142.877 52.428C142.853 52.452 142.841 52.482 142.841 52.518V56.82C142.841 56.94 142.781 57 142.661 57H141.743ZM159.317 50.214C159.461 50.754 159.533 51.498 159.533 52.446C159.533 53.43 159.449 54.192 159.281 54.732C159.053 55.476 158.657 56.064 158.093 56.496C157.529 56.928 156.827 57.144 155.987 57.144C155.507 57.144 155.069 57.048 154.673 56.856C154.277 56.664 153.947 56.388 153.683 56.028C153.671 56.004 153.653 55.998 153.629 56.01C153.605 56.01 153.593 56.022 153.593 56.046V56.82C153.593 56.94 153.533 57 153.413 57H152.495C152.375 57 152.315 56.94 152.315 56.82V44.58C152.315 44.46 152.375 44.4 152.495 44.4H153.413C153.533 44.4 153.593 44.46 153.593 44.58V48.828C153.593 48.852 153.599 48.87 153.611 48.882C153.635 48.882 153.659 48.87 153.683 48.846C153.947 48.498 154.277 48.228 154.673 48.036C155.069 47.844 155.507 47.748 155.987 47.748C156.839 47.748 157.553 47.97 158.129 48.414C158.705 48.846 159.101 49.446 159.317 50.214ZM157.931 54.624C158.051 54.372 158.135 54.09 158.183 53.778C158.231 53.454 158.255 53.01 158.255 52.446C158.255 51.858 158.219 51.402 158.147 51.078C158.087 50.742 157.985 50.442 157.841 50.178C157.685 49.782 157.433 49.464 157.085 49.224C156.737 48.984 156.323 48.864 155.843 48.864C155.387 48.864 154.991 48.99 154.655 49.242C154.331 49.482 154.097 49.806 153.953 50.214C153.833 50.466 153.743 50.754 153.683 51.078C153.635 51.402 153.611 51.858 153.611 52.446C153.611 53.022 153.635 53.472 153.683 53.796C153.743 54.108 153.827 54.39 153.935 54.642C154.091 55.062 154.331 55.398 154.655 55.65C154.979 55.902 155.381 56.028 155.861 56.028C156.365 56.028 156.797 55.902 157.157 55.65C157.529 55.398 157.787 55.056 157.931 54.624ZM165.904 47.766C166.864 47.766 167.626 48.048 168.19 48.612C168.766 49.176 169.054 49.932 169.054 50.88V56.82C169.054 56.94 168.994 57 168.874 57H167.956C167.836 57 167.776 56.94 167.776 56.82V51.132C167.776 50.472 167.572 49.932 167.164 49.512C166.768 49.092 166.252 48.882 165.616 48.882C164.956 48.882 164.422 49.086 164.014 49.494C163.606 49.902 163.402 50.436 163.402 51.096V56.82C163.402 56.94 163.342 57 163.222 57H162.304C162.184 57 162.124 56.94 162.124 56.82V44.58C162.124 44.46 162.184 44.4 162.304 44.4H163.222C163.342 44.4 163.402 44.46 163.402 44.58V48.846C163.402 48.87 163.408 48.888 163.42 48.9C163.444 48.912 163.462 48.906 163.474 48.882C164.002 48.138 164.812 47.766 165.904 47.766ZM171.368 58.422C171.308 58.422 171.26 58.404 171.224 58.368C171.2 58.332 171.194 58.284 171.206 58.224L171.998 54.372C172.022 54.264 172.088 54.21 172.196 54.21H172.988C173.048 54.21 173.09 54.228 173.114 54.264C173.15 54.3 173.162 54.348 173.15 54.408L172.142 58.26C172.118 58.368 172.052 58.422 171.944 58.422H171.368ZM188.178 45.336C188.178 45.456 188.118 45.516 187.998 45.516H181.392C181.344 45.516 181.32 45.54 181.32 45.588V50.034C181.32 50.082 181.344 50.106 181.392 50.106H186.018C186.138 50.106 186.198 50.166 186.198 50.286V51.042C186.198 51.162 186.138 51.222 186.018 51.222H181.392C181.344 51.222 181.32 51.246 181.32 51.294V56.82C181.32 56.94 181.26 57 181.14 57H180.222C180.102 57 180.042 56.94 180.042 56.82V44.58C180.042 44.46 180.102 44.4 180.222 44.4H187.998C188.118 44.4 188.178 44.46 188.178 44.58V45.336ZM191.316 55.794C191.28 55.854 191.292 55.884 191.352 55.884H197.004C197.124 55.884 197.184 55.944 197.184 56.064V56.82C197.184 56.94 197.124 57 197.004 57H189.822C189.702 57 189.642 56.94 189.642 56.82V56.064C189.642 55.98 189.672 55.908 189.732 55.848C190.14 55.368 191.058 54.24 192.486 52.464L193.818 50.808C194.946 49.38 195.51 48.27 195.51 47.478C195.51 46.842 195.294 46.332 194.862 45.948C194.43 45.564 193.866 45.372 193.17 45.372C192.486 45.372 191.934 45.57 191.514 45.966C191.094 46.35 190.89 46.86 190.902 47.496V48.054C190.902 48.174 190.842 48.234 190.722 48.234H189.786C189.666 48.234 189.606 48.174 189.606 48.054V47.334C189.63 46.41 189.972 45.666 190.632 45.102C191.304 44.538 192.15 44.256 193.17 44.256C193.89 44.256 194.526 44.394 195.078 44.67C195.63 44.946 196.056 45.33 196.356 45.822C196.656 46.302 196.806 46.848 196.806 47.46C196.806 48.48 196.242 49.71 195.114 51.15C194.526 51.906 193.392 53.298 191.712 55.326L191.316 55.794ZM200.966 55.794C200.93 55.854 200.942 55.884 201.002 55.884H206.654C206.774 55.884 206.834 55.944 206.834 56.064V56.82C206.834 56.94 206.774 57 206.654 57H199.472C199.352 57 199.292 56.94 199.292 56.82V56.064C199.292 55.98 199.322 55.908 199.382 55.848C199.79 55.368 200.708 54.24 202.136 52.464L203.468 50.808C204.596 49.38 205.16 48.27 205.16 47.478C205.16 46.842 204.944 46.332 204.512 45.948C204.08 45.564 203.516 45.372 202.82 45.372C202.136 45.372 201.584 45.57 201.164 45.966C200.744 46.35 200.54 46.86 200.552 47.496V48.054C200.552 48.174 200.492 48.234 200.372 48.234H199.436C199.316 48.234 199.256 48.174 199.256 48.054V47.334C199.28 46.41 199.622 45.666 200.282 45.102C200.954 44.538 201.8 44.256 202.82 44.256C203.54 44.256 204.176 44.394 204.728 44.67C205.28 44.946 205.706 45.33 206.006 45.822C206.306 46.302 206.456 46.848 206.456 47.46C206.456 48.48 205.892 49.71 204.764 51.15C204.176 51.906 203.042 53.298 201.362 55.326L200.966 55.794Z" fill="black"/>
<path d="M-1 14.8H54.1389V15.7H-1V14.8Z" fill="black"/>
</svg>
