<svg width="207" height="59" viewBox="0 0 207 59" fill="none" xmlns="http://www.w3.org/2000/svg">
<path d="M4.526 13.162C3.686 13.162 2.948 13 2.312 12.676C1.676 12.34 1.178 11.872 0.818 11.272C0.47 10.66 0.296 9.958 0.296 9.166V4.216C0.296 3.436 0.47 2.746 0.818 2.146C1.178 1.546 1.676 1.084 2.312 0.76C2.948 0.424 3.686 0.256 4.526 0.256C5.366 0.256 6.104 0.418 6.74 0.741999C7.376 1.066 7.868 1.522 8.216 2.11C8.576 2.698 8.756 3.376 8.756 4.144C8.756 4.204 8.738 4.252 8.702 4.288C8.666 4.324 8.624 4.342 8.576 4.342L7.658 4.396C7.538 4.396 7.478 4.342 7.478 4.234V4.18C7.478 3.328 7.208 2.65 6.668 2.146C6.128 1.63 5.414 1.372 4.526 1.372C3.638 1.372 2.924 1.63 2.384 2.146C1.844 2.662 1.574 3.34 1.574 4.18V9.22C1.574 10.06 1.844 10.738 2.384 11.254C2.924 11.77 3.638 12.028 4.526 12.028C5.414 12.028 6.128 11.776 6.668 11.272C7.208 10.756 7.478 10.072 7.478 9.22V9.184C7.478 9.076 7.538 9.022 7.658 9.022L8.576 9.076C8.696 9.076 8.756 9.13 8.756 9.238C8.756 10.018 8.576 10.708 8.216 11.308C7.868 11.896 7.376 12.352 6.74 12.676C6.104 13 5.366 13.162 4.526 13.162ZM14.83 13.144C13.966 13.144 13.222 12.922 12.598 12.478C11.974 12.034 11.542 11.422 11.302 10.642C11.134 10.09 11.05 9.352 11.05 8.428C11.05 7.504 11.134 6.772 11.302 6.232C11.53 5.464 11.956 4.858 12.58 4.414C13.204 3.97 13.96 3.748 14.848 3.748C15.7 3.748 16.432 3.97 17.044 4.414C17.668 4.858 18.094 5.458 18.322 6.214C18.49 6.73 18.574 7.468 18.574 8.428C18.574 9.4 18.49 10.138 18.322 10.642C18.094 11.422 17.668 12.034 17.044 12.478C16.432 12.922 15.694 13.144 14.83 13.144ZM14.83 12.028C15.406 12.028 15.898 11.872 16.306 11.56C16.714 11.236 16.99 10.804 17.134 10.264C17.242 9.832 17.296 9.226 17.296 8.446C17.296 7.654 17.248 7.048 17.152 6.628C17.008 6.088 16.726 5.662 16.306 5.35C15.898 5.026 15.4 4.864 14.812 4.864C14.224 4.864 13.726 5.026 13.318 5.35C12.91 5.662 12.634 6.088 12.49 6.628C12.394 7.048 12.346 7.654 12.346 8.446C12.346 9.238 12.394 9.844 12.49 10.264C12.622 10.804 12.892 11.236 13.3 11.56C13.72 11.872 14.23 12.028 14.83 12.028ZM26.6726 4.072C26.6726 3.952 26.7326 3.892 26.8526 3.892H27.7706C27.8906 3.892 27.9506 3.952 27.9506 4.072V12.82C27.9506 12.94 27.8906 13 27.7706 13H26.8526C26.7326 13 26.6726 12.94 26.6726 12.82V12.046C26.6726 12.022 26.6606 12.004 26.6366 11.992C26.6126 11.98 26.5946 11.986 26.5826 12.01C26.0786 12.754 25.2806 13.126 24.1886 13.126C23.6126 13.126 23.0786 13.012 22.5866 12.784C22.1066 12.544 21.7226 12.202 21.4346 11.758C21.1586 11.314 21.0206 10.78 21.0206 10.156V4.072C21.0206 3.952 21.0806 3.892 21.2006 3.892H22.1186C22.2386 3.892 22.2986 3.952 22.2986 4.072V9.778C22.2986 10.462 22.4906 11.008 22.8746 11.416C23.2586 11.812 23.7806 12.01 24.4406 12.01C25.1246 12.01 25.6646 11.806 26.0606 11.398C26.4686 10.99 26.6726 10.45 26.6726 9.778V4.072ZM34.487 3.802C34.883 3.802 35.225 3.88 35.513 4.036C35.609 4.084 35.645 4.162 35.621 4.27L35.423 5.152C35.387 5.272 35.309 5.308 35.189 5.26C34.985 5.176 34.751 5.134 34.487 5.134L34.253 5.152C33.629 5.176 33.113 5.41 32.705 5.854C32.297 6.286 32.093 6.838 32.093 7.51V12.82C32.093 12.94 32.033 13 31.913 13H30.995C30.875 13 30.815 12.94 30.815 12.82V4.072C30.815 3.952 30.875 3.892 30.995 3.892H31.913C32.033 3.892 32.093 3.952 32.093 4.072V5.17C32.093 5.206 32.099 5.23 32.111 5.242C32.135 5.242 32.153 5.23 32.165 5.206C32.417 4.762 32.735 4.42 33.119 4.18C33.515 3.928 33.971 3.802 34.487 3.802ZM40.3069 13.09C39.6349 13.09 39.0349 12.982 38.5069 12.766C37.9909 12.55 37.5889 12.262 37.3009 11.902C37.0249 11.542 36.8869 11.14 36.8869 10.696V10.48C36.8869 10.36 36.9469 10.3 37.0669 10.3H37.9309C38.0509 10.3 38.1109 10.36 38.1109 10.48V10.624C38.1109 11.02 38.3149 11.368 38.7229 11.668C39.1429 11.956 39.6649 12.1 40.2889 12.1C40.9129 12.1 41.4169 11.962 41.8009 11.686C42.1849 11.398 42.3769 11.038 42.3769 10.606C42.3769 10.306 42.2749 10.06 42.0709 9.868C41.8789 9.676 41.6449 9.526 41.3689 9.418C41.1049 9.31 40.6909 9.172 40.1269 9.004C39.4549 8.812 38.9029 8.62 38.4709 8.428C38.0389 8.236 37.6729 7.972 37.3729 7.636C37.0849 7.288 36.9409 6.85 36.9409 6.322C36.9409 5.554 37.2409 4.942 37.8409 4.486C38.4409 4.03 39.2329 3.802 40.2169 3.802C40.8769 3.802 41.4589 3.91 41.9629 4.126C42.4789 4.342 42.8749 4.642 43.1509 5.026C43.4269 5.398 43.5649 5.818 43.5649 6.286V6.34C43.5649 6.46 43.5049 6.52 43.3849 6.52H42.5389C42.4189 6.52 42.3589 6.46 42.3589 6.34V6.286C42.3589 5.878 42.1609 5.536 41.7649 5.26C41.3809 4.984 40.8589 4.846 40.1989 4.846C39.5869 4.846 39.0949 4.972 38.7229 5.224C38.3509 5.464 38.1649 5.8 38.1649 6.232C38.1649 6.64 38.3449 6.952 38.7049 7.168C39.0649 7.384 39.6229 7.6 40.3789 7.816C41.0749 8.02 41.6389 8.212 42.0709 8.392C42.5029 8.572 42.8749 8.836 43.1869 9.184C43.4989 9.52 43.6549 9.964 43.6549 10.516C43.6549 11.296 43.3489 11.92 42.7369 12.388C42.1249 12.856 41.3149 13.09 40.3069 13.09ZM52.9689 6.916C53.0169 7.252 53.0409 7.672 53.0409 8.176V8.752C53.0409 8.872 52.9809 8.932 52.8609 8.932H47.0469C46.9989 8.932 46.9749 8.956 46.9749 9.004C46.9989 9.664 47.0349 10.09 47.0829 10.282C47.2149 10.822 47.4969 11.248 47.9289 11.56C48.3609 11.872 48.9129 12.028 49.5849 12.028C50.0889 12.028 50.5329 11.914 50.9169 11.686C51.3009 11.458 51.6009 11.134 51.8169 10.714C51.8889 10.606 51.9729 10.582 52.0689 10.642L52.7709 11.056C52.8669 11.116 52.8909 11.2 52.8429 11.308C52.5429 11.884 52.0929 12.34 51.4929 12.676C50.8929 13 50.2029 13.162 49.4229 13.162C48.5709 13.15 47.8569 12.946 47.2809 12.55C46.7049 12.154 46.2909 11.602 46.0389 10.894C45.8229 10.318 45.7149 9.49 45.7149 8.41C45.7149 7.906 45.7209 7.498 45.7329 7.186C45.7569 6.862 45.8049 6.574 45.8769 6.322C46.0809 5.542 46.4889 4.918 47.1009 4.45C47.7249 3.982 48.4749 3.748 49.3509 3.748C50.4429 3.748 51.2829 4.024 51.8709 4.576C52.4589 5.128 52.8249 5.908 52.9689 6.916ZM49.3509 4.864C48.7629 4.864 48.2709 5.02 47.8749 5.332C47.4909 5.632 47.2389 6.04 47.1189 6.556C47.0469 6.808 46.9989 7.216 46.9749 7.78C46.9749 7.828 46.9989 7.852 47.0469 7.852H51.7089C51.7569 7.852 51.7809 7.828 51.7809 7.78C51.7569 7.24 51.7209 6.856 51.6729 6.628C51.5409 6.088 51.2709 5.662 50.8629 5.35C50.4669 5.026 49.9629 4.864 49.3509 4.864ZM57.1846 6.7C56.8846 6.7 56.6386 6.604 56.4466 6.412C56.2666 6.22 56.1766 5.98 56.1766 5.692C56.1766 5.392 56.2666 5.152 56.4466 4.972C56.6386 4.78 56.8846 4.684 57.1846 4.684C57.4726 4.684 57.7126 4.78 57.9046 4.972C58.0966 5.152 58.1926 5.392 58.1926 5.692C58.1926 5.98 58.0966 6.22 57.9046 6.412C57.7126 6.604 57.4726 6.7 57.1846 6.7ZM57.1846 12.766C56.8846 12.766 56.6386 12.67 56.4466 12.478C56.2666 12.286 56.1766 12.046 56.1766 11.758C56.1766 11.458 56.2666 11.218 56.4466 11.038C56.6386 10.846 56.8846 10.75 57.1846 10.75C57.4726 10.75 57.7126 10.846 57.9046 11.038C58.0966 11.218 58.1926 11.458 58.1926 11.758C58.1926 12.046 58.0966 12.286 57.9046 12.478C57.7126 12.67 57.4726 12.766 57.1846 12.766ZM8.864 22.526C8.924 22.442 8.996 22.4 9.08 22.4H10.016C10.136 22.4 10.196 22.46 10.196 22.58V34.82C10.196 34.94 10.136 35 10.016 35H9.098C8.978 35 8.918 34.94 8.918 34.82V24.812C8.918 24.776 8.906 24.752 8.882 24.74C8.858 24.728 8.84 24.74 8.828 24.776L5.894 29.276C5.834 29.36 5.762 29.402 5.678 29.402H5.21C5.126 29.402 5.054 29.366 4.994 29.294L2.06 24.83C2.048 24.794 2.03 24.782 2.006 24.794C1.982 24.806 1.97 24.83 1.97 24.866V34.82C1.97 34.94 1.91 35 1.79 35H0.872C0.752 35 0.692 34.94 0.692 34.82V22.58C0.692 22.46 0.752 22.4 0.872 22.4H1.808C1.904 22.4 1.976 22.436 2.024 22.508L5.408 27.638C5.42 27.65 5.438 27.656 5.462 27.656C5.486 27.656 5.504 27.65 5.516 27.638L8.864 22.526ZM21.7132 23.336C21.7132 23.456 21.6532 23.516 21.5332 23.516H14.9092C14.8612 23.516 14.8372 23.54 14.8372 23.588V28.034C14.8372 28.082 14.8612 28.106 14.9092 28.106H19.5532C19.6732 28.106 19.7332 28.166 19.7332 28.286V29.042C19.7332 29.162 19.6732 29.222 19.5532 29.222H14.9092C14.8612 29.222 14.8372 29.246 14.8372 29.294V33.812C14.8372 33.86 14.8612 33.884 14.9092 33.884H21.5332C21.6532 33.884 21.7132 33.944 21.7132 34.064V34.82C21.7132 34.94 21.6532 35 21.5332 35H13.7392C13.6192 35 13.5592 34.94 13.5592 34.82V22.58C13.5592 22.46 13.6192 22.4 13.7392 22.4H21.5332C21.6532 22.4 21.7132 22.46 21.7132 22.58V23.336ZM24.6376 35C24.5176 35 24.4576 34.94 24.4576 34.82V22.58C24.4576 22.46 24.5176 22.4 24.6376 22.4H28.8856C30.0736 22.4 31.0156 22.712 31.7116 23.336C32.4196 23.96 32.7736 24.806 32.7736 25.874V31.526C32.7736 32.594 32.4196 33.44 31.7116 34.064C31.0156 34.688 30.0736 35 28.8856 35H24.6376ZM25.7356 33.812C25.7356 33.86 25.7596 33.884 25.8076 33.884H28.9396C29.7196 33.884 30.3376 33.656 30.7936 33.2C31.2616 32.744 31.4956 32.132 31.4956 31.364V26.054C31.4956 25.274 31.2676 24.656 30.8116 24.2C30.3556 23.744 29.7316 23.516 28.9396 23.516H25.8076C25.7596 23.516 25.7356 23.54 25.7356 23.588V33.812ZM36.6286 33.794C36.5926 33.854 36.6046 33.884 36.6646 33.884H42.3166C42.4366 33.884 42.4966 33.944 42.4966 34.064V34.82C42.4966 34.94 42.4366 35 42.3166 35H35.1346C35.0146 35 34.9546 34.94 34.9546 34.82V34.064C34.9546 33.98 34.9846 33.908 35.0446 33.848C35.4526 33.368 36.3706 32.24 37.7986 30.464L39.1306 28.808C40.2586 27.38 40.8226 26.27 40.8226 25.478C40.8226 24.842 40.6066 24.332 40.1746 23.948C39.7426 23.564 39.1786 23.372 38.4826 23.372C37.7986 23.372 37.2466 23.57 36.8266 23.966C36.4066 24.35 36.2026 24.86 36.2146 25.496V26.054C36.2146 26.174 36.1546 26.234 36.0346 26.234H35.0986C34.9786 26.234 34.9186 26.174 34.9186 26.054V25.334C34.9426 24.41 35.2846 23.666 35.9446 23.102C36.6166 22.538 37.4626 22.256 38.4826 22.256C39.2026 22.256 39.8386 22.394 40.3906 22.67C40.9426 22.946 41.3686 23.33 41.6686 23.822C41.9686 24.302 42.1186 24.848 42.1186 25.46C42.1186 26.48 41.5546 27.71 40.4266 29.15C39.8386 29.906 38.7046 31.298 37.0246 33.326L36.6286 33.794ZM48.0285 29.96C47.9085 29.96 47.8485 29.9 47.8485 29.78V29.024C47.8485 28.904 47.9085 28.844 48.0285 28.844H53.3565C53.4765 28.844 53.5365 28.904 53.5365 29.024V29.78C53.5365 29.9 53.4765 29.96 53.3565 29.96H48.0285ZM59.706 35C59.586 35 59.526 34.94 59.526 34.82V22.58C59.526 22.46 59.586 22.4 59.706 22.4H60.624C60.744 22.4 60.804 22.46 60.804 22.58V34.82C60.804 34.94 60.744 35 60.624 35H59.706ZM67.7122 25.766C68.6722 25.766 69.4342 26.048 69.9982 26.612C70.5742 27.176 70.8622 27.932 70.8622 28.88V34.82C70.8622 34.94 70.8022 35 70.6822 35H69.7642C69.6442 35 69.5842 34.94 69.5842 34.82V29.132C69.5842 28.472 69.3802 27.932 68.9722 27.512C68.5762 27.092 68.0602 26.882 67.4242 26.882C66.7642 26.882 66.2302 27.086 65.8222 27.494C65.4142 27.902 65.2102 28.436 65.2102 29.096V34.82C65.2102 34.94 65.1502 35 65.0302 35H64.1122C63.9922 35 63.9322 34.94 63.9322 34.82V26.072C63.9322 25.952 63.9922 25.892 64.1122 25.892H65.0302C65.1502 25.892 65.2102 25.952 65.2102 26.072V26.846C65.2102 26.87 65.2162 26.888 65.2282 26.9C65.2522 26.912 65.2702 26.906 65.2822 26.882C65.8102 26.138 66.6202 25.766 67.7122 25.766ZM77.7213 26.774C77.7213 26.894 77.6613 26.954 77.5413 26.954H75.5073C75.4593 26.954 75.4353 26.978 75.4353 27.026V32.336C75.4353 32.912 75.5613 33.32 75.8133 33.56C76.0773 33.788 76.4853 33.902 77.0373 33.902H77.4873C77.6073 33.902 77.6673 33.962 77.6673 34.082V34.82C77.6673 34.94 77.6073 35 77.4873 35C77.3433 35.012 77.1213 35.018 76.8213 35.018C75.9573 35.018 75.3033 34.856 74.8593 34.532C74.4153 34.208 74.1933 33.608 74.1933 32.732V27.026C74.1933 26.978 74.1693 26.954 74.1213 26.954H73.0233C72.9033 26.954 72.8433 26.894 72.8433 26.774V26.072C72.8433 25.952 72.9033 25.892 73.0233 25.892H74.1213C74.1693 25.892 74.1933 25.868 74.1933 25.82V23.732C74.1933 23.612 74.2533 23.552 74.3733 23.552H75.2553C75.3753 23.552 75.4353 23.612 75.4353 23.732V25.82C75.4353 25.868 75.4593 25.892 75.5073 25.892H77.5413C77.6613 25.892 77.7213 25.952 77.7213 26.072V26.774ZM86.9123 28.916C86.9603 29.252 86.9843 29.672 86.9843 30.176V30.752C86.9843 30.872 86.9243 30.932 86.8043 30.932H80.9903C80.9423 30.932 80.9183 30.956 80.9183 31.004C80.9423 31.664 80.9783 32.09 81.0263 32.282C81.1583 32.822 81.4403 33.248 81.8723 33.56C82.3043 33.872 82.8563 34.028 83.5283 34.028C84.0323 34.028 84.4763 33.914 84.8603 33.686C85.2443 33.458 85.5443 33.134 85.7603 32.714C85.8323 32.606 85.9163 32.582 86.0123 32.642L86.7143 33.056C86.8103 33.116 86.8343 33.2 86.7863 33.308C86.4863 33.884 86.0363 34.34 85.4363 34.676C84.8363 35 84.1463 35.162 83.3663 35.162C82.5143 35.15 81.8003 34.946 81.2243 34.55C80.6483 34.154 80.2343 33.602 79.9823 32.894C79.7663 32.318 79.6583 31.49 79.6583 30.41C79.6583 29.906 79.6643 29.498 79.6763 29.186C79.7003 28.862 79.7483 28.574 79.8203 28.322C80.0243 27.542 80.4323 26.918 81.0443 26.45C81.6683 25.982 82.4183 25.748 83.2943 25.748C84.3863 25.748 85.2263 26.024 85.8143 26.576C86.4023 27.128 86.7683 27.908 86.9123 28.916ZM83.2943 26.864C82.7063 26.864 82.2143 27.02 81.8183 27.332C81.4343 27.632 81.1823 28.04 81.0623 28.556C80.9903 28.808 80.9423 29.216 80.9183 29.78C80.9183 29.828 80.9423 29.852 80.9903 29.852H85.6523C85.7003 29.852 85.7243 29.828 85.7243 29.78C85.7003 29.24 85.6643 28.856 85.6163 28.628C85.4843 28.088 85.2143 27.662 84.8063 27.35C84.4103 27.026 83.9063 26.864 83.2943 26.864ZM93.1979 25.802C93.5939 25.802 93.9359 25.88 94.2239 26.036C94.3199 26.084 94.3559 26.162 94.3319 26.27L94.1339 27.152C94.0979 27.272 94.0199 27.308 93.8999 27.26C93.6959 27.176 93.4619 27.134 93.1979 27.134L92.9639 27.152C92.3399 27.176 91.8239 27.41 91.4159 27.854C91.0079 28.286 90.8039 28.838 90.8039 29.51V34.82C90.8039 34.94 90.7439 35 90.6239 35H89.7059C89.5859 35 89.5259 34.94 89.5259 34.82V26.072C89.5259 25.952 89.5859 25.892 89.7059 25.892H90.6239C90.7439 25.892 90.8039 25.952 90.8039 26.072V27.17C90.8039 27.206 90.8099 27.23 90.8219 27.242C90.8459 27.242 90.8639 27.23 90.8759 27.206C91.1279 26.762 91.4459 26.42 91.8299 26.18C92.2259 25.928 92.6819 25.802 93.1979 25.802ZM99.1974 25.748C100.277 25.748 101.111 26.024 101.699 26.576C102.287 27.128 102.581 27.86 102.581 28.772V34.82C102.581 34.94 102.521 35 102.401 35H101.483C101.363 35 101.303 34.94 101.303 34.82V34.082C101.303 34.058 101.291 34.04 101.267 34.028C101.255 34.016 101.237 34.022 101.213 34.046C100.913 34.406 100.523 34.682 100.043 34.874C99.5634 35.054 99.0294 35.144 98.4414 35.144C97.5894 35.144 96.8754 34.928 96.2994 34.496C95.7234 34.064 95.4354 33.404 95.4354 32.516C95.4354 31.616 95.7594 30.908 96.4074 30.392C97.0674 29.864 97.9794 29.6 99.1434 29.6H101.231C101.279 29.6 101.303 29.576 101.303 29.528V28.844C101.303 28.232 101.129 27.752 100.781 27.404C100.445 27.044 99.9174 26.864 99.1974 26.864C98.6214 26.864 98.1534 26.978 97.7934 27.206C97.4334 27.422 97.2114 27.728 97.1274 28.124C97.0914 28.244 97.0194 28.298 96.9114 28.286L95.9394 28.16C95.8074 28.136 95.7534 28.088 95.7774 28.016C95.8734 27.344 96.2334 26.798 96.8574 26.378C97.4814 25.958 98.2614 25.748 99.1974 25.748ZM98.6934 34.046C99.4014 34.046 100.013 33.872 100.529 33.524C101.045 33.164 101.303 32.684 101.303 32.084V30.68C101.303 30.632 101.279 30.608 101.231 30.608H99.3414C98.5494 30.608 97.9134 30.77 97.4334 31.094C96.9534 31.418 96.7134 31.868 96.7134 32.444C96.7134 32.972 96.8934 33.374 97.2534 33.65C97.6254 33.914 98.1054 34.046 98.6934 34.046ZM105.421 35C105.301 35 105.241 34.94 105.241 34.82V22.58C105.241 22.46 105.301 22.4 105.421 22.4H106.339C106.459 22.4 106.519 22.46 106.519 22.58V29.942C106.519 29.966 106.525 29.984 106.537 29.996C106.561 30.008 106.585 30.002 106.609 29.978L110.425 25.982C110.485 25.922 110.557 25.892 110.641 25.892H111.721C111.793 25.892 111.841 25.916 111.865 25.964C111.889 26.012 111.877 26.06 111.829 26.108L109.525 28.664C109.501 28.688 109.495 28.718 109.507 28.754L112.261 34.784L112.279 34.856C112.279 34.952 112.225 35 112.117 35H111.145C111.049 35 110.983 34.952 110.947 34.856L108.625 29.6C108.601 29.552 108.571 29.546 108.535 29.582L106.555 31.67C106.531 31.694 106.519 31.724 106.519 31.76V34.82C106.519 34.94 106.459 35 106.339 35H105.421ZM118.344 26.774C118.344 26.894 118.284 26.954 118.164 26.954H116.13C116.082 26.954 116.058 26.978 116.058 27.026V32.336C116.058 32.912 116.184 33.32 116.436 33.56C116.7 33.788 117.108 33.902 117.66 33.902H118.11C118.23 33.902 118.29 33.962 118.29 34.082V34.82C118.29 34.94 118.23 35 118.11 35C117.966 35.012 117.744 35.018 117.444 35.018C116.58 35.018 115.926 34.856 115.482 34.532C115.038 34.208 114.816 33.608 114.816 32.732V27.026C114.816 26.978 114.792 26.954 114.744 26.954H113.646C113.526 26.954 113.466 26.894 113.466 26.774V26.072C113.466 25.952 113.526 25.892 113.646 25.892H114.744C114.792 25.892 114.816 25.868 114.816 25.82V23.732C114.816 23.612 114.876 23.552 114.996 23.552H115.878C115.998 23.552 116.058 23.612 116.058 23.732V25.82C116.058 25.868 116.082 25.892 116.13 25.892H118.164C118.284 25.892 118.344 25.952 118.344 26.072V26.774ZM121.679 24.236C121.391 24.236 121.151 24.14 120.959 23.948C120.767 23.756 120.671 23.516 120.671 23.228C120.671 22.928 120.767 22.688 120.959 22.508C121.151 22.316 121.391 22.22 121.679 22.22C121.967 22.22 122.207 22.316 122.399 22.508C122.591 22.688 122.687 22.928 122.687 23.228C122.687 23.516 122.591 23.756 122.399 23.948C122.207 24.14 121.967 24.236 121.679 24.236ZM121.175 34.982C121.055 34.982 120.995 34.922 120.995 34.802V26.054C120.995 25.934 121.055 25.874 121.175 25.874H122.093C122.213 25.874 122.273 25.934 122.273 26.054V34.802C122.273 34.922 122.213 34.982 122.093 34.982H121.175ZM128.877 35.144C128.013 35.144 127.269 34.922 126.645 34.478C126.021 34.034 125.589 33.422 125.349 32.642C125.181 32.09 125.097 31.352 125.097 30.428C125.097 29.504 125.181 28.772 125.349 28.232C125.577 27.464 126.003 26.858 126.627 26.414C127.251 25.97 128.007 25.748 128.895 25.748C129.747 25.748 130.479 25.97 131.091 26.414C131.715 26.858 132.141 27.458 132.369 28.214C132.537 28.73 132.621 29.468 132.621 30.428C132.621 31.4 132.537 32.138 132.369 32.642C132.141 33.422 131.715 34.034 131.091 34.478C130.479 34.922 129.741 35.144 128.877 35.144ZM128.877 34.028C129.453 34.028 129.945 33.872 130.353 33.56C130.761 33.236 131.037 32.804 131.181 32.264C131.289 31.832 131.343 31.226 131.343 30.446C131.343 29.654 131.295 29.048 131.199 28.628C131.055 28.088 130.773 27.662 130.353 27.35C129.945 27.026 129.447 26.864 128.859 26.864C128.271 26.864 127.773 27.026 127.365 27.35C126.957 27.662 126.681 28.088 126.537 28.628C126.441 29.048 126.393 29.654 126.393 30.446C126.393 31.238 126.441 31.844 126.537 32.264C126.669 32.804 126.939 33.236 127.347 33.56C127.767 33.872 128.277 34.028 128.877 34.028ZM138.991 25.766C139.951 25.766 140.713 26.048 141.277 26.612C141.853 27.176 142.141 27.932 142.141 28.88V34.82C142.141 34.94 142.081 35 141.961 35H141.043C140.923 35 140.863 34.94 140.863 34.82V29.132C140.863 28.472 140.659 27.932 140.251 27.512C139.855 27.092 139.339 26.882 138.703 26.882C138.043 26.882 137.509 27.086 137.101 27.494C136.693 27.902 136.489 28.436 136.489 29.096V34.82C136.489 34.94 136.429 35 136.309 35H135.391C135.271 35 135.211 34.94 135.211 34.82V26.072C135.211 25.952 135.271 25.892 135.391 25.892H136.309C136.429 25.892 136.489 25.952 136.489 26.072V26.846C136.489 26.87 136.495 26.888 136.507 26.9C136.531 26.912 136.549 26.906 136.561 26.882C137.089 26.138 137.899 25.766 138.991 25.766ZM147.903 35.09C147.231 35.09 146.631 34.982 146.103 34.766C145.587 34.55 145.185 34.262 144.897 33.902C144.621 33.542 144.483 33.14 144.483 32.696V32.48C144.483 32.36 144.543 32.3 144.663 32.3H145.527C145.647 32.3 145.707 32.36 145.707 32.48V32.624C145.707 33.02 145.911 33.368 146.319 33.668C146.739 33.956 147.261 34.1 147.885 34.1C148.509 34.1 149.013 33.962 149.397 33.686C149.781 33.398 149.973 33.038 149.973 32.606C149.973 32.306 149.871 32.06 149.667 31.868C149.475 31.676 149.241 31.526 148.965 31.418C148.701 31.31 148.287 31.172 147.723 31.004C147.051 30.812 146.499 30.62 146.067 30.428C145.635 30.236 145.269 29.972 144.969 29.636C144.681 29.288 144.537 28.85 144.537 28.322C144.537 27.554 144.837 26.942 145.437 26.486C146.037 26.03 146.829 25.802 147.813 25.802C148.473 25.802 149.055 25.91 149.559 26.126C150.075 26.342 150.471 26.642 150.747 27.026C151.023 27.398 151.161 27.818 151.161 28.286V28.34C151.161 28.46 151.101 28.52 150.981 28.52H150.135C150.015 28.52 149.955 28.46 149.955 28.34V28.286C149.955 27.878 149.757 27.536 149.361 27.26C148.977 26.984 148.455 26.846 147.795 26.846C147.183 26.846 146.691 26.972 146.319 27.224C145.947 27.464 145.761 27.8 145.761 28.232C145.761 28.64 145.941 28.952 146.301 29.168C146.661 29.384 147.219 29.6 147.975 29.816C148.671 30.02 149.235 30.212 149.667 30.392C150.099 30.572 150.471 30.836 150.783 31.184C151.095 31.52 151.251 31.964 151.251 32.516C151.251 33.296 150.945 33.92 150.333 34.388C149.721 34.856 148.911 35.09 147.903 35.09ZM159.233 22.58C159.233 22.46 159.293 22.4 159.413 22.4H160.331C160.451 22.4 160.511 22.46 160.511 22.58V34.82C160.511 34.94 160.451 35 160.331 35H159.413C159.293 35 159.233 34.94 159.233 34.82V34.064C159.233 34.04 159.221 34.028 159.197 34.028C159.185 34.016 159.167 34.022 159.143 34.046C158.879 34.394 158.549 34.664 158.153 34.856C157.769 35.048 157.337 35.144 156.857 35.144C156.017 35.144 155.309 34.928 154.733 34.496C154.169 34.064 153.779 33.476 153.563 32.732C153.395 32.192 153.311 31.43 153.311 30.446C153.311 29.45 153.383 28.706 153.527 28.214C153.743 27.446 154.139 26.846 154.715 26.414C155.291 25.97 156.005 25.748 156.857 25.748C157.325 25.748 157.757 25.844 158.153 26.036C158.549 26.216 158.879 26.48 159.143 26.828C159.167 26.852 159.185 26.864 159.197 26.864C159.221 26.852 159.233 26.834 159.233 26.81V22.58ZM158.909 32.642C159.017 32.402 159.095 32.12 159.143 31.796C159.191 31.472 159.215 31.022 159.215 30.446C159.215 29.87 159.191 29.42 159.143 29.096C159.095 28.76 159.011 28.466 158.891 28.214C158.747 27.806 158.507 27.482 158.171 27.242C157.847 26.99 157.457 26.864 157.001 26.864C156.521 26.864 156.107 26.984 155.759 27.224C155.411 27.464 155.159 27.782 155.003 28.178C154.859 28.442 154.751 28.742 154.679 29.078C154.619 29.402 154.589 29.858 154.589 30.446C154.589 31.01 154.613 31.454 154.661 31.778C154.709 32.09 154.793 32.372 154.913 32.624C155.057 33.056 155.309 33.398 155.669 33.65C156.041 33.902 156.479 34.028 156.983 34.028C157.463 34.028 157.865 33.902 158.189 33.65C158.513 33.398 158.753 33.062 158.909 32.642ZM170.391 28.916C170.439 29.252 170.463 29.672 170.463 30.176V30.752C170.463 30.872 170.403 30.932 170.283 30.932H164.469C164.421 30.932 164.397 30.956 164.397 31.004C164.421 31.664 164.457 32.09 164.505 32.282C164.637 32.822 164.919 33.248 165.351 33.56C165.783 33.872 166.335 34.028 167.007 34.028C167.511 34.028 167.955 33.914 168.339 33.686C168.723 33.458 169.023 33.134 169.239 32.714C169.311 32.606 169.395 32.582 169.491 32.642L170.193 33.056C170.289 33.116 170.313 33.2 170.265 33.308C169.965 33.884 169.515 34.34 168.915 34.676C168.315 35 167.625 35.162 166.845 35.162C165.993 35.15 165.279 34.946 164.703 34.55C164.127 34.154 163.713 33.602 163.461 32.894C163.245 32.318 163.137 31.49 163.137 30.41C163.137 29.906 163.143 29.498 163.155 29.186C163.179 28.862 163.227 28.574 163.299 28.322C163.503 27.542 163.911 26.918 164.523 26.45C165.147 25.982 165.897 25.748 166.773 25.748C167.865 25.748 168.705 26.024 169.293 26.576C169.881 27.128 170.247 27.908 170.391 28.916ZM166.773 26.864C166.185 26.864 165.693 27.02 165.297 27.332C164.913 27.632 164.661 28.04 164.541 28.556C164.469 28.808 164.421 29.216 164.397 29.78C164.397 29.828 164.421 29.852 164.469 29.852H169.131C169.179 29.852 169.203 29.828 169.203 29.78C169.179 29.24 169.143 28.856 169.095 28.628C168.963 28.088 168.693 27.662 168.285 27.35C167.889 27.026 167.385 26.864 166.773 26.864ZM175.834 35.09C175.162 35.09 174.562 34.982 174.034 34.766C173.518 34.55 173.116 34.262 172.828 33.902C172.552 33.542 172.414 33.14 172.414 32.696V32.48C172.414 32.36 172.474 32.3 172.594 32.3H173.458C173.578 32.3 173.638 32.36 173.638 32.48V32.624C173.638 33.02 173.842 33.368 174.25 33.668C174.67 33.956 175.192 34.1 175.816 34.1C176.44 34.1 176.944 33.962 177.328 33.686C177.712 33.398 177.904 33.038 177.904 32.606C177.904 32.306 177.802 32.06 177.598 31.868C177.406 31.676 177.172 31.526 176.896 31.418C176.632 31.31 176.218 31.172 175.654 31.004C174.982 30.812 174.43 30.62 173.998 30.428C173.566 30.236 173.2 29.972 172.9 29.636C172.612 29.288 172.468 28.85 172.468 28.322C172.468 27.554 172.768 26.942 173.368 26.486C173.968 26.03 174.76 25.802 175.744 25.802C176.404 25.802 176.986 25.91 177.49 26.126C178.006 26.342 178.402 26.642 178.678 27.026C178.954 27.398 179.092 27.818 179.092 28.286V28.34C179.092 28.46 179.032 28.52 178.912 28.52H178.066C177.946 28.52 177.886 28.46 177.886 28.34V28.286C177.886 27.878 177.688 27.536 177.292 27.26C176.908 26.984 176.386 26.846 175.726 26.846C175.114 26.846 174.622 26.972 174.25 27.224C173.878 27.464 173.692 27.8 173.692 28.232C173.692 28.64 173.872 28.952 174.232 29.168C174.592 29.384 175.15 29.6 175.906 29.816C176.602 30.02 177.166 30.212 177.598 30.392C178.03 30.572 178.402 30.836 178.714 31.184C179.026 31.52 179.182 31.964 179.182 32.516C179.182 33.296 178.876 33.92 178.264 34.388C177.652 34.856 176.842 35.09 175.834 35.09ZM182.376 24.236C182.088 24.236 181.848 24.14 181.656 23.948C181.464 23.756 181.368 23.516 181.368 23.228C181.368 22.928 181.464 22.688 181.656 22.508C181.848 22.316 182.088 22.22 182.376 22.22C182.664 22.22 182.904 22.316 183.096 22.508C183.288 22.688 183.384 22.928 183.384 23.228C183.384 23.516 183.288 23.756 183.096 23.948C182.904 24.14 182.664 24.236 182.376 24.236ZM181.872 34.982C181.752 34.982 181.692 34.922 181.692 34.802V26.054C181.692 25.934 181.752 25.874 181.872 25.874H182.79C182.91 25.874 182.97 25.934 182.97 26.054V34.802C182.97 34.922 182.91 34.982 182.79 34.982H181.872ZM191.716 26.072C191.716 25.952 191.776 25.892 191.896 25.892H192.814C192.934 25.892 192.994 25.952 192.994 26.072V34.694C192.994 36.038 192.604 37.022 191.824 37.646C191.056 38.27 189.994 38.582 188.638 38.582C188.362 38.582 188.152 38.576 188.008 38.564C187.888 38.552 187.828 38.486 187.828 38.366L187.864 37.538C187.864 37.478 187.882 37.43 187.918 37.394C187.954 37.37 187.996 37.364 188.044 37.376L188.53 37.394C189.646 37.394 190.456 37.172 190.96 36.728C191.464 36.296 191.716 35.606 191.716 34.658V33.992C191.716 33.968 191.704 33.956 191.68 33.956C191.668 33.944 191.65 33.95 191.626 33.974C191.074 34.694 190.288 35.054 189.268 35.054C188.488 35.054 187.792 34.844 187.18 34.424C186.58 34.004 186.178 33.41 185.974 32.642C185.83 32.15 185.758 31.418 185.758 30.446C185.758 29.918 185.77 29.474 185.794 29.114C185.83 28.754 185.896 28.43 185.992 28.142C186.208 27.422 186.598 26.846 187.162 26.414C187.726 25.97 188.404 25.748 189.196 25.748C190.264 25.748 191.074 26.102 191.626 26.81C191.65 26.834 191.668 26.84 191.68 26.828C191.704 26.816 191.716 26.798 191.716 26.774V26.072ZM191.626 32.246C191.662 32.066 191.686 31.844 191.698 31.58C191.71 31.316 191.716 30.932 191.716 30.428C191.716 29.816 191.71 29.408 191.698 29.204C191.686 28.988 191.656 28.79 191.608 28.61C191.512 28.106 191.272 27.692 190.888 27.368C190.516 27.032 190.042 26.864 189.466 26.864C188.902 26.864 188.422 27.026 188.026 27.35C187.642 27.674 187.372 28.094 187.216 28.61C187.096 28.994 187.036 29.594 187.036 30.41C187.036 31.286 187.096 31.892 187.216 32.228C187.336 32.732 187.594 33.152 187.99 33.488C188.398 33.812 188.89 33.974 189.466 33.974C190.054 33.974 190.534 33.812 190.906 33.488C191.29 33.164 191.53 32.75 191.626 32.246ZM199.513 25.766C200.473 25.766 201.235 26.048 201.799 26.612C202.375 27.176 202.663 27.932 202.663 28.88V34.82C202.663 34.94 202.603 35 202.483 35H201.565C201.445 35 201.385 34.94 201.385 34.82V29.132C201.385 28.472 201.181 27.932 200.773 27.512C200.377 27.092 199.861 26.882 199.225 26.882C198.565 26.882 198.031 27.086 197.623 27.494C197.215 27.902 197.011 28.436 197.011 29.096V34.82C197.011 34.94 196.951 35 196.831 35H195.913C195.793 35 195.733 34.94 195.733 34.82V26.072C195.733 25.952 195.793 25.892 195.913 25.892H196.831C196.951 25.892 197.011 25.952 197.011 26.072V26.846C197.011 26.87 197.017 26.888 197.029 26.9C197.053 26.912 197.071 26.906 197.083 26.882C197.611 26.138 198.421 25.766 199.513 25.766ZM204.977 36.422C204.917 36.422 204.869 36.404 204.833 36.368C204.809 36.332 204.803 36.284 204.815 36.224L205.607 32.372C205.631 32.264 205.697 32.21 205.805 32.21H206.597C206.657 32.21 206.699 32.228 206.723 32.264C206.759 32.3 206.771 32.348 206.759 32.408L205.751 36.26C205.727 36.368 205.661 36.422 205.553 36.422H204.977ZM0.872 57C0.752 57 0.692 56.94 0.692 56.82V44.58C0.692 44.46 0.752 44.4 0.872 44.4H1.79C1.91 44.4 1.97 44.46 1.97 44.58V50.682C1.97 50.706 1.982 50.724 2.006 50.736C2.03 50.748 2.048 50.742 2.06 50.718L7.748 44.49C7.796 44.43 7.868 44.4 7.964 44.4H9.008C9.08 44.4 9.122 44.424 9.134 44.472C9.158 44.52 9.146 44.568 9.098 44.616L4.688 49.602C4.664 49.626 4.664 49.662 4.688 49.71L9.476 56.784L9.512 56.874C9.512 56.958 9.458 57 9.35 57H8.306C8.21 57 8.138 56.964 8.09 56.892L3.824 50.628C3.812 50.604 3.794 50.592 3.77 50.592C3.746 50.592 3.728 50.598 3.716 50.61L2.006 52.428C1.982 52.452 1.97 52.482 1.97 52.518V56.82C1.97 56.94 1.91 57 1.79 57H0.872ZM18.4459 50.214C18.5899 50.754 18.6619 51.498 18.6619 52.446C18.6619 53.43 18.5779 54.192 18.4099 54.732C18.1819 55.476 17.7859 56.064 17.2219 56.496C16.6579 56.928 15.9559 57.144 15.1159 57.144C14.6359 57.144 14.1979 57.048 13.8019 56.856C13.4059 56.664 13.0759 56.388 12.8119 56.028C12.7999 56.004 12.7819 55.998 12.7579 56.01C12.7339 56.01 12.7219 56.022 12.7219 56.046V56.82C12.7219 56.94 12.6619 57 12.5419 57H11.6239C11.5039 57 11.4439 56.94 11.4439 56.82V44.58C11.4439 44.46 11.5039 44.4 11.6239 44.4H12.5419C12.6619 44.4 12.7219 44.46 12.7219 44.58V48.828C12.7219 48.852 12.7279 48.87 12.7399 48.882C12.7639 48.882 12.7879 48.87 12.8119 48.846C13.0759 48.498 13.4059 48.228 13.8019 48.036C14.1979 47.844 14.6359 47.748 15.1159 47.748C15.9679 47.748 16.6819 47.97 17.2579 48.414C17.8339 48.846 18.2299 49.446 18.4459 50.214ZM17.0599 54.624C17.1799 54.372 17.2639 54.09 17.3119 53.778C17.3599 53.454 17.3839 53.01 17.3839 52.446C17.3839 51.858 17.3479 51.402 17.2759 51.078C17.2159 50.742 17.1139 50.442 16.9699 50.178C16.8139 49.782 16.5619 49.464 16.2139 49.224C15.8659 48.984 15.4519 48.864 14.9719 48.864C14.5159 48.864 14.1199 48.99 13.7839 49.242C13.4599 49.482 13.2259 49.806 13.0819 50.214C12.9619 50.466 12.8719 50.754 12.8119 51.078C12.7639 51.402 12.7399 51.858 12.7399 52.446C12.7399 53.022 12.7639 53.472 12.8119 53.796C12.8719 54.108 12.9559 54.39 13.0639 54.642C13.2199 55.062 13.4599 55.398 13.7839 55.65C14.1079 55.902 14.5099 56.028 14.9899 56.028C15.4939 56.028 15.9259 55.902 16.2859 55.65C16.6579 55.398 16.9159 55.056 17.0599 54.624ZM25.0325 47.766C25.9925 47.766 26.7545 48.048 27.3185 48.612C27.8945 49.176 28.1825 49.932 28.1825 50.88V56.82C28.1825 56.94 28.1225 57 28.0025 57H27.0845C26.9645 57 26.9045 56.94 26.9045 56.82V51.132C26.9045 50.472 26.7005 49.932 26.2925 49.512C25.8965 49.092 25.3805 48.882 24.7445 48.882C24.0845 48.882 23.5505 49.086 23.1425 49.494C22.7345 49.902 22.5305 50.436 22.5305 51.096V56.82C22.5305 56.94 22.4705 57 22.3505 57H21.4325C21.3125 57 21.2525 56.94 21.2525 56.82V44.58C21.2525 44.46 21.3125 44.4 21.4325 44.4H22.3505C22.4705 44.4 22.5305 44.46 22.5305 44.58V48.846C22.5305 48.87 22.5365 48.888 22.5485 48.9C22.5725 48.912 22.5905 48.906 22.6025 48.882C23.1305 48.138 23.9405 47.766 25.0325 47.766ZM30.4969 58.422C30.4369 58.422 30.3889 58.404 30.3529 58.368C30.3289 58.332 30.3229 58.284 30.3349 58.224L31.1269 54.372C31.1509 54.264 31.2169 54.21 31.3249 54.21H32.1169C32.1769 54.21 32.2189 54.228 32.2429 54.264C32.2789 54.3 32.2909 54.348 32.2789 54.408L31.2709 58.26C31.2469 58.368 31.1809 58.422 31.0729 58.422H30.4969ZM47.3065 45.336C47.3065 45.456 47.2465 45.516 47.1265 45.516H40.5205C40.4725 45.516 40.4485 45.54 40.4485 45.588V50.034C40.4485 50.082 40.4725 50.106 40.5205 50.106H45.1465C45.2665 50.106 45.3265 50.166 45.3265 50.286V51.042C45.3265 51.162 45.2665 51.222 45.1465 51.222H40.5205C40.4725 51.222 40.4485 51.246 40.4485 51.294V56.82C40.4485 56.94 40.3885 57 40.2685 57H39.3505C39.2305 57 39.1705 56.94 39.1705 56.82V44.58C39.1705 44.46 39.2305 44.4 39.3505 44.4H47.1265C47.2465 44.4 47.3065 44.46 47.3065 44.58V45.336ZM50.445 55.794C50.409 55.854 50.421 55.884 50.481 55.884H56.133C56.253 55.884 56.313 55.944 56.313 56.064V56.82C56.313 56.94 56.253 57 56.133 57H48.951C48.831 57 48.771 56.94 48.771 56.82V56.064C48.771 55.98 48.801 55.908 48.861 55.848C49.269 55.368 50.187 54.24 51.615 52.464L52.947 50.808C54.075 49.38 54.639 48.27 54.639 47.478C54.639 46.842 54.423 46.332 53.991 45.948C53.559 45.564 52.995 45.372 52.299 45.372C51.615 45.372 51.063 45.57 50.643 45.966C50.223 46.35 50.019 46.86 50.031 47.496V48.054C50.031 48.174 49.971 48.234 49.851 48.234H48.915C48.795 48.234 48.735 48.174 48.735 48.054V47.334C48.759 46.41 49.101 45.666 49.761 45.102C50.433 44.538 51.279 44.256 52.299 44.256C53.019 44.256 53.655 44.394 54.207 44.67C54.759 44.946 55.185 45.33 55.485 45.822C55.785 46.302 55.935 46.848 55.935 47.46C55.935 48.48 55.371 49.71 54.243 51.15C53.655 51.906 52.521 53.298 50.841 55.326L50.445 55.794ZM60.0954 55.794C60.0594 55.854 60.0714 55.884 60.1314 55.884H65.7834C65.9034 55.884 65.9634 55.944 65.9634 56.064V56.82C65.9634 56.94 65.9034 57 65.7834 57H58.6014C58.4814 57 58.4214 56.94 58.4214 56.82V56.064C58.4214 55.98 58.4514 55.908 58.5114 55.848C58.9194 55.368 59.8374 54.24 61.2654 52.464L62.5974 50.808C63.7254 49.38 64.2894 48.27 64.2894 47.478C64.2894 46.842 64.0734 46.332 63.6414 45.948C63.2094 45.564 62.6454 45.372 61.9494 45.372C61.2654 45.372 60.7134 45.57 60.2934 45.966C59.8734 46.35 59.6694 46.86 59.6814 47.496V48.054C59.6814 48.174 59.6214 48.234 59.5014 48.234H58.5654C58.4454 48.234 58.3854 48.174 58.3854 48.054V47.334C58.4094 46.41 58.7514 45.666 59.4114 45.102C60.0834 44.538 60.9294 44.256 61.9494 44.256C62.6694 44.256 63.3054 44.394 63.8574 44.67C64.4094 44.946 64.8354 45.33 65.1354 45.822C65.4354 46.302 65.5854 46.848 65.5854 47.46C65.5854 48.48 65.0214 49.71 63.8934 51.15C63.3054 51.906 62.1714 53.298 60.4914 55.326L60.0954 55.794Z" fill="black"/>
<path d="M-1 14.8H60.2446V15.7H-1V14.8Z" fill="black"/>
</svg>
