<svg width="247" height="91" viewBox="0 0 247 91" fill="none" xmlns="http://www.w3.org/2000/svg">
<mask id="path-1-inside-1_298_235" fill="white">
<path d="M0 26C0 11.6406 11.6406 0 26 0H221C235.359 0 247 11.6406 247 26V65C247 79.3594 235.359 91 221 91H26C11.6406 91 0 79.3594 0 65V26Z"/>
</mask>
<path d="M26 2H221V-2H26V2ZM245 26V65H249V26H245ZM221 89H26V93H221V89ZM2 65V26H-2V65H2ZM26 89C12.7452 89 2 78.2548 2 65H-2C-2 80.464 10.536 93 26 93V89ZM245 65C245 78.2548 234.255 89 221 89V93C236.464 93 249 80.464 249 65H245ZM221 2C234.255 2 245 12.7452 245 26H249C249 10.536 236.464 -2 221 -2V2ZM26 -2C10.536 -2 -2 10.536 -2 26H2C2 12.7452 12.7452 2 26 2V-2Z" fill="black" mask="url(#path-1-inside-1_298_235)"/>
</svg>
