<svg width="255" height="202" viewBox="0 0 255 202" fill="none" xmlns="http://www.w3.org/2000/svg">
<g filter="url(#filter0_d_298_229)">
<mask id="path-1-inside-1_298_229" fill="white">
<path d="M4 26C4 11.6406 15.6406 0 30 0H225C239.359 0 251 11.6406 251 26V168C251 182.359 239.359 194 225 194H30C15.6406 194 4 182.359 4 168V26Z"/>
</mask>
<path d="M30 2H225V-2H30V2ZM249 26V168H253V26H249ZM225 192H30V196H225V192ZM6 168V26H2V168H6ZM30 192C16.7452 192 6 181.255 6 168H2C2 183.464 14.536 196 30 196V192ZM249 168C249 181.255 238.255 192 225 192V196C240.464 196 253 183.464 253 168H249ZM225 2C238.255 2 249 12.7452 249 26H253C253 10.536 240.464 -2 225 -2V2ZM30 -2C14.536 -2 2 10.536 2 26H6C6 12.7452 16.7452 2 30 2V-2Z" fill="black" mask="url(#path-1-inside-1_298_229)"/>
</g>
<defs>
<filter id="filter0_d_298_229" x="0" y="0" width="255" height="202" filterUnits="userSpaceOnUse" color-interpolation-filters="sRGB">
<feFlood flood-opacity="0" result="BackgroundImageFix"/>
<feColorMatrix in="SourceAlpha" type="matrix" values="0 0 0 0 0 0 0 0 0 0 0 0 0 0 0 0 0 0 127 0" result="hardAlpha"/>
<feOffset dy="4"/>
<feGaussianBlur stdDeviation="2"/>
<feComposite in2="hardAlpha" operator="out"/>
<feColorMatrix type="matrix" values="0 0 0 0 0 0 0 0 0 0 0 0 0 0 0 0 0 0 0.25 0"/>
<feBlend mode="normal" in2="BackgroundImageFix" result="effect1_dropShadow_298_229"/>
<feBlend mode="normal" in="SourceGraphic" in2="effect1_dropShadow_298_229" result="shape"/>
</filter>
</defs>
</svg>
