<svg width="215" height="83" viewBox="0 0 215 83" fill="none" xmlns="http://www.w3.org/2000/svg">
<path d="M5.058 13.18C3.906 13.18 2.988 12.85 2.304 12.19C1.62 11.53 1.278 10.648 1.278 9.544V3.856C1.278 2.752 1.62 1.876 2.304 1.228C2.988 0.567999 3.906 0.237999 5.058 0.237999C6.222 0.237999 7.152 0.567999 7.848 1.228C8.544 1.888 8.892 2.764 8.892 3.856V9.544C8.892 10.648 8.544 11.53 7.848 12.19C7.152 12.85 6.222 13.18 5.058 13.18ZM5.058 12.064C5.826 12.064 6.444 11.842 6.912 11.398C7.38 10.954 7.614 10.36 7.614 9.616V3.802C7.614 3.07 7.38 2.482 6.912 2.038C6.456 1.594 5.838 1.372 5.058 1.372C4.302 1.372 3.696 1.594 3.24 2.038C2.784 2.482 2.556 3.07 2.556 3.802V9.616C2.556 10.36 2.784 10.954 3.24 11.398C3.696 11.842 4.302 12.064 5.058 12.064ZM18.8177 8.374C18.9377 8.374 18.9977 8.434 18.9977 8.554V9.346C18.9977 9.466 18.9377 9.526 18.8177 9.526H18.0437C17.9957 9.526 17.9717 9.55 17.9717 9.598V12.82C17.9717 12.94 17.9117 13 17.7917 13H16.8737C16.7537 13 16.6937 12.94 16.6937 12.82V9.598C16.6937 9.55 16.6697 9.526 16.6217 9.526H11.2397C11.1197 9.526 11.0597 9.466 11.0597 9.346V8.68C11.0597 8.62 11.0777 8.548 11.1137 8.464L14.8037 0.526C14.8397 0.441999 14.9057 0.399999 15.0017 0.399999H15.9557C16.0157 0.399999 16.0577 0.423999 16.0817 0.471999C16.1177 0.508 16.1237 0.556 16.0997 0.616L12.5177 8.284C12.5057 8.308 12.5057 8.332 12.5177 8.356C12.5297 8.368 12.5477 8.374 12.5717 8.374H16.6217C16.6697 8.374 16.6937 8.35 16.6937 8.302V5.404C16.6937 5.284 16.7537 5.224 16.8737 5.224H17.7917C17.9117 5.224 17.9717 5.284 17.9717 5.404V8.302C17.9717 8.35 17.9957 8.374 18.0437 8.374H18.8177ZM20.8298 13C20.6978 13 20.6498 12.934 20.6858 12.802L24.6638 0.543999C24.6998 0.447999 24.7718 0.399999 24.8798 0.399999H25.7798C25.9118 0.399999 25.9598 0.465999 25.9238 0.598L21.9458 12.856C21.9098 12.952 21.8378 13 21.7298 13H20.8298ZM32.3568 13.18C31.2048 13.18 30.2868 12.85 29.6028 12.19C28.9188 11.53 28.5768 10.648 28.5768 9.544V3.856C28.5768 2.752 28.9188 1.876 29.6028 1.228C30.2868 0.567999 31.2048 0.237999 32.3568 0.237999C33.5208 0.237999 34.4508 0.567999 35.1468 1.228C35.8428 1.888 36.1908 2.764 36.1908 3.856V9.544C36.1908 10.648 35.8428 11.53 35.1468 12.19C34.4508 12.85 33.5208 13.18 32.3568 13.18ZM32.3568 12.064C33.1248 12.064 33.7428 11.842 34.2108 11.398C34.6788 10.954 34.9128 10.36 34.9128 9.616V3.802C34.9128 3.07 34.6788 2.482 34.2108 2.038C33.7548 1.594 33.1368 1.372 32.3568 1.372C31.6008 1.372 30.9948 1.594 30.5388 2.038C30.0828 2.482 29.8548 3.07 29.8548 3.802V9.616C29.8548 10.36 30.0828 10.954 30.5388 11.398C30.9948 11.842 31.6008 12.064 32.3568 12.064ZM45.6666 7.492C45.7746 8.02 45.8286 8.56 45.8286 9.112C45.8286 9.7 45.7746 10.204 45.6666 10.624C45.4626 11.392 45.0546 12.004 44.4426 12.46C43.8306 12.904 43.0926 13.126 42.2286 13.126C41.3766 13.126 40.6506 12.91 40.0506 12.478C39.4506 12.046 39.0426 11.47 38.8266 10.75C38.7426 10.486 38.6886 10.222 38.6646 9.958V9.922C38.6646 9.826 38.7186 9.778 38.8266 9.778H39.7806C39.9006 9.778 39.9666 9.838 39.9786 9.958C39.9786 10.03 40.0026 10.15 40.0506 10.318C40.1706 10.834 40.4166 11.248 40.7886 11.56C41.1726 11.86 41.6466 12.01 42.2106 12.01C42.7866 12.01 43.2666 11.848 43.6506 11.524C44.0466 11.2 44.3046 10.756 44.4246 10.192C44.4966 9.916 44.5326 9.556 44.5326 9.112C44.5326 8.704 44.5026 8.314 44.4426 7.942C44.3586 7.39 44.1186 6.97 43.7226 6.682C43.3266 6.394 42.8346 6.25 42.2466 6.25C41.7186 6.25 41.2446 6.37 40.8246 6.61C40.4046 6.85 40.1346 7.168 40.0146 7.564C39.9786 7.672 39.9126 7.726 39.8166 7.726H38.8446C38.7246 7.726 38.6646 7.666 38.6646 7.546V0.579999C38.6646 0.459999 38.7246 0.399999 38.8446 0.399999H45.1446C45.2646 0.399999 45.3246 0.459999 45.3246 0.579999V1.336C45.3246 1.456 45.2646 1.516 45.1446 1.516H40.0146C39.9666 1.516 39.9426 1.54 39.9426 1.588L39.9246 5.944C39.9246 5.968 39.9306 5.986 39.9426 5.998C39.9666 6.01 39.9906 6.004 40.0146 5.98C40.3146 5.704 40.6686 5.494 41.0766 5.35C41.4846 5.194 41.9166 5.116 42.3726 5.116C43.2246 5.116 43.9446 5.326 44.5326 5.746C45.1206 6.154 45.4986 6.736 45.6666 7.492ZM47.4607 13C47.3287 13 47.2807 12.934 47.3167 12.802L51.2947 0.543999C51.3307 0.447999 51.4027 0.399999 51.5107 0.399999H52.4107C52.5427 0.399999 52.5907 0.465999 52.5547 0.598L48.5767 12.856C48.5407 12.952 48.4687 13 48.3607 13H47.4607ZM56.6657 11.794C56.6297 11.854 56.6417 11.884 56.7017 11.884H62.3537C62.4737 11.884 62.5337 11.944 62.5337 12.064V12.82C62.5337 12.94 62.4737 13 62.3537 13H55.1717C55.0517 13 54.9917 12.94 54.9917 12.82V12.064C54.9917 11.98 55.0217 11.908 55.0817 11.848C55.4897 11.368 56.4077 10.24 57.8357 8.464L59.1677 6.808C60.2957 5.38 60.8597 4.27 60.8597 3.478C60.8597 2.842 60.6437 2.332 60.2117 1.948C59.7797 1.564 59.2157 1.372 58.5197 1.372C57.8357 1.372 57.2837 1.57 56.8637 1.966C56.4437 2.35 56.2397 2.86 56.2517 3.496V4.054C56.2517 4.174 56.1917 4.234 56.0717 4.234H55.1357C55.0157 4.234 54.9557 4.174 54.9557 4.054V3.334C54.9797 2.41 55.3217 1.666 55.9817 1.102C56.6537 0.538 57.4997 0.256 58.5197 0.256C59.2397 0.256 59.8757 0.394 60.4277 0.669999C60.9797 0.945999 61.4057 1.33 61.7057 1.822C62.0057 2.302 62.1557 2.848 62.1557 3.46C62.1557 4.48 61.5917 5.71 60.4637 7.15C59.8757 7.906 58.7417 9.298 57.0617 11.326L56.6657 11.794ZM68.6381 13.18C67.4861 13.18 66.5681 12.85 65.8841 12.19C65.2001 11.53 64.8581 10.648 64.8581 9.544V3.856C64.8581 2.752 65.2001 1.876 65.8841 1.228C66.5681 0.567999 67.4861 0.237999 68.6381 0.237999C69.8021 0.237999 70.7321 0.567999 71.4281 1.228C72.1241 1.888 72.4721 2.764 72.4721 3.856V9.544C72.4721 10.648 72.1241 11.53 71.4281 12.19C70.7321 12.85 69.8021 13.18 68.6381 13.18ZM68.6381 12.064C69.4061 12.064 70.0241 11.842 70.4921 11.398C70.9601 10.954 71.1941 10.36 71.1941 9.616V3.802C71.1941 3.07 70.9601 2.482 70.4921 2.038C70.0361 1.594 69.4181 1.372 68.6381 1.372C67.8821 1.372 67.2761 1.594 66.8201 2.038C66.3641 2.482 66.1361 3.07 66.1361 3.802V9.616C66.1361 10.36 66.3641 10.954 66.8201 11.398C67.2761 11.842 67.8821 12.064 68.6381 12.064ZM76.4938 11.794C76.4578 11.854 76.4698 11.884 76.5298 11.884H82.1818C82.3018 11.884 82.3618 11.944 82.3618 12.064V12.82C82.3618 12.94 82.3018 13 82.1818 13H74.9998C74.8798 13 74.8198 12.94 74.8198 12.82V12.064C74.8198 11.98 74.8498 11.908 74.9098 11.848C75.3178 11.368 76.2358 10.24 77.6638 8.464L78.9958 6.808C80.1238 5.38 80.6878 4.27 80.6878 3.478C80.6878 2.842 80.4718 2.332 80.0398 1.948C79.6078 1.564 79.0438 1.372 78.3478 1.372C77.6638 1.372 77.1118 1.57 76.6918 1.966C76.2718 2.35 76.0678 2.86 76.0798 3.496V4.054C76.0798 4.174 76.0198 4.234 75.8998 4.234H74.9638C74.8438 4.234 74.7838 4.174 74.7838 4.054V3.334C74.8078 2.41 75.1498 1.666 75.8098 1.102C76.4818 0.538 77.3278 0.256 78.3478 0.256C79.0678 0.256 79.7038 0.394 80.2558 0.669999C80.8078 0.945999 81.2338 1.33 81.5338 1.822C81.8338 2.302 81.9838 2.848 81.9838 3.46C81.9838 4.48 81.4198 5.71 80.2918 7.15C79.7038 7.906 78.5698 9.298 76.8898 11.326L76.4938 11.794ZM86.1442 11.794C86.1082 11.854 86.1202 11.884 86.1802 11.884H91.8322C91.9522 11.884 92.0122 11.944 92.0122 12.064V12.82C92.0122 12.94 91.9522 13 91.8322 13H84.6502C84.5302 13 84.4702 12.94 84.4702 12.82V12.064C84.4702 11.98 84.5002 11.908 84.5602 11.848C84.9682 11.368 85.8862 10.24 87.3142 8.464L88.6462 6.808C89.7742 5.38 90.3382 4.27 90.3382 3.478C90.3382 2.842 90.1222 2.332 89.6902 1.948C89.2582 1.564 88.6942 1.372 87.9982 1.372C87.3142 1.372 86.7622 1.57 86.3422 1.966C85.9222 2.35 85.7182 2.86 85.7302 3.496V4.054C85.7302 4.174 85.6702 4.234 85.5502 4.234H84.6142C84.4942 4.234 84.4342 4.174 84.4342 4.054V3.334C84.4582 2.41 84.8002 1.666 85.4602 1.102C86.1322 0.538 86.9782 0.256 87.9982 0.256C88.7182 0.256 89.3542 0.394 89.9062 0.669999C90.4582 0.945999 90.8842 1.33 91.1842 1.822C91.4842 2.302 91.6342 2.848 91.6342 3.46C91.6342 4.48 91.0702 5.71 89.9422 7.15C89.3542 7.906 88.2202 9.298 86.5402 11.326L86.1442 11.794ZM96.1006 6.7C95.8006 6.7 95.5546 6.604 95.3626 6.412C95.1826 6.22 95.0926 5.98 95.0926 5.692C95.0926 5.392 95.1826 5.152 95.3626 4.972C95.5546 4.78 95.8006 4.684 96.1006 4.684C96.3886 4.684 96.6286 4.78 96.8206 4.972C97.0126 5.152 97.1086 5.392 97.1086 5.692C97.1086 5.98 97.0126 6.22 96.8206 6.412C96.6286 6.604 96.3886 6.7 96.1006 6.7ZM96.1006 12.766C95.8006 12.766 95.5546 12.67 95.3626 12.478C95.1826 12.286 95.0926 12.046 95.0926 11.758C95.0926 11.458 95.1826 11.218 95.3626 11.038C95.5546 10.846 95.8006 10.75 96.1006 10.75C96.3886 10.75 96.6286 10.846 96.8206 11.038C97.0126 11.218 97.1086 11.458 97.1086 11.758C97.1086 12.046 97.0126 12.286 96.8206 12.478C96.6286 12.67 96.3886 12.766 96.1006 12.766ZM9.846 23.336C9.846 23.456 9.786 23.516 9.666 23.516H3.042C2.994 23.516 2.97 23.54 2.97 23.588V28.034C2.97 28.082 2.994 28.106 3.042 28.106H7.686C7.806 28.106 7.866 28.166 7.866 28.286V29.042C7.866 29.162 7.806 29.222 7.686 29.222H3.042C2.994 29.222 2.97 29.246 2.97 29.294V33.812C2.97 33.86 2.994 33.884 3.042 33.884H9.666C9.786 33.884 9.846 33.944 9.846 34.064V34.82C9.846 34.94 9.786 35 9.666 35H1.872C1.752 35 1.692 34.94 1.692 34.82V22.58C1.692 22.46 1.752 22.4 1.872 22.4H9.666C9.786 22.4 9.846 22.46 9.846 22.58V23.336ZM15.3264 35.09C14.6544 35.09 14.0544 34.982 13.5264 34.766C13.0104 34.55 12.6084 34.262 12.3204 33.902C12.0444 33.542 11.9064 33.14 11.9064 32.696V32.48C11.9064 32.36 11.9664 32.3 12.0864 32.3H12.9504C13.0704 32.3 13.1304 32.36 13.1304 32.48V32.624C13.1304 33.02 13.3344 33.368 13.7424 33.668C14.1624 33.956 14.6844 34.1 15.3084 34.1C15.9324 34.1 16.4364 33.962 16.8204 33.686C17.2044 33.398 17.3964 33.038 17.3964 32.606C17.3964 32.306 17.2944 32.06 17.0904 31.868C16.8984 31.676 16.6644 31.526 16.3884 31.418C16.1244 31.31 15.7104 31.172 15.1464 31.004C14.4744 30.812 13.9224 30.62 13.4904 30.428C13.0584 30.236 12.6924 29.972 12.3924 29.636C12.1044 29.288 11.9604 28.85 11.9604 28.322C11.9604 27.554 12.2604 26.942 12.8604 26.486C13.4604 26.03 14.2524 25.802 15.2364 25.802C15.8964 25.802 16.4784 25.91 16.9824 26.126C17.4984 26.342 17.8944 26.642 18.1704 27.026C18.4464 27.398 18.5844 27.818 18.5844 28.286V28.34C18.5844 28.46 18.5244 28.52 18.4044 28.52H17.5584C17.4384 28.52 17.3784 28.46 17.3784 28.34V28.286C17.3784 27.878 17.1804 27.536 16.7844 27.26C16.4004 26.984 15.8784 26.846 15.2184 26.846C14.6064 26.846 14.1144 26.972 13.7424 27.224C13.3704 27.464 13.1844 27.8 13.1844 28.232C13.1844 28.64 13.3644 28.952 13.7244 29.168C14.0844 29.384 14.6424 29.6 15.3984 29.816C16.0944 30.02 16.6584 30.212 17.0904 30.392C17.5224 30.572 17.8944 30.836 18.2064 31.184C18.5184 31.52 18.6744 31.964 18.6744 32.516C18.6744 33.296 18.3684 33.92 17.7564 34.388C17.1444 34.856 16.3344 35.09 15.3264 35.09ZM25.0729 26.774C25.0729 26.894 25.0129 26.954 24.8929 26.954H22.8589C22.8109 26.954 22.7869 26.978 22.7869 27.026V32.336C22.7869 32.912 22.9129 33.32 23.1649 33.56C23.4289 33.788 23.8369 33.902 24.3889 33.902H24.8389C24.9589 33.902 25.0189 33.962 25.0189 34.082V34.82C25.0189 34.94 24.9589 35 24.8389 35C24.6949 35.012 24.4729 35.018 24.1729 35.018C23.3089 35.018 22.6549 34.856 22.2109 34.532C21.7669 34.208 21.5449 33.608 21.5449 32.732V27.026C21.5449 26.978 21.5209 26.954 21.4729 26.954H20.3749C20.2549 26.954 20.1949 26.894 20.1949 26.774V26.072C20.1949 25.952 20.2549 25.892 20.3749 25.892H21.4729C21.5209 25.892 21.5449 25.868 21.5449 25.82V23.732C21.5449 23.612 21.6049 23.552 21.7249 23.552H22.6069C22.7269 23.552 22.7869 23.612 22.7869 23.732V25.82C22.7869 25.868 22.8109 25.892 22.8589 25.892H24.8929C25.0129 25.892 25.0729 25.952 25.0729 26.072V26.774ZM28.4075 24.236C28.1195 24.236 27.8795 24.14 27.6875 23.948C27.4955 23.756 27.3995 23.516 27.3995 23.228C27.3995 22.928 27.4955 22.688 27.6875 22.508C27.8795 22.316 28.1195 22.22 28.4075 22.22C28.6955 22.22 28.9355 22.316 29.1275 22.508C29.3195 22.688 29.4155 22.928 29.4155 23.228C29.4155 23.516 29.3195 23.756 29.1275 23.948C28.9355 24.14 28.6955 24.236 28.4075 24.236ZM27.9035 34.982C27.7835 34.982 27.7235 34.922 27.7235 34.802V26.054C27.7235 25.934 27.7835 25.874 27.9035 25.874H28.8215C28.9415 25.874 29.0015 25.934 29.0015 26.054V34.802C29.0015 34.922 28.9415 34.982 28.8215 34.982H27.9035ZM41.3474 25.766C42.2474 25.766 42.9554 26.036 43.4714 26.576C43.9994 27.116 44.2634 27.854 44.2634 28.79V34.82C44.2634 34.94 44.2034 35 44.0834 35H43.1834C43.0634 35 43.0034 34.94 43.0034 34.82V29.042C43.0034 28.382 42.8114 27.86 42.4274 27.476C42.0554 27.08 41.5634 26.882 40.9514 26.882C40.3154 26.882 39.7994 27.074 39.4034 27.458C39.0194 27.842 38.8274 28.358 38.8274 29.006V34.82C38.8274 34.94 38.7674 35 38.6474 35H37.7294C37.6094 35 37.5494 34.94 37.5494 34.82V29.042C37.5494 28.382 37.3634 27.86 36.9914 27.476C36.6194 27.08 36.1214 26.882 35.4974 26.882C34.8614 26.882 34.3514 27.074 33.9674 27.458C33.5954 27.842 33.4094 28.358 33.4094 29.006V34.82C33.4094 34.94 33.3494 35 33.2294 35H32.3114C32.1914 35 32.1314 34.94 32.1314 34.82V26.072C32.1314 25.952 32.1914 25.892 32.3114 25.892H33.2294C33.3494 25.892 33.4094 25.952 33.4094 26.072V26.792C33.4094 26.816 33.4154 26.834 33.4274 26.846C33.4514 26.846 33.4754 26.834 33.4994 26.81C33.7634 26.462 34.0994 26.204 34.5074 26.036C34.9274 25.856 35.3894 25.766 35.8934 25.766C36.5174 25.766 37.0514 25.892 37.4954 26.144C37.9394 26.396 38.2754 26.762 38.5034 27.242C38.5274 27.302 38.5574 27.302 38.5934 27.242C38.8574 26.75 39.2294 26.384 39.7094 26.144C40.1894 25.892 40.7354 25.766 41.3474 25.766ZM50.1701 25.748C51.2501 25.748 52.0841 26.024 52.6721 26.576C53.2601 27.128 53.5541 27.86 53.5541 28.772V34.82C53.5541 34.94 53.4941 35 53.3741 35H52.4561C52.3361 35 52.2761 34.94 52.2761 34.82V34.082C52.2761 34.058 52.2641 34.04 52.2401 34.028C52.2281 34.016 52.2101 34.022 52.1861 34.046C51.8861 34.406 51.4961 34.682 51.0161 34.874C50.5361 35.054 50.0021 35.144 49.4141 35.144C48.5621 35.144 47.8481 34.928 47.2721 34.496C46.6961 34.064 46.4081 33.404 46.4081 32.516C46.4081 31.616 46.7321 30.908 47.3801 30.392C48.0401 29.864 48.9521 29.6 50.1161 29.6H52.2041C52.2521 29.6 52.2761 29.576 52.2761 29.528V28.844C52.2761 28.232 52.1021 27.752 51.7541 27.404C51.4181 27.044 50.8901 26.864 50.1701 26.864C49.5941 26.864 49.1261 26.978 48.7661 27.206C48.4061 27.422 48.1841 27.728 48.1001 28.124C48.0641 28.244 47.9921 28.298 47.8841 28.286L46.9121 28.16C46.7801 28.136 46.7261 28.088 46.7501 28.016C46.8461 27.344 47.2061 26.798 47.8301 26.378C48.4541 25.958 49.2341 25.748 50.1701 25.748ZM49.6661 34.046C50.3741 34.046 50.9861 33.872 51.5021 33.524C52.0181 33.164 52.2761 32.684 52.2761 32.084V30.68C52.2761 30.632 52.2521 30.608 52.2041 30.608H50.3141C49.5221 30.608 48.8861 30.77 48.4061 31.094C47.9261 31.418 47.6861 31.868 47.6861 32.444C47.6861 32.972 47.8661 33.374 48.2261 33.65C48.5981 33.914 49.0781 34.046 49.6661 34.046ZM60.2291 26.774C60.2291 26.894 60.1691 26.954 60.0491 26.954H58.0151C57.9671 26.954 57.9431 26.978 57.9431 27.026V32.336C57.9431 32.912 58.0691 33.32 58.3211 33.56C58.5851 33.788 58.9931 33.902 59.5451 33.902H59.9951C60.1151 33.902 60.1751 33.962 60.1751 34.082V34.82C60.1751 34.94 60.1151 35 59.9951 35C59.8511 35.012 59.6291 35.018 59.3291 35.018C58.4651 35.018 57.8111 34.856 57.3671 34.532C56.9231 34.208 56.7011 33.608 56.7011 32.732V27.026C56.7011 26.978 56.6771 26.954 56.6291 26.954H55.5311C55.4111 26.954 55.3511 26.894 55.3511 26.774V26.072C55.3511 25.952 55.4111 25.892 55.5311 25.892H56.6291C56.6771 25.892 56.7011 25.868 56.7011 25.82V23.732C56.7011 23.612 56.7611 23.552 56.8811 23.552H57.7631C57.8831 23.552 57.9431 23.612 57.9431 23.732V25.82C57.9431 25.868 57.9671 25.892 58.0151 25.892H60.0491C60.1691 25.892 60.2291 25.952 60.2291 26.072V26.774ZM63.5638 24.236C63.2758 24.236 63.0358 24.14 62.8438 23.948C62.6518 23.756 62.5558 23.516 62.5558 23.228C62.5558 22.928 62.6518 22.688 62.8438 22.508C63.0358 22.316 63.2758 22.22 63.5638 22.22C63.8518 22.22 64.0918 22.316 64.2838 22.508C64.4758 22.688 64.5718 22.928 64.5718 23.228C64.5718 23.516 64.4758 23.756 64.2838 23.948C64.0918 24.14 63.8518 24.236 63.5638 24.236ZM63.0598 34.982C62.9398 34.982 62.8798 34.922 62.8798 34.802V26.054C62.8798 25.934 62.9398 25.874 63.0598 25.874H63.9778C64.0978 25.874 64.1578 25.934 64.1578 26.054V34.802C64.1578 34.922 64.0978 34.982 63.9778 34.982H63.0598ZM71.0677 25.766C72.0277 25.766 72.7897 26.048 73.3537 26.612C73.9297 27.176 74.2177 27.932 74.2177 28.88V34.82C74.2177 34.94 74.1577 35 74.0377 35H73.1197C72.9997 35 72.9397 34.94 72.9397 34.82V29.132C72.9397 28.472 72.7357 27.932 72.3277 27.512C71.9317 27.092 71.4157 26.882 70.7797 26.882C70.1197 26.882 69.5857 27.086 69.1777 27.494C68.7697 27.902 68.5657 28.436 68.5657 29.096V34.82C68.5657 34.94 68.5057 35 68.3857 35H67.4677C67.3477 35 67.2877 34.94 67.2877 34.82V26.072C67.2877 25.952 67.3477 25.892 67.4677 25.892H68.3857C68.5057 25.892 68.5657 25.952 68.5657 26.072V26.846C68.5657 26.87 68.5717 26.888 68.5837 26.9C68.6077 26.912 68.6257 26.906 68.6377 26.882C69.1657 26.138 69.9757 25.766 71.0677 25.766ZM82.6068 26.072C82.6068 25.952 82.6668 25.892 82.7868 25.892H83.7048C83.8248 25.892 83.8848 25.952 83.8848 26.072V34.694C83.8848 36.038 83.4948 37.022 82.7148 37.646C81.9468 38.27 80.8848 38.582 79.5288 38.582C79.2528 38.582 79.0428 38.576 78.8988 38.564C78.7788 38.552 78.7188 38.486 78.7188 38.366L78.7548 37.538C78.7548 37.478 78.7728 37.43 78.8088 37.394C78.8448 37.37 78.8868 37.364 78.9348 37.376L79.4208 37.394C80.5368 37.394 81.3468 37.172 81.8508 36.728C82.3548 36.296 82.6068 35.606 82.6068 34.658V33.992C82.6068 33.968 82.5948 33.956 82.5708 33.956C82.5588 33.944 82.5408 33.95 82.5168 33.974C81.9648 34.694 81.1788 35.054 80.1588 35.054C79.3788 35.054 78.6828 34.844 78.0708 34.424C77.4708 34.004 77.0688 33.41 76.8648 32.642C76.7208 32.15 76.6488 31.418 76.6488 30.446C76.6488 29.918 76.6608 29.474 76.6848 29.114C76.7208 28.754 76.7868 28.43 76.8828 28.142C77.0988 27.422 77.4888 26.846 78.0528 26.414C78.6168 25.97 79.2948 25.748 80.0868 25.748C81.1548 25.748 81.9648 26.102 82.5168 26.81C82.5408 26.834 82.5588 26.84 82.5708 26.828C82.5948 26.816 82.6068 26.798 82.6068 26.774V26.072ZM82.5168 32.246C82.5528 32.066 82.5768 31.844 82.5888 31.58C82.6008 31.316 82.6068 30.932 82.6068 30.428C82.6068 29.816 82.6008 29.408 82.5888 29.204C82.5768 28.988 82.5468 28.79 82.4988 28.61C82.4028 28.106 82.1628 27.692 81.7788 27.368C81.4068 27.032 80.9328 26.864 80.3568 26.864C79.7928 26.864 79.3128 27.026 78.9168 27.35C78.5328 27.674 78.2628 28.094 78.1068 28.61C77.9868 28.994 77.9268 29.594 77.9268 30.41C77.9268 31.286 77.9868 31.892 78.1068 32.228C78.2268 32.732 78.4848 33.152 78.8808 33.488C79.2888 33.812 79.7808 33.974 80.3568 33.974C80.9448 33.974 81.4248 33.812 81.7968 33.488C82.1808 33.164 82.4208 32.75 82.5168 32.246ZM94.1151 35.144C92.7591 35.144 91.6851 34.838 90.8931 34.226C90.1131 33.614 89.7231 32.798 89.7231 31.778V31.22C89.7231 31.1 89.7831 31.04 89.9031 31.04H90.7851C90.9051 31.04 90.9651 31.1 90.9651 31.22V31.706C90.9651 32.402 91.2531 32.966 91.8291 33.398C92.4051 33.818 93.2031 34.028 94.2231 34.028C95.1471 34.028 95.8491 33.836 96.3291 33.452C96.8091 33.056 97.0491 32.534 97.0491 31.886C97.0491 31.466 96.9351 31.106 96.7071 30.806C96.4911 30.506 96.1491 30.224 95.6811 29.96C95.2251 29.696 94.5771 29.39 93.7371 29.042C92.8371 28.682 92.1351 28.37 91.6311 28.106C91.1391 27.83 90.7371 27.482 90.4251 27.062C90.1251 26.63 89.9751 26.09 89.9751 25.442C89.9751 24.434 90.3231 23.654 91.0191 23.102C91.7271 22.538 92.6931 22.256 93.9171 22.256C95.2491 22.256 96.2991 22.568 97.0671 23.192C97.8351 23.816 98.2191 24.644 98.2191 25.676V26.072C98.2191 26.192 98.1591 26.252 98.0391 26.252H97.1391C97.0191 26.252 96.9591 26.192 96.9591 26.072V25.748C96.9591 25.052 96.6831 24.482 96.1311 24.038C95.5911 23.594 94.8351 23.372 93.8631 23.372C93.0111 23.372 92.3571 23.546 91.9011 23.894C91.4451 24.242 91.2171 24.746 91.2171 25.406C91.2171 25.838 91.3251 26.198 91.5411 26.486C91.7691 26.762 92.0871 27.008 92.4951 27.224C92.9151 27.428 93.5571 27.698 94.4211 28.034C95.2971 28.394 95.9991 28.73 96.5271 29.042C97.0671 29.354 97.4991 29.738 97.8231 30.194C98.1591 30.638 98.3271 31.184 98.3271 31.832C98.3271 32.84 97.9551 33.644 97.2111 34.244C96.4671 34.844 95.4351 35.144 94.1151 35.144ZM103.854 25.748C104.934 25.748 105.768 26.024 106.356 26.576C106.944 27.128 107.238 27.86 107.238 28.772V34.82C107.238 34.94 107.178 35 107.058 35H106.14C106.02 35 105.96 34.94 105.96 34.82V34.082C105.96 34.058 105.948 34.04 105.924 34.028C105.912 34.016 105.894 34.022 105.87 34.046C105.57 34.406 105.18 34.682 104.7 34.874C104.22 35.054 103.686 35.144 103.098 35.144C102.246 35.144 101.532 34.928 100.956 34.496C100.38 34.064 100.092 33.404 100.092 32.516C100.092 31.616 100.416 30.908 101.064 30.392C101.724 29.864 102.636 29.6 103.8 29.6H105.888C105.936 29.6 105.96 29.576 105.96 29.528V28.844C105.96 28.232 105.786 27.752 105.438 27.404C105.102 27.044 104.574 26.864 103.854 26.864C103.278 26.864 102.81 26.978 102.45 27.206C102.09 27.422 101.868 27.728 101.784 28.124C101.748 28.244 101.676 28.298 101.568 28.286L100.596 28.16C100.464 28.136 100.41 28.088 100.434 28.016C100.53 27.344 100.89 26.798 101.514 26.378C102.138 25.958 102.918 25.748 103.854 25.748ZM103.35 34.046C104.058 34.046 104.67 33.872 105.186 33.524C105.702 33.164 105.96 32.684 105.96 32.084V30.68C105.96 30.632 105.936 30.608 105.888 30.608H103.998C103.206 30.608 102.57 30.77 102.09 31.094C101.61 31.418 101.37 31.868 101.37 32.444C101.37 32.972 101.55 33.374 101.91 33.65C102.282 33.914 102.762 34.046 103.35 34.046ZM119.113 25.766C120.013 25.766 120.721 26.036 121.237 26.576C121.765 27.116 122.029 27.854 122.029 28.79V34.82C122.029 34.94 121.969 35 121.849 35H120.949C120.829 35 120.769 34.94 120.769 34.82V29.042C120.769 28.382 120.577 27.86 120.193 27.476C119.821 27.08 119.329 26.882 118.717 26.882C118.081 26.882 117.565 27.074 117.169 27.458C116.785 27.842 116.593 28.358 116.593 29.006V34.82C116.593 34.94 116.533 35 116.413 35H115.495C115.375 35 115.315 34.94 115.315 34.82V29.042C115.315 28.382 115.129 27.86 114.757 27.476C114.385 27.08 113.887 26.882 113.263 26.882C112.627 26.882 112.117 27.074 111.733 27.458C111.361 27.842 111.175 28.358 111.175 29.006V34.82C111.175 34.94 111.115 35 110.995 35H110.077C109.957 35 109.897 34.94 109.897 34.82V26.072C109.897 25.952 109.957 25.892 110.077 25.892H110.995C111.115 25.892 111.175 25.952 111.175 26.072V26.792C111.175 26.816 111.181 26.834 111.193 26.846C111.217 26.846 111.241 26.834 111.265 26.81C111.529 26.462 111.865 26.204 112.273 26.036C112.693 25.856 113.155 25.766 113.659 25.766C114.283 25.766 114.817 25.892 115.261 26.144C115.705 26.396 116.041 26.762 116.269 27.242C116.293 27.302 116.323 27.302 116.359 27.242C116.623 26.75 116.995 26.384 117.475 26.144C117.955 25.892 118.501 25.766 119.113 25.766ZM131.86 28.16C132.04 28.736 132.13 29.498 132.13 30.446C132.13 31.406 132.052 32.15 131.896 32.678C131.68 33.446 131.284 34.052 130.708 34.496C130.144 34.928 129.43 35.144 128.566 35.144C128.098 35.144 127.666 35.054 127.27 34.874C126.874 34.682 126.544 34.412 126.28 34.064C126.256 34.04 126.232 34.034 126.208 34.046C126.196 34.046 126.19 34.058 126.19 34.082V38.312C126.19 38.432 126.13 38.492 126.01 38.492H125.092C124.972 38.492 124.912 38.432 124.912 38.312V26.072C124.912 25.952 124.972 25.892 125.092 25.892H126.01C126.13 25.892 126.19 25.952 126.19 26.072V26.828C126.19 26.852 126.196 26.87 126.208 26.882C126.232 26.882 126.256 26.87 126.28 26.846C126.544 26.498 126.868 26.228 127.252 26.036C127.648 25.844 128.086 25.748 128.566 25.748C129.406 25.748 130.108 25.964 130.672 26.396C131.248 26.828 131.644 27.416 131.86 28.16ZM130.438 32.714C130.57 32.45 130.666 32.156 130.726 31.832C130.798 31.496 130.834 31.034 130.834 30.446C130.834 29.882 130.81 29.444 130.762 29.132C130.714 28.808 130.63 28.52 130.51 28.268C130.366 27.836 130.108 27.494 129.736 27.242C129.376 26.99 128.944 26.864 128.44 26.864C127.96 26.864 127.558 26.99 127.234 27.242C126.91 27.494 126.67 27.83 126.514 28.25C126.406 28.49 126.328 28.772 126.28 29.096C126.232 29.42 126.208 29.87 126.208 30.446C126.208 31.022 126.232 31.478 126.28 31.814C126.328 32.138 126.412 32.426 126.532 32.678C126.676 33.086 126.91 33.416 127.234 33.668C127.57 33.908 127.966 34.028 128.422 34.028C128.902 34.028 129.316 33.908 129.664 33.668C130.024 33.428 130.282 33.11 130.438 32.714ZM134.897 35C134.777 35 134.717 34.94 134.717 34.82V22.58C134.717 22.46 134.777 22.4 134.897 22.4H135.815C135.935 22.4 135.995 22.46 135.995 22.58V34.82C135.995 34.94 135.935 35 135.815 35H134.897ZM145.85 28.916C145.898 29.252 145.922 29.672 145.922 30.176V30.752C145.922 30.872 145.862 30.932 145.742 30.932H139.928C139.88 30.932 139.856 30.956 139.856 31.004C139.88 31.664 139.916 32.09 139.964 32.282C140.096 32.822 140.378 33.248 140.81 33.56C141.242 33.872 141.794 34.028 142.466 34.028C142.97 34.028 143.414 33.914 143.798 33.686C144.182 33.458 144.482 33.134 144.698 32.714C144.77 32.606 144.854 32.582 144.95 32.642L145.652 33.056C145.748 33.116 145.772 33.2 145.724 33.308C145.424 33.884 144.974 34.34 144.374 34.676C143.774 35 143.084 35.162 142.304 35.162C141.452 35.15 140.738 34.946 140.162 34.55C139.586 34.154 139.172 33.602 138.92 32.894C138.704 32.318 138.596 31.49 138.596 30.41C138.596 29.906 138.602 29.498 138.614 29.186C138.638 28.862 138.686 28.574 138.758 28.322C138.962 27.542 139.37 26.918 139.982 26.45C140.606 25.982 141.356 25.748 142.232 25.748C143.324 25.748 144.164 26.024 144.752 26.576C145.34 27.128 145.706 27.908 145.85 28.916ZM142.232 26.864C141.644 26.864 141.152 27.02 140.756 27.332C140.372 27.632 140.12 28.04 140 28.556C139.928 28.808 139.88 29.216 139.856 29.78C139.856 29.828 139.88 29.852 139.928 29.852H144.59C144.638 29.852 144.662 29.828 144.662 29.78C144.638 29.24 144.602 28.856 144.554 28.628C144.422 28.088 144.152 27.662 143.744 27.35C143.348 27.026 142.844 26.864 142.232 26.864ZM155.955 35.144C154.599 35.144 153.525 34.838 152.733 34.226C151.953 33.614 151.563 32.798 151.563 31.778V31.22C151.563 31.1 151.623 31.04 151.743 31.04H152.625C152.745 31.04 152.805 31.1 152.805 31.22V31.706C152.805 32.402 153.093 32.966 153.669 33.398C154.245 33.818 155.043 34.028 156.063 34.028C156.987 34.028 157.689 33.836 158.169 33.452C158.649 33.056 158.889 32.534 158.889 31.886C158.889 31.466 158.775 31.106 158.547 30.806C158.331 30.506 157.989 30.224 157.521 29.96C157.065 29.696 156.417 29.39 155.577 29.042C154.677 28.682 153.975 28.37 153.471 28.106C152.979 27.83 152.577 27.482 152.265 27.062C151.965 26.63 151.815 26.09 151.815 25.442C151.815 24.434 152.163 23.654 152.859 23.102C153.567 22.538 154.533 22.256 155.757 22.256C157.089 22.256 158.139 22.568 158.907 23.192C159.675 23.816 160.059 24.644 160.059 25.676V26.072C160.059 26.192 159.999 26.252 159.879 26.252H158.979C158.859 26.252 158.799 26.192 158.799 26.072V25.748C158.799 25.052 158.523 24.482 157.971 24.038C157.431 23.594 156.675 23.372 155.703 23.372C154.851 23.372 154.197 23.546 153.741 23.894C153.285 24.242 153.057 24.746 153.057 25.406C153.057 25.838 153.165 26.198 153.381 26.486C153.609 26.762 153.927 27.008 154.335 27.224C154.755 27.428 155.397 27.698 156.261 28.034C157.137 28.394 157.839 28.73 158.367 29.042C158.907 29.354 159.339 29.738 159.663 30.194C159.999 30.638 160.167 31.184 160.167 31.832C160.167 32.84 159.795 33.644 159.051 34.244C158.307 34.844 157.275 35.144 155.955 35.144ZM163.443 24.236C163.155 24.236 162.915 24.14 162.723 23.948C162.531 23.756 162.435 23.516 162.435 23.228C162.435 22.928 162.531 22.688 162.723 22.508C162.915 22.316 163.155 22.22 163.443 22.22C163.731 22.22 163.971 22.316 164.163 22.508C164.355 22.688 164.451 22.928 164.451 23.228C164.451 23.516 164.355 23.756 164.163 23.948C163.971 24.14 163.731 24.236 163.443 24.236ZM162.939 34.982C162.819 34.982 162.759 34.922 162.759 34.802V26.054C162.759 25.934 162.819 25.874 162.939 25.874H163.857C163.977 25.874 164.037 25.934 164.037 26.054V34.802C164.037 34.922 163.977 34.982 163.857 34.982H162.939ZM166.519 35C166.399 35 166.339 34.94 166.339 34.82V33.956C166.339 33.872 166.363 33.8 166.411 33.74L171.523 27.152C171.547 27.128 171.553 27.11 171.541 27.098C171.529 27.074 171.511 27.062 171.487 27.062H166.591C166.471 27.062 166.411 27.002 166.411 26.882V26.072C166.411 25.952 166.471 25.892 166.591 25.892H172.909C173.029 25.892 173.089 25.952 173.089 26.072V26.936C173.089 27.02 173.065 27.092 173.017 27.152L167.851 33.74C167.827 33.764 167.821 33.788 167.833 33.812C167.845 33.824 167.863 33.83 167.887 33.83H172.909C173.029 33.83 173.089 33.89 173.089 34.01V34.82C173.089 34.94 173.029 35 172.909 35H166.519ZM182.166 28.916C182.214 29.252 182.238 29.672 182.238 30.176V30.752C182.238 30.872 182.178 30.932 182.058 30.932H176.244C176.196 30.932 176.172 30.956 176.172 31.004C176.196 31.664 176.232 32.09 176.28 32.282C176.412 32.822 176.694 33.248 177.126 33.56C177.558 33.872 178.11 34.028 178.782 34.028C179.286 34.028 179.73 33.914 180.114 33.686C180.498 33.458 180.798 33.134 181.014 32.714C181.086 32.606 181.17 32.582 181.266 32.642L181.968 33.056C182.064 33.116 182.088 33.2 182.04 33.308C181.74 33.884 181.29 34.34 180.69 34.676C180.09 35 179.4 35.162 178.62 35.162C177.768 35.15 177.054 34.946 176.478 34.55C175.902 34.154 175.488 33.602 175.236 32.894C175.02 32.318 174.912 31.49 174.912 30.41C174.912 29.906 174.918 29.498 174.93 29.186C174.954 28.862 175.002 28.574 175.074 28.322C175.278 27.542 175.686 26.918 176.298 26.45C176.922 25.982 177.672 25.748 178.548 25.748C179.64 25.748 180.48 26.024 181.068 26.576C181.656 27.128 182.022 27.908 182.166 28.916ZM178.548 26.864C177.96 26.864 177.468 27.02 177.072 27.332C176.688 27.632 176.436 28.04 176.316 28.556C176.244 28.808 176.196 29.216 176.172 29.78C176.172 29.828 176.196 29.852 176.244 29.852H180.906C180.954 29.852 180.978 29.828 180.978 29.78C180.954 29.24 180.918 28.856 180.87 28.628C180.738 28.088 180.468 27.662 180.06 27.35C179.664 27.026 179.16 26.864 178.548 26.864ZM191.533 25.748C192.613 25.748 193.447 26.024 194.035 26.576C194.623 27.128 194.917 27.86 194.917 28.772V34.82C194.917 34.94 194.857 35 194.737 35H193.819C193.699 35 193.639 34.94 193.639 34.82V34.082C193.639 34.058 193.627 34.04 193.603 34.028C193.591 34.016 193.573 34.022 193.549 34.046C193.249 34.406 192.859 34.682 192.379 34.874C191.899 35.054 191.365 35.144 190.777 35.144C189.925 35.144 189.211 34.928 188.635 34.496C188.059 34.064 187.771 33.404 187.771 32.516C187.771 31.616 188.095 30.908 188.743 30.392C189.403 29.864 190.315 29.6 191.479 29.6H193.567C193.615 29.6 193.639 29.576 193.639 29.528V28.844C193.639 28.232 193.465 27.752 193.117 27.404C192.781 27.044 192.253 26.864 191.533 26.864C190.957 26.864 190.489 26.978 190.129 27.206C189.769 27.422 189.547 27.728 189.463 28.124C189.427 28.244 189.355 28.298 189.247 28.286L188.275 28.16C188.143 28.136 188.089 28.088 188.113 28.016C188.209 27.344 188.569 26.798 189.193 26.378C189.817 25.958 190.597 25.748 191.533 25.748ZM191.029 34.046C191.737 34.046 192.349 33.872 192.865 33.524C193.381 33.164 193.639 32.684 193.639 32.084V30.68C193.639 30.632 193.615 30.608 193.567 30.608H191.677C190.885 30.608 190.249 30.77 189.769 31.094C189.289 31.418 189.049 31.868 189.049 32.444C189.049 32.972 189.229 33.374 189.589 33.65C189.961 33.914 190.441 34.046 191.029 34.046ZM201.357 25.766C202.317 25.766 203.079 26.048 203.643 26.612C204.219 27.176 204.507 27.932 204.507 28.88V34.82C204.507 34.94 204.447 35 204.327 35H203.409C203.289 35 203.229 34.94 203.229 34.82V29.132C203.229 28.472 203.025 27.932 202.617 27.512C202.221 27.092 201.705 26.882 201.069 26.882C200.409 26.882 199.875 27.086 199.467 27.494C199.059 27.902 198.855 28.436 198.855 29.096V34.82C198.855 34.94 198.795 35 198.675 35H197.757C197.637 35 197.577 34.94 197.577 34.82V26.072C197.577 25.952 197.637 25.892 197.757 25.892H198.675C198.795 25.892 198.855 25.952 198.855 26.072V26.846C198.855 26.87 198.861 26.888 198.873 26.9C198.897 26.912 198.915 26.906 198.927 26.882C199.455 26.138 200.265 25.766 201.357 25.766ZM212.809 22.58C212.809 22.46 212.869 22.4 212.989 22.4H213.907C214.027 22.4 214.087 22.46 214.087 22.58V34.82C214.087 34.94 214.027 35 213.907 35H212.989C212.869 35 212.809 34.94 212.809 34.82V34.064C212.809 34.04 212.797 34.028 212.773 34.028C212.761 34.016 212.743 34.022 212.719 34.046C212.455 34.394 212.125 34.664 211.729 34.856C211.345 35.048 210.913 35.144 210.433 35.144C209.593 35.144 208.885 34.928 208.309 34.496C207.745 34.064 207.355 33.476 207.139 32.732C206.971 32.192 206.887 31.43 206.887 30.446C206.887 29.45 206.959 28.706 207.103 28.214C207.319 27.446 207.715 26.846 208.291 26.414C208.867 25.97 209.581 25.748 210.433 25.748C210.901 25.748 211.333 25.844 211.729 26.036C212.125 26.216 212.455 26.48 212.719 26.828C212.743 26.852 212.761 26.864 212.773 26.864C212.797 26.852 212.809 26.834 212.809 26.81V22.58ZM212.485 32.642C212.593 32.402 212.671 32.12 212.719 31.796C212.767 31.472 212.791 31.022 212.791 30.446C212.791 29.87 212.767 29.42 212.719 29.096C212.671 28.76 212.587 28.466 212.467 28.214C212.323 27.806 212.083 27.482 211.747 27.242C211.423 26.99 211.033 26.864 210.577 26.864C210.097 26.864 209.683 26.984 209.335 27.224C208.987 27.464 208.735 27.782 208.579 28.178C208.435 28.442 208.327 28.742 208.255 29.078C208.195 29.402 208.165 29.858 208.165 30.446C208.165 31.01 208.189 31.454 208.237 31.778C208.285 32.09 208.369 32.372 208.489 32.624C208.633 33.056 208.885 33.398 209.245 33.65C209.617 33.902 210.055 34.028 210.559 34.028C211.039 34.028 211.441 33.902 211.765 33.65C212.089 33.398 212.329 33.062 212.485 32.642ZM5.328 57.144C3.972 57.144 2.898 56.838 2.106 56.226C1.326 55.614 0.936 54.798 0.936 53.778V53.22C0.936 53.1 0.996 53.04 1.116 53.04H1.998C2.118 53.04 2.178 53.1 2.178 53.22V53.706C2.178 54.402 2.466 54.966 3.042 55.398C3.618 55.818 4.416 56.028 5.436 56.028C6.36 56.028 7.062 55.836 7.542 55.452C8.022 55.056 8.262 54.534 8.262 53.886C8.262 53.466 8.148 53.106 7.92 52.806C7.704 52.506 7.362 52.224 6.894 51.96C6.438 51.696 5.79 51.39 4.95 51.042C4.05 50.682 3.348 50.37 2.844 50.106C2.352 49.83 1.95 49.482 1.638 49.062C1.338 48.63 1.188 48.09 1.188 47.442C1.188 46.434 1.536 45.654 2.232 45.102C2.94 44.538 3.906 44.256 5.13 44.256C6.462 44.256 7.512 44.568 8.28 45.192C9.048 45.816 9.432 46.644 9.432 47.676V48.072C9.432 48.192 9.372 48.252 9.252 48.252H8.352C8.232 48.252 8.172 48.192 8.172 48.072V47.748C8.172 47.052 7.896 46.482 7.344 46.038C6.804 45.594 6.048 45.372 5.076 45.372C4.224 45.372 3.57 45.546 3.114 45.894C2.658 46.242 2.43 46.746 2.43 47.406C2.43 47.838 2.538 48.198 2.754 48.486C2.982 48.762 3.3 49.008 3.708 49.224C4.128 49.428 4.77 49.698 5.634 50.034C6.51 50.394 7.212 50.73 7.74 51.042C8.28 51.354 8.712 51.738 9.036 52.194C9.372 52.638 9.54 53.184 9.54 53.832C9.54 54.84 9.168 55.644 8.424 56.244C7.68 56.844 6.648 57.144 5.328 57.144ZM16.0377 48.774C16.0377 48.894 15.9777 48.954 15.8577 48.954H13.8237C13.7757 48.954 13.7517 48.978 13.7517 49.026V54.336C13.7517 54.912 13.8777 55.32 14.1297 55.56C14.3937 55.788 14.8017 55.902 15.3537 55.902H15.8037C15.9237 55.902 15.9837 55.962 15.9837 56.082V56.82C15.9837 56.94 15.9237 57 15.8037 57C15.6597 57.012 15.4377 57.018 15.1377 57.018C14.2737 57.018 13.6197 56.856 13.1757 56.532C12.7317 56.208 12.5097 55.608 12.5097 54.732V49.026C12.5097 48.978 12.4857 48.954 12.4377 48.954H11.3397C11.2197 48.954 11.1597 48.894 11.1597 48.774V48.072C11.1597 47.952 11.2197 47.892 11.3397 47.892H12.4377C12.4857 47.892 12.5097 47.868 12.5097 47.82V45.732C12.5097 45.612 12.5697 45.552 12.6897 45.552H13.5717C13.6917 45.552 13.7517 45.612 13.7517 45.732V47.82C13.7517 47.868 13.7757 47.892 13.8237 47.892H15.8577C15.9777 47.892 16.0377 47.952 16.0377 48.072V48.774ZM21.6584 47.748C22.7384 47.748 23.5724 48.024 24.1604 48.576C24.7484 49.128 25.0424 49.86 25.0424 50.772V56.82C25.0424 56.94 24.9824 57 24.8624 57H23.9444C23.8244 57 23.7644 56.94 23.7644 56.82V56.082C23.7644 56.058 23.7524 56.04 23.7284 56.028C23.7164 56.016 23.6984 56.022 23.6744 56.046C23.3744 56.406 22.9844 56.682 22.5044 56.874C22.0244 57.054 21.4904 57.144 20.9024 57.144C20.0504 57.144 19.3364 56.928 18.7604 56.496C18.1844 56.064 17.8964 55.404 17.8964 54.516C17.8964 53.616 18.2204 52.908 18.8684 52.392C19.5284 51.864 20.4404 51.6 21.6044 51.6H23.6924C23.7404 51.6 23.7644 51.576 23.7644 51.528V50.844C23.7644 50.232 23.5904 49.752 23.2424 49.404C22.9064 49.044 22.3784 48.864 21.6584 48.864C21.0824 48.864 20.6144 48.978 20.2544 49.206C19.8944 49.422 19.6724 49.728 19.5884 50.124C19.5524 50.244 19.4804 50.298 19.3724 50.286L18.4004 50.16C18.2684 50.136 18.2144 50.088 18.2384 50.016C18.3344 49.344 18.6944 48.798 19.3184 48.378C19.9424 47.958 20.7224 47.748 21.6584 47.748ZM21.1544 56.046C21.8624 56.046 22.4744 55.872 22.9904 55.524C23.5064 55.164 23.7644 54.684 23.7644 54.084V52.68C23.7644 52.632 23.7404 52.608 23.6924 52.608H21.8024C21.0104 52.608 20.3744 52.77 19.8944 53.094C19.4144 53.418 19.1744 53.868 19.1744 54.444C19.1744 54.972 19.3544 55.374 19.7144 55.65C20.0864 55.914 20.5664 56.046 21.1544 56.046ZM31.4817 47.766C32.4417 47.766 33.2037 48.048 33.7677 48.612C34.3437 49.176 34.6317 49.932 34.6317 50.88V56.82C34.6317 56.94 34.5717 57 34.4517 57H33.5337C33.4137 57 33.3537 56.94 33.3537 56.82V51.132C33.3537 50.472 33.1497 49.932 32.7417 49.512C32.3457 49.092 31.8297 48.882 31.1937 48.882C30.5337 48.882 29.9997 49.086 29.5917 49.494C29.1837 49.902 28.9797 50.436 28.9797 51.096V56.82C28.9797 56.94 28.9197 57 28.7997 57H27.8817C27.7617 57 27.7017 56.94 27.7017 56.82V48.072C27.7017 47.952 27.7617 47.892 27.8817 47.892H28.7997C28.9197 47.892 28.9797 47.952 28.9797 48.072V48.846C28.9797 48.87 28.9857 48.888 28.9977 48.9C29.0217 48.912 29.0397 48.906 29.0517 48.882C29.5797 48.138 30.3897 47.766 31.4817 47.766ZM42.9338 44.58C42.9338 44.46 42.9938 44.4 43.1138 44.4H44.0318C44.1518 44.4 44.2118 44.46 44.2118 44.58V56.82C44.2118 56.94 44.1518 57 44.0318 57H43.1138C42.9938 57 42.9338 56.94 42.9338 56.82V56.064C42.9338 56.04 42.9218 56.028 42.8978 56.028C42.8858 56.016 42.8678 56.022 42.8438 56.046C42.5798 56.394 42.2498 56.664 41.8538 56.856C41.4698 57.048 41.0378 57.144 40.5578 57.144C39.7178 57.144 39.0098 56.928 38.4338 56.496C37.8698 56.064 37.4798 55.476 37.2638 54.732C37.0958 54.192 37.0118 53.43 37.0118 52.446C37.0118 51.45 37.0838 50.706 37.2278 50.214C37.4438 49.446 37.8398 48.846 38.4158 48.414C38.9918 47.97 39.7058 47.748 40.5578 47.748C41.0258 47.748 41.4578 47.844 41.8538 48.036C42.2498 48.216 42.5798 48.48 42.8438 48.828C42.8678 48.852 42.8858 48.864 42.8978 48.864C42.9218 48.852 42.9338 48.834 42.9338 48.81V44.58ZM42.6098 54.642C42.7178 54.402 42.7958 54.12 42.8438 53.796C42.8918 53.472 42.9158 53.022 42.9158 52.446C42.9158 51.87 42.8918 51.42 42.8438 51.096C42.7958 50.76 42.7118 50.466 42.5918 50.214C42.4478 49.806 42.2078 49.482 41.8718 49.242C41.5478 48.99 41.1578 48.864 40.7018 48.864C40.2218 48.864 39.8078 48.984 39.4598 49.224C39.1118 49.464 38.8598 49.782 38.7038 50.178C38.5598 50.442 38.4518 50.742 38.3798 51.078C38.3198 51.402 38.2898 51.858 38.2898 52.446C38.2898 53.01 38.3138 53.454 38.3618 53.778C38.4098 54.09 38.4938 54.372 38.6138 54.624C38.7578 55.056 39.0098 55.398 39.3698 55.65C39.7418 55.902 40.1798 56.028 40.6838 56.028C41.1638 56.028 41.5658 55.902 41.8898 55.65C42.2138 55.398 42.4538 55.062 42.6098 54.642ZM50.258 47.748C51.338 47.748 52.172 48.024 52.76 48.576C53.348 49.128 53.642 49.86 53.642 50.772V56.82C53.642 56.94 53.582 57 53.462 57H52.544C52.424 57 52.364 56.94 52.364 56.82V56.082C52.364 56.058 52.352 56.04 52.328 56.028C52.316 56.016 52.298 56.022 52.274 56.046C51.974 56.406 51.584 56.682 51.104 56.874C50.624 57.054 50.09 57.144 49.502 57.144C48.65 57.144 47.936 56.928 47.36 56.496C46.784 56.064 46.496 55.404 46.496 54.516C46.496 53.616 46.82 52.908 47.468 52.392C48.128 51.864 49.04 51.6 50.204 51.6H52.292C52.34 51.6 52.364 51.576 52.364 51.528V50.844C52.364 50.232 52.19 49.752 51.842 49.404C51.506 49.044 50.978 48.864 50.258 48.864C49.682 48.864 49.214 48.978 48.854 49.206C48.494 49.422 48.272 49.728 48.188 50.124C48.152 50.244 48.08 50.298 47.972 50.286L47 50.16C46.868 50.136 46.814 50.088 46.838 50.016C46.934 49.344 47.294 48.798 47.918 48.378C48.542 47.958 49.322 47.748 50.258 47.748ZM49.754 56.046C50.462 56.046 51.074 55.872 51.59 55.524C52.106 55.164 52.364 54.684 52.364 54.084V52.68C52.364 52.632 52.34 52.608 52.292 52.608H50.402C49.61 52.608 48.974 52.77 48.494 53.094C48.014 53.418 47.774 53.868 47.774 54.444C47.774 54.972 47.954 55.374 48.314 55.65C48.686 55.914 49.166 56.046 49.754 56.046ZM59.9733 47.802C60.3693 47.802 60.7113 47.88 60.9993 48.036C61.0953 48.084 61.1313 48.162 61.1073 48.27L60.9093 49.152C60.8733 49.272 60.7953 49.308 60.6753 49.26C60.4713 49.176 60.2373 49.134 59.9733 49.134L59.7393 49.152C59.1153 49.176 58.5993 49.41 58.1913 49.854C57.7833 50.286 57.5793 50.838 57.5793 51.51V56.82C57.5793 56.94 57.5193 57 57.3993 57H56.4813C56.3613 57 56.3013 56.94 56.3013 56.82V48.072C56.3013 47.952 56.3613 47.892 56.4813 47.892H57.3993C57.5193 47.892 57.5793 47.952 57.5793 48.072V49.17C57.5793 49.206 57.5853 49.23 57.5973 49.242C57.6213 49.242 57.6393 49.23 57.6513 49.206C57.9033 48.762 58.2213 48.42 58.6053 48.18C59.0013 47.928 59.4573 47.802 59.9733 47.802ZM68.4221 44.58C68.4221 44.46 68.4821 44.4 68.6021 44.4H69.5201C69.6401 44.4 69.7001 44.46 69.7001 44.58V56.82C69.7001 56.94 69.6401 57 69.5201 57H68.6021C68.4821 57 68.4221 56.94 68.4221 56.82V56.064C68.4221 56.04 68.4101 56.028 68.3861 56.028C68.3741 56.016 68.3561 56.022 68.3321 56.046C68.0681 56.394 67.7381 56.664 67.3421 56.856C66.9581 57.048 66.5261 57.144 66.0461 57.144C65.2061 57.144 64.4981 56.928 63.9221 56.496C63.3581 56.064 62.9681 55.476 62.7521 54.732C62.5841 54.192 62.5001 53.43 62.5001 52.446C62.5001 51.45 62.5721 50.706 62.7161 50.214C62.9321 49.446 63.3281 48.846 63.9041 48.414C64.4801 47.97 65.1941 47.748 66.0461 47.748C66.5141 47.748 66.9461 47.844 67.3421 48.036C67.7381 48.216 68.0681 48.48 68.3321 48.828C68.3561 48.852 68.3741 48.864 68.3861 48.864C68.4101 48.852 68.4221 48.834 68.4221 48.81V44.58ZM68.0981 54.642C68.2061 54.402 68.2841 54.12 68.3321 53.796C68.3801 53.472 68.4041 53.022 68.4041 52.446C68.4041 51.87 68.3801 51.42 68.3321 51.096C68.2841 50.76 68.2001 50.466 68.0801 50.214C67.9361 49.806 67.6961 49.482 67.3601 49.242C67.0361 48.99 66.6461 48.864 66.1901 48.864C65.7101 48.864 65.2961 48.984 64.9481 49.224C64.6001 49.464 64.3481 49.782 64.1921 50.178C64.0481 50.442 63.9401 50.742 63.8681 51.078C63.8081 51.402 63.7781 51.858 63.7781 52.446C63.7781 53.01 63.8021 53.454 63.8501 53.778C63.8981 54.09 63.9821 54.372 64.1021 54.624C64.2461 55.056 64.4981 55.398 64.8581 55.65C65.2301 55.902 65.6681 56.028 66.1721 56.028C66.6521 56.028 67.0541 55.902 67.3781 55.65C67.7021 55.398 67.9421 55.062 68.0981 54.642ZM73.4603 46.236C73.1723 46.236 72.9323 46.14 72.7403 45.948C72.5483 45.756 72.4523 45.516 72.4523 45.228C72.4523 44.928 72.5483 44.688 72.7403 44.508C72.9323 44.316 73.1723 44.22 73.4603 44.22C73.7483 44.22 73.9883 44.316 74.1803 44.508C74.3723 44.688 74.4683 44.928 74.4683 45.228C74.4683 45.516 74.3723 45.756 74.1803 45.948C73.9883 46.14 73.7483 46.236 73.4603 46.236ZM72.9563 56.982C72.8363 56.982 72.7763 56.922 72.7763 56.802V48.054C72.7763 47.934 72.8363 47.874 72.9563 47.874H73.8743C73.9943 47.874 74.0543 47.934 74.0543 48.054V56.802C74.0543 56.922 73.9943 56.982 73.8743 56.982H72.9563ZM80.1721 57.09C79.5001 57.09 78.9001 56.982 78.3721 56.766C77.8561 56.55 77.4541 56.262 77.1661 55.902C76.8901 55.542 76.7521 55.14 76.7521 54.696V54.48C76.7521 54.36 76.8121 54.3 76.9321 54.3H77.7961C77.9161 54.3 77.9761 54.36 77.9761 54.48V54.624C77.9761 55.02 78.1801 55.368 78.5881 55.668C79.0081 55.956 79.5301 56.1 80.1541 56.1C80.7781 56.1 81.2821 55.962 81.6661 55.686C82.0501 55.398 82.2421 55.038 82.2421 54.606C82.2421 54.306 82.1401 54.06 81.9361 53.868C81.7441 53.676 81.5101 53.526 81.2341 53.418C80.9701 53.31 80.5561 53.172 79.9921 53.004C79.3201 52.812 78.7681 52.62 78.3361 52.428C77.9041 52.236 77.5381 51.972 77.2381 51.636C76.9501 51.288 76.8061 50.85 76.8061 50.322C76.8061 49.554 77.1061 48.942 77.7061 48.486C78.3061 48.03 79.0981 47.802 80.0821 47.802C80.7421 47.802 81.3241 47.91 81.8281 48.126C82.3441 48.342 82.7401 48.642 83.0161 49.026C83.2921 49.398 83.4301 49.818 83.4301 50.286V50.34C83.4301 50.46 83.3701 50.52 83.2501 50.52H82.4041C82.2841 50.52 82.2241 50.46 82.2241 50.34V50.286C82.2241 49.878 82.0261 49.536 81.6301 49.26C81.2461 48.984 80.7241 48.846 80.0641 48.846C79.4521 48.846 78.9601 48.972 78.5881 49.224C78.2161 49.464 78.0301 49.8 78.0301 50.232C78.0301 50.64 78.2101 50.952 78.5701 51.168C78.9301 51.384 79.4881 51.6 80.2441 51.816C80.9401 52.02 81.5041 52.212 81.9361 52.392C82.3681 52.572 82.7401 52.836 83.0521 53.184C83.3641 53.52 83.5201 53.964 83.5201 54.516C83.5201 55.296 83.2141 55.92 82.6021 56.388C81.9901 56.856 81.1801 57.09 80.1721 57.09ZM92.8342 50.916C92.8822 51.252 92.9062 51.672 92.9062 52.176V52.752C92.9062 52.872 92.8462 52.932 92.7262 52.932H86.9122C86.8642 52.932 86.8402 52.956 86.8402 53.004C86.8642 53.664 86.9002 54.09 86.9482 54.282C87.0802 54.822 87.3622 55.248 87.7942 55.56C88.2262 55.872 88.7782 56.028 89.4502 56.028C89.9542 56.028 90.3982 55.914 90.7822 55.686C91.1662 55.458 91.4662 55.134 91.6822 54.714C91.7542 54.606 91.8382 54.582 91.9342 54.642L92.6362 55.056C92.7322 55.116 92.7562 55.2 92.7082 55.308C92.4082 55.884 91.9582 56.34 91.3582 56.676C90.7582 57 90.0682 57.162 89.2882 57.162C88.4362 57.15 87.7222 56.946 87.1462 56.55C86.5702 56.154 86.1562 55.602 85.9042 54.894C85.6882 54.318 85.5802 53.49 85.5802 52.41C85.5802 51.906 85.5862 51.498 85.5982 51.186C85.6222 50.862 85.6702 50.574 85.7422 50.322C85.9462 49.542 86.3542 48.918 86.9662 48.45C87.5902 47.982 88.3402 47.748 89.2162 47.748C90.3082 47.748 91.1482 48.024 91.7362 48.576C92.3242 49.128 92.6902 49.908 92.8342 50.916ZM89.2162 48.864C88.6282 48.864 88.1362 49.02 87.7402 49.332C87.3562 49.632 87.1042 50.04 86.9842 50.556C86.9122 50.808 86.8642 51.216 86.8402 51.78C86.8402 51.828 86.8642 51.852 86.9122 51.852H91.5742C91.6222 51.852 91.6462 51.828 91.6462 51.78C91.6222 51.24 91.5862 50.856 91.5382 50.628C91.4062 50.088 91.1362 49.662 90.7282 49.35C90.3322 49.026 89.8282 48.864 89.2162 48.864ZM101.1 44.58C101.1 44.46 101.16 44.4 101.28 44.4H102.198C102.318 44.4 102.378 44.46 102.378 44.58V56.82C102.378 56.94 102.318 57 102.198 57H101.28C101.16 57 101.1 56.94 101.1 56.82V56.064C101.1 56.04 101.088 56.028 101.064 56.028C101.052 56.016 101.034 56.022 101.01 56.046C100.746 56.394 100.416 56.664 100.02 56.856C99.6358 57.048 99.2038 57.144 98.7238 57.144C97.8838 57.144 97.1758 56.928 96.5998 56.496C96.0358 56.064 95.6458 55.476 95.4298 54.732C95.2618 54.192 95.1778 53.43 95.1778 52.446C95.1778 51.45 95.2498 50.706 95.3938 50.214C95.6098 49.446 96.0058 48.846 96.5818 48.414C97.1578 47.97 97.8718 47.748 98.7238 47.748C99.1918 47.748 99.6238 47.844 100.02 48.036C100.416 48.216 100.746 48.48 101.01 48.828C101.034 48.852 101.052 48.864 101.064 48.864C101.088 48.852 101.1 48.834 101.1 48.81V44.58ZM100.776 54.642C100.884 54.402 100.962 54.12 101.01 53.796C101.058 53.472 101.082 53.022 101.082 52.446C101.082 51.87 101.058 51.42 101.01 51.096C100.962 50.76 100.878 50.466 100.758 50.214C100.614 49.806 100.374 49.482 100.038 49.242C99.7138 48.99 99.3238 48.864 98.8678 48.864C98.3878 48.864 97.9738 48.984 97.6258 49.224C97.2778 49.464 97.0258 49.782 96.8698 50.178C96.7258 50.442 96.6178 50.742 96.5458 51.078C96.4858 51.402 96.4558 51.858 96.4558 52.446C96.4558 53.01 96.4798 53.454 96.5278 53.778C96.5758 54.09 96.6598 54.372 96.7798 54.624C96.9238 55.056 97.1758 55.398 97.5358 55.65C97.9078 55.902 98.3458 56.028 98.8498 56.028C99.3298 56.028 99.7318 55.902 100.056 55.65C100.38 55.398 100.62 55.062 100.776 54.642ZM113.27 57.144C112.43 57.144 111.686 56.976 111.038 56.64C110.39 56.304 109.886 55.836 109.526 55.236C109.166 54.624 108.986 53.916 108.986 53.112V44.58C108.986 44.46 109.046 44.4 109.166 44.4H110.083C110.204 44.4 110.264 44.46 110.264 44.58V53.148C110.264 54 110.54 54.696 111.092 55.236C111.644 55.764 112.37 56.028 113.27 56.028C114.17 56.028 114.896 55.764 115.448 55.236C116 54.696 116.276 54 116.276 53.148V44.58C116.276 44.46 116.336 44.4 116.456 44.4H117.374C117.494 44.4 117.554 44.46 117.554 44.58V53.112C117.554 53.916 117.374 54.624 117.014 55.236C116.666 55.836 116.168 56.304 115.52 56.64C114.872 56.976 114.122 57.144 113.27 57.144ZM123.537 57.09C122.865 57.09 122.265 56.982 121.737 56.766C121.221 56.55 120.819 56.262 120.531 55.902C120.255 55.542 120.117 55.14 120.117 54.696V54.48C120.117 54.36 120.177 54.3 120.297 54.3H121.161C121.281 54.3 121.341 54.36 121.341 54.48V54.624C121.341 55.02 121.545 55.368 121.953 55.668C122.373 55.956 122.895 56.1 123.519 56.1C124.143 56.1 124.647 55.962 125.031 55.686C125.415 55.398 125.607 55.038 125.607 54.606C125.607 54.306 125.505 54.06 125.301 53.868C125.109 53.676 124.875 53.526 124.599 53.418C124.335 53.31 123.921 53.172 123.357 53.004C122.685 52.812 122.133 52.62 121.701 52.428C121.269 52.236 120.903 51.972 120.603 51.636C120.315 51.288 120.171 50.85 120.171 50.322C120.171 49.554 120.471 48.942 121.071 48.486C121.671 48.03 122.463 47.802 123.447 47.802C124.107 47.802 124.689 47.91 125.193 48.126C125.709 48.342 126.105 48.642 126.381 49.026C126.657 49.398 126.795 49.818 126.795 50.286V50.34C126.795 50.46 126.735 50.52 126.615 50.52H125.769C125.649 50.52 125.589 50.46 125.589 50.34V50.286C125.589 49.878 125.391 49.536 124.995 49.26C124.611 48.984 124.089 48.846 123.429 48.846C122.817 48.846 122.325 48.972 121.953 49.224C121.581 49.464 121.395 49.8 121.395 50.232C121.395 50.64 121.575 50.952 121.935 51.168C122.295 51.384 122.853 51.6 123.609 51.816C124.305 52.02 124.869 52.212 125.301 52.392C125.733 52.572 126.105 52.836 126.417 53.184C126.729 53.52 126.885 53.964 126.885 54.516C126.885 55.296 126.579 55.92 125.967 56.388C125.355 56.856 124.545 57.09 123.537 57.09ZM132.365 47.748C133.445 47.748 134.279 48.024 134.867 48.576C135.455 49.128 135.749 49.86 135.749 50.772V56.82C135.749 56.94 135.689 57 135.569 57H134.651C134.531 57 134.471 56.94 134.471 56.82V56.082C134.471 56.058 134.459 56.04 134.435 56.028C134.423 56.016 134.405 56.022 134.381 56.046C134.081 56.406 133.691 56.682 133.211 56.874C132.731 57.054 132.197 57.144 131.609 57.144C130.757 57.144 130.043 56.928 129.467 56.496C128.891 56.064 128.603 55.404 128.603 54.516C128.603 53.616 128.927 52.908 129.575 52.392C130.235 51.864 131.147 51.6 132.311 51.6H134.399C134.447 51.6 134.471 51.576 134.471 51.528V50.844C134.471 50.232 134.297 49.752 133.949 49.404C133.613 49.044 133.085 48.864 132.365 48.864C131.789 48.864 131.321 48.978 130.961 49.206C130.601 49.422 130.379 49.728 130.295 50.124C130.259 50.244 130.187 50.298 130.079 50.286L129.107 50.16C128.975 50.136 128.921 50.088 128.945 50.016C129.041 49.344 129.401 48.798 130.025 48.378C130.649 47.958 131.429 47.748 132.365 47.748ZM131.861 56.046C132.569 56.046 133.181 55.872 133.697 55.524C134.213 55.164 134.471 54.684 134.471 54.084V52.68C134.471 52.632 134.447 52.608 134.399 52.608H132.509C131.717 52.608 131.081 52.77 130.601 53.094C130.121 53.418 129.881 53.868 129.881 54.444C129.881 54.972 130.061 55.374 130.421 55.65C130.793 55.914 131.273 56.046 131.861 56.046ZM145.411 50.214C145.555 50.754 145.627 51.498 145.627 52.446C145.627 53.43 145.543 54.192 145.375 54.732C145.147 55.476 144.751 56.064 144.187 56.496C143.623 56.928 142.921 57.144 142.081 57.144C141.601 57.144 141.163 57.048 140.767 56.856C140.371 56.664 140.041 56.388 139.777 56.028C139.765 56.004 139.747 55.998 139.723 56.01C139.699 56.01 139.687 56.022 139.687 56.046V56.82C139.687 56.94 139.627 57 139.507 57H138.589C138.469 57 138.409 56.94 138.409 56.82V44.58C138.409 44.46 138.469 44.4 138.589 44.4H139.507C139.627 44.4 139.687 44.46 139.687 44.58V48.828C139.687 48.852 139.693 48.87 139.705 48.882C139.729 48.882 139.753 48.87 139.777 48.846C140.041 48.498 140.371 48.228 140.767 48.036C141.163 47.844 141.601 47.748 142.081 47.748C142.933 47.748 143.647 47.97 144.223 48.414C144.799 48.846 145.195 49.446 145.411 50.214ZM144.025 54.624C144.145 54.372 144.229 54.09 144.277 53.778C144.325 53.454 144.349 53.01 144.349 52.446C144.349 51.858 144.313 51.402 144.241 51.078C144.181 50.742 144.079 50.442 143.935 50.178C143.779 49.782 143.527 49.464 143.179 49.224C142.831 48.984 142.417 48.864 141.937 48.864C141.481 48.864 141.085 48.99 140.749 49.242C140.425 49.482 140.191 49.806 140.047 50.214C139.927 50.466 139.837 50.754 139.777 51.078C139.729 51.402 139.705 51.858 139.705 52.446C139.705 53.022 139.729 53.472 139.777 53.796C139.837 54.108 139.921 54.39 140.029 54.642C140.185 55.062 140.425 55.398 140.749 55.65C141.073 55.902 141.475 56.028 141.955 56.028C142.459 56.028 142.891 55.902 143.251 55.65C143.623 55.398 143.881 55.056 144.025 54.624ZM149.099 46.236C148.811 46.236 148.571 46.14 148.379 45.948C148.187 45.756 148.091 45.516 148.091 45.228C148.091 44.928 148.187 44.688 148.379 44.508C148.571 44.316 148.811 44.22 149.099 44.22C149.387 44.22 149.627 44.316 149.819 44.508C150.011 44.688 150.107 44.928 150.107 45.228C150.107 45.516 150.011 45.756 149.819 45.948C149.627 46.14 149.387 46.236 149.099 46.236ZM148.595 56.982C148.475 56.982 148.415 56.922 148.415 56.802V48.054C148.415 47.934 148.475 47.874 148.595 47.874H149.513C149.633 47.874 149.693 47.934 149.693 48.054V56.802C149.693 56.922 149.633 56.982 149.513 56.982H148.595ZM153.003 57C152.883 57 152.823 56.94 152.823 56.82V44.58C152.823 44.46 152.883 44.4 153.003 44.4H153.921C154.041 44.4 154.101 44.46 154.101 44.58V56.82C154.101 56.94 154.041 57 153.921 57H153.003ZM157.835 46.236C157.547 46.236 157.307 46.14 157.115 45.948C156.923 45.756 156.827 45.516 156.827 45.228C156.827 44.928 156.923 44.688 157.115 44.508C157.307 44.316 157.547 44.22 157.835 44.22C158.123 44.22 158.363 44.316 158.555 44.508C158.747 44.688 158.843 44.928 158.843 45.228C158.843 45.516 158.747 45.756 158.555 45.948C158.363 46.14 158.123 46.236 157.835 46.236ZM157.331 56.982C157.211 56.982 157.151 56.922 157.151 56.802V48.054C157.151 47.934 157.211 47.874 157.331 47.874H158.249C158.369 47.874 158.429 47.934 158.429 48.054V56.802C158.429 56.922 158.369 56.982 158.249 56.982H157.331ZM165.645 48.774C165.645 48.894 165.585 48.954 165.465 48.954H163.431C163.383 48.954 163.359 48.978 163.359 49.026V54.336C163.359 54.912 163.485 55.32 163.737 55.56C164.001 55.788 164.409 55.902 164.961 55.902H165.411C165.531 55.902 165.591 55.962 165.591 56.082V56.82C165.591 56.94 165.531 57 165.411 57C165.267 57.012 165.045 57.018 164.745 57.018C163.881 57.018 163.227 56.856 162.783 56.532C162.339 56.208 162.117 55.608 162.117 54.732V49.026C162.117 48.978 162.093 48.954 162.045 48.954H160.947C160.827 48.954 160.767 48.894 160.767 48.774V48.072C160.767 47.952 160.827 47.892 160.947 47.892H162.045C162.093 47.892 162.117 47.868 162.117 47.82V45.732C162.117 45.612 162.177 45.552 162.297 45.552H163.179C163.299 45.552 163.359 45.612 163.359 45.732V47.82C163.359 47.868 163.383 47.892 163.431 47.892H165.465C165.585 47.892 165.645 47.952 165.645 48.072V48.774ZM167.702 60.6C167.618 60.6 167.576 60.54 167.576 60.42V59.7C167.576 59.58 167.636 59.52 167.756 59.52H167.828C168.296 59.508 168.656 59.436 168.908 59.304C169.172 59.184 169.394 58.95 169.574 58.602C169.766 58.266 169.97 57.75 170.186 57.054C170.21 57.006 170.21 56.97 170.186 56.946L167.144 48.09L167.126 48.018C167.126 47.934 167.18 47.892 167.288 47.892H168.242C168.35 47.892 168.422 47.94 168.458 48.036L170.798 55.308C170.81 55.332 170.828 55.344 170.852 55.344C170.876 55.344 170.894 55.332 170.906 55.308L173.21 48.036C173.246 47.94 173.318 47.892 173.426 47.892H174.362C174.494 47.892 174.542 47.958 174.506 48.09L171.176 57.792C170.888 58.596 170.618 59.19 170.366 59.574C170.114 59.958 169.796 60.222 169.412 60.366C169.04 60.522 168.512 60.6 167.828 60.6H167.702ZM7.092 70.072C7.092 69.952 7.152 69.892 7.272 69.892H8.19C8.31 69.892 8.37 69.952 8.37 70.072V82.312C8.37 82.432 8.31 82.492 8.19 82.492H7.272C7.152 82.492 7.092 82.432 7.092 82.312V78.082C7.092 78.058 7.08 78.046 7.056 78.046C7.044 78.034 7.026 78.04 7.002 78.064C6.738 78.412 6.408 78.682 6.012 78.874C5.616 79.054 5.184 79.144 4.716 79.144C3.864 79.144 3.15 78.928 2.574 78.496C1.998 78.052 1.602 77.446 1.386 76.678C1.242 76.186 1.17 75.442 1.17 74.446C1.17 73.462 1.254 72.7 1.422 72.16C1.638 71.416 2.028 70.828 2.592 70.396C3.168 69.964 3.876 69.748 4.716 69.748C5.196 69.748 5.628 69.844 6.012 70.036C6.408 70.228 6.738 70.498 7.002 70.846C7.026 70.87 7.044 70.882 7.056 70.882C7.08 70.87 7.092 70.852 7.092 70.828V70.072ZM6.75 76.678C6.87 76.426 6.954 76.138 7.002 75.814C7.05 75.478 7.074 75.022 7.074 74.446C7.074 73.87 7.05 73.42 7.002 73.096C6.954 72.772 6.876 72.49 6.768 72.25C6.612 71.83 6.372 71.494 6.048 71.242C5.724 70.99 5.322 70.864 4.842 70.864C4.338 70.864 3.9 70.99 3.528 71.242C3.168 71.494 2.916 71.836 2.772 72.268C2.652 72.52 2.568 72.808 2.52 73.132C2.472 73.444 2.448 73.882 2.448 74.446C2.448 75.034 2.478 75.496 2.538 75.832C2.61 76.156 2.718 76.45 2.862 76.714C3.018 77.11 3.27 77.428 3.618 77.668C3.966 77.908 4.38 78.028 4.86 78.028C5.316 78.028 5.706 77.908 6.03 77.668C6.366 77.416 6.606 77.086 6.75 76.678ZM16.8796 70.072C16.8796 69.952 16.9396 69.892 17.0596 69.892H17.9776C18.0976 69.892 18.1576 69.952 18.1576 70.072V78.82C18.1576 78.94 18.0976 79 17.9776 79H17.0596C16.9396 79 16.8796 78.94 16.8796 78.82V78.046C16.8796 78.022 16.8676 78.004 16.8436 77.992C16.8196 77.98 16.8016 77.986 16.7896 78.01C16.2856 78.754 15.4876 79.126 14.3956 79.126C13.8196 79.126 13.2856 79.012 12.7936 78.784C12.3136 78.544 11.9296 78.202 11.6416 77.758C11.3656 77.314 11.2276 76.78 11.2276 76.156V70.072C11.2276 69.952 11.2876 69.892 11.4076 69.892H12.3256C12.4456 69.892 12.5056 69.952 12.5056 70.072V75.778C12.5056 76.462 12.6976 77.008 13.0816 77.416C13.4656 77.812 13.9876 78.01 14.6476 78.01C15.3316 78.01 15.8716 77.806 16.2676 77.398C16.6756 76.99 16.8796 76.45 16.8796 75.778V70.072ZM28.006 72.916C28.054 73.252 28.078 73.672 28.078 74.176V74.752C28.078 74.872 28.018 74.932 27.898 74.932H22.084C22.036 74.932 22.012 74.956 22.012 75.004C22.036 75.664 22.072 76.09 22.12 76.282C22.252 76.822 22.534 77.248 22.966 77.56C23.398 77.872 23.95 78.028 24.622 78.028C25.126 78.028 25.57 77.914 25.954 77.686C26.338 77.458 26.638 77.134 26.854 76.714C26.926 76.606 27.01 76.582 27.106 76.642L27.808 77.056C27.904 77.116 27.928 77.2 27.88 77.308C27.58 77.884 27.13 78.34 26.53 78.676C25.93 79 25.24 79.162 24.46 79.162C23.608 79.15 22.894 78.946 22.318 78.55C21.742 78.154 21.328 77.602 21.076 76.894C20.86 76.318 20.752 75.49 20.752 74.41C20.752 73.906 20.758 73.498 20.77 73.186C20.794 72.862 20.842 72.574 20.914 72.322C21.118 71.542 21.526 70.918 22.138 70.45C22.762 69.982 23.512 69.748 24.388 69.748C25.48 69.748 26.32 70.024 26.908 70.576C27.496 71.128 27.862 71.908 28.006 72.916ZM24.388 70.864C23.8 70.864 23.308 71.02 22.912 71.332C22.528 71.632 22.276 72.04 22.156 72.556C22.084 72.808 22.036 73.216 22.012 73.78C22.012 73.828 22.036 73.852 22.084 73.852H26.746C26.794 73.852 26.818 73.828 26.818 73.78C26.794 73.24 26.758 72.856 26.71 72.628C26.578 72.088 26.308 71.662 25.9 71.35C25.504 71.026 25 70.864 24.388 70.864ZM33.4495 79.09C32.7775 79.09 32.1775 78.982 31.6495 78.766C31.1335 78.55 30.7315 78.262 30.4435 77.902C30.1675 77.542 30.0295 77.14 30.0295 76.696V76.48C30.0295 76.36 30.0895 76.3 30.2095 76.3H31.0735C31.1935 76.3 31.2535 76.36 31.2535 76.48V76.624C31.2535 77.02 31.4575 77.368 31.8655 77.668C32.2855 77.956 32.8075 78.1 33.4315 78.1C34.0555 78.1 34.5595 77.962 34.9435 77.686C35.3275 77.398 35.5195 77.038 35.5195 76.606C35.5195 76.306 35.4175 76.06 35.2135 75.868C35.0215 75.676 34.7875 75.526 34.5115 75.418C34.2475 75.31 33.8335 75.172 33.2695 75.004C32.5975 74.812 32.0455 74.62 31.6135 74.428C31.1815 74.236 30.8155 73.972 30.5155 73.636C30.2275 73.288 30.0835 72.85 30.0835 72.322C30.0835 71.554 30.3835 70.942 30.9835 70.486C31.5835 70.03 32.3755 69.802 33.3595 69.802C34.0195 69.802 34.6015 69.91 35.1055 70.126C35.6215 70.342 36.0175 70.642 36.2935 71.026C36.5695 71.398 36.7075 71.818 36.7075 72.286V72.34C36.7075 72.46 36.6475 72.52 36.5275 72.52H35.6815C35.5615 72.52 35.5015 72.46 35.5015 72.34V72.286C35.5015 71.878 35.3035 71.536 34.9075 71.26C34.5235 70.984 34.0015 70.846 33.3415 70.846C32.7295 70.846 32.2375 70.972 31.8655 71.224C31.4935 71.464 31.3075 71.8 31.3075 72.232C31.3075 72.64 31.4875 72.952 31.8475 73.168C32.2075 73.384 32.7655 73.6 33.5215 73.816C34.2175 74.02 34.7815 74.212 35.2135 74.392C35.6455 74.572 36.0175 74.836 36.3295 75.184C36.6415 75.52 36.7975 75.964 36.7975 76.516C36.7975 77.296 36.4915 77.92 35.8795 78.388C35.2675 78.856 34.4575 79.09 33.4495 79.09ZM43.1959 70.774C43.1959 70.894 43.1359 70.954 43.0159 70.954H40.9819C40.9339 70.954 40.9099 70.978 40.9099 71.026V76.336C40.9099 76.912 41.0359 77.32 41.2879 77.56C41.5519 77.788 41.9599 77.902 42.5119 77.902H42.9619C43.0819 77.902 43.1419 77.962 43.1419 78.082V78.82C43.1419 78.94 43.0819 79 42.9619 79C42.8179 79.012 42.5959 79.018 42.2959 79.018C41.4319 79.018 40.7779 78.856 40.3339 78.532C39.8899 78.208 39.6679 77.608 39.6679 76.732V71.026C39.6679 70.978 39.6439 70.954 39.5959 70.954H38.4979C38.3779 70.954 38.3179 70.894 38.3179 70.774V70.072C38.3179 69.952 38.3779 69.892 38.4979 69.892H39.5959C39.6439 69.892 39.6679 69.868 39.6679 69.82V67.732C39.6679 67.612 39.7279 67.552 39.8479 67.552H40.7299C40.8499 67.552 40.9099 67.612 40.9099 67.732V69.82C40.9099 69.868 40.9339 69.892 40.9819 69.892H43.0159C43.1359 69.892 43.1959 69.952 43.1959 70.072V70.774ZM46.5306 68.236C46.2426 68.236 46.0026 68.14 45.8106 67.948C45.6186 67.756 45.5226 67.516 45.5226 67.228C45.5226 66.928 45.6186 66.688 45.8106 66.508C46.0026 66.316 46.2426 66.22 46.5306 66.22C46.8186 66.22 47.0586 66.316 47.2506 66.508C47.4426 66.688 47.5386 66.928 47.5386 67.228C47.5386 67.516 47.4426 67.756 47.2506 67.948C47.0586 68.14 46.8186 68.236 46.5306 68.236ZM46.0266 78.982C45.9066 78.982 45.8466 78.922 45.8466 78.802V70.054C45.8466 69.934 45.9066 69.874 46.0266 69.874H46.9446C47.0646 69.874 47.1246 69.934 47.1246 70.054V78.802C47.1246 78.922 47.0646 78.982 46.9446 78.982H46.0266ZM53.7285 79.144C52.8645 79.144 52.1205 78.922 51.4965 78.478C50.8725 78.034 50.4405 77.422 50.2005 76.642C50.0325 76.09 49.9485 75.352 49.9485 74.428C49.9485 73.504 50.0325 72.772 50.2005 72.232C50.4285 71.464 50.8545 70.858 51.4785 70.414C52.1025 69.97 52.8585 69.748 53.7465 69.748C54.5985 69.748 55.3305 69.97 55.9425 70.414C56.5665 70.858 56.9925 71.458 57.2205 72.214C57.3885 72.73 57.4725 73.468 57.4725 74.428C57.4725 75.4 57.3885 76.138 57.2205 76.642C56.9925 77.422 56.5665 78.034 55.9425 78.478C55.3305 78.922 54.5925 79.144 53.7285 79.144ZM53.7285 78.028C54.3045 78.028 54.7965 77.872 55.2045 77.56C55.6125 77.236 55.8885 76.804 56.0325 76.264C56.1405 75.832 56.1945 75.226 56.1945 74.446C56.1945 73.654 56.1465 73.048 56.0505 72.628C55.9065 72.088 55.6245 71.662 55.2045 71.35C54.7965 71.026 54.2985 70.864 53.7105 70.864C53.1225 70.864 52.6245 71.026 52.2165 71.35C51.8085 71.662 51.5325 72.088 51.3885 72.628C51.2925 73.048 51.2445 73.654 51.2445 74.446C51.2445 75.238 51.2925 75.844 51.3885 76.264C51.5205 76.804 51.7905 77.236 52.1985 77.56C52.6185 77.872 53.1285 78.028 53.7285 78.028ZM63.843 69.766C64.803 69.766 65.565 70.048 66.129 70.612C66.705 71.176 66.993 71.932 66.993 72.88V78.82C66.993 78.94 66.933 79 66.813 79H65.895C65.775 79 65.715 78.94 65.715 78.82V73.132C65.715 72.472 65.511 71.932 65.103 71.512C64.707 71.092 64.191 70.882 63.555 70.882C62.895 70.882 62.361 71.086 61.953 71.494C61.545 71.902 61.341 72.436 61.341 73.096V78.82C61.341 78.94 61.281 79 61.161 79H60.243C60.123 79 60.063 78.94 60.063 78.82V70.072C60.063 69.952 60.123 69.892 60.243 69.892H61.161C61.281 69.892 61.341 69.952 61.341 70.072V70.846C61.341 70.87 61.347 70.888 61.359 70.9C61.383 70.912 61.401 70.906 61.413 70.882C61.941 70.138 62.751 69.766 63.843 69.766ZM73.5462 69.766C74.5062 69.766 75.2682 70.048 75.8322 70.612C76.4082 71.176 76.6962 71.932 76.6962 72.88V78.82C76.6962 78.94 76.6362 79 76.5162 79H75.5982C75.4782 79 75.4182 78.94 75.4182 78.82V73.132C75.4182 72.472 75.2142 71.932 74.8062 71.512C74.4102 71.092 73.8942 70.882 73.2582 70.882C72.5982 70.882 72.0642 71.086 71.6562 71.494C71.2482 71.902 71.0442 72.436 71.0442 73.096V78.82C71.0442 78.94 70.9842 79 70.8642 79H69.9462C69.8262 79 69.7662 78.94 69.7662 78.82V70.072C69.7662 69.952 69.8262 69.892 69.9462 69.892H70.8642C70.9842 69.892 71.0442 69.952 71.0442 70.072V70.846C71.0442 70.87 71.0502 70.888 71.0622 70.9C71.0862 70.912 71.1042 70.906 71.1162 70.882C71.6442 70.138 72.4542 69.766 73.5462 69.766ZM82.6193 69.748C83.6993 69.748 84.5333 70.024 85.1213 70.576C85.7093 71.128 86.0033 71.86 86.0033 72.772V78.82C86.0033 78.94 85.9433 79 85.8233 79H84.9053C84.7853 79 84.7253 78.94 84.7253 78.82V78.082C84.7253 78.058 84.7133 78.04 84.6893 78.028C84.6773 78.016 84.6593 78.022 84.6353 78.046C84.3353 78.406 83.9453 78.682 83.4653 78.874C82.9853 79.054 82.4513 79.144 81.8633 79.144C81.0113 79.144 80.2973 78.928 79.7213 78.496C79.1453 78.064 78.8573 77.404 78.8573 76.516C78.8573 75.616 79.1813 74.908 79.8293 74.392C80.4893 73.864 81.4013 73.6 82.5653 73.6H84.6533C84.7013 73.6 84.7253 73.576 84.7253 73.528V72.844C84.7253 72.232 84.5513 71.752 84.2033 71.404C83.8673 71.044 83.3393 70.864 82.6193 70.864C82.0433 70.864 81.5753 70.978 81.2153 71.206C80.8553 71.422 80.6333 71.728 80.5493 72.124C80.5133 72.244 80.4413 72.298 80.3333 72.286L79.3613 72.16C79.2293 72.136 79.1753 72.088 79.1993 72.016C79.2953 71.344 79.6553 70.798 80.2793 70.378C80.9033 69.958 81.6833 69.748 82.6193 69.748ZM82.1153 78.046C82.8233 78.046 83.4353 77.872 83.9513 77.524C84.4673 77.164 84.7253 76.684 84.7253 76.084V74.68C84.7253 74.632 84.7013 74.608 84.6533 74.608H82.7633C81.9713 74.608 81.3353 74.77 80.8553 75.094C80.3753 75.418 80.1353 75.868 80.1353 76.444C80.1353 76.972 80.3153 77.374 80.6753 77.65C81.0473 77.914 81.5273 78.046 82.1153 78.046ZM89.5267 68.236C89.2387 68.236 88.9987 68.14 88.8067 67.948C88.6147 67.756 88.5187 67.516 88.5187 67.228C88.5187 66.928 88.6147 66.688 88.8067 66.508C88.9987 66.316 89.2387 66.22 89.5267 66.22C89.8147 66.22 90.0547 66.316 90.2467 66.508C90.4387 66.688 90.5347 66.928 90.5347 67.228C90.5347 67.516 90.4387 67.756 90.2467 67.948C90.0547 68.14 89.8147 68.236 89.5267 68.236ZM89.0227 78.982C88.9027 78.982 88.8427 78.922 88.8427 78.802V70.054C88.8427 69.934 88.9027 69.874 89.0227 69.874H89.9407C90.0607 69.874 90.1207 69.934 90.1207 70.054V78.802C90.1207 78.922 90.0607 78.982 89.9407 78.982H89.0227ZM96.9225 69.802C97.3185 69.802 97.6605 69.88 97.9485 70.036C98.0445 70.084 98.0805 70.162 98.0565 70.27L97.8585 71.152C97.8225 71.272 97.7445 71.308 97.6245 71.26C97.4205 71.176 97.1865 71.134 96.9225 71.134L96.6885 71.152C96.0645 71.176 95.5485 71.41 95.1405 71.854C94.7325 72.286 94.5285 72.838 94.5285 73.51V78.82C94.5285 78.94 94.4685 79 94.3485 79H93.4305C93.3105 79 93.2505 78.94 93.2505 78.82V70.072C93.2505 69.952 93.3105 69.892 93.4305 69.892H94.3485C94.4685 69.892 94.5285 69.952 94.5285 70.072V71.17C94.5285 71.206 94.5345 71.23 94.5465 71.242C94.5705 71.242 94.5885 71.23 94.6005 71.206C94.8525 70.762 95.1705 70.42 95.5545 70.18C95.9505 69.928 96.4065 69.802 96.9225 69.802ZM106.703 72.916C106.751 73.252 106.775 73.672 106.775 74.176V74.752C106.775 74.872 106.715 74.932 106.595 74.932H100.781C100.733 74.932 100.709 74.956 100.709 75.004C100.733 75.664 100.769 76.09 100.817 76.282C100.949 76.822 101.231 77.248 101.663 77.56C102.095 77.872 102.647 78.028 103.319 78.028C103.823 78.028 104.267 77.914 104.651 77.686C105.035 77.458 105.335 77.134 105.551 76.714C105.623 76.606 105.707 76.582 105.803 76.642L106.505 77.056C106.601 77.116 106.625 77.2 106.577 77.308C106.277 77.884 105.827 78.34 105.227 78.676C104.627 79 103.937 79.162 103.157 79.162C102.305 79.15 101.591 78.946 101.015 78.55C100.439 78.154 100.025 77.602 99.7733 76.894C99.5573 76.318 99.4493 75.49 99.4493 74.41C99.4493 73.906 99.4553 73.498 99.4673 73.186C99.4913 72.862 99.5393 72.574 99.6113 72.322C99.8153 71.542 100.223 70.918 100.835 70.45C101.459 69.982 102.209 69.748 103.085 69.748C104.177 69.748 105.017 70.024 105.605 70.576C106.193 71.128 106.559 71.908 106.703 72.916ZM103.085 70.864C102.497 70.864 102.005 71.02 101.609 71.332C101.225 71.632 100.973 72.04 100.853 72.556C100.781 72.808 100.733 73.216 100.709 73.78C100.709 73.828 100.733 73.852 100.781 73.852H105.443C105.491 73.852 105.515 73.828 105.515 73.78C105.491 73.24 105.455 72.856 105.407 72.628C105.275 72.088 105.005 71.662 104.597 71.35C104.201 71.026 103.697 70.864 103.085 70.864ZM112.147 79.09C111.475 79.09 110.875 78.982 110.347 78.766C109.831 78.55 109.429 78.262 109.141 77.902C108.865 77.542 108.727 77.14 108.727 76.696V76.48C108.727 76.36 108.787 76.3 108.907 76.3H109.771C109.891 76.3 109.951 76.36 109.951 76.48V76.624C109.951 77.02 110.155 77.368 110.563 77.668C110.983 77.956 111.505 78.1 112.129 78.1C112.753 78.1 113.257 77.962 113.641 77.686C114.025 77.398 114.217 77.038 114.217 76.606C114.217 76.306 114.115 76.06 113.911 75.868C113.719 75.676 113.485 75.526 113.209 75.418C112.945 75.31 112.531 75.172 111.967 75.004C111.295 74.812 110.743 74.62 110.311 74.428C109.879 74.236 109.513 73.972 109.213 73.636C108.925 73.288 108.781 72.85 108.781 72.322C108.781 71.554 109.081 70.942 109.681 70.486C110.281 70.03 111.073 69.802 112.057 69.802C112.717 69.802 113.299 69.91 113.803 70.126C114.319 70.342 114.715 70.642 114.991 71.026C115.267 71.398 115.405 71.818 115.405 72.286V72.34C115.405 72.46 115.345 72.52 115.225 72.52H114.379C114.259 72.52 114.199 72.46 114.199 72.34V72.286C114.199 71.878 114.001 71.536 113.605 71.26C113.221 70.984 112.699 70.846 112.039 70.846C111.427 70.846 110.935 70.972 110.563 71.224C110.191 71.464 110.005 71.8 110.005 72.232C110.005 72.64 110.185 72.952 110.545 73.168C110.905 73.384 111.463 73.6 112.219 73.816C112.915 74.02 113.479 74.212 113.911 74.392C114.343 74.572 114.715 74.836 115.027 75.184C115.339 75.52 115.495 75.964 115.495 76.516C115.495 77.296 115.189 77.92 114.577 78.388C113.965 78.856 113.155 79.09 112.147 79.09Z" fill="black"/>
<path d="M0 14.8H99.1606V15.7H0V14.8Z" fill="black"/>
</svg>
