<svg width="209" height="39" viewBox="0 0 209 39" fill="none" xmlns="http://www.w3.org/2000/svg">
<path d="M1.736 11.794C1.7 11.854 1.712 11.884 1.772 11.884H7.424C7.544 11.884 7.604 11.944 7.604 12.064V12.82C7.604 12.94 7.544 13 7.424 13H0.242C0.122 13 0.0620001 12.94 0.0620001 12.82V12.064C0.0620001 11.98 0.0920001 11.908 0.152 11.848C0.56 11.368 1.478 10.24 2.906 8.464L4.238 6.808C5.366 5.38 5.93 4.27 5.93 3.478C5.93 2.842 5.714 2.332 5.282 1.948C4.85 1.564 4.286 1.372 3.59 1.372C2.906 1.372 2.354 1.57 1.934 1.966C1.514 2.35 1.31 2.86 1.322 3.496V4.054C1.322 4.174 1.262 4.234 1.142 4.234H0.206C0.0860001 4.234 0.0260001 4.174 0.0260001 4.054V3.334C0.0500001 2.41 0.392 1.666 1.052 1.102C1.724 0.538 2.57 0.256 3.59 0.256C4.31 0.256 4.946 0.394 5.498 0.669999C6.05 0.945999 6.476 1.33 6.776 1.822C7.076 2.302 7.226 2.848 7.226 3.46C7.226 4.48 6.662 5.71 5.534 7.15C4.946 7.906 3.812 9.298 2.132 11.326L1.736 11.794ZM13.7084 13.18C12.5564 13.18 11.6384 12.85 10.9544 12.19C10.2704 11.53 9.92839 10.648 9.92839 9.544V3.856C9.92839 2.752 10.2704 1.876 10.9544 1.228C11.6384 0.567999 12.5564 0.237999 13.7084 0.237999C14.8724 0.237999 15.8024 0.567999 16.4984 1.228C17.1944 1.888 17.5424 2.764 17.5424 3.856V9.544C17.5424 10.648 17.1944 11.53 16.4984 12.19C15.8024 12.85 14.8724 13.18 13.7084 13.18ZM13.7084 12.064C14.4764 12.064 15.0944 11.842 15.5624 11.398C16.0304 10.954 16.2644 10.36 16.2644 9.616V3.802C16.2644 3.07 16.0304 2.482 15.5624 2.038C15.1064 1.594 14.4884 1.372 13.7084 1.372C12.9524 1.372 12.3464 1.594 11.8904 2.038C11.4344 2.482 11.2064 3.07 11.2064 3.802V9.616C11.2064 10.36 11.4344 10.954 11.8904 11.398C12.3464 11.842 12.9524 12.064 13.7084 12.064ZM19.5661 13C19.4341 13 19.3861 12.934 19.4221 12.802L23.4001 0.543999C23.4361 0.447999 23.5081 0.399999 23.6161 0.399999H24.5161C24.6481 0.399999 24.6961 0.465999 24.6601 0.598L20.6821 12.856C20.6461 12.952 20.5741 13 20.4661 13H19.5661ZM31.0932 13.18C29.9412 13.18 29.0232 12.85 28.3392 12.19C27.6552 11.53 27.3132 10.648 27.3132 9.544V3.856C27.3132 2.752 27.6552 1.876 28.3392 1.228C29.0232 0.567999 29.9412 0.237999 31.0932 0.237999C32.2572 0.237999 33.1872 0.567999 33.8832 1.228C34.5792 1.888 34.9272 2.764 34.9272 3.856V9.544C34.9272 10.648 34.5792 11.53 33.8832 12.19C33.1872 12.85 32.2572 13.18 31.0932 13.18ZM31.0932 12.064C31.8612 12.064 32.4792 11.842 32.9472 11.398C33.4152 10.954 33.6492 10.36 33.6492 9.616V3.802C33.6492 3.07 33.4152 2.482 32.9472 2.038C32.4912 1.594 31.8732 1.372 31.0932 1.372C30.3372 1.372 29.7312 1.594 29.2752 2.038C28.8192 2.482 28.5912 3.07 28.5912 3.802V9.616C28.5912 10.36 28.8192 10.954 29.2752 11.398C29.7312 11.842 30.3372 12.064 31.0932 12.064ZM44.8529 8.374C44.9729 8.374 45.0329 8.434 45.0329 8.554V9.346C45.0329 9.466 44.9729 9.526 44.8529 9.526H44.0789C44.0309 9.526 44.0069 9.55 44.0069 9.598V12.82C44.0069 12.94 43.9469 13 43.8269 13H42.9089C42.7889 13 42.7289 12.94 42.7289 12.82V9.598C42.7289 9.55 42.7049 9.526 42.6569 9.526H37.2749C37.1549 9.526 37.0949 9.466 37.0949 9.346V8.68C37.0949 8.62 37.1129 8.548 37.1489 8.464L40.8389 0.526C40.8749 0.441999 40.9409 0.399999 41.0369 0.399999H41.9909C42.0509 0.399999 42.0929 0.423999 42.1169 0.471999C42.1529 0.508 42.1589 0.556 42.1349 0.616L38.5529 8.284C38.5409 8.308 38.5409 8.332 38.5529 8.356C38.5649 8.368 38.5829 8.374 38.6069 8.374H42.6569C42.7049 8.374 42.7289 8.35 42.7289 8.302V5.404C42.7289 5.284 42.7889 5.224 42.9089 5.224H43.8269C43.9469 5.224 44.0069 5.284 44.0069 5.404V8.302C44.0069 8.35 44.0309 8.374 44.0789 8.374H44.8529ZM46.865 13C46.733 13 46.685 12.934 46.721 12.802L50.699 0.543999C50.735 0.447999 50.807 0.399999 50.915 0.399999H51.815C51.947 0.399999 51.995 0.465999 51.959 0.598L47.981 12.856C47.945 12.952 47.873 13 47.765 13H46.865ZM56.07 11.794C56.034 11.854 56.046 11.884 56.106 11.884H61.758C61.878 11.884 61.938 11.944 61.938 12.064V12.82C61.938 12.94 61.878 13 61.758 13H54.576C54.456 13 54.396 12.94 54.396 12.82V12.064C54.396 11.98 54.426 11.908 54.486 11.848C54.894 11.368 55.812 10.24 57.24 8.464L58.572 6.808C59.7 5.38 60.264 4.27 60.264 3.478C60.264 2.842 60.048 2.332 59.616 1.948C59.184 1.564 58.62 1.372 57.924 1.372C57.24 1.372 56.688 1.57 56.268 1.966C55.848 2.35 55.644 2.86 55.656 3.496V4.054C55.656 4.174 55.596 4.234 55.476 4.234H54.54C54.42 4.234 54.36 4.174 54.36 4.054V3.334C54.384 2.41 54.726 1.666 55.386 1.102C56.058 0.538 56.904 0.256 57.924 0.256C58.644 0.256 59.28 0.394 59.832 0.669999C60.384 0.945999 60.81 1.33 61.11 1.822C61.41 2.302 61.56 2.848 61.56 3.46C61.56 4.48 60.996 5.71 59.868 7.15C59.28 7.906 58.146 9.298 56.466 11.326L56.07 11.794ZM68.0424 13.18C66.8904 13.18 65.9724 12.85 65.2884 12.19C64.6044 11.53 64.2624 10.648 64.2624 9.544V3.856C64.2624 2.752 64.6044 1.876 65.2884 1.228C65.9724 0.567999 66.8904 0.237999 68.0424 0.237999C69.2064 0.237999 70.1364 0.567999 70.8324 1.228C71.5284 1.888 71.8764 2.764 71.8764 3.856V9.544C71.8764 10.648 71.5284 11.53 70.8324 12.19C70.1364 12.85 69.2064 13.18 68.0424 13.18ZM68.0424 12.064C68.8104 12.064 69.4284 11.842 69.8964 11.398C70.3644 10.954 70.5984 10.36 70.5984 9.616V3.802C70.5984 3.07 70.3644 2.482 69.8964 2.038C69.4404 1.594 68.8224 1.372 68.0424 1.372C67.2864 1.372 66.6804 1.594 66.2244 2.038C65.7684 2.482 65.5404 3.07 65.5404 3.802V9.616C65.5404 10.36 65.7684 10.954 66.2244 11.398C66.6804 11.842 67.2864 12.064 68.0424 12.064ZM75.8981 11.794C75.8621 11.854 75.8741 11.884 75.9341 11.884H81.5861C81.7061 11.884 81.7661 11.944 81.7661 12.064V12.82C81.7661 12.94 81.7061 13 81.5861 13H74.4041C74.2841 13 74.2241 12.94 74.2241 12.82V12.064C74.2241 11.98 74.2541 11.908 74.3141 11.848C74.7221 11.368 75.6401 10.24 77.0681 8.464L78.4001 6.808C79.5281 5.38 80.0921 4.27 80.0921 3.478C80.0921 2.842 79.8761 2.332 79.4441 1.948C79.0121 1.564 78.4481 1.372 77.7521 1.372C77.0681 1.372 76.5161 1.57 76.0961 1.966C75.6761 2.35 75.4721 2.86 75.4841 3.496V4.054C75.4841 4.174 75.4241 4.234 75.3041 4.234H74.3681C74.2481 4.234 74.1881 4.174 74.1881 4.054V3.334C74.2121 2.41 74.5541 1.666 75.2141 1.102C75.8861 0.538 76.7321 0.256 77.7521 0.256C78.4721 0.256 79.1081 0.394 79.6601 0.669999C80.2121 0.945999 80.6381 1.33 80.9381 1.822C81.2381 2.302 81.3881 2.848 81.3881 3.46C81.3881 4.48 80.8241 5.71 79.6961 7.15C79.1081 7.906 77.9741 9.298 76.2941 11.326L75.8981 11.794ZM85.5485 11.794C85.5125 11.854 85.5245 11.884 85.5845 11.884H91.2365C91.3565 11.884 91.4165 11.944 91.4165 12.064V12.82C91.4165 12.94 91.3565 13 91.2365 13H84.0545C83.9345 13 83.8745 12.94 83.8745 12.82V12.064C83.8745 11.98 83.9045 11.908 83.9645 11.848C84.3725 11.368 85.2905 10.24 86.7185 8.464L88.0505 6.808C89.1785 5.38 89.7425 4.27 89.7425 3.478C89.7425 2.842 89.5265 2.332 89.0945 1.948C88.6625 1.564 88.0985 1.372 87.4025 1.372C86.7185 1.372 86.1665 1.57 85.7465 1.966C85.3265 2.35 85.1225 2.86 85.1345 3.496V4.054C85.1345 4.174 85.0745 4.234 84.9545 4.234H84.0185C83.8985 4.234 83.8385 4.174 83.8385 4.054V3.334C83.8625 2.41 84.2045 1.666 84.8645 1.102C85.5365 0.538 86.3825 0.256 87.4025 0.256C88.1225 0.256 88.7585 0.394 89.3105 0.669999C89.8625 0.945999 90.2885 1.33 90.5885 1.822C90.8885 2.302 91.0385 2.848 91.0385 3.46C91.0385 4.48 90.4745 5.71 89.3465 7.15C88.7585 7.906 87.6245 9.298 85.9445 11.326L85.5485 11.794ZM95.5049 6.7C95.2049 6.7 94.9589 6.604 94.7669 6.412C94.5869 6.22 94.4969 5.98 94.4969 5.692C94.4969 5.392 94.5869 5.152 94.7669 4.972C94.9589 4.78 95.2049 4.684 95.5049 4.684C95.7929 4.684 96.0329 4.78 96.2249 4.972C96.4169 5.152 96.5129 5.392 96.5129 5.692C96.5129 5.98 96.4169 6.22 96.2249 6.412C96.0329 6.604 95.7929 6.7 95.5049 6.7ZM95.5049 12.766C95.2049 12.766 94.9589 12.67 94.7669 12.478C94.5869 12.286 94.4969 12.046 94.4969 11.758C94.4969 11.458 94.5869 11.218 94.7669 11.038C94.9589 10.846 95.2049 10.75 95.5049 10.75C95.7929 10.75 96.0329 10.846 96.2249 11.038C96.4169 11.218 96.5129 11.458 96.5129 11.758C96.5129 12.046 96.4169 12.286 96.2249 12.478C96.0329 12.67 95.7929 12.766 95.5049 12.766ZM4.526 35.162C3.686 35.162 2.948 35 2.312 34.676C1.676 34.34 1.178 33.872 0.818 33.272C0.47 32.66 0.296 31.958 0.296 31.166V26.216C0.296 25.436 0.47 24.746 0.818 24.146C1.178 23.546 1.676 23.084 2.312 22.76C2.948 22.424 3.686 22.256 4.526 22.256C5.366 22.256 6.104 22.418 6.74 22.742C7.376 23.066 7.868 23.522 8.216 24.11C8.576 24.698 8.756 25.376 8.756 26.144C8.756 26.204 8.738 26.252 8.702 26.288C8.666 26.324 8.624 26.342 8.576 26.342L7.658 26.396C7.538 26.396 7.478 26.342 7.478 26.234V26.18C7.478 25.328 7.208 24.65 6.668 24.146C6.128 23.63 5.414 23.372 4.526 23.372C3.638 23.372 2.924 23.63 2.384 24.146C1.844 24.662 1.574 25.34 1.574 26.18V31.22C1.574 32.06 1.844 32.738 2.384 33.254C2.924 33.77 3.638 34.028 4.526 34.028C5.414 34.028 6.128 33.776 6.668 33.272C7.208 32.756 7.478 32.072 7.478 31.22V31.184C7.478 31.076 7.538 31.022 7.658 31.022L8.576 31.076C8.696 31.076 8.756 31.13 8.756 31.238C8.756 32.018 8.576 32.708 8.216 33.308C7.868 33.896 7.376 34.352 6.74 34.676C6.104 35 5.366 35.162 4.526 35.162ZM14.83 35.144C13.966 35.144 13.222 34.922 12.598 34.478C11.974 34.034 11.542 33.422 11.302 32.642C11.134 32.09 11.05 31.352 11.05 30.428C11.05 29.504 11.134 28.772 11.302 28.232C11.53 27.464 11.956 26.858 12.58 26.414C13.204 25.97 13.96 25.748 14.848 25.748C15.7 25.748 16.432 25.97 17.044 26.414C17.668 26.858 18.094 27.458 18.322 28.214C18.49 28.73 18.574 29.468 18.574 30.428C18.574 31.4 18.49 32.138 18.322 32.642C18.094 33.422 17.668 34.034 17.044 34.478C16.432 34.922 15.694 35.144 14.83 35.144ZM14.83 34.028C15.406 34.028 15.898 33.872 16.306 33.56C16.714 33.236 16.99 32.804 17.134 32.264C17.242 31.832 17.296 31.226 17.296 30.446C17.296 29.654 17.248 29.048 17.152 28.628C17.008 28.088 16.726 27.662 16.306 27.35C15.898 27.026 15.4 26.864 14.812 26.864C14.224 26.864 13.726 27.026 13.318 27.35C12.91 27.662 12.634 28.088 12.49 28.628C12.394 29.048 12.346 29.654 12.346 30.446C12.346 31.238 12.394 31.844 12.49 32.264C12.622 32.804 12.892 33.236 13.3 33.56C13.72 33.872 14.23 34.028 14.83 34.028ZM24.8366 25.802C25.2326 25.802 25.5746 25.88 25.8626 26.036C25.9586 26.084 25.9946 26.162 25.9706 26.27L25.7726 27.152C25.7366 27.272 25.6586 27.308 25.5386 27.26C25.3346 27.176 25.1006 27.134 24.8366 27.134L24.6026 27.152C23.9786 27.176 23.4626 27.41 23.0546 27.854C22.6466 28.286 22.4426 28.838 22.4426 29.51V34.82C22.4426 34.94 22.3826 35 22.2626 35H21.3446C21.2246 35 21.1646 34.94 21.1646 34.82V26.072C21.1646 25.952 21.2246 25.892 21.3446 25.892H22.2626C22.3826 25.892 22.4426 25.952 22.4426 26.072V27.17C22.4426 27.206 22.4486 27.23 22.4606 27.242C22.4846 27.242 22.5026 27.23 22.5146 27.206C22.7666 26.762 23.0846 26.42 23.4686 26.18C23.8646 25.928 24.3206 25.802 24.8366 25.802ZM31.3933 25.802C31.7893 25.802 32.1313 25.88 32.4193 26.036C32.5153 26.084 32.5513 26.162 32.5273 26.27L32.3293 27.152C32.2933 27.272 32.2153 27.308 32.0953 27.26C31.8913 27.176 31.6573 27.134 31.3933 27.134L31.1593 27.152C30.5353 27.176 30.0193 27.41 29.6113 27.854C29.2033 28.286 28.9993 28.838 28.9993 29.51V34.82C28.9993 34.94 28.9393 35 28.8193 35H27.9013C27.7813 35 27.7213 34.94 27.7213 34.82V26.072C27.7213 25.952 27.7813 25.892 27.9013 25.892H28.8193C28.9393 25.892 28.9993 25.952 28.9993 26.072V27.17C28.9993 27.206 29.0053 27.23 29.0173 27.242C29.0413 27.242 29.0593 27.23 29.0713 27.206C29.3233 26.762 29.6413 26.42 30.0253 26.18C30.4213 25.928 30.8773 25.802 31.3933 25.802ZM41.174 28.916C41.222 29.252 41.246 29.672 41.246 30.176V30.752C41.246 30.872 41.186 30.932 41.066 30.932H35.252C35.204 30.932 35.18 30.956 35.18 31.004C35.204 31.664 35.24 32.09 35.288 32.282C35.42 32.822 35.702 33.248 36.134 33.56C36.566 33.872 37.118 34.028 37.79 34.028C38.294 34.028 38.738 33.914 39.122 33.686C39.506 33.458 39.806 33.134 40.022 32.714C40.094 32.606 40.178 32.582 40.274 32.642L40.976 33.056C41.072 33.116 41.096 33.2 41.048 33.308C40.748 33.884 40.298 34.34 39.698 34.676C39.098 35 38.408 35.162 37.628 35.162C36.776 35.15 36.062 34.946 35.486 34.55C34.91 34.154 34.496 33.602 34.244 32.894C34.028 32.318 33.92 31.49 33.92 30.41C33.92 29.906 33.926 29.498 33.938 29.186C33.962 28.862 34.01 28.574 34.082 28.322C34.286 27.542 34.694 26.918 35.306 26.45C35.93 25.982 36.68 25.748 37.556 25.748C38.648 25.748 39.488 26.024 40.076 26.576C40.664 27.128 41.03 27.908 41.174 28.916ZM37.556 26.864C36.968 26.864 36.476 27.02 36.08 27.332C35.696 27.632 35.444 28.04 35.324 28.556C35.252 28.808 35.204 29.216 35.18 29.78C35.18 29.828 35.204 29.852 35.252 29.852H39.914C39.962 29.852 39.986 29.828 39.986 29.78C39.962 29.24 39.926 28.856 39.878 28.628C39.746 28.088 39.476 27.662 39.068 27.35C38.672 27.026 38.168 26.864 37.556 26.864ZM43.9677 35C43.8477 35 43.7877 34.94 43.7877 34.82V22.58C43.7877 22.46 43.8477 22.4 43.9677 22.4H44.8857C45.0057 22.4 45.0657 22.46 45.0657 22.58V34.82C45.0657 34.94 45.0057 35 44.8857 35H43.9677ZM51.0861 25.748C52.1661 25.748 53.0001 26.024 53.5881 26.576C54.1761 27.128 54.4701 27.86 54.4701 28.772V34.82C54.4701 34.94 54.4101 35 54.2901 35H53.3721C53.2521 35 53.1921 34.94 53.1921 34.82V34.082C53.1921 34.058 53.1801 34.04 53.1561 34.028C53.1441 34.016 53.1261 34.022 53.1021 34.046C52.8021 34.406 52.4121 34.682 51.9321 34.874C51.4521 35.054 50.9181 35.144 50.3301 35.144C49.4781 35.144 48.7641 34.928 48.1881 34.496C47.6121 34.064 47.3241 33.404 47.3241 32.516C47.3241 31.616 47.6481 30.908 48.2961 30.392C48.9561 29.864 49.8681 29.6 51.0321 29.6H53.1201C53.1681 29.6 53.1921 29.576 53.1921 29.528V28.844C53.1921 28.232 53.0181 27.752 52.6701 27.404C52.3341 27.044 51.8061 26.864 51.0861 26.864C50.5101 26.864 50.0421 26.978 49.6821 27.206C49.3221 27.422 49.1001 27.728 49.0161 28.124C48.9801 28.244 48.9081 28.298 48.8001 28.286L47.8281 28.16C47.6961 28.136 47.6421 28.088 47.6661 28.016C47.7621 27.344 48.1221 26.798 48.7461 26.378C49.3701 25.958 50.1501 25.748 51.0861 25.748ZM50.5821 34.046C51.2901 34.046 51.9021 33.872 52.4181 33.524C52.9341 33.164 53.1921 32.684 53.1921 32.084V30.68C53.1921 30.632 53.1681 30.608 53.1201 30.608H51.2301C50.4381 30.608 49.8021 30.77 49.3221 31.094C48.8421 31.418 48.6021 31.868 48.6021 32.444C48.6021 32.972 48.7821 33.374 49.1421 33.65C49.5141 33.914 49.9941 34.046 50.5821 34.046ZM61.1451 26.774C61.1451 26.894 61.0851 26.954 60.9651 26.954H58.9311C58.8831 26.954 58.8591 26.978 58.8591 27.026V32.336C58.8591 32.912 58.9851 33.32 59.2371 33.56C59.5011 33.788 59.9091 33.902 60.4611 33.902H60.9111C61.0311 33.902 61.0911 33.962 61.0911 34.082V34.82C61.0911 34.94 61.0311 35 60.9111 35C60.7671 35.012 60.5451 35.018 60.2451 35.018C59.3811 35.018 58.7271 34.856 58.2831 34.532C57.8391 34.208 57.6171 33.608 57.6171 32.732V27.026C57.6171 26.978 57.5931 26.954 57.5451 26.954H56.4471C56.3271 26.954 56.2671 26.894 56.2671 26.774V26.072C56.2671 25.952 56.3271 25.892 56.4471 25.892H57.5451C57.5931 25.892 57.6171 25.868 57.6171 25.82V23.732C57.6171 23.612 57.6771 23.552 57.7971 23.552H58.6791C58.7991 23.552 58.8591 23.612 58.8591 23.732V25.82C58.8591 25.868 58.8831 25.892 58.9311 25.892H60.9651C61.0851 25.892 61.1451 25.952 61.1451 26.072V26.774ZM64.4798 24.236C64.1918 24.236 63.9518 24.14 63.7598 23.948C63.5678 23.756 63.4718 23.516 63.4718 23.228C63.4718 22.928 63.5678 22.688 63.7598 22.508C63.9518 22.316 64.1918 22.22 64.4798 22.22C64.7678 22.22 65.0078 22.316 65.1998 22.508C65.3918 22.688 65.4878 22.928 65.4878 23.228C65.4878 23.516 65.3918 23.756 65.1998 23.948C65.0078 24.14 64.7678 24.236 64.4798 24.236ZM63.9758 34.982C63.8558 34.982 63.7958 34.922 63.7958 34.802V26.054C63.7958 25.934 63.8558 25.874 63.9758 25.874H64.8938C65.0138 25.874 65.0738 25.934 65.0738 26.054V34.802C65.0738 34.922 65.0138 34.982 64.8938 34.982H63.9758ZM71.6777 35.144C70.8137 35.144 70.0697 34.922 69.4457 34.478C68.8217 34.034 68.3897 33.422 68.1497 32.642C67.9817 32.09 67.8977 31.352 67.8977 30.428C67.8977 29.504 67.9817 28.772 68.1497 28.232C68.3777 27.464 68.8037 26.858 69.4277 26.414C70.0517 25.97 70.8077 25.748 71.6957 25.748C72.5477 25.748 73.2797 25.97 73.8917 26.414C74.5157 26.858 74.9417 27.458 75.1697 28.214C75.3377 28.73 75.4217 29.468 75.4217 30.428C75.4217 31.4 75.3377 32.138 75.1697 32.642C74.9417 33.422 74.5157 34.034 73.8917 34.478C73.2797 34.922 72.5417 35.144 71.6777 35.144ZM71.6777 34.028C72.2537 34.028 72.7457 33.872 73.1537 33.56C73.5617 33.236 73.8377 32.804 73.9817 32.264C74.0897 31.832 74.1437 31.226 74.1437 30.446C74.1437 29.654 74.0957 29.048 73.9997 28.628C73.8557 28.088 73.5737 27.662 73.1537 27.35C72.7457 27.026 72.2477 26.864 71.6597 26.864C71.0717 26.864 70.5737 27.026 70.1657 27.35C69.7577 27.662 69.4817 28.088 69.3377 28.628C69.2417 29.048 69.1937 29.654 69.1937 30.446C69.1937 31.238 69.2417 31.844 69.3377 32.264C69.4697 32.804 69.7397 33.236 70.1477 33.56C70.5677 33.872 71.0777 34.028 71.6777 34.028ZM81.7923 25.766C82.7523 25.766 83.5143 26.048 84.0783 26.612C84.6543 27.176 84.9423 27.932 84.9423 28.88V34.82C84.9423 34.94 84.8823 35 84.7623 35H83.8443C83.7243 35 83.6643 34.94 83.6643 34.82V29.132C83.6643 28.472 83.4603 27.932 83.0523 27.512C82.6563 27.092 82.1403 26.882 81.5043 26.882C80.8443 26.882 80.3103 27.086 79.9023 27.494C79.4943 27.902 79.2903 28.436 79.2903 29.096V34.82C79.2903 34.94 79.2303 35 79.1103 35H78.1923C78.0723 35 78.0123 34.94 78.0123 34.82V26.072C78.0123 25.952 78.0723 25.892 78.1923 25.892H79.1103C79.2303 25.892 79.2903 25.952 79.2903 26.072V26.846C79.2903 26.87 79.2963 26.888 79.3083 26.9C79.3323 26.912 79.3503 26.906 79.3623 26.882C79.8903 26.138 80.7003 25.766 81.7923 25.766ZM94.4689 25.748C95.5489 25.748 96.3829 26.024 96.9709 26.576C97.5589 27.128 97.8529 27.86 97.8529 28.772V34.82C97.8529 34.94 97.7929 35 97.6729 35H96.7549C96.6349 35 96.5749 34.94 96.5749 34.82V34.082C96.5749 34.058 96.5629 34.04 96.5389 34.028C96.5269 34.016 96.5089 34.022 96.4849 34.046C96.1849 34.406 95.7949 34.682 95.3149 34.874C94.8349 35.054 94.3009 35.144 93.7129 35.144C92.8609 35.144 92.1469 34.928 91.5709 34.496C90.9949 34.064 90.7069 33.404 90.7069 32.516C90.7069 31.616 91.0309 30.908 91.6789 30.392C92.3389 29.864 93.2509 29.6 94.4149 29.6H96.5029C96.5509 29.6 96.5749 29.576 96.5749 29.528V28.844C96.5749 28.232 96.4009 27.752 96.0529 27.404C95.7169 27.044 95.1889 26.864 94.4689 26.864C93.8929 26.864 93.4249 26.978 93.0649 27.206C92.7049 27.422 92.4829 27.728 92.3989 28.124C92.3629 28.244 92.2909 28.298 92.1829 28.286L91.2109 28.16C91.0789 28.136 91.0249 28.088 91.0489 28.016C91.1449 27.344 91.5049 26.798 92.1289 26.378C92.7529 25.958 93.5329 25.748 94.4689 25.748ZM93.9649 34.046C94.6729 34.046 95.2849 33.872 95.8009 33.524C96.3169 33.164 96.5749 32.684 96.5749 32.084V30.68C96.5749 30.632 96.5509 30.608 96.5029 30.608H94.6129C93.8209 30.608 93.1849 30.77 92.7049 31.094C92.2249 31.418 91.9849 31.868 91.9849 32.444C91.9849 32.972 92.1649 33.374 92.5249 33.65C92.8969 33.914 93.3769 34.046 93.9649 34.046ZM104.292 25.766C105.252 25.766 106.014 26.048 106.578 26.612C107.154 27.176 107.442 27.932 107.442 28.88V34.82C107.442 34.94 107.382 35 107.262 35H106.344C106.224 35 106.164 34.94 106.164 34.82V29.132C106.164 28.472 105.96 27.932 105.552 27.512C105.156 27.092 104.64 26.882 104.004 26.882C103.344 26.882 102.81 27.086 102.402 27.494C101.994 27.902 101.79 28.436 101.79 29.096V34.82C101.79 34.94 101.73 35 101.61 35H100.692C100.572 35 100.512 34.94 100.512 34.82V26.072C100.512 25.952 100.572 25.892 100.692 25.892H101.61C101.73 25.892 101.79 25.952 101.79 26.072V26.846C101.79 26.87 101.796 26.888 101.808 26.9C101.832 26.912 101.85 26.906 101.862 26.882C102.39 26.138 103.2 25.766 104.292 25.766ZM115.744 22.58C115.744 22.46 115.804 22.4 115.924 22.4H116.842C116.962 22.4 117.022 22.46 117.022 22.58V34.82C117.022 34.94 116.962 35 116.842 35H115.924C115.804 35 115.744 34.94 115.744 34.82V34.064C115.744 34.04 115.732 34.028 115.708 34.028C115.696 34.016 115.678 34.022 115.654 34.046C115.39 34.394 115.06 34.664 114.664 34.856C114.28 35.048 113.848 35.144 113.368 35.144C112.528 35.144 111.82 34.928 111.244 34.496C110.68 34.064 110.29 33.476 110.074 32.732C109.906 32.192 109.822 31.43 109.822 30.446C109.822 29.45 109.894 28.706 110.038 28.214C110.254 27.446 110.65 26.846 111.226 26.414C111.802 25.97 112.516 25.748 113.368 25.748C113.836 25.748 114.268 25.844 114.664 26.036C115.06 26.216 115.39 26.48 115.654 26.828C115.678 26.852 115.696 26.864 115.708 26.864C115.732 26.852 115.744 26.834 115.744 26.81V22.58ZM115.42 32.642C115.528 32.402 115.606 32.12 115.654 31.796C115.702 31.472 115.726 31.022 115.726 30.446C115.726 29.87 115.702 29.42 115.654 29.096C115.606 28.76 115.522 28.466 115.402 28.214C115.258 27.806 115.018 27.482 114.682 27.242C114.358 26.99 113.968 26.864 113.512 26.864C113.032 26.864 112.618 26.984 112.27 27.224C111.922 27.464 111.67 27.782 111.514 28.178C111.37 28.442 111.262 28.742 111.19 29.078C111.13 29.402 111.1 29.858 111.1 30.446C111.1 31.01 111.124 31.454 111.172 31.778C111.22 32.09 111.304 32.372 111.424 32.624C111.568 33.056 111.82 33.398 112.18 33.65C112.552 33.902 112.99 34.028 113.494 34.028C113.974 34.028 114.376 33.902 114.7 33.65C115.024 33.398 115.264 33.062 115.42 32.642ZM131.118 35C131.01 35 130.938 34.958 130.902 34.874L128.256 29.294C128.244 29.258 128.22 29.24 128.184 29.24H125.124C125.076 29.24 125.052 29.264 125.052 29.312V34.82C125.052 34.94 124.992 35 124.872 35H123.954C123.834 35 123.774 34.94 123.774 34.82V22.58C123.774 22.46 123.834 22.4 123.954 22.4H128.616C129.648 22.4 130.482 22.724 131.118 23.372C131.754 24.008 132.072 24.842 132.072 25.874C132.072 26.714 131.844 27.428 131.388 28.016C130.932 28.604 130.314 28.982 129.534 29.15C129.486 29.174 129.474 29.204 129.498 29.24L132.198 34.784C132.21 34.808 132.216 34.838 132.216 34.874C132.216 34.958 132.168 35 132.072 35H131.118ZM125.124 23.516C125.076 23.516 125.052 23.54 125.052 23.588V28.142C125.052 28.19 125.076 28.214 125.124 28.214H128.472C129.168 28.214 129.732 27.998 130.164 27.566C130.596 27.134 130.812 26.57 130.812 25.874C130.812 25.178 130.596 24.614 130.164 24.182C129.732 23.738 129.168 23.516 128.472 23.516H125.124ZM141.475 28.916C141.523 29.252 141.547 29.672 141.547 30.176V30.752C141.547 30.872 141.487 30.932 141.367 30.932H135.553C135.505 30.932 135.481 30.956 135.481 31.004C135.505 31.664 135.541 32.09 135.589 32.282C135.721 32.822 136.003 33.248 136.435 33.56C136.867 33.872 137.419 34.028 138.091 34.028C138.595 34.028 139.039 33.914 139.423 33.686C139.807 33.458 140.107 33.134 140.323 32.714C140.395 32.606 140.479 32.582 140.575 32.642L141.277 33.056C141.373 33.116 141.397 33.2 141.349 33.308C141.049 33.884 140.599 34.34 139.999 34.676C139.399 35 138.709 35.162 137.929 35.162C137.077 35.15 136.363 34.946 135.787 34.55C135.211 34.154 134.797 33.602 134.545 32.894C134.329 32.318 134.221 31.49 134.221 30.41C134.221 29.906 134.227 29.498 134.239 29.186C134.263 28.862 134.311 28.574 134.383 28.322C134.587 27.542 134.995 26.918 135.607 26.45C136.231 25.982 136.981 25.748 137.857 25.748C138.949 25.748 139.789 26.024 140.377 26.576C140.965 27.128 141.331 27.908 141.475 28.916ZM137.857 26.864C137.269 26.864 136.777 27.02 136.381 27.332C135.997 27.632 135.745 28.04 135.625 28.556C135.553 28.808 135.505 29.216 135.481 29.78C135.481 29.828 135.505 29.852 135.553 29.852H140.215C140.263 29.852 140.287 29.828 140.287 29.78C140.263 29.24 140.227 28.856 140.179 28.628C140.047 28.088 139.777 27.662 139.369 27.35C138.973 27.026 138.469 26.864 137.857 26.864ZM149.704 26.072C149.704 25.952 149.764 25.892 149.884 25.892H150.802C150.922 25.892 150.982 25.952 150.982 26.072V34.694C150.982 36.038 150.592 37.022 149.812 37.646C149.044 38.27 147.982 38.582 146.626 38.582C146.35 38.582 146.14 38.576 145.996 38.564C145.876 38.552 145.816 38.486 145.816 38.366L145.852 37.538C145.852 37.478 145.87 37.43 145.906 37.394C145.942 37.37 145.984 37.364 146.032 37.376L146.518 37.394C147.634 37.394 148.444 37.172 148.948 36.728C149.452 36.296 149.704 35.606 149.704 34.658V33.992C149.704 33.968 149.692 33.956 149.668 33.956C149.656 33.944 149.638 33.95 149.614 33.974C149.062 34.694 148.276 35.054 147.256 35.054C146.476 35.054 145.78 34.844 145.168 34.424C144.568 34.004 144.166 33.41 143.962 32.642C143.818 32.15 143.746 31.418 143.746 30.446C143.746 29.918 143.758 29.474 143.782 29.114C143.818 28.754 143.884 28.43 143.98 28.142C144.196 27.422 144.586 26.846 145.15 26.414C145.714 25.97 146.392 25.748 147.184 25.748C148.252 25.748 149.062 26.102 149.614 26.81C149.638 26.834 149.656 26.84 149.668 26.828C149.692 26.816 149.704 26.798 149.704 26.774V26.072ZM149.614 32.246C149.65 32.066 149.674 31.844 149.686 31.58C149.698 31.316 149.704 30.932 149.704 30.428C149.704 29.816 149.698 29.408 149.686 29.204C149.674 28.988 149.644 28.79 149.596 28.61C149.5 28.106 149.26 27.692 148.876 27.368C148.504 27.032 148.03 26.864 147.454 26.864C146.89 26.864 146.41 27.026 146.014 27.35C145.63 27.674 145.36 28.094 145.204 28.61C145.084 28.994 145.024 29.594 145.024 30.41C145.024 31.286 145.084 31.892 145.204 32.228C145.324 32.732 145.582 33.152 145.978 33.488C146.386 33.812 146.878 33.974 147.454 33.974C148.042 33.974 148.522 33.812 148.894 33.488C149.278 33.164 149.518 32.75 149.614 32.246ZM157.393 25.802C157.789 25.802 158.131 25.88 158.419 26.036C158.515 26.084 158.551 26.162 158.527 26.27L158.329 27.152C158.293 27.272 158.215 27.308 158.095 27.26C157.891 27.176 157.657 27.134 157.393 27.134L157.159 27.152C156.535 27.176 156.019 27.41 155.611 27.854C155.203 28.286 154.999 28.838 154.999 29.51V34.82C154.999 34.94 154.939 35 154.819 35H153.901C153.781 35 153.721 34.94 153.721 34.82V26.072C153.721 25.952 153.781 25.892 153.901 25.892H154.819C154.939 25.892 154.999 25.952 154.999 26.072V27.17C154.999 27.206 155.005 27.23 155.017 27.242C155.041 27.242 155.059 27.23 155.071 27.206C155.323 26.762 155.641 26.42 156.025 26.18C156.421 25.928 156.877 25.802 157.393 25.802ZM167.174 28.916C167.222 29.252 167.246 29.672 167.246 30.176V30.752C167.246 30.872 167.186 30.932 167.066 30.932H161.252C161.204 30.932 161.18 30.956 161.18 31.004C161.204 31.664 161.24 32.09 161.288 32.282C161.42 32.822 161.702 33.248 162.134 33.56C162.566 33.872 163.118 34.028 163.79 34.028C164.294 34.028 164.738 33.914 165.122 33.686C165.506 33.458 165.806 33.134 166.022 32.714C166.094 32.606 166.178 32.582 166.274 32.642L166.976 33.056C167.072 33.116 167.096 33.2 167.048 33.308C166.748 33.884 166.298 34.34 165.698 34.676C165.098 35 164.408 35.162 163.628 35.162C162.776 35.15 162.062 34.946 161.486 34.55C160.91 34.154 160.496 33.602 160.244 32.894C160.028 32.318 159.92 31.49 159.92 30.41C159.92 29.906 159.926 29.498 159.938 29.186C159.962 28.862 160.01 28.574 160.082 28.322C160.286 27.542 160.694 26.918 161.306 26.45C161.93 25.982 162.68 25.748 163.556 25.748C164.648 25.748 165.488 26.024 166.076 26.576C166.664 27.128 167.03 27.908 167.174 28.916ZM163.556 26.864C162.968 26.864 162.476 27.02 162.08 27.332C161.696 27.632 161.444 28.04 161.324 28.556C161.252 28.808 161.204 29.216 161.18 29.78C161.18 29.828 161.204 29.852 161.252 29.852H165.914C165.962 29.852 165.986 29.828 165.986 29.78C165.962 29.24 165.926 28.856 165.878 28.628C165.746 28.088 165.476 27.662 165.068 27.35C164.672 27.026 164.168 26.864 163.556 26.864ZM172.617 35.09C171.945 35.09 171.345 34.982 170.817 34.766C170.301 34.55 169.899 34.262 169.611 33.902C169.335 33.542 169.197 33.14 169.197 32.696V32.48C169.197 32.36 169.257 32.3 169.377 32.3H170.241C170.361 32.3 170.421 32.36 170.421 32.48V32.624C170.421 33.02 170.625 33.368 171.033 33.668C171.453 33.956 171.975 34.1 172.599 34.1C173.223 34.1 173.727 33.962 174.111 33.686C174.495 33.398 174.687 33.038 174.687 32.606C174.687 32.306 174.585 32.06 174.381 31.868C174.189 31.676 173.955 31.526 173.679 31.418C173.415 31.31 173.001 31.172 172.437 31.004C171.765 30.812 171.213 30.62 170.781 30.428C170.349 30.236 169.983 29.972 169.683 29.636C169.395 29.288 169.251 28.85 169.251 28.322C169.251 27.554 169.551 26.942 170.151 26.486C170.751 26.03 171.543 25.802 172.527 25.802C173.187 25.802 173.769 25.91 174.273 26.126C174.789 26.342 175.185 26.642 175.461 27.026C175.737 27.398 175.875 27.818 175.875 28.286V28.34C175.875 28.46 175.815 28.52 175.695 28.52H174.849C174.729 28.52 174.669 28.46 174.669 28.34V28.286C174.669 27.878 174.471 27.536 174.075 27.26C173.691 26.984 173.169 26.846 172.509 26.846C171.897 26.846 171.405 26.972 171.033 27.224C170.661 27.464 170.475 27.8 170.475 28.232C170.475 28.64 170.655 28.952 171.015 29.168C171.375 29.384 171.933 29.6 172.689 29.816C173.385 30.02 173.949 30.212 174.381 30.392C174.813 30.572 175.185 30.836 175.497 31.184C175.809 31.52 175.965 31.964 175.965 32.516C175.965 33.296 175.659 33.92 175.047 34.388C174.435 34.856 173.625 35.09 172.617 35.09ZM181.02 35.09C180.348 35.09 179.748 34.982 179.22 34.766C178.704 34.55 178.302 34.262 178.014 33.902C177.738 33.542 177.6 33.14 177.6 32.696V32.48C177.6 32.36 177.66 32.3 177.78 32.3H178.644C178.764 32.3 178.824 32.36 178.824 32.48V32.624C178.824 33.02 179.028 33.368 179.436 33.668C179.856 33.956 180.378 34.1 181.002 34.1C181.626 34.1 182.13 33.962 182.514 33.686C182.898 33.398 183.09 33.038 183.09 32.606C183.09 32.306 182.988 32.06 182.784 31.868C182.592 31.676 182.358 31.526 182.082 31.418C181.818 31.31 181.404 31.172 180.84 31.004C180.168 30.812 179.616 30.62 179.184 30.428C178.752 30.236 178.386 29.972 178.086 29.636C177.798 29.288 177.654 28.85 177.654 28.322C177.654 27.554 177.954 26.942 178.554 26.486C179.154 26.03 179.946 25.802 180.93 25.802C181.59 25.802 182.172 25.91 182.676 26.126C183.192 26.342 183.588 26.642 183.864 27.026C184.14 27.398 184.278 27.818 184.278 28.286V28.34C184.278 28.46 184.218 28.52 184.098 28.52H183.252C183.132 28.52 183.072 28.46 183.072 28.34V28.286C183.072 27.878 182.874 27.536 182.478 27.26C182.094 26.984 181.572 26.846 180.912 26.846C180.3 26.846 179.808 26.972 179.436 27.224C179.064 27.464 178.878 27.8 178.878 28.232C178.878 28.64 179.058 28.952 179.418 29.168C179.778 29.384 180.336 29.6 181.092 29.816C181.788 30.02 182.352 30.212 182.784 30.392C183.216 30.572 183.588 30.836 183.9 31.184C184.212 31.52 184.368 31.964 184.368 32.516C184.368 33.296 184.062 33.92 183.45 34.388C182.838 34.856 182.028 35.09 181.02 35.09ZM187.562 24.236C187.274 24.236 187.034 24.14 186.842 23.948C186.65 23.756 186.554 23.516 186.554 23.228C186.554 22.928 186.65 22.688 186.842 22.508C187.034 22.316 187.274 22.22 187.562 22.22C187.85 22.22 188.09 22.316 188.282 22.508C188.474 22.688 188.57 22.928 188.57 23.228C188.57 23.516 188.474 23.756 188.282 23.948C188.09 24.14 187.85 24.236 187.562 24.236ZM187.058 34.982C186.938 34.982 186.878 34.922 186.878 34.802V26.054C186.878 25.934 186.938 25.874 187.058 25.874H187.976C188.096 25.874 188.156 25.934 188.156 26.054V34.802C188.156 34.922 188.096 34.982 187.976 34.982H187.058ZM194.76 35.144C193.896 35.144 193.152 34.922 192.528 34.478C191.904 34.034 191.472 33.422 191.232 32.642C191.064 32.09 190.98 31.352 190.98 30.428C190.98 29.504 191.064 28.772 191.232 28.232C191.46 27.464 191.886 26.858 192.51 26.414C193.134 25.97 193.89 25.748 194.778 25.748C195.63 25.748 196.362 25.97 196.974 26.414C197.598 26.858 198.024 27.458 198.252 28.214C198.42 28.73 198.504 29.468 198.504 30.428C198.504 31.4 198.42 32.138 198.252 32.642C198.024 33.422 197.598 34.034 196.974 34.478C196.362 34.922 195.624 35.144 194.76 35.144ZM194.76 34.028C195.336 34.028 195.828 33.872 196.236 33.56C196.644 33.236 196.92 32.804 197.064 32.264C197.172 31.832 197.226 31.226 197.226 30.446C197.226 29.654 197.178 29.048 197.082 28.628C196.938 28.088 196.656 27.662 196.236 27.35C195.828 27.026 195.33 26.864 194.742 26.864C194.154 26.864 193.656 27.026 193.248 27.35C192.84 27.662 192.564 28.088 192.42 28.628C192.324 29.048 192.276 29.654 192.276 30.446C192.276 31.238 192.324 31.844 192.42 32.264C192.552 32.804 192.822 33.236 193.23 33.56C193.65 33.872 194.16 34.028 194.76 34.028ZM204.874 25.766C205.834 25.766 206.596 26.048 207.16 26.612C207.736 27.176 208.024 27.932 208.024 28.88V34.82C208.024 34.94 207.964 35 207.844 35H206.926C206.806 35 206.746 34.94 206.746 34.82V29.132C206.746 28.472 206.542 27.932 206.134 27.512C205.738 27.092 205.222 26.882 204.586 26.882C203.926 26.882 203.392 27.086 202.984 27.494C202.576 27.902 202.372 28.436 202.372 29.096V34.82C202.372 34.94 202.312 35 202.192 35H201.274C201.154 35 201.094 34.94 201.094 34.82V26.072C201.094 25.952 201.154 25.892 201.274 25.892H202.192C202.312 25.892 202.372 25.952 202.372 26.072V26.846C202.372 26.87 202.378 26.888 202.39 26.9C202.414 26.912 202.432 26.906 202.444 26.882C202.972 26.138 203.782 25.766 204.874 25.766Z" fill="black"/>
<path d="M-1 14.8H98.5649V15.7H-1V14.8Z" fill="black"/>
</svg>
