<svg width="95" height="36" viewBox="0 0 95 36" fill="none" xmlns="http://www.w3.org/2000/svg">
<path d="M2.736 11.794C2.7 11.854 2.712 11.884 2.772 11.884H8.424C8.544 11.884 8.604 11.944 8.604 12.064V12.82C8.604 12.94 8.544 13 8.424 13H1.242C1.122 13 1.062 12.94 1.062 12.82V12.064C1.062 11.98 1.092 11.908 1.152 11.848C1.56 11.368 2.478 10.24 3.906 8.464L5.238 6.808C6.366 5.38 6.93 4.27 6.93 3.478C6.93 2.842 6.714 2.332 6.282 1.948C5.85 1.564 5.286 1.372 4.59 1.372C3.906 1.372 3.354 1.57 2.934 1.966C2.514 2.35 2.31 2.86 2.322 3.496V4.054C2.322 4.174 2.262 4.234 2.142 4.234H1.206C1.086 4.234 1.026 4.174 1.026 4.054V3.334C1.05 2.41 1.392 1.666 2.052 1.102C2.724 0.538 3.57 0.256 4.59 0.256C5.31 0.256 5.946 0.394 6.498 0.669999C7.05 0.945999 7.476 1.33 7.776 1.822C8.076 2.302 8.226 2.848 8.226 3.46C8.226 4.48 7.662 5.71 6.534 7.15C5.946 7.906 4.812 9.298 3.132 11.326L2.736 11.794ZM12.3684 13C12.3084 13 12.2604 12.982 12.2244 12.946C12.2004 12.898 12.2004 12.844 12.2244 12.784L16.3824 1.606C16.3944 1.582 16.3944 1.564 16.3824 1.552C16.3704 1.528 16.3524 1.516 16.3284 1.516H11.4684C11.4204 1.516 11.3964 1.54 11.3964 1.588V2.416C11.3964 2.536 11.3364 2.596 11.2164 2.596H10.4784C10.3584 2.596 10.2984 2.536 10.2984 2.416L10.3164 0.579999C10.3164 0.459999 10.3764 0.399999 10.4964 0.399999H17.5884C17.7084 0.399999 17.7684 0.459999 17.7684 0.579999V1.408C17.7684 1.456 17.7564 1.528 17.7324 1.624L13.5924 12.856C13.5564 12.952 13.4844 13 13.3764 13H12.3684ZM17.8415 13C17.7095 13 17.6615 12.934 17.6975 12.802L21.6755 0.543999C21.7115 0.447999 21.7835 0.399999 21.8915 0.399999H22.7915C22.9235 0.399999 22.9715 0.465999 22.9355 0.598L18.9575 12.856C18.9215 12.952 18.8495 13 18.7415 13H17.8415ZM29.3685 13.18C28.2165 13.18 27.2985 12.85 26.6145 12.19C25.9305 11.53 25.5885 10.648 25.5885 9.544V3.856C25.5885 2.752 25.9305 1.876 26.6145 1.228C27.2985 0.567999 28.2165 0.237999 29.3685 0.237999C30.5325 0.237999 31.4625 0.567999 32.1585 1.228C32.8545 1.888 33.2025 2.764 33.2025 3.856V9.544C33.2025 10.648 32.8545 11.53 32.1585 12.19C31.4625 12.85 30.5325 13.18 29.3685 13.18ZM29.3685 12.064C30.1365 12.064 30.7545 11.842 31.2225 11.398C31.6905 10.954 31.9245 10.36 31.9245 9.616V3.802C31.9245 3.07 31.6905 2.482 31.2225 2.038C30.7665 1.594 30.1485 1.372 29.3685 1.372C28.6125 1.372 28.0065 1.594 27.5505 2.038C27.0945 2.482 26.8665 3.07 26.8665 3.802V9.616C26.8665 10.36 27.0945 10.954 27.5505 11.398C28.0065 11.842 28.6125 12.064 29.3685 12.064ZM43.1283 8.374C43.2483 8.374 43.3083 8.434 43.3083 8.554V9.346C43.3083 9.466 43.2483 9.526 43.1283 9.526H42.3543C42.3063 9.526 42.2823 9.55 42.2823 9.598V12.82C42.2823 12.94 42.2223 13 42.1023 13H41.1843C41.0643 13 41.0043 12.94 41.0043 12.82V9.598C41.0043 9.55 40.9803 9.526 40.9323 9.526H35.5503C35.4303 9.526 35.3703 9.466 35.3703 9.346V8.68C35.3703 8.62 35.3883 8.548 35.4243 8.464L39.1143 0.526C39.1503 0.441999 39.2163 0.399999 39.3123 0.399999H40.2663C40.3263 0.399999 40.3683 0.423999 40.3923 0.471999C40.4283 0.508 40.4343 0.556 40.4103 0.616L36.8283 8.284C36.8163 8.308 36.8163 8.332 36.8283 8.356C36.8403 8.368 36.8583 8.374 36.8823 8.374H40.9323C40.9803 8.374 41.0043 8.35 41.0043 8.302V5.404C41.0043 5.284 41.0643 5.224 41.1843 5.224H42.1023C42.2223 5.224 42.2823 5.284 42.2823 5.404V8.302C42.2823 8.35 42.3063 8.374 42.3543 8.374H43.1283ZM45.1403 13C45.0083 13 44.9603 12.934 44.9963 12.802L48.9743 0.543999C49.0103 0.447999 49.0823 0.399999 49.1903 0.399999H50.0903C50.2223 0.399999 50.2703 0.465999 50.2343 0.598L46.2563 12.856C46.2203 12.952 46.1483 13 46.0403 13H45.1403ZM54.3454 11.794C54.3094 11.854 54.3214 11.884 54.3814 11.884H60.0334C60.1534 11.884 60.2134 11.944 60.2134 12.064V12.82C60.2134 12.94 60.1534 13 60.0334 13H52.8514C52.7314 13 52.6714 12.94 52.6714 12.82V12.064C52.6714 11.98 52.7014 11.908 52.7614 11.848C53.1694 11.368 54.0874 10.24 55.5154 8.464L56.8474 6.808C57.9754 5.38 58.5394 4.27 58.5394 3.478C58.5394 2.842 58.3234 2.332 57.8914 1.948C57.4594 1.564 56.8954 1.372 56.1994 1.372C55.5154 1.372 54.9634 1.57 54.5434 1.966C54.1234 2.35 53.9194 2.86 53.9314 3.496V4.054C53.9314 4.174 53.8714 4.234 53.7514 4.234H52.8154C52.6954 4.234 52.6354 4.174 52.6354 4.054V3.334C52.6594 2.41 53.0014 1.666 53.6614 1.102C54.3334 0.538 55.1794 0.256 56.1994 0.256C56.9194 0.256 57.5554 0.394 58.1074 0.669999C58.6594 0.945999 59.0854 1.33 59.3854 1.822C59.6854 2.302 59.8354 2.848 59.8354 3.46C59.8354 4.48 59.2714 5.71 58.1434 7.15C57.5554 7.906 56.4214 9.298 54.7414 11.326L54.3454 11.794ZM66.3178 13.18C65.1658 13.18 64.2478 12.85 63.5638 12.19C62.8798 11.53 62.5378 10.648 62.5378 9.544V3.856C62.5378 2.752 62.8798 1.876 63.5638 1.228C64.2478 0.567999 65.1658 0.237999 66.3178 0.237999C67.4818 0.237999 68.4118 0.567999 69.1078 1.228C69.8038 1.888 70.1518 2.764 70.1518 3.856V9.544C70.1518 10.648 69.8038 11.53 69.1078 12.19C68.4118 12.85 67.4818 13.18 66.3178 13.18ZM66.3178 12.064C67.0858 12.064 67.7038 11.842 68.1718 11.398C68.6398 10.954 68.8738 10.36 68.8738 9.616V3.802C68.8738 3.07 68.6398 2.482 68.1718 2.038C67.7158 1.594 67.0978 1.372 66.3178 1.372C65.5618 1.372 64.9558 1.594 64.4998 2.038C64.0438 2.482 63.8158 3.07 63.8158 3.802V9.616C63.8158 10.36 64.0438 10.954 64.4998 11.398C64.9558 11.842 65.5618 12.064 66.3178 12.064ZM74.1735 11.794C74.1375 11.854 74.1495 11.884 74.2095 11.884H79.8615C79.9815 11.884 80.0415 11.944 80.0415 12.064V12.82C80.0415 12.94 79.9815 13 79.8615 13H72.6795C72.5595 13 72.4995 12.94 72.4995 12.82V12.064C72.4995 11.98 72.5295 11.908 72.5895 11.848C72.9975 11.368 73.9155 10.24 75.3435 8.464L76.6755 6.808C77.8035 5.38 78.3675 4.27 78.3675 3.478C78.3675 2.842 78.1515 2.332 77.7195 1.948C77.2875 1.564 76.7235 1.372 76.0275 1.372C75.3435 1.372 74.7915 1.57 74.3715 1.966C73.9515 2.35 73.7475 2.86 73.7595 3.496V4.054C73.7595 4.174 73.6995 4.234 73.5795 4.234H72.6435C72.5235 4.234 72.4635 4.174 72.4635 4.054V3.334C72.4875 2.41 72.8295 1.666 73.4895 1.102C74.1615 0.538 75.0075 0.256 76.0275 0.256C76.7475 0.256 77.3835 0.394 77.9355 0.669999C78.4875 0.945999 78.9135 1.33 79.2135 1.822C79.5135 2.302 79.6635 2.848 79.6635 3.46C79.6635 4.48 79.0995 5.71 77.9715 7.15C77.3835 7.906 76.2495 9.298 74.5695 11.326L74.1735 11.794ZM83.8239 11.794C83.7879 11.854 83.7999 11.884 83.8599 11.884H89.5119C89.6319 11.884 89.6919 11.944 89.6919 12.064V12.82C89.6919 12.94 89.6319 13 89.5119 13H82.3299C82.2099 13 82.1499 12.94 82.1499 12.82V12.064C82.1499 11.98 82.1799 11.908 82.2399 11.848C82.6479 11.368 83.5659 10.24 84.9939 8.464L86.3259 6.808C87.4539 5.38 88.0179 4.27 88.0179 3.478C88.0179 2.842 87.8019 2.332 87.3699 1.948C86.9379 1.564 86.3739 1.372 85.6779 1.372C84.9939 1.372 84.4419 1.57 84.0219 1.966C83.6019 2.35 83.3979 2.86 83.4099 3.496V4.054C83.4099 4.174 83.3499 4.234 83.2299 4.234H82.2939C82.1739 4.234 82.1139 4.174 82.1139 4.054V3.334C82.1379 2.41 82.4799 1.666 83.1399 1.102C83.8119 0.538 84.6579 0.256 85.6779 0.256C86.3979 0.256 87.0339 0.394 87.5859 0.669999C88.1379 0.945999 88.5639 1.33 88.8639 1.822C89.1639 2.302 89.3139 2.848 89.3139 3.46C89.3139 4.48 88.7499 5.71 87.6219 7.15C87.0339 7.906 85.8999 9.298 84.2199 11.326L83.8239 11.794ZM93.7803 6.7C93.4803 6.7 93.2343 6.604 93.0423 6.412C92.8623 6.22 92.7723 5.98 92.7723 5.692C92.7723 5.392 92.8623 5.152 93.0423 4.972C93.2343 4.78 93.4803 4.684 93.7803 4.684C94.0683 4.684 94.3083 4.78 94.5003 4.972C94.6923 5.152 94.7883 5.392 94.7883 5.692C94.7883 5.98 94.6923 6.22 94.5003 6.412C94.3083 6.604 94.0683 6.7 93.7803 6.7ZM93.7803 12.766C93.4803 12.766 93.2343 12.67 93.0423 12.478C92.8623 12.286 92.7723 12.046 92.7723 11.758C92.7723 11.458 92.8623 11.218 93.0423 11.038C93.2343 10.846 93.4803 10.75 93.7803 10.75C94.0683 10.75 94.3083 10.846 94.5003 11.038C94.6923 11.218 94.7883 11.458 94.7883 11.758C94.7883 12.046 94.6923 12.286 94.5003 12.478C94.3083 12.67 94.0683 12.766 93.7803 12.766ZM9.162 35C9.054 35 8.982 34.952 8.946 34.856L8.226 32.588C8.214 32.552 8.19 32.534 8.154 32.534H2.772C2.736 32.534 2.712 32.552 2.7 32.588L1.98 34.856C1.944 34.952 1.872 35 1.764 35H0.792C0.66 35 0.612 34.934 0.648 34.802L4.626 22.544C4.662 22.448 4.734 22.4 4.842 22.4H6.066C6.174 22.4 6.246 22.448 6.282 22.544L10.278 34.802L10.296 34.874C10.296 34.958 10.242 35 10.134 35H9.162ZM3.06 31.4C3.048 31.424 3.048 31.448 3.06 31.472C3.084 31.484 3.108 31.49 3.132 31.49H7.776C7.8 31.49 7.818 31.484 7.83 31.472C7.854 31.448 7.86 31.424 7.848 31.4L5.508 24.056C5.496 24.032 5.478 24.02 5.454 24.02C5.43 24.02 5.412 24.032 5.4 24.056L3.06 31.4ZM20.1316 22.58C20.1316 22.46 20.1916 22.4 20.3116 22.4H21.2296C21.3496 22.4 21.4096 22.46 21.4096 22.58V34.82C21.4096 34.94 21.3496 35 21.2296 35H20.3296C20.2456 35 20.1736 34.958 20.1136 34.874L13.9756 24.884C13.9636 24.848 13.9456 24.836 13.9216 24.848C13.8976 24.848 13.8856 24.866 13.8856 24.902L13.9036 34.82C13.9036 34.94 13.8436 35 13.7236 35H12.8056C12.6856 35 12.6256 34.94 12.6256 34.82V22.58C12.6256 22.46 12.6856 22.4 12.8056 22.4H13.7056C13.7896 22.4 13.8616 22.442 13.9216 22.526L20.0596 32.516C20.0716 32.552 20.0896 32.57 20.1136 32.57C20.1376 32.558 20.1496 32.534 20.1496 32.498L20.1316 22.58ZM28.6777 35.144C27.8257 35.144 27.0757 34.97 26.4277 34.622C25.7797 34.274 25.2757 33.788 24.9157 33.164C24.5677 32.528 24.3937 31.796 24.3937 30.968V26.432C24.3937 25.604 24.5677 24.878 24.9157 24.254C25.2757 23.618 25.7797 23.126 26.4277 22.778C27.0757 22.43 27.8257 22.256 28.6777 22.256C29.5297 22.256 30.2797 22.43 30.9277 22.778C31.5877 23.126 32.0917 23.618 32.4397 24.254C32.7997 24.878 32.9797 25.604 32.9797 26.432V30.968C32.9797 31.796 32.7997 32.528 32.4397 33.164C32.0917 33.788 31.5877 34.274 30.9277 34.622C30.2797 34.97 29.5297 35.144 28.6777 35.144ZM28.6777 34.046C29.5897 34.046 30.3217 33.77 30.8737 33.218C31.4257 32.666 31.7017 31.934 31.7017 31.022V26.414C31.7017 25.502 31.4257 24.77 30.8737 24.218C30.3217 23.654 29.5897 23.372 28.6777 23.372C27.7777 23.372 27.0517 23.654 26.4997 24.218C25.9477 24.77 25.6717 25.502 25.6717 26.414V31.022C25.6717 31.934 25.9477 32.666 26.4997 33.218C27.0517 33.77 27.7777 34.046 28.6777 34.046ZM38.9599 35C38.8519 35 38.7799 34.952 38.7439 34.856L34.8199 22.598L34.8019 22.526C34.8019 22.442 34.8559 22.4 34.9639 22.4H35.9359C36.0439 22.4 36.1159 22.448 36.1519 22.544L39.4279 33.092C39.4399 33.116 39.4579 33.128 39.4819 33.128C39.5059 33.128 39.5239 33.116 39.5359 33.092L42.8119 22.544C42.8479 22.448 42.9199 22.4 43.0279 22.4H43.9819C44.1139 22.4 44.1619 22.466 44.1259 22.598L40.1659 34.856C40.1299 34.952 40.0579 35 39.9499 35H38.9599ZM52.2636 35C52.1556 35 52.0836 34.952 52.0476 34.856L51.3276 32.588C51.3156 32.552 51.2916 32.534 51.2556 32.534H45.8736C45.8376 32.534 45.8136 32.552 45.8016 32.588L45.0816 34.856C45.0456 34.952 44.9736 35 44.8656 35H43.8936C43.7616 35 43.7136 34.934 43.7496 34.802L47.7276 22.544C47.7636 22.448 47.8356 22.4 47.9436 22.4H49.1676C49.2756 22.4 49.3476 22.448 49.3836 22.544L53.3796 34.802L53.3976 34.874C53.3976 34.958 53.3436 35 53.2356 35H52.2636ZM46.1616 31.4C46.1496 31.424 46.1496 31.448 46.1616 31.472C46.1856 31.484 46.2096 31.49 46.2336 31.49H50.8776C50.9016 31.49 50.9196 31.484 50.9316 31.472C50.9556 31.448 50.9616 31.424 50.9496 31.4L48.6096 24.056C48.5976 24.032 48.5796 24.02 48.5556 24.02C48.5316 24.02 48.5136 24.032 48.5016 24.056L46.1616 31.4Z" fill="black"/>
<path d="M0 14.8H96.8403V15.7H0V14.8Z" fill="black"/>
</svg>
