<svg width="375" height="33" viewBox="0 0 375 33" fill="none" xmlns="http://www.w3.org/2000/svg">
<rect width="381" height="33" fill="#45A5F8"/>
<path d="M72.3291 0H292.372C290.256 0.6027 288.773 2.4952 288.699 4.6845L288.671 5.5618C288.671 19.0587 277.677 30 264.116 30H100.585C87.0238 30 76.0296 19.0587 76.0296 5.5618L76.0015 4.6845C75.9281 2.4952 74.4452 0.6027 72.3291 0Z" fill="black"/>
<path opacity="0.35" d="M344.326 13.2856C344.326 12.0233 345.356 11 346.626 11H364.323C365.594 11 366.624 12.0233 366.624 13.2856V19.6153C366.624 20.8777 365.594 21.901 364.323 21.901H346.626C345.356 21.901 344.326 20.8777 344.326 19.6153V13.2856Z" stroke="black"/>
<path opacity="0.4" d="M368.216 14.3408V18.5606C369.071 18.2031 369.627 17.3717 369.627 16.4507C369.627 15.5296 369.071 14.6982 368.216 14.3408Z" fill="black"/>
<path d="M345.29 13.427C345.29 12.6814 345.847 12.0769 346.535 12.0769H364.418C365.107 12.0769 365.664 12.6814 365.664 13.427V19.7268C365.664 20.4724 365.107 21.0769 364.418 21.0769H346.535C345.847 21.0769 345.29 20.4724 345.29 19.7268V13.427Z" fill="black"/>
<path fill-rule="evenodd" clip-rule="evenodd" d="M331.041 12.4025C333.393 12.4026 335.658 13.3009 337.361 14.9115C337.491 15.0358 337.696 15.0343 337.823 14.908L339.05 13.6772C339.113 13.6131 339.15 13.5263 339.149 13.436C339.149 13.3457 339.111 13.2595 339.047 13.1961C334.571 8.93465 327.51 8.93465 323.035 13.1961C322.97 13.2594 322.933 13.3457 322.933 13.436C322.932 13.5263 322.968 13.6131 323.031 13.6772L324.258 14.908C324.385 15.0345 324.592 15.0361 324.72 14.9115C326.425 13.3008 328.688 12.4025 331.041 12.4025ZM331.041 16.4067C332.334 16.4066 333.581 16.884 334.538 17.7461C334.669 17.8685 334.872 17.8657 334.999 17.7401L336.224 16.5094C336.29 16.4448 336.325 16.3573 336.324 16.2662C336.323 16.1753 336.286 16.0884 336.22 16.0251C333.303 13.3282 328.784 13.3282 325.864 16.0251C325.799 16.0884 325.761 16.1753 325.76 16.2663C325.759 16.3574 325.796 16.4449 325.86 16.5094L327.085 17.7401C327.212 17.8657 327.416 17.8685 327.546 17.7461C328.504 16.8846 329.749 16.4073 331.041 16.4067ZM333.496 19.1009C333.499 19.1921 333.463 19.2801 333.396 19.344L331.276 21.4705C331.215 21.5329 331.13 21.5682 331.041 21.5682C330.952 21.5682 330.868 21.5329 330.806 21.4705L328.685 19.344C328.619 19.2801 328.583 19.192 328.585 19.1008C328.587 19.0095 328.627 18.9231 328.695 18.8619C330.049 17.7237 332.033 17.7237 333.387 18.8619C333.455 18.9232 333.495 19.0096 333.496 19.1009Z" fill="black"/>
<path fill-rule="evenodd" clip-rule="evenodd" d="M316.492 11H315.431C314.845 11 314.369 11.4723 314.369 12.0549V21.1978C314.369 21.7805 314.845 22.2528 315.431 22.2528H316.492C317.079 22.2528 317.555 21.7805 317.555 21.1978V12.0549C317.555 11.4723 317.079 11 316.492 11ZM310.476 13.4616H311.537C312.124 13.4616 312.599 13.9339 312.599 14.5166V21.1978C312.599 21.7805 312.124 22.2528 311.537 22.2528H310.476C309.889 22.2528 309.413 21.7805 309.413 21.1978V14.5166C309.413 13.9339 309.889 13.4616 310.476 13.4616ZM306.583 15.9231H305.52C304.934 15.9231 304.459 16.3954 304.459 16.9781V21.1978C304.459 21.7805 304.934 22.2528 305.52 22.2528H306.583C307.169 22.2528 307.645 21.7805 307.645 21.1978V16.9781C307.645 16.3954 307.169 15.9231 306.583 15.9231ZM301.627 18.033H300.565C299.979 18.033 299.503 18.5053 299.503 19.088V21.1978C299.503 21.7805 299.979 22.2528 300.565 22.2528H301.627C302.213 22.2528 302.688 21.7805 302.688 21.1978V19.088C302.688 18.5053 302.213 18.033 301.627 18.033Z" fill="black"/>
<path d="M25.5614 10C23.1273 10 21.3931 11.6535 21.3931 13.9174V13.9328C21.3931 16.0499 22.9018 17.6107 25.056 17.6107C26.5958 17.6107 27.5757 16.8304 27.9879 15.9495H28.1434C28.1434 16.0345 28.1357 16.1195 28.1357 16.2045C28.0501 18.337 27.2957 20.0678 25.5148 20.0678C24.5271 20.0678 23.835 19.5578 23.5395 18.7775L23.5162 18.7003H21.5408L21.5564 18.7852C21.9141 20.4928 23.454 21.7059 25.5148 21.7059C28.3379 21.7059 30.041 19.4806 30.041 15.7254V15.71C30.041 11.6921 27.9568 10 25.5614 10ZM25.5537 16.0808C24.2783 16.0808 23.3529 15.1536 23.3529 13.8633V13.8478C23.3529 12.6038 24.3404 11.6226 25.577 11.6226C26.8214 11.6226 27.7935 12.6193 27.7935 13.8942V13.9096C27.7935 15.1691 26.8214 16.0808 25.5537 16.0808ZM33.0409 14.2033C33.7563 14.2033 34.2773 13.6625 34.2773 12.9824C34.2773 12.2948 33.7563 11.7617 33.0409 11.7617C32.3332 11.7617 31.8042 12.2948 31.8042 12.9824C31.8042 13.6625 32.3332 14.2033 33.0409 14.2033ZM33.0409 19.9364C33.7563 19.9364 34.2773 19.4034 34.2773 18.7157C34.2773 18.0279 33.7563 17.4949 33.0409 17.4949C32.3332 17.4949 31.8042 18.0279 31.8042 18.7157C31.8042 19.4034 32.3332 19.9364 33.0409 19.9364ZM41.4845 21.4277H43.4054V19.2874H44.9141V17.6416H43.4054V10.2782H40.5668C39.0425 12.5807 37.4483 15.1459 35.9939 17.6571V19.2874H41.4845V21.4277ZM37.8605 17.688V17.5721C38.9492 15.6791 40.248 13.616 41.399 11.8698H41.5156V17.688H37.8605ZM49.0339 21.4277H51.0404V10.2782H49.0416L46.1098 12.3257V14.2033L48.9017 12.2407H49.0339V21.4277Z" fill="black"/>
</svg>
