<svg width="375" height="65" viewBox="0 0 375 65" fill="none" xmlns="http://www.w3.org/2000/svg">
<g filter="url(#filter0_d_264_218)">
<rect width="375" height="57" fill="#45A5F8"/>
</g>
<path d="M148.532 35C148.412 35 148.334 34.94 148.298 34.82L147.758 33.056C147.734 33.008 147.704 32.984 147.668 32.984H143.24C143.204 32.984 143.174 33.008 143.15 33.056L142.628 34.82C142.592 34.94 142.514 35 142.394 35H140.108C140.036 35 139.982 34.982 139.946 34.946C139.91 34.898 139.904 34.832 139.928 34.748L143.816 22.58C143.852 22.46 143.93 22.4 144.05 22.4H146.876C146.996 22.4 147.074 22.46 147.11 22.58L150.998 34.748C151.01 34.772 151.016 34.802 151.016 34.838C151.016 34.946 150.95 35 150.818 35H148.532ZM143.798 30.914C143.786 30.986 143.81 31.022 143.87 31.022H147.038C147.11 31.022 147.134 30.986 147.11 30.914L145.49 25.568C145.478 25.52 145.46 25.502 145.436 25.514C145.412 25.514 145.394 25.532 145.382 25.568L143.798 30.914ZM160.608 35C160.488 35 160.41 34.94 160.374 34.82L159.834 33.056C159.81 33.008 159.78 32.984 159.744 32.984H155.316C155.28 32.984 155.25 33.008 155.226 33.056L154.704 34.82C154.668 34.94 154.59 35 154.47 35H152.184C152.112 35 152.058 34.982 152.022 34.946C151.986 34.898 151.98 34.832 152.004 34.748L155.892 22.58C155.928 22.46 156.006 22.4 156.126 22.4H158.952C159.072 22.4 159.15 22.46 159.186 22.58L163.074 34.748C163.086 34.772 163.092 34.802 163.092 34.838C163.092 34.946 163.026 35 162.894 35H160.608ZM155.874 30.914C155.862 30.986 155.886 31.022 155.946 31.022H159.114C159.186 31.022 159.21 30.986 159.186 30.914L157.566 25.568C157.554 25.52 157.536 25.502 157.512 25.514C157.488 25.514 157.47 25.532 157.458 25.568L155.874 30.914ZM169 35.144C168.076 35.144 167.26 34.964 166.552 34.604C165.856 34.244 165.31 33.74 164.914 33.092C164.53 32.432 164.338 31.676 164.338 30.824V22.616C164.338 22.556 164.356 22.508 164.392 22.472C164.44 22.424 164.494 22.4 164.554 22.4H166.66C166.72 22.4 166.768 22.424 166.804 22.472C166.852 22.508 166.876 22.556 166.876 22.616V30.842C166.876 31.478 167.068 31.994 167.452 32.39C167.848 32.774 168.364 32.966 169 32.966C169.636 32.966 170.146 32.774 170.53 32.39C170.926 31.994 171.124 31.478 171.124 30.842V22.616C171.124 22.556 171.142 22.508 171.178 22.472C171.226 22.424 171.28 22.4 171.34 22.4H173.446C173.506 22.4 173.554 22.424 173.59 22.472C173.638 22.508 173.662 22.556 173.662 22.616V30.824C173.662 31.676 173.464 32.432 173.068 33.092C172.684 33.74 172.138 34.244 171.43 34.604C170.734 34.964 169.924 35.144 169 35.144ZM187.452 22.544C187.512 22.448 187.596 22.4 187.704 22.4H189.81C189.87 22.4 189.918 22.424 189.954 22.472C190.002 22.508 190.026 22.556 190.026 22.616V34.784C190.026 34.844 190.002 34.898 189.954 34.946C189.918 34.982 189.87 35 189.81 35H187.704C187.644 35 187.59 34.982 187.542 34.946C187.506 34.898 187.488 34.844 187.488 34.784V26.846C187.488 26.798 187.476 26.774 187.452 26.774C187.428 26.774 187.404 26.792 187.38 26.828L185.472 29.816C185.412 29.912 185.328 29.96 185.22 29.96H184.158C184.05 29.96 183.966 29.912 183.906 29.816L181.998 26.828C181.974 26.792 181.95 26.78 181.926 26.792C181.902 26.792 181.89 26.816 181.89 26.864V34.784C181.89 34.844 181.866 34.898 181.818 34.946C181.782 34.982 181.734 35 181.674 35H179.568C179.508 35 179.454 34.982 179.406 34.946C179.37 34.898 179.352 34.844 179.352 34.784V22.616C179.352 22.556 179.37 22.508 179.406 22.472C179.454 22.424 179.508 22.4 179.568 22.4H181.674C181.782 22.4 181.866 22.448 181.926 22.544L184.626 26.738C184.662 26.81 184.698 26.81 184.734 26.738L187.452 22.544ZM196.143 35.144C195.135 35.144 194.271 34.88 193.551 34.352C192.831 33.824 192.339 33.104 192.075 32.192C191.907 31.628 191.823 31.016 191.823 30.356C191.823 29.648 191.907 29.012 192.075 28.448C192.351 27.56 192.849 26.864 193.569 26.36C194.289 25.856 195.153 25.604 196.161 25.604C197.145 25.604 197.985 25.856 198.681 26.36C199.377 26.852 199.869 27.542 200.157 28.43C200.349 29.03 200.445 29.66 200.445 30.32C200.445 30.968 200.361 31.574 200.193 32.138C199.929 33.074 199.437 33.812 198.717 34.352C198.009 34.88 197.151 35.144 196.143 35.144ZM196.143 32.966C196.539 32.966 196.875 32.846 197.151 32.606C197.427 32.366 197.625 32.036 197.745 31.616C197.841 31.232 197.889 30.812 197.889 30.356C197.889 29.852 197.841 29.426 197.745 29.078C197.613 28.67 197.409 28.352 197.133 28.124C196.857 27.896 196.521 27.782 196.125 27.782C195.717 27.782 195.375 27.896 195.099 28.124C194.835 28.352 194.643 28.67 194.523 29.078C194.427 29.366 194.379 29.792 194.379 30.356C194.379 30.896 194.421 31.316 194.505 31.616C194.625 32.036 194.823 32.366 195.099 32.606C195.387 32.846 195.735 32.966 196.143 32.966ZM206.163 35.144C205.155 35.144 204.291 34.88 203.571 34.352C202.851 33.824 202.359 33.104 202.095 32.192C201.927 31.628 201.843 31.016 201.843 30.356C201.843 29.648 201.927 29.012 202.095 28.448C202.371 27.56 202.869 26.864 203.589 26.36C204.309 25.856 205.173 25.604 206.181 25.604C207.165 25.604 208.005 25.856 208.701 26.36C209.397 26.852 209.889 27.542 210.177 28.43C210.369 29.03 210.465 29.66 210.465 30.32C210.465 30.968 210.381 31.574 210.213 32.138C209.949 33.074 209.457 33.812 208.737 34.352C208.029 34.88 207.171 35.144 206.163 35.144ZM206.163 32.966C206.559 32.966 206.895 32.846 207.171 32.606C207.447 32.366 207.645 32.036 207.765 31.616C207.861 31.232 207.909 30.812 207.909 30.356C207.909 29.852 207.861 29.426 207.765 29.078C207.633 28.67 207.429 28.352 207.153 28.124C206.877 27.896 206.541 27.782 206.145 27.782C205.737 27.782 205.395 27.896 205.119 28.124C204.855 28.352 204.663 28.67 204.543 29.078C204.447 29.366 204.399 29.792 204.399 30.356C204.399 30.896 204.441 31.316 204.525 31.616C204.645 32.036 204.843 32.366 205.119 32.606C205.407 32.846 205.755 32.966 206.163 32.966ZM217.838 22.616C217.838 22.556 217.856 22.508 217.892 22.472C217.94 22.424 217.994 22.4 218.054 22.4H220.16C220.22 22.4 220.268 22.424 220.304 22.472C220.352 22.508 220.376 22.556 220.376 22.616V34.784C220.376 34.844 220.352 34.898 220.304 34.946C220.268 34.982 220.22 35 220.16 35H218.054C217.994 35 217.94 34.982 217.892 34.946C217.856 34.898 217.838 34.844 217.838 34.784V34.19C217.838 34.154 217.826 34.136 217.802 34.136C217.778 34.124 217.754 34.13 217.73 34.154C217.226 34.814 216.536 35.144 215.66 35.144C214.82 35.144 214.094 34.91 213.482 34.442C212.882 33.974 212.45 33.332 212.186 32.516C211.982 31.892 211.88 31.166 211.88 30.338C211.88 29.486 211.988 28.742 212.204 28.106C212.48 27.338 212.912 26.732 213.5 26.288C214.1 25.832 214.838 25.604 215.714 25.604C216.578 25.604 217.25 25.904 217.73 26.504C217.754 26.54 217.778 26.552 217.802 26.54C217.826 26.528 217.838 26.504 217.838 26.468V22.616ZM217.46 32.192C217.7 31.748 217.82 31.142 217.82 30.374C217.82 29.57 217.688 28.94 217.424 28.484C217.148 28.016 216.746 27.782 216.218 27.782C215.654 27.782 215.228 28.016 214.94 28.484C214.64 28.952 214.49 29.588 214.49 30.392C214.49 31.112 214.616 31.712 214.868 32.192C215.168 32.708 215.612 32.966 216.2 32.966C216.74 32.966 217.16 32.708 217.46 32.192ZM222.507 35C222.447 35 222.393 34.982 222.345 34.946C222.309 34.898 222.291 34.844 222.291 34.784V22.616C222.291 22.556 222.309 22.508 222.345 22.472C222.393 22.424 222.447 22.4 222.507 22.4H224.613C224.673 22.4 224.721 22.424 224.757 22.472C224.805 22.508 224.829 22.556 224.829 22.616V34.784C224.829 34.844 224.805 34.898 224.757 34.946C224.721 34.982 224.673 35 224.613 35H222.507ZM234.876 29.42C234.948 29.876 234.972 30.386 234.948 30.95C234.936 31.094 234.858 31.166 234.714 31.166H229.152C229.08 31.166 229.056 31.196 229.08 31.256C229.116 31.496 229.182 31.736 229.278 31.976C229.59 32.648 230.226 32.984 231.186 32.984C231.954 32.972 232.56 32.66 233.004 32.048C233.052 31.976 233.106 31.94 233.166 31.94C233.202 31.94 233.244 31.964 233.292 32.012L234.588 33.29C234.648 33.35 234.678 33.404 234.678 33.452C234.678 33.476 234.654 33.524 234.606 33.596C234.21 34.088 233.7 34.472 233.076 34.748C232.452 35.012 231.768 35.144 231.024 35.144C229.992 35.144 229.116 34.91 228.396 34.442C227.688 33.974 227.178 33.32 226.866 32.48C226.614 31.88 226.488 31.094 226.488 30.122C226.488 29.462 226.578 28.88 226.758 28.376C227.034 27.524 227.514 26.846 228.198 26.342C228.894 25.838 229.716 25.586 230.664 25.586C231.864 25.586 232.824 25.934 233.544 26.63C234.276 27.326 234.72 28.256 234.876 29.42ZM230.682 27.782C229.926 27.782 229.428 28.136 229.188 28.844C229.14 29 229.098 29.192 229.062 29.42C229.062 29.48 229.092 29.51 229.152 29.51H232.266C232.338 29.51 232.362 29.48 232.338 29.42C232.278 29.072 232.248 28.904 232.248 28.916C232.14 28.556 231.948 28.28 231.672 28.088C231.408 27.884 231.078 27.782 230.682 27.782Z" fill="black"/>
<defs>
<filter id="filter0_d_264_218" x="-4" y="0" width="383" height="65" filterUnits="userSpaceOnUse" color-interpolation-filters="sRGB">
<feFlood flood-opacity="0" result="BackgroundImageFix"/>
<feColorMatrix in="SourceAlpha" type="matrix" values="0 0 0 0 0 0 0 0 0 0 0 0 0 0 0 0 0 0 127 0" result="hardAlpha"/>
<feOffset dy="4"/>
<feGaussianBlur stdDeviation="2"/>
<feComposite in2="hardAlpha" operator="out"/>
<feColorMatrix type="matrix" values="0 0 0 0 0 0 0 0 0 0 0 0 0 0 0 0 0 0 0.25 0"/>
<feBlend mode="normal" in2="BackgroundImageFix" result="effect1_dropShadow_264_218"/>
<feBlend mode="normal" in="SourceGraphic" in2="effect1_dropShadow_264_218" result="shape"/>
</filter>
</defs>
</svg>
