<svg width="375" height="65" viewBox="0 0 375 65" fill="none" xmlns="http://www.w3.org/2000/svg">
<g filter="url(#filter0_d_264_219)">
<rect width="375" height="57" fill="#45A5F8" fill-opacity="0.32" shape-rendering="crispEdges"/>
</g>
<path d="M20.036 41C19.928 41 19.856 40.958 19.82 40.874L17.174 35.294C17.162 35.258 17.138 35.24 17.102 35.24H14.042C13.994 35.24 13.97 35.264 13.97 35.312V40.82C13.97 40.94 13.91 41 13.79 41H12.872C12.752 41 12.692 40.94 12.692 40.82V28.58C12.692 28.46 12.752 28.4 12.872 28.4H17.534C18.566 28.4 19.4 28.724 20.036 29.372C20.672 30.008 20.99 30.842 20.99 31.874C20.99 32.714 20.762 33.428 20.306 34.016C19.85 34.604 19.232 34.982 18.452 35.15C18.404 35.174 18.392 35.204 18.416 35.24L21.116 40.784C21.128 40.808 21.134 40.838 21.134 40.874C21.134 40.958 21.086 41 20.99 41H20.036ZM14.042 29.516C13.994 29.516 13.97 29.54 13.97 29.588V34.142C13.97 34.19 13.994 34.214 14.042 34.214H17.39C18.086 34.214 18.65 33.998 19.082 33.566C19.514 33.134 19.73 32.57 19.73 31.874C19.73 31.178 19.514 30.614 19.082 30.182C18.65 29.738 18.086 29.516 17.39 29.516H14.042ZM30.3928 34.916C30.4408 35.252 30.4648 35.672 30.4648 36.176V36.752C30.4648 36.872 30.4048 36.932 30.2848 36.932H24.4708C24.4228 36.932 24.3988 36.956 24.3988 37.004C24.4228 37.664 24.4588 38.09 24.5068 38.282C24.6388 38.822 24.9208 39.248 25.3528 39.56C25.7848 39.872 26.3368 40.028 27.0088 40.028C27.5128 40.028 27.9568 39.914 28.3408 39.686C28.7248 39.458 29.0248 39.134 29.2408 38.714C29.3128 38.606 29.3968 38.582 29.4928 38.642L30.1948 39.056C30.2908 39.116 30.3148 39.2 30.2668 39.308C29.9668 39.884 29.5168 40.34 28.9168 40.676C28.3168 41 27.6268 41.162 26.8468 41.162C25.9948 41.15 25.2808 40.946 24.7048 40.55C24.1288 40.154 23.7148 39.602 23.4628 38.894C23.2468 38.318 23.1388 37.49 23.1388 36.41C23.1388 35.906 23.1448 35.498 23.1567 35.186C23.1808 34.862 23.2288 34.574 23.3008 34.322C23.5048 33.542 23.9128 32.918 24.5248 32.45C25.1488 31.982 25.8988 31.748 26.7748 31.748C27.8668 31.748 28.7068 32.024 29.2948 32.576C29.8828 33.128 30.2488 33.908 30.3928 34.916ZM26.7748 32.864C26.1868 32.864 25.6948 33.02 25.2988 33.332C24.9148 33.632 24.6628 34.04 24.5428 34.556C24.4708 34.808 24.4228 35.216 24.3988 35.78C24.3988 35.828 24.4228 35.852 24.4708 35.852H29.1328C29.1808 35.852 29.2048 35.828 29.2048 35.78C29.1808 35.24 29.1448 34.856 29.0968 34.628C28.9648 34.088 28.6948 33.662 28.2868 33.35C27.8908 33.026 27.3868 32.864 26.7748 32.864ZM36.4444 41.144C35.5804 41.144 34.8364 40.922 34.2124 40.478C33.6004 40.022 33.1804 39.41 32.9524 38.642C32.7964 38.114 32.7184 37.37 32.7184 36.41C32.7184 35.546 32.7964 34.814 32.9524 34.214C33.1684 33.47 33.5884 32.876 34.2124 32.432C34.8364 31.976 35.5804 31.748 36.4444 31.748C37.3204 31.748 38.0764 31.97 38.7124 32.414C39.3604 32.858 39.7804 33.41 39.9724 34.07C40.0324 34.286 40.0684 34.466 40.0804 34.61V34.646C40.0804 34.73 40.0264 34.784 39.9184 34.808L39.0184 34.934H38.9824C38.8984 34.934 38.8444 34.88 38.8204 34.772L38.7664 34.502C38.6584 34.046 38.3944 33.662 37.9744 33.35C37.5544 33.026 37.0444 32.864 36.4444 32.864C35.8444 32.864 35.3404 33.026 34.9324 33.35C34.5364 33.662 34.2784 34.082 34.1584 34.61C34.0504 35.066 33.9964 35.672 33.9964 36.428C33.9964 37.22 34.0504 37.832 34.1584 38.264C34.2784 38.804 34.5364 39.236 34.9324 39.56C35.3404 39.872 35.8444 40.028 36.4444 40.028C37.0324 40.028 37.5364 39.878 37.9564 39.578C38.3884 39.266 38.6584 38.87 38.7664 38.39V38.318L38.7844 38.246C38.7964 38.126 38.8684 38.078 39.0004 38.102L39.8824 38.246C40.0024 38.27 40.0564 38.336 40.0444 38.444L39.9724 38.804C39.7924 39.5 39.3784 40.064 38.7304 40.496C38.0824 40.928 37.3204 41.144 36.4444 41.144ZM49.2892 34.916C49.3372 35.252 49.3612 35.672 49.3612 36.176V36.752C49.3612 36.872 49.3012 36.932 49.1812 36.932H43.3672C43.3192 36.932 43.2952 36.956 43.2952 37.004C43.3192 37.664 43.3552 38.09 43.4032 38.282C43.5352 38.822 43.8172 39.248 44.2492 39.56C44.6812 39.872 45.2332 40.028 45.9052 40.028C46.4092 40.028 46.8532 39.914 47.2372 39.686C47.6212 39.458 47.9212 39.134 48.1372 38.714C48.2092 38.606 48.2932 38.582 48.3892 38.642L49.0912 39.056C49.1872 39.116 49.2112 39.2 49.1632 39.308C48.8632 39.884 48.4132 40.34 47.8132 40.676C47.2132 41 46.5232 41.162 45.7432 41.162C44.8912 41.15 44.1772 40.946 43.6012 40.55C43.0252 40.154 42.6112 39.602 42.3592 38.894C42.1432 38.318 42.0352 37.49 42.0352 36.41C42.0352 35.906 42.0412 35.498 42.0532 35.186C42.0772 34.862 42.1252 34.574 42.1972 34.322C42.4012 33.542 42.8092 32.918 43.4212 32.45C44.0452 31.982 44.7952 31.748 45.6712 31.748C46.7632 31.748 47.6032 32.024 48.1912 32.576C48.7792 33.128 49.1452 33.908 49.2892 34.916ZM45.6712 32.864C45.0832 32.864 44.5912 33.02 44.1952 33.332C43.8112 33.632 43.5592 34.04 43.4392 34.556C43.3672 34.808 43.3192 35.216 43.2952 35.78C43.2952 35.828 43.3192 35.852 43.3672 35.852H48.0292C48.0772 35.852 48.1012 35.828 48.1012 35.78C48.0772 35.24 48.0412 34.856 47.9932 34.628C47.8612 34.088 47.5912 33.662 47.1832 33.35C46.7872 33.026 46.2832 32.864 45.6712 32.864ZM55.6829 31.766C56.6429 31.766 57.4049 32.048 57.9689 32.612C58.5449 33.176 58.8329 33.932 58.8329 34.88V40.82C58.8329 40.94 58.7729 41 58.6529 41H57.7349C57.6149 41 57.5549 40.94 57.5549 40.82V35.132C57.5549 34.472 57.3509 33.932 56.9429 33.512C56.5469 33.092 56.0309 32.882 55.3949 32.882C54.7349 32.882 54.2009 33.086 53.7929 33.494C53.3849 33.902 53.1809 34.436 53.1809 35.096V40.82C53.1809 40.94 53.1209 41 53.0009 41H52.0829C51.9629 41 51.9029 40.94 51.9029 40.82V32.072C51.9029 31.952 51.9629 31.892 52.0829 31.892H53.0009C53.1209 31.892 53.1809 31.952 53.1809 32.072V32.846C53.1809 32.87 53.1869 32.888 53.1989 32.9C53.2229 32.912 53.2409 32.906 53.2529 32.882C53.7809 32.138 54.5909 31.766 55.6829 31.766ZM65.692 32.774C65.692 32.894 65.632 32.954 65.512 32.954H63.478C63.43 32.954 63.406 32.978 63.406 33.026V38.336C63.406 38.912 63.532 39.32 63.784 39.56C64.048 39.788 64.456 39.902 65.008 39.902H65.458C65.578 39.902 65.638 39.962 65.638 40.082V40.82C65.638 40.94 65.578 41 65.458 41C65.314 41.012 65.092 41.018 64.792 41.018C63.928 41.018 63.274 40.856 62.83 40.532C62.386 40.208 62.164 39.608 62.164 38.732V33.026C62.164 32.978 62.14 32.954 62.092 32.954H60.994C60.874 32.954 60.814 32.894 60.814 32.774V32.072C60.814 31.952 60.874 31.892 60.994 31.892H62.092C62.14 31.892 62.164 31.868 62.164 31.82V29.732C62.164 29.612 62.224 29.552 62.344 29.552H63.226C63.346 29.552 63.406 29.612 63.406 29.732V31.82C63.406 31.868 63.43 31.892 63.478 31.892H65.512C65.632 31.892 65.692 31.952 65.692 32.072V32.774ZM68.3427 41C68.2227 41 68.1627 40.94 68.1627 40.82V28.58C68.1627 28.46 68.2227 28.4 68.3427 28.4H69.2607C69.3807 28.4 69.4407 28.46 69.4407 28.58V40.82C69.4407 40.94 69.3807 41 69.2607 41H68.3427ZM71.8971 44.6C71.8131 44.6 71.7711 44.54 71.7711 44.42V43.7C71.7711 43.58 71.8311 43.52 71.9511 43.52H72.0231C72.4911 43.508 72.8511 43.436 73.1031 43.304C73.3671 43.184 73.5891 42.95 73.7691 42.602C73.9611 42.266 74.1651 41.75 74.3811 41.054C74.4051 41.006 74.4051 40.97 74.3811 40.946L71.3391 32.09L71.3211 32.018C71.3211 31.934 71.3751 31.892 71.4831 31.892H72.4371C72.5451 31.892 72.6171 31.94 72.6531 32.036L74.9931 39.308C75.0051 39.332 75.0231 39.344 75.0471 39.344C75.0711 39.344 75.0891 39.332 75.1011 39.308L77.4051 32.036C77.4411 31.94 77.5131 31.892 77.6211 31.892H78.5571C78.6891 31.892 78.7371 31.958 78.7011 32.09L75.3711 41.792C75.0831 42.596 74.8131 43.19 74.5611 43.574C74.3091 43.958 73.9911 44.222 73.6071 44.366C73.2351 44.522 72.7071 44.6 72.0231 44.6H71.8971ZM86.5335 41C86.4255 41 86.3535 40.952 86.3175 40.856L83.3655 32.09L83.3475 32.018C83.3475 31.934 83.4015 31.892 83.5095 31.892H84.5355C84.6435 31.892 84.7155 31.94 84.7515 32.036L87.0015 39.092C87.0135 39.116 87.0315 39.128 87.0555 39.128C87.0795 39.128 87.0975 39.116 87.1095 39.092L89.3595 32.036C89.3955 31.94 89.4675 31.892 89.5755 31.892L90.6015 31.91C90.7335 31.91 90.7815 31.976 90.7455 32.108L87.7935 40.856C87.7575 40.952 87.6855 41 87.5775 41H86.5335ZM93.6185 30.236C93.3305 30.236 93.0905 30.14 92.8985 29.948C92.7065 29.756 92.6105 29.516 92.6105 29.228C92.6105 28.928 92.7065 28.688 92.8985 28.508C93.0905 28.316 93.3305 28.22 93.6185 28.22C93.9065 28.22 94.1465 28.316 94.3385 28.508C94.5305 28.688 94.6265 28.928 94.6265 29.228C94.6265 29.516 94.5305 29.756 94.3385 29.948C94.1465 30.14 93.9065 30.236 93.6185 30.236ZM93.1145 40.982C92.9945 40.982 92.9345 40.922 92.9345 40.802V32.054C92.9345 31.934 92.9945 31.874 93.1145 31.874H94.0325C94.1525 31.874 94.2125 31.934 94.2125 32.054V40.802C94.2125 40.922 94.1525 40.982 94.0325 40.982H93.1145ZM100.33 41.09C99.6583 41.09 99.0583 40.982 98.5303 40.766C98.0143 40.55 97.6123 40.262 97.3243 39.902C97.0483 39.542 96.9103 39.14 96.9103 38.696V38.48C96.9103 38.36 96.9703 38.3 97.0903 38.3H97.9543C98.0743 38.3 98.1343 38.36 98.1343 38.48V38.624C98.1343 39.02 98.3383 39.368 98.7463 39.668C99.1663 39.956 99.6883 40.1 100.312 40.1C100.936 40.1 101.44 39.962 101.824 39.686C102.208 39.398 102.4 39.038 102.4 38.606C102.4 38.306 102.298 38.06 102.094 37.868C101.902 37.676 101.668 37.526 101.392 37.418C101.128 37.31 100.714 37.172 100.15 37.004C99.4783 36.812 98.9263 36.62 98.4943 36.428C98.0623 36.236 97.6963 35.972 97.3963 35.636C97.1083 35.288 96.9643 34.85 96.9643 34.322C96.9643 33.554 97.2643 32.942 97.8643 32.486C98.4643 32.03 99.2563 31.802 100.24 31.802C100.9 31.802 101.482 31.91 101.986 32.126C102.502 32.342 102.898 32.642 103.174 33.026C103.45 33.398 103.588 33.818 103.588 34.286V34.34C103.588 34.46 103.528 34.52 103.408 34.52H102.562C102.442 34.52 102.382 34.46 102.382 34.34V34.286C102.382 33.878 102.184 33.536 101.788 33.26C101.404 32.984 100.882 32.846 100.222 32.846C99.6103 32.846 99.1183 32.972 98.7463 33.224C98.3743 33.464 98.1883 33.8 98.1883 34.232C98.1883 34.64 98.3683 34.952 98.7283 35.168C99.0883 35.384 99.6463 35.6 100.402 35.816C101.098 36.02 101.662 36.212 102.094 36.392C102.526 36.572 102.898 36.836 103.21 37.184C103.522 37.52 103.678 37.964 103.678 38.516C103.678 39.296 103.372 39.92 102.76 40.388C102.148 40.856 101.338 41.09 100.33 41.09ZM106.872 30.236C106.584 30.236 106.344 30.14 106.152 29.948C105.96 29.756 105.864 29.516 105.864 29.228C105.864 28.928 105.96 28.688 106.152 28.508C106.344 28.316 106.584 28.22 106.872 28.22C107.16 28.22 107.4 28.316 107.592 28.508C107.784 28.688 107.88 28.928 107.88 29.228C107.88 29.516 107.784 29.756 107.592 29.948C107.4 30.14 107.16 30.236 106.872 30.236ZM106.368 40.982C106.248 40.982 106.188 40.922 106.188 40.802V32.054C106.188 31.934 106.248 31.874 106.368 31.874H107.286C107.406 31.874 107.466 31.934 107.466 32.054V40.802C107.466 40.922 107.406 40.982 107.286 40.982H106.368ZM114.682 32.774C114.682 32.894 114.622 32.954 114.502 32.954H112.468C112.42 32.954 112.396 32.978 112.396 33.026V38.336C112.396 38.912 112.522 39.32 112.774 39.56C113.038 39.788 113.446 39.902 113.998 39.902H114.448C114.568 39.902 114.628 39.962 114.628 40.082V40.82C114.628 40.94 114.568 41 114.448 41C114.304 41.012 114.082 41.018 113.782 41.018C112.918 41.018 112.264 40.856 111.82 40.532C111.376 40.208 111.154 39.608 111.154 38.732V33.026C111.154 32.978 111.13 32.954 111.082 32.954H109.984C109.864 32.954 109.804 32.894 109.804 32.774V32.072C109.804 31.952 109.864 31.892 109.984 31.892H111.082C111.13 31.892 111.154 31.868 111.154 31.82V29.732C111.154 29.612 111.214 29.552 111.334 29.552H112.216C112.336 29.552 112.396 29.612 112.396 29.732V31.82C112.396 31.868 112.42 31.892 112.468 31.892H114.502C114.622 31.892 114.682 31.952 114.682 32.072V32.774ZM123.873 34.916C123.921 35.252 123.945 35.672 123.945 36.176V36.752C123.945 36.872 123.885 36.932 123.765 36.932H117.951C117.903 36.932 117.879 36.956 117.879 37.004C117.903 37.664 117.939 38.09 117.987 38.282C118.119 38.822 118.401 39.248 118.833 39.56C119.265 39.872 119.817 40.028 120.489 40.028C120.993 40.028 121.437 39.914 121.821 39.686C122.205 39.458 122.505 39.134 122.721 38.714C122.793 38.606 122.877 38.582 122.973 38.642L123.675 39.056C123.771 39.116 123.795 39.2 123.747 39.308C123.447 39.884 122.997 40.34 122.397 40.676C121.797 41 121.107 41.162 120.327 41.162C119.475 41.15 118.761 40.946 118.185 40.55C117.609 40.154 117.195 39.602 116.943 38.894C116.727 38.318 116.619 37.49 116.619 36.41C116.619 35.906 116.625 35.498 116.637 35.186C116.661 34.862 116.709 34.574 116.781 34.322C116.985 33.542 117.393 32.918 118.005 32.45C118.629 31.982 119.379 31.748 120.255 31.748C121.347 31.748 122.187 32.024 122.775 32.576C123.363 33.128 123.729 33.908 123.873 34.916ZM120.255 32.864C119.667 32.864 119.175 33.02 118.779 33.332C118.395 33.632 118.143 34.04 118.023 34.556C117.951 34.808 117.903 35.216 117.879 35.78C117.879 35.828 117.903 35.852 117.951 35.852H122.613C122.661 35.852 122.685 35.828 122.685 35.78C122.661 35.24 122.625 34.856 122.577 34.628C122.445 34.088 122.175 33.662 121.767 33.35C121.371 33.026 120.867 32.864 120.255 32.864ZM132.139 28.58C132.139 28.46 132.199 28.4 132.319 28.4H133.237C133.357 28.4 133.417 28.46 133.417 28.58V40.82C133.417 40.94 133.357 41 133.237 41H132.319C132.199 41 132.139 40.94 132.139 40.82V40.064C132.139 40.04 132.127 40.028 132.103 40.028C132.091 40.016 132.073 40.022 132.049 40.046C131.785 40.394 131.455 40.664 131.059 40.856C130.675 41.048 130.243 41.144 129.763 41.144C128.923 41.144 128.215 40.928 127.639 40.496C127.075 40.064 126.685 39.476 126.469 38.732C126.301 38.192 126.217 37.43 126.217 36.446C126.217 35.45 126.289 34.706 126.433 34.214C126.649 33.446 127.045 32.846 127.621 32.414C128.197 31.97 128.911 31.748 129.763 31.748C130.231 31.748 130.663 31.844 131.059 32.036C131.455 32.216 131.785 32.48 132.049 32.828C132.073 32.852 132.091 32.864 132.103 32.864C132.127 32.852 132.139 32.834 132.139 32.81V28.58ZM131.815 38.642C131.923 38.402 132.001 38.12 132.049 37.796C132.097 37.472 132.121 37.022 132.121 36.446C132.121 35.87 132.097 35.42 132.049 35.096C132.001 34.76 131.917 34.466 131.797 34.214C131.653 33.806 131.413 33.482 131.077 33.242C130.753 32.99 130.363 32.864 129.907 32.864C129.427 32.864 129.013 32.984 128.665 33.224C128.317 33.464 128.065 33.782 127.909 34.178C127.765 34.442 127.657 34.742 127.585 35.078C127.525 35.402 127.495 35.858 127.495 36.446C127.495 37.01 127.519 37.454 127.567 37.778C127.615 38.09 127.699 38.372 127.819 38.624C127.963 39.056 128.215 39.398 128.575 39.65C128.947 39.902 129.385 40.028 129.889 40.028C130.369 40.028 130.771 39.902 131.095 39.65C131.419 39.398 131.659 39.062 131.815 38.642ZM143.355 41.144C142.491 41.144 141.747 40.922 141.123 40.478C140.511 40.022 140.091 39.41 139.863 38.642C139.707 38.114 139.629 37.37 139.629 36.41C139.629 35.546 139.707 34.814 139.863 34.214C140.079 33.47 140.499 32.876 141.123 32.432C141.747 31.976 142.491 31.748 143.355 31.748C144.231 31.748 144.987 31.97 145.623 32.414C146.271 32.858 146.691 33.41 146.883 34.07C146.943 34.286 146.979 34.466 146.991 34.61V34.646C146.991 34.73 146.937 34.784 146.829 34.808L145.929 34.934H145.893C145.809 34.934 145.755 34.88 145.731 34.772L145.677 34.502C145.569 34.046 145.305 33.662 144.885 33.35C144.465 33.026 143.955 32.864 143.355 32.864C142.755 32.864 142.251 33.026 141.843 33.35C141.447 33.662 141.189 34.082 141.069 34.61C140.961 35.066 140.907 35.672 140.907 36.428C140.907 37.22 140.961 37.832 141.069 38.264C141.189 38.804 141.447 39.236 141.843 39.56C142.251 39.872 142.755 40.028 143.355 40.028C143.943 40.028 144.447 39.878 144.867 39.578C145.299 39.266 145.569 38.87 145.677 38.39V38.318L145.695 38.246C145.707 38.126 145.779 38.078 145.911 38.102L146.793 38.246C146.913 38.27 146.967 38.336 146.955 38.444L146.883 38.804C146.703 39.5 146.289 40.064 145.641 40.496C144.993 40.928 144.231 41.144 143.355 41.144ZM152.689 41.144C151.825 41.144 151.081 40.922 150.457 40.478C149.833 40.034 149.401 39.422 149.161 38.642C148.993 38.09 148.909 37.352 148.909 36.428C148.909 35.504 148.993 34.772 149.161 34.232C149.389 33.464 149.815 32.858 150.439 32.414C151.063 31.97 151.819 31.748 152.707 31.748C153.559 31.748 154.291 31.97 154.903 32.414C155.527 32.858 155.953 33.458 156.181 34.214C156.349 34.73 156.433 35.468 156.433 36.428C156.433 37.4 156.349 38.138 156.181 38.642C155.953 39.422 155.527 40.034 154.903 40.478C154.291 40.922 153.553 41.144 152.689 41.144ZM152.689 40.028C153.265 40.028 153.757 39.872 154.165 39.56C154.573 39.236 154.849 38.804 154.993 38.264C155.101 37.832 155.155 37.226 155.155 36.446C155.155 35.654 155.107 35.048 155.011 34.628C154.867 34.088 154.585 33.662 154.165 33.35C153.757 33.026 153.259 32.864 152.671 32.864C152.083 32.864 151.585 33.026 151.177 33.35C150.769 33.662 150.493 34.088 150.349 34.628C150.253 35.048 150.205 35.654 150.205 36.446C150.205 37.238 150.253 37.844 150.349 38.264C150.481 38.804 150.751 39.236 151.159 39.56C151.579 39.872 152.089 40.028 152.689 40.028ZM164.532 32.072C164.532 31.952 164.592 31.892 164.712 31.892H165.63C165.75 31.892 165.81 31.952 165.81 32.072V40.82C165.81 40.94 165.75 41 165.63 41H164.712C164.592 41 164.532 40.94 164.532 40.82V40.046C164.532 40.022 164.52 40.004 164.496 39.992C164.472 39.98 164.454 39.986 164.442 40.01C163.938 40.754 163.14 41.126 162.048 41.126C161.472 41.126 160.938 41.012 160.446 40.784C159.966 40.544 159.582 40.202 159.294 39.758C159.018 39.314 158.88 38.78 158.88 38.156V32.072C158.88 31.952 158.94 31.892 159.06 31.892H159.978C160.098 31.892 160.158 31.952 160.158 32.072V37.778C160.158 38.462 160.35 39.008 160.734 39.416C161.118 39.812 161.64 40.01 162.3 40.01C162.984 40.01 163.524 39.806 163.92 39.398C164.328 38.99 164.532 38.45 164.532 37.778V32.072ZM172.346 31.802C172.742 31.802 173.084 31.88 173.372 32.036C173.468 32.084 173.504 32.162 173.48 32.27L173.282 33.152C173.246 33.272 173.168 33.308 173.048 33.26C172.844 33.176 172.61 33.134 172.346 33.134L172.112 33.152C171.488 33.176 170.972 33.41 170.564 33.854C170.156 34.286 169.952 34.838 169.952 35.51V40.82C169.952 40.94 169.892 41 169.772 41H168.854C168.734 41 168.674 40.94 168.674 40.82V32.072C168.674 31.952 168.734 31.892 168.854 31.892H169.772C169.892 31.892 169.952 31.952 169.952 32.072V33.17C169.952 33.206 169.958 33.23 169.97 33.242C169.994 33.242 170.012 33.23 170.024 33.206C170.276 32.762 170.594 32.42 170.978 32.18C171.374 31.928 171.83 31.802 172.346 31.802ZM178.166 41.09C177.494 41.09 176.894 40.982 176.366 40.766C175.85 40.55 175.448 40.262 175.16 39.902C174.884 39.542 174.746 39.14 174.746 38.696V38.48C174.746 38.36 174.806 38.3 174.926 38.3H175.79C175.91 38.3 175.97 38.36 175.97 38.48V38.624C175.97 39.02 176.174 39.368 176.582 39.668C177.002 39.956 177.524 40.1 178.148 40.1C178.772 40.1 179.276 39.962 179.66 39.686C180.044 39.398 180.236 39.038 180.236 38.606C180.236 38.306 180.134 38.06 179.93 37.868C179.738 37.676 179.504 37.526 179.228 37.418C178.964 37.31 178.55 37.172 177.986 37.004C177.314 36.812 176.762 36.62 176.33 36.428C175.898 36.236 175.532 35.972 175.232 35.636C174.944 35.288 174.8 34.85 174.8 34.322C174.8 33.554 175.1 32.942 175.7 32.486C176.3 32.03 177.092 31.802 178.076 31.802C178.736 31.802 179.318 31.91 179.822 32.126C180.338 32.342 180.734 32.642 181.01 33.026C181.286 33.398 181.424 33.818 181.424 34.286V34.34C181.424 34.46 181.364 34.52 181.244 34.52H180.398C180.278 34.52 180.218 34.46 180.218 34.34V34.286C180.218 33.878 180.02 33.536 179.624 33.26C179.24 32.984 178.718 32.846 178.058 32.846C177.446 32.846 176.954 32.972 176.582 33.224C176.21 33.464 176.024 33.8 176.024 34.232C176.024 34.64 176.204 34.952 176.564 35.168C176.924 35.384 177.482 35.6 178.238 35.816C178.934 36.02 179.498 36.212 179.93 36.392C180.362 36.572 180.734 36.836 181.046 37.184C181.358 37.52 181.514 37.964 181.514 38.516C181.514 39.296 181.208 39.92 180.596 40.388C179.984 40.856 179.174 41.09 178.166 41.09ZM190.828 34.916C190.876 35.252 190.9 35.672 190.9 36.176V36.752C190.9 36.872 190.84 36.932 190.72 36.932H184.906C184.858 36.932 184.834 36.956 184.834 37.004C184.858 37.664 184.894 38.09 184.942 38.282C185.074 38.822 185.356 39.248 185.788 39.56C186.22 39.872 186.772 40.028 187.444 40.028C187.948 40.028 188.392 39.914 188.776 39.686C189.16 39.458 189.46 39.134 189.676 38.714C189.748 38.606 189.832 38.582 189.928 38.642L190.63 39.056C190.726 39.116 190.75 39.2 190.702 39.308C190.402 39.884 189.952 40.34 189.352 40.676C188.752 41 188.062 41.162 187.282 41.162C186.43 41.15 185.716 40.946 185.14 40.55C184.564 40.154 184.15 39.602 183.898 38.894C183.682 38.318 183.574 37.49 183.574 36.41C183.574 35.906 183.58 35.498 183.592 35.186C183.616 34.862 183.664 34.574 183.736 34.322C183.94 33.542 184.348 32.918 184.96 32.45C185.584 31.982 186.334 31.748 187.21 31.748C188.302 31.748 189.142 32.024 189.73 32.576C190.318 33.128 190.684 33.908 190.828 34.916ZM187.21 32.864C186.622 32.864 186.13 33.02 185.734 33.332C185.35 33.632 185.098 34.04 184.978 34.556C184.906 34.808 184.858 35.216 184.834 35.78C184.834 35.828 184.858 35.852 184.906 35.852H189.568C189.616 35.852 189.64 35.828 189.64 35.78C189.616 35.24 189.58 34.856 189.532 34.628C189.4 34.088 189.13 33.662 188.722 33.35C188.326 33.026 187.822 32.864 187.21 32.864ZM196.272 41.09C195.6 41.09 195 40.982 194.472 40.766C193.956 40.55 193.554 40.262 193.266 39.902C192.99 39.542 192.852 39.14 192.852 38.696V38.48C192.852 38.36 192.912 38.3 193.032 38.3H193.896C194.016 38.3 194.076 38.36 194.076 38.48V38.624C194.076 39.02 194.28 39.368 194.688 39.668C195.108 39.956 195.63 40.1 196.254 40.1C196.878 40.1 197.382 39.962 197.766 39.686C198.15 39.398 198.342 39.038 198.342 38.606C198.342 38.306 198.24 38.06 198.036 37.868C197.844 37.676 197.61 37.526 197.334 37.418C197.07 37.31 196.656 37.172 196.092 37.004C195.42 36.812 194.868 36.62 194.436 36.428C194.004 36.236 193.638 35.972 193.338 35.636C193.05 35.288 192.906 34.85 192.906 34.322C192.906 33.554 193.206 32.942 193.806 32.486C194.406 32.03 195.198 31.802 196.182 31.802C196.842 31.802 197.424 31.91 197.928 32.126C198.444 32.342 198.84 32.642 199.116 33.026C199.392 33.398 199.53 33.818 199.53 34.286V34.34C199.53 34.46 199.47 34.52 199.35 34.52H198.504C198.384 34.52 198.324 34.46 198.324 34.34V34.286C198.324 33.878 198.126 33.536 197.73 33.26C197.346 32.984 196.824 32.846 196.164 32.846C195.552 32.846 195.06 32.972 194.688 33.224C194.316 33.464 194.13 33.8 194.13 34.232C194.13 34.64 194.31 34.952 194.67 35.168C195.03 35.384 195.588 35.6 196.344 35.816C197.04 36.02 197.604 36.212 198.036 36.392C198.468 36.572 198.84 36.836 199.152 37.184C199.464 37.52 199.62 37.964 199.62 38.516C199.62 39.296 199.314 39.92 198.702 40.388C198.09 40.856 197.28 41.09 196.272 41.09Z" fill="black"/>
<defs>
<filter id="filter0_d_264_219" x="-4" y="0" width="383" height="65" filterUnits="userSpaceOnUse" color-interpolation-filters="sRGB">
<feFlood flood-opacity="0" result="BackgroundImageFix"/>
<feColorMatrix in="SourceAlpha" type="matrix" values="0 0 0 0 0 0 0 0 0 0 0 0 0 0 0 0 0 0 127 0" result="hardAlpha"/>
<feOffset dy="4"/>
<feGaussianBlur stdDeviation="2"/>
<feComposite in2="hardAlpha" operator="out"/>
<feColorMatrix type="matrix" values="0 0 0 0 0 0 0 0 0 0 0 0 0 0 0 0 0 0 0.25 0"/>
<feBlend mode="normal" in2="BackgroundImageFix" result="effect1_dropShadow_264_219"/>
<feBlend mode="normal" in="SourceGraphic" in2="effect1_dropShadow_264_219" result="shape"/>
</filter>
</defs>
</svg>
