<svg width="375" height="65" viewBox="0 0 375 65" fill="none" xmlns="http://www.w3.org/2000/svg">
<path d="M13.736 34.794C13.7 34.854 13.712 34.884 13.772 34.884H19.424C19.544 34.884 19.604 34.944 19.604 35.064V35.82C19.604 35.94 19.544 36 19.424 36H12.242C12.122 36 12.062 35.94 12.062 35.82V35.064C12.062 34.98 12.092 34.908 12.152 34.848C12.56 34.368 13.478 33.24 14.906 31.464L16.238 29.808C17.366 28.38 17.93 27.27 17.93 26.478C17.93 25.842 17.714 25.332 17.282 24.948C16.85 24.564 16.286 24.372 15.59 24.372C14.906 24.372 14.354 24.57 13.934 24.966C13.514 25.35 13.31 25.86 13.322 26.496V27.054C13.322 27.174 13.262 27.234 13.142 27.234H12.206C12.086 27.234 12.026 27.174 12.026 27.054V26.334C12.05 25.41 12.392 24.666 13.052 24.102C13.724 23.538 14.57 23.256 15.59 23.256C16.31 23.256 16.946 23.394 17.498 23.67C18.05 23.946 18.476 24.33 18.776 24.822C19.076 25.302 19.226 25.848 19.226 26.46C19.226 27.48 18.662 28.71 17.534 30.15C16.946 30.906 15.812 32.298 14.132 34.326L13.736 34.794ZM23.1344 35.964C22.8344 35.964 22.5884 35.868 22.3964 35.676C22.2164 35.484 22.1264 35.244 22.1264 34.956C22.1264 34.656 22.2164 34.416 22.3964 34.236C22.5884 34.044 22.8344 33.948 23.1344 33.948C23.4224 33.948 23.6624 34.044 23.8544 34.236C24.0464 34.416 24.1424 34.656 24.1424 34.956C24.1424 35.244 24.0464 35.484 23.8544 35.676C23.6624 35.868 23.4224 35.964 23.1344 35.964ZM34.5917 36.144C33.2357 36.144 32.1617 35.838 31.3697 35.226C30.5897 34.614 30.1997 33.798 30.1997 32.778V32.22C30.1997 32.1 30.2597 32.04 30.3797 32.04H31.2617C31.3817 32.04 31.4417 32.1 31.4417 32.22V32.706C31.4417 33.402 31.7297 33.966 32.3057 34.398C32.8817 34.818 33.6797 35.028 34.6997 35.028C35.6237 35.028 36.3257 34.836 36.8057 34.452C37.2857 34.056 37.5257 33.534 37.5257 32.886C37.5257 32.466 37.4117 32.106 37.1837 31.806C36.9677 31.506 36.6257 31.224 36.1577 30.96C35.7017 30.696 35.0537 30.39 34.2137 30.042C33.3137 29.682 32.6117 29.37 32.1077 29.106C31.6157 28.83 31.2137 28.482 30.9017 28.062C30.6017 27.63 30.4517 27.09 30.4517 26.442C30.4517 25.434 30.7997 24.654 31.4957 24.102C32.2037 23.538 33.1697 23.256 34.3937 23.256C35.7257 23.256 36.7757 23.568 37.5437 24.192C38.3117 24.816 38.6957 25.644 38.6957 26.676V27.072C38.6957 27.192 38.6357 27.252 38.5157 27.252H37.6157C37.4957 27.252 37.4357 27.192 37.4357 27.072V26.748C37.4357 26.052 37.1597 25.482 36.6077 25.038C36.0677 24.594 35.3117 24.372 34.3397 24.372C33.4877 24.372 32.8337 24.546 32.3777 24.894C31.9217 25.242 31.6937 25.746 31.6937 26.406C31.6937 26.838 31.8017 27.198 32.0177 27.486C32.2457 27.762 32.5637 28.008 32.9717 28.224C33.3917 28.428 34.0337 28.698 34.8977 29.034C35.7737 29.394 36.4757 29.73 37.0037 30.042C37.5437 30.354 37.9757 30.738 38.2997 31.194C38.6357 31.638 38.8037 32.184 38.8037 32.832C38.8037 33.84 38.4317 34.644 37.6877 35.244C36.9437 35.844 35.9117 36.144 34.5917 36.144ZM48.1994 29.916C48.2474 30.252 48.2714 30.672 48.2714 31.176V31.752C48.2714 31.872 48.2114 31.932 48.0914 31.932H42.2774C42.2294 31.932 42.2054 31.956 42.2054 32.004C42.2294 32.664 42.2654 33.09 42.3134 33.282C42.4454 33.822 42.7274 34.248 43.1594 34.56C43.5914 34.872 44.1434 35.028 44.8154 35.028C45.3194 35.028 45.7634 34.914 46.1474 34.686C46.5314 34.458 46.8314 34.134 47.0474 33.714C47.1194 33.606 47.2034 33.582 47.2994 33.642L48.0014 34.056C48.0974 34.116 48.1214 34.2 48.0734 34.308C47.7734 34.884 47.3234 35.34 46.7234 35.676C46.1234 36 45.4334 36.162 44.6534 36.162C43.8014 36.15 43.0874 35.946 42.5114 35.55C41.9354 35.154 41.5214 34.602 41.2694 33.894C41.0534 33.318 40.9454 32.49 40.9454 31.41C40.9454 30.906 40.9514 30.498 40.9634 30.186C40.9874 29.862 41.0354 29.574 41.1074 29.322C41.3114 28.542 41.7194 27.918 42.3314 27.45C42.9554 26.982 43.7054 26.748 44.5814 26.748C45.6734 26.748 46.5134 27.024 47.1014 27.576C47.6894 28.128 48.0554 28.908 48.1994 29.916ZM44.5814 27.864C43.9934 27.864 43.5014 28.02 43.1054 28.332C42.7214 28.632 42.4694 29.04 42.3494 29.556C42.2774 29.808 42.2294 30.216 42.2054 30.78C42.2054 30.828 42.2294 30.852 42.2774 30.852H46.9394C46.9874 30.852 47.0114 30.828 47.0114 30.78C46.9874 30.24 46.9514 29.856 46.9034 29.628C46.7714 29.088 46.5014 28.662 46.0934 28.35C45.6974 28.026 45.1934 27.864 44.5814 27.864ZM60.029 26.766C60.929 26.766 61.637 27.036 62.153 27.576C62.681 28.116 62.945 28.854 62.945 29.79V35.82C62.945 35.94 62.885 36 62.765 36H61.865C61.745 36 61.685 35.94 61.685 35.82V30.042C61.685 29.382 61.493 28.86 61.109 28.476C60.737 28.08 60.245 27.882 59.633 27.882C58.997 27.882 58.481 28.074 58.085 28.458C57.701 28.842 57.509 29.358 57.509 30.006V35.82C57.509 35.94 57.449 36 57.329 36H56.411C56.291 36 56.231 35.94 56.231 35.82V30.042C56.231 29.382 56.045 28.86 55.673 28.476C55.301 28.08 54.803 27.882 54.179 27.882C53.543 27.882 53.033 28.074 52.649 28.458C52.277 28.842 52.091 29.358 52.091 30.006V35.82C52.091 35.94 52.031 36 51.911 36H50.993C50.873 36 50.813 35.94 50.813 35.82V27.072C50.813 26.952 50.873 26.892 50.993 26.892H51.911C52.031 26.892 52.091 26.952 52.091 27.072V27.792C52.091 27.816 52.097 27.834 52.109 27.846C52.133 27.846 52.157 27.834 52.181 27.81C52.445 27.462 52.781 27.204 53.189 27.036C53.609 26.856 54.071 26.766 54.575 26.766C55.199 26.766 55.733 26.892 56.177 27.144C56.621 27.396 56.957 27.762 57.185 28.242C57.209 28.302 57.239 28.302 57.275 28.242C57.539 27.75 57.911 27.384 58.391 27.144C58.871 26.892 59.417 26.766 60.029 26.766ZM72.5627 29.916C72.6107 30.252 72.6347 30.672 72.6347 31.176V31.752C72.6347 31.872 72.5747 31.932 72.4547 31.932H66.6407C66.5927 31.932 66.5687 31.956 66.5687 32.004C66.5927 32.664 66.6287 33.09 66.6767 33.282C66.8087 33.822 67.0907 34.248 67.5227 34.56C67.9547 34.872 68.5067 35.028 69.1787 35.028C69.6827 35.028 70.1267 34.914 70.5107 34.686C70.8947 34.458 71.1947 34.134 71.4107 33.714C71.4827 33.606 71.5667 33.582 71.6627 33.642L72.3647 34.056C72.4607 34.116 72.4847 34.2 72.4367 34.308C72.1367 34.884 71.6867 35.34 71.0867 35.676C70.4867 36 69.7967 36.162 69.0167 36.162C68.1647 36.15 67.4507 35.946 66.8747 35.55C66.2987 35.154 65.8847 34.602 65.6327 33.894C65.4167 33.318 65.3087 32.49 65.3087 31.41C65.3087 30.906 65.3147 30.498 65.3267 30.186C65.3507 29.862 65.3987 29.574 65.4707 29.322C65.6747 28.542 66.0827 27.918 66.6947 27.45C67.3187 26.982 68.0687 26.748 68.9447 26.748C70.0367 26.748 70.8767 27.024 71.4647 27.576C72.0527 28.128 72.4187 28.908 72.5627 29.916ZM68.9447 27.864C68.3567 27.864 67.8647 28.02 67.4687 28.332C67.0847 28.632 66.8327 29.04 66.7127 29.556C66.6407 29.808 66.5927 30.216 66.5687 30.78C66.5687 30.828 66.5927 30.852 66.6407 30.852H71.3027C71.3507 30.852 71.3747 30.828 71.3747 30.78C71.3507 30.24 71.3147 29.856 71.2667 29.628C71.1347 29.088 70.8647 28.662 70.4567 28.35C70.0607 28.026 69.5567 27.864 68.9447 27.864ZM78.0061 36.09C77.3341 36.09 76.7341 35.982 76.2061 35.766C75.6901 35.55 75.2881 35.262 75.0001 34.902C74.7241 34.542 74.5861 34.14 74.5861 33.696V33.48C74.5861 33.36 74.6461 33.3 74.7661 33.3H75.6301C75.7501 33.3 75.8101 33.36 75.8101 33.48V33.624C75.8101 34.02 76.0141 34.368 76.4221 34.668C76.8421 34.956 77.3641 35.1 77.9881 35.1C78.6121 35.1 79.1161 34.962 79.5001 34.686C79.8841 34.398 80.0761 34.038 80.0761 33.606C80.0761 33.306 79.9741 33.06 79.7701 32.868C79.5781 32.676 79.3441 32.526 79.0681 32.418C78.8041 32.31 78.3901 32.172 77.8261 32.004C77.1541 31.812 76.6021 31.62 76.1701 31.428C75.7381 31.236 75.3721 30.972 75.0721 30.636C74.7841 30.288 74.6401 29.85 74.6401 29.322C74.6401 28.554 74.9401 27.942 75.5401 27.486C76.1401 27.03 76.9321 26.802 77.9161 26.802C78.5761 26.802 79.1581 26.91 79.6621 27.126C80.1781 27.342 80.5741 27.642 80.8501 28.026C81.1261 28.398 81.2641 28.818 81.2641 29.286V29.34C81.2641 29.46 81.2041 29.52 81.0841 29.52H80.2381C80.1181 29.52 80.0581 29.46 80.0581 29.34V29.286C80.0581 28.878 79.8601 28.536 79.4641 28.26C79.0801 27.984 78.5581 27.846 77.8981 27.846C77.2861 27.846 76.7941 27.972 76.4221 28.224C76.0501 28.464 75.8641 28.8 75.8641 29.232C75.8641 29.64 76.0441 29.952 76.4041 30.168C76.7641 30.384 77.3221 30.6 78.0781 30.816C78.7741 31.02 79.3381 31.212 79.7701 31.392C80.2021 31.572 80.5741 31.836 80.8861 32.184C81.1981 32.52 81.3541 32.964 81.3541 33.516C81.3541 34.296 81.0481 34.92 80.4361 35.388C79.8241 35.856 79.0141 36.09 78.0061 36.09ZM87.7526 27.774C87.7526 27.894 87.6926 27.954 87.5726 27.954H85.5386C85.4906 27.954 85.4666 27.978 85.4666 28.026V33.336C85.4666 33.912 85.5926 34.32 85.8446 34.56C86.1086 34.788 86.5166 34.902 87.0686 34.902H87.5186C87.6386 34.902 87.6986 34.962 87.6986 35.082V35.82C87.6986 35.94 87.6386 36 87.5186 36C87.3746 36.012 87.1526 36.018 86.8526 36.018C85.9886 36.018 85.3346 35.856 84.8906 35.532C84.4466 35.208 84.2246 34.608 84.2246 33.732V28.026C84.2246 27.978 84.2006 27.954 84.1526 27.954H83.0546C82.9346 27.954 82.8746 27.894 82.8746 27.774V27.072C82.8746 26.952 82.9346 26.892 83.0546 26.892H84.1526C84.2006 26.892 84.2246 26.868 84.2246 26.82V24.732C84.2246 24.612 84.2846 24.552 84.4046 24.552H85.2866C85.4066 24.552 85.4666 24.612 85.4666 24.732V26.82C85.4666 26.868 85.4906 26.892 85.5386 26.892H87.5726C87.6926 26.892 87.7526 26.952 87.7526 27.072V27.774ZM96.9435 29.916C96.9915 30.252 97.0155 30.672 97.0155 31.176V31.752C97.0155 31.872 96.9555 31.932 96.8355 31.932H91.0215C90.9735 31.932 90.9495 31.956 90.9495 32.004C90.9735 32.664 91.0095 33.09 91.0575 33.282C91.1895 33.822 91.4715 34.248 91.9035 34.56C92.3355 34.872 92.8875 35.028 93.5595 35.028C94.0635 35.028 94.5075 34.914 94.8915 34.686C95.2755 34.458 95.5755 34.134 95.7915 33.714C95.8635 33.606 95.9475 33.582 96.0435 33.642L96.7455 34.056C96.8415 34.116 96.8655 34.2 96.8175 34.308C96.5175 34.884 96.0675 35.34 95.4675 35.676C94.8675 36 94.1775 36.162 93.3975 36.162C92.5455 36.15 91.8315 35.946 91.2555 35.55C90.6795 35.154 90.2655 34.602 90.0135 33.894C89.7975 33.318 89.6895 32.49 89.6895 31.41C89.6895 30.906 89.6955 30.498 89.7075 30.186C89.7315 29.862 89.7795 29.574 89.8515 29.322C90.0555 28.542 90.4635 27.918 91.0755 27.45C91.6995 26.982 92.4495 26.748 93.3255 26.748C94.4175 26.748 95.2575 27.024 95.8455 27.576C96.4335 28.128 96.7995 28.908 96.9435 29.916ZM93.3255 27.864C92.7375 27.864 92.2455 28.02 91.8495 28.332C91.4655 28.632 91.2135 29.04 91.0935 29.556C91.0215 29.808 90.9735 30.216 90.9495 30.78C90.9495 30.828 90.9735 30.852 91.0215 30.852H95.6835C95.7315 30.852 95.7555 30.828 95.7555 30.78C95.7315 30.24 95.6955 29.856 95.6475 29.628C95.5155 29.088 95.2455 28.662 94.8375 28.35C94.4415 28.026 93.9375 27.864 93.3255 27.864ZM103.229 26.802C103.625 26.802 103.967 26.88 104.255 27.036C104.351 27.084 104.387 27.162 104.363 27.27L104.165 28.152C104.129 28.272 104.051 28.308 103.931 28.26C103.727 28.176 103.493 28.134 103.229 28.134L102.995 28.152C102.371 28.176 101.855 28.41 101.447 28.854C101.039 29.286 100.835 29.838 100.835 30.51V35.82C100.835 35.94 100.775 36 100.655 36H99.7372C99.6172 36 99.5572 35.94 99.5572 35.82V27.072C99.5572 26.952 99.6172 26.892 99.7372 26.892H100.655C100.775 26.892 100.835 26.952 100.835 27.072V28.17C100.835 28.206 100.841 28.23 100.853 28.242C100.877 28.242 100.895 28.23 100.907 28.206C101.159 27.762 101.477 27.42 101.861 27.18C102.257 26.928 102.713 26.802 103.229 26.802Z" fill="black"/>
<g filter="url(#filter0_d_264_217)">
<rect width="375" height="57" fill="#45A5F8" fill-opacity="0.32" shape-rendering="crispEdges"/>
</g>
<defs>
<filter id="filter0_d_264_217" x="-4" y="0" width="383" height="65" filterUnits="userSpaceOnUse" color-interpolation-filters="sRGB">
<feFlood flood-opacity="0" result="BackgroundImageFix"/>
<feColorMatrix in="SourceAlpha" type="matrix" values="0 0 0 0 0 0 0 0 0 0 0 0 0 0 0 0 0 0 127 0" result="hardAlpha"/>
<feOffset dy="4"/>
<feGaussianBlur stdDeviation="2"/>
<feComposite in2="hardAlpha" operator="out"/>
<feColorMatrix type="matrix" values="0 0 0 0 0 0 0 0 0 0 0 0 0 0 0 0 0 0 0.25 0"/>
<feBlend mode="normal" in2="BackgroundImageFix" result="effect1_dropShadow_264_217"/>
<feBlend mode="normal" in="SourceGraphic" in2="effect1_dropShadow_264_217" result="shape"/>
</filter>
</defs>
</svg>
