<svg width="375" height="65" viewBox="0 0 375 65" fill="none" xmlns="http://www.w3.org/2000/svg">
<path d="M22.8261 23.436C22.8861 23.412 22.9581 23.4 23.0421 23.4H24.0321C24.1521 23.4 24.2121 23.46 24.2121 23.58V35.82C24.2121 35.94 24.1521 36 24.0321 36H23.1141C22.9941 36 22.9341 35.94 22.9341 35.82V24.876C22.9341 24.852 22.9221 24.834 22.8981 24.822C22.8741 24.798 22.8561 24.792 22.8441 24.804L19.1721 25.92L19.1181 25.938C19.0221 25.938 18.9741 25.878 18.9741 25.758V24.894C18.9741 24.786 19.0221 24.714 19.1181 24.678L22.8261 23.436ZM29.4743 35.964C29.1743 35.964 28.9283 35.868 28.7363 35.676C28.5563 35.484 28.4663 35.244 28.4663 34.956C28.4663 34.656 28.5563 34.416 28.7363 34.236C28.9283 34.044 29.1743 33.948 29.4743 33.948C29.7623 33.948 30.0023 34.044 30.1943 34.236C30.3863 34.416 30.4823 34.656 30.4823 34.956C30.4823 35.244 30.3863 35.484 30.1943 35.676C30.0023 35.868 29.7623 35.964 29.4743 35.964ZM43.328 36.144C41.972 36.144 40.898 35.838 40.106 35.226C39.326 34.614 38.936 33.798 38.936 32.778V32.22C38.936 32.1 38.996 32.04 39.116 32.04H39.998C40.118 32.04 40.178 32.1 40.178 32.22V32.706C40.178 33.402 40.466 33.966 41.042 34.398C41.618 34.818 42.416 35.028 43.436 35.028C44.36 35.028 45.062 34.836 45.542 34.452C46.022 34.056 46.262 33.534 46.262 32.886C46.262 32.466 46.148 32.106 45.92 31.806C45.704 31.506 45.362 31.224 44.894 30.96C44.438 30.696 43.79 30.39 42.95 30.042C42.05 29.682 41.348 29.37 40.844 29.106C40.352 28.83 39.95 28.482 39.638 28.062C39.338 27.63 39.188 27.09 39.188 26.442C39.188 25.434 39.536 24.654 40.232 24.102C40.94 23.538 41.906 23.256 43.13 23.256C44.462 23.256 45.512 23.568 46.28 24.192C47.048 24.816 47.432 25.644 47.432 26.676V27.072C47.432 27.192 47.372 27.252 47.252 27.252H46.352C46.232 27.252 46.172 27.192 46.172 27.072V26.748C46.172 26.052 45.896 25.482 45.344 25.038C44.804 24.594 44.048 24.372 43.076 24.372C42.224 24.372 41.57 24.546 41.114 24.894C40.658 25.242 40.43 25.746 40.43 26.406C40.43 26.838 40.538 27.198 40.754 27.486C40.982 27.762 41.3 28.008 41.708 28.224C42.128 28.428 42.77 28.698 43.634 29.034C44.51 29.394 45.212 29.73 45.74 30.042C46.28 30.354 46.712 30.738 47.036 31.194C47.372 31.638 47.54 32.184 47.54 32.832C47.54 33.84 47.168 34.644 46.424 35.244C45.68 35.844 44.648 36.144 43.328 36.144ZM56.9357 29.916C56.9837 30.252 57.0077 30.672 57.0077 31.176V31.752C57.0077 31.872 56.9477 31.932 56.8277 31.932H51.0137C50.9657 31.932 50.9417 31.956 50.9417 32.004C50.9657 32.664 51.0017 33.09 51.0497 33.282C51.1817 33.822 51.4637 34.248 51.8957 34.56C52.3277 34.872 52.8797 35.028 53.5517 35.028C54.0557 35.028 54.4997 34.914 54.8837 34.686C55.2677 34.458 55.5677 34.134 55.7837 33.714C55.8557 33.606 55.9397 33.582 56.0357 33.642L56.7377 34.056C56.8337 34.116 56.8577 34.2 56.8097 34.308C56.5097 34.884 56.0597 35.34 55.4597 35.676C54.8597 36 54.1697 36.162 53.3897 36.162C52.5377 36.15 51.8237 35.946 51.2477 35.55C50.6717 35.154 50.2577 34.602 50.0057 33.894C49.7897 33.318 49.6817 32.49 49.6817 31.41C49.6817 30.906 49.6877 30.498 49.6997 30.186C49.7237 29.862 49.7717 29.574 49.8437 29.322C50.0477 28.542 50.4557 27.918 51.0677 27.45C51.6917 26.982 52.4417 26.748 53.3177 26.748C54.4097 26.748 55.2497 27.024 55.8377 27.576C56.4257 28.128 56.7917 28.908 56.9357 29.916ZM53.3177 27.864C52.7297 27.864 52.2377 28.02 51.8417 28.332C51.4577 28.632 51.2057 29.04 51.0857 29.556C51.0137 29.808 50.9657 30.216 50.9417 30.78C50.9417 30.828 50.9657 30.852 51.0137 30.852H55.6757C55.7237 30.852 55.7477 30.828 55.7477 30.78C55.7237 30.24 55.6877 29.856 55.6397 29.628C55.5077 29.088 55.2377 28.662 54.8297 28.35C54.4337 28.026 53.9297 27.864 53.3177 27.864ZM68.7654 26.766C69.6654 26.766 70.3734 27.036 70.8894 27.576C71.4174 28.116 71.6814 28.854 71.6814 29.79V35.82C71.6814 35.94 71.6214 36 71.5014 36H70.6014C70.4814 36 70.4214 35.94 70.4214 35.82V30.042C70.4214 29.382 70.2294 28.86 69.8454 28.476C69.4734 28.08 68.9814 27.882 68.3694 27.882C67.7334 27.882 67.2174 28.074 66.8214 28.458C66.4374 28.842 66.2454 29.358 66.2454 30.006V35.82C66.2454 35.94 66.1854 36 66.0654 36H65.1474C65.0274 36 64.9674 35.94 64.9674 35.82V30.042C64.9674 29.382 64.7814 28.86 64.4094 28.476C64.0374 28.08 63.5394 27.882 62.9154 27.882C62.2794 27.882 61.7694 28.074 61.3854 28.458C61.0134 28.842 60.8274 29.358 60.8274 30.006V35.82C60.8274 35.94 60.7674 36 60.6474 36H59.7294C59.6094 36 59.5494 35.94 59.5494 35.82V27.072C59.5494 26.952 59.6094 26.892 59.7294 26.892H60.6474C60.7674 26.892 60.8274 26.952 60.8274 27.072V27.792C60.8274 27.816 60.8334 27.834 60.8454 27.846C60.8694 27.846 60.8934 27.834 60.9174 27.81C61.1814 27.462 61.5174 27.204 61.9254 27.036C62.3454 26.856 62.8074 26.766 63.3114 26.766C63.9354 26.766 64.4694 26.892 64.9134 27.144C65.3574 27.396 65.6934 27.762 65.9214 28.242C65.9454 28.302 65.9754 28.302 66.0114 28.242C66.2754 27.75 66.6474 27.384 67.1274 27.144C67.6074 26.892 68.1534 26.766 68.7654 26.766ZM81.299 29.916C81.347 30.252 81.371 30.672 81.371 31.176V31.752C81.371 31.872 81.311 31.932 81.191 31.932H75.377C75.329 31.932 75.305 31.956 75.305 32.004C75.329 32.664 75.365 33.09 75.413 33.282C75.545 33.822 75.827 34.248 76.259 34.56C76.691 34.872 77.243 35.028 77.915 35.028C78.419 35.028 78.863 34.914 79.247 34.686C79.631 34.458 79.931 34.134 80.147 33.714C80.219 33.606 80.303 33.582 80.399 33.642L81.101 34.056C81.197 34.116 81.221 34.2 81.173 34.308C80.873 34.884 80.423 35.34 79.823 35.676C79.223 36 78.533 36.162 77.753 36.162C76.901 36.15 76.187 35.946 75.611 35.55C75.035 35.154 74.621 34.602 74.369 33.894C74.153 33.318 74.045 32.49 74.045 31.41C74.045 30.906 74.051 30.498 74.063 30.186C74.087 29.862 74.135 29.574 74.207 29.322C74.411 28.542 74.819 27.918 75.431 27.45C76.055 26.982 76.805 26.748 77.681 26.748C78.773 26.748 79.613 27.024 80.201 27.576C80.789 28.128 81.155 28.908 81.299 29.916ZM77.681 27.864C77.093 27.864 76.601 28.02 76.205 28.332C75.821 28.632 75.569 29.04 75.449 29.556C75.377 29.808 75.329 30.216 75.305 30.78C75.305 30.828 75.329 30.852 75.377 30.852H80.039C80.087 30.852 80.111 30.828 80.111 30.78C80.087 30.24 80.051 29.856 80.003 29.628C79.871 29.088 79.601 28.662 79.193 28.35C78.797 28.026 78.293 27.864 77.681 27.864ZM86.7425 36.09C86.0705 36.09 85.4705 35.982 84.9425 35.766C84.4265 35.55 84.0245 35.262 83.7365 34.902C83.4605 34.542 83.3225 34.14 83.3225 33.696V33.48C83.3225 33.36 83.3825 33.3 83.5025 33.3H84.3665C84.4865 33.3 84.5465 33.36 84.5465 33.48V33.624C84.5465 34.02 84.7505 34.368 85.1585 34.668C85.5785 34.956 86.1005 35.1 86.7245 35.1C87.3485 35.1 87.8525 34.962 88.2365 34.686C88.6205 34.398 88.8125 34.038 88.8125 33.606C88.8125 33.306 88.7105 33.06 88.5065 32.868C88.3145 32.676 88.0805 32.526 87.8045 32.418C87.5405 32.31 87.1265 32.172 86.5625 32.004C85.8905 31.812 85.3385 31.62 84.9065 31.428C84.4745 31.236 84.1085 30.972 83.8085 30.636C83.5205 30.288 83.3765 29.85 83.3765 29.322C83.3765 28.554 83.6765 27.942 84.2765 27.486C84.8765 27.03 85.6685 26.802 86.6525 26.802C87.3125 26.802 87.8945 26.91 88.3985 27.126C88.9145 27.342 89.3105 27.642 89.5865 28.026C89.8625 28.398 90.0005 28.818 90.0005 29.286V29.34C90.0005 29.46 89.9405 29.52 89.8205 29.52H88.9745C88.8545 29.52 88.7945 29.46 88.7945 29.34V29.286C88.7945 28.878 88.5965 28.536 88.2005 28.26C87.8165 27.984 87.2945 27.846 86.6345 27.846C86.0225 27.846 85.5305 27.972 85.1585 28.224C84.7865 28.464 84.6005 28.8 84.6005 29.232C84.6005 29.64 84.7805 29.952 85.1405 30.168C85.5005 30.384 86.0585 30.6 86.8145 30.816C87.5105 31.02 88.0745 31.212 88.5065 31.392C88.9385 31.572 89.3105 31.836 89.6225 32.184C89.9345 32.52 90.0905 32.964 90.0905 33.516C90.0905 34.296 89.7845 34.92 89.1725 35.388C88.5605 35.856 87.7505 36.09 86.7425 36.09ZM96.4889 27.774C96.4889 27.894 96.4289 27.954 96.3089 27.954H94.2749C94.2269 27.954 94.2029 27.978 94.2029 28.026V33.336C94.2029 33.912 94.3289 34.32 94.5809 34.56C94.8449 34.788 95.2529 34.902 95.8049 34.902H96.2549C96.3749 34.902 96.4349 34.962 96.4349 35.082V35.82C96.4349 35.94 96.3749 36 96.2549 36C96.1109 36.012 95.8889 36.018 95.5889 36.018C94.7249 36.018 94.0709 35.856 93.6269 35.532C93.1829 35.208 92.9609 34.608 92.9609 33.732V28.026C92.9609 27.978 92.9369 27.954 92.8889 27.954H91.7909C91.6709 27.954 91.6109 27.894 91.6109 27.774V27.072C91.6109 26.952 91.6709 26.892 91.7909 26.892H92.8889C92.9369 26.892 92.9609 26.868 92.9609 26.82V24.732C92.9609 24.612 93.0209 24.552 93.1409 24.552H94.0229C94.1429 24.552 94.2029 24.612 94.2029 24.732V26.82C94.2029 26.868 94.2269 26.892 94.2749 26.892H96.3089C96.4289 26.892 96.4889 26.952 96.4889 27.072V27.774ZM105.68 29.916C105.728 30.252 105.752 30.672 105.752 31.176V31.752C105.752 31.872 105.692 31.932 105.572 31.932H99.7579C99.7099 31.932 99.6859 31.956 99.6859 32.004C99.7099 32.664 99.7459 33.09 99.7939 33.282C99.9259 33.822 100.208 34.248 100.64 34.56C101.072 34.872 101.624 35.028 102.296 35.028C102.8 35.028 103.244 34.914 103.628 34.686C104.012 34.458 104.312 34.134 104.528 33.714C104.6 33.606 104.684 33.582 104.78 33.642L105.482 34.056C105.578 34.116 105.602 34.2 105.554 34.308C105.254 34.884 104.804 35.34 104.204 35.676C103.604 36 102.914 36.162 102.134 36.162C101.282 36.15 100.568 35.946 99.9919 35.55C99.4159 35.154 99.0019 34.602 98.7499 33.894C98.5339 33.318 98.4259 32.49 98.4259 31.41C98.4259 30.906 98.4319 30.498 98.4439 30.186C98.4679 29.862 98.5159 29.574 98.5879 29.322C98.7919 28.542 99.1999 27.918 99.8119 27.45C100.436 26.982 101.186 26.748 102.062 26.748C103.154 26.748 103.994 27.024 104.582 27.576C105.17 28.128 105.536 28.908 105.68 29.916ZM102.062 27.864C101.474 27.864 100.982 28.02 100.586 28.332C100.202 28.632 99.9499 29.04 99.8299 29.556C99.7579 29.808 99.7099 30.216 99.6859 30.78C99.6859 30.828 99.7099 30.852 99.7579 30.852H104.42C104.468 30.852 104.492 30.828 104.492 30.78C104.468 30.24 104.432 29.856 104.384 29.628C104.252 29.088 103.982 28.662 103.574 28.35C103.178 28.026 102.674 27.864 102.062 27.864ZM111.966 26.802C112.362 26.802 112.704 26.88 112.992 27.036C113.088 27.084 113.124 27.162 113.1 27.27L112.902 28.152C112.866 28.272 112.788 28.308 112.668 28.26C112.464 28.176 112.23 28.134 111.966 28.134L111.732 28.152C111.108 28.176 110.592 28.41 110.184 28.854C109.776 29.286 109.572 29.838 109.572 30.51V35.82C109.572 35.94 109.512 36 109.392 36H108.474C108.354 36 108.294 35.94 108.294 35.82V27.072C108.294 26.952 108.354 26.892 108.474 26.892H109.392C109.512 26.892 109.572 26.952 109.572 27.072V28.17C109.572 28.206 109.578 28.23 109.59 28.242C109.614 28.242 109.632 28.23 109.644 28.206C109.896 27.762 110.214 27.42 110.598 27.18C110.994 26.928 111.45 26.802 111.966 26.802Z" fill="black"/>
<g filter="url(#filter0_d_264_231)">
<rect width="375" height="57" fill="#45A5F8" fill-opacity="0.32" shape-rendering="crispEdges"/>
</g>
<defs>
<filter id="filter0_d_264_231" x="-4" y="0" width="383" height="65" filterUnits="userSpaceOnUse" color-interpolation-filters="sRGB">
<feFlood flood-opacity="0" result="BackgroundImageFix"/>
<feColorMatrix in="SourceAlpha" type="matrix" values="0 0 0 0 0 0 0 0 0 0 0 0 0 0 0 0 0 0 127 0" result="hardAlpha"/>
<feOffset dy="4"/>
<feGaussianBlur stdDeviation="2"/>
<feComposite in2="hardAlpha" operator="out"/>
<feColorMatrix type="matrix" values="0 0 0 0 0 0 0 0 0 0 0 0 0 0 0 0 0 0 0.25 0"/>
<feBlend mode="normal" in2="BackgroundImageFix" result="effect1_dropShadow_264_231"/>
<feBlend mode="normal" in="SourceGraphic" in2="effect1_dropShadow_264_231" result="shape"/>
</filter>
</defs>
</svg>
